%TF.GenerationSoftware,KiCad,Pcbnew,(6.0.1)*%
%TF.CreationDate,2023-01-03T01:15:44-07:00*%
%TF.ProjectId,main_board,6d61696e-5f62-46f6-9172-642e6b696361,1.4*%
%TF.SameCoordinates,Original*%
%TF.FileFunction,Soldermask,Top*%
%TF.FilePolarity,Negative*%
%FSLAX46Y46*%
G04 Gerber Fmt 4.6, Leading zero omitted, Abs format (unit mm)*
G04 Created by KiCad (PCBNEW (6.0.1)) date 2023-01-03 01:15:44*
%MOMM*%
%LPD*%
G01*
G04 APERTURE LIST*
G04 Aperture macros list*
%AMRoundRect*
0 Rectangle with rounded corners*
0 $1 Rounding radius*
0 $2 $3 $4 $5 $6 $7 $8 $9 X,Y pos of 4 corners*
0 Add a 4 corners polygon primitive as box body*
4,1,4,$2,$3,$4,$5,$6,$7,$8,$9,$2,$3,0*
0 Add four circle primitives for the rounded corners*
1,1,$1+$1,$2,$3*
1,1,$1+$1,$4,$5*
1,1,$1+$1,$6,$7*
1,1,$1+$1,$8,$9*
0 Add four rect primitives between the rounded corners*
20,1,$1+$1,$2,$3,$4,$5,0*
20,1,$1+$1,$4,$5,$6,$7,0*
20,1,$1+$1,$6,$7,$8,$9,0*
20,1,$1+$1,$8,$9,$2,$3,0*%
%AMFreePoly0*
4,1,22,0.550000,-0.750000,0.000000,-0.750000,0.000000,-0.745033,-0.079941,-0.743568,-0.215256,-0.701293,-0.333266,-0.622738,-0.424486,-0.514219,-0.481581,-0.384460,-0.499164,-0.250000,-0.500000,-0.250000,-0.500000,0.250000,-0.499164,0.250000,-0.499963,0.256109,-0.478152,0.396186,-0.417904,0.524511,-0.324060,0.630769,-0.204165,0.706417,-0.067858,0.745374,0.000000,0.744959,0.000000,0.750000,
0.550000,0.750000,0.550000,-0.750000,0.550000,-0.750000,$1*%
%AMFreePoly1*
4,1,20,0.000000,0.744959,0.073905,0.744508,0.209726,0.703889,0.328688,0.626782,0.421226,0.519385,0.479903,0.390333,0.500000,0.250000,0.500000,-0.250000,0.499851,-0.262216,0.476331,-0.402017,0.414519,-0.529596,0.319384,-0.634700,0.198574,-0.708877,0.061801,-0.746166,0.000000,-0.745033,0.000000,-0.750000,-0.550000,-0.750000,-0.550000,0.750000,0.000000,0.750000,0.000000,0.744959,
0.000000,0.744959,$1*%
G04 Aperture macros list end*
%ADD10RoundRect,0.250001X-0.462499X-0.624999X0.462499X-0.624999X0.462499X0.624999X-0.462499X0.624999X0*%
%ADD11RoundRect,0.250000X-0.350000X-0.450000X0.350000X-0.450000X0.350000X0.450000X-0.350000X0.450000X0*%
%ADD12R,1.560000X0.650000*%
%ADD13C,1.800000*%
%ADD14R,2.500000X2.300000*%
%ADD15RoundRect,0.250000X0.350000X0.450000X-0.350000X0.450000X-0.350000X-0.450000X0.350000X-0.450000X0*%
%ADD16RoundRect,0.250000X-0.625000X0.400000X-0.625000X-0.400000X0.625000X-0.400000X0.625000X0.400000X0*%
%ADD17RoundRect,0.150000X-0.587500X-0.150000X0.587500X-0.150000X0.587500X0.150000X-0.587500X0.150000X0*%
%ADD18R,1.700000X1.700000*%
%ADD19O,1.700000X1.700000*%
%ADD20RoundRect,0.150000X-0.825000X-0.150000X0.825000X-0.150000X0.825000X0.150000X-0.825000X0.150000X0*%
%ADD21RoundRect,0.150000X0.587500X0.150000X-0.587500X0.150000X-0.587500X-0.150000X0.587500X-0.150000X0*%
%ADD22RoundRect,0.250001X-0.624999X0.462499X-0.624999X-0.462499X0.624999X-0.462499X0.624999X0.462499X0*%
%ADD23C,1.000000*%
%ADD24RoundRect,0.250000X0.337500X0.475000X-0.337500X0.475000X-0.337500X-0.475000X0.337500X-0.475000X0*%
%ADD25R,1.000000X1.000000*%
%ADD26O,1.000000X1.000000*%
%ADD27R,2.600000X2.600000*%
%ADD28C,2.600000*%
%ADD29RoundRect,0.250000X-0.475000X0.337500X-0.475000X-0.337500X0.475000X-0.337500X0.475000X0.337500X0*%
%ADD30RoundRect,0.250000X0.625000X-0.400000X0.625000X0.400000X-0.625000X0.400000X-0.625000X-0.400000X0*%
%ADD31R,2.000000X2.000000*%
%ADD32C,2.000000*%
%ADD33RoundRect,0.250000X0.650000X-0.412500X0.650000X0.412500X-0.650000X0.412500X-0.650000X-0.412500X0*%
%ADD34R,0.800000X0.500000*%
%ADD35R,0.800000X0.400000*%
%ADD36RoundRect,0.250000X-0.450000X0.350000X-0.450000X-0.350000X0.450000X-0.350000X0.450000X0.350000X0*%
%ADD37C,2.400000*%
%ADD38R,2.300000X2.500000*%
%ADD39R,0.700000X1.000000*%
%ADD40C,1.600000*%
%ADD41R,1.500000X1.500000*%
%ADD42R,0.650000X1.560000*%
%ADD43RoundRect,0.250001X0.462499X0.624999X-0.462499X0.624999X-0.462499X-0.624999X0.462499X-0.624999X0*%
%ADD44RoundRect,0.250000X0.412500X0.650000X-0.412500X0.650000X-0.412500X-0.650000X0.412500X-0.650000X0*%
%ADD45RoundRect,0.237500X0.237500X-0.300000X0.237500X0.300000X-0.237500X0.300000X-0.237500X-0.300000X0*%
%ADD46FreePoly0,0.000000*%
%ADD47R,1.000000X1.500000*%
%ADD48FreePoly1,0.000000*%
%ADD49R,1.650000X1.650000*%
%ADD50C,1.650000*%
%ADD51C,1.524000*%
%ADD52O,1.600000X1.600000*%
%ADD53C,1.350000*%
%ADD54RoundRect,0.150000X-0.875000X-0.150000X0.875000X-0.150000X0.875000X0.150000X-0.875000X0.150000X0*%
%ADD55RoundRect,0.250000X0.450000X-0.325000X0.450000X0.325000X-0.450000X0.325000X-0.450000X-0.325000X0*%
%ADD56RoundRect,0.250000X-0.650000X0.412500X-0.650000X-0.412500X0.650000X-0.412500X0.650000X0.412500X0*%
%ADD57RoundRect,0.250000X0.475000X-0.337500X0.475000X0.337500X-0.475000X0.337500X-0.475000X-0.337500X0*%
G04 APERTURE END LIST*
D10*
X125317500Y-103310000D03*
X128292500Y-103310000D03*
D11*
X96885000Y-130100000D03*
X98885000Y-130100000D03*
D12*
X110442500Y-134710000D03*
X110442500Y-135660000D03*
X110442500Y-136610000D03*
X113142500Y-136610000D03*
X113142500Y-134710000D03*
D13*
X72255000Y-129150000D03*
X70955000Y-136650000D03*
D14*
X107250000Y-145200000D03*
X102950000Y-145200000D03*
D15*
X112792500Y-140410000D03*
X110792500Y-140410000D03*
D16*
X112817500Y-103275000D03*
X112817500Y-106375000D03*
D17*
X136980000Y-118560000D03*
X136980000Y-120460000D03*
X138855000Y-119510000D03*
D18*
X97910000Y-124760000D03*
D19*
X97910000Y-127300000D03*
D20*
X100517500Y-116735000D03*
X100517500Y-118005000D03*
X100517500Y-119275000D03*
X100517500Y-120545000D03*
X105467500Y-120545000D03*
X105467500Y-119275000D03*
X105467500Y-118005000D03*
X105467500Y-116735000D03*
D21*
X131955000Y-107760000D03*
X131955000Y-105860000D03*
X130080000Y-106810000D03*
D22*
X121950000Y-92887500D03*
X121950000Y-95862500D03*
D23*
X132117500Y-116660000D03*
D24*
X108617500Y-109910000D03*
X106542500Y-109910000D03*
D23*
X122467500Y-103310000D03*
D12*
X103267500Y-125060000D03*
X103267500Y-126010000D03*
X103267500Y-126960000D03*
X105967500Y-126960000D03*
X105967500Y-125060000D03*
D25*
X138800000Y-129400000D03*
D26*
X138800000Y-128130000D03*
X138800000Y-126860000D03*
D23*
X108092500Y-140410000D03*
D18*
X128200000Y-132125000D03*
D19*
X128200000Y-134665000D03*
X125660000Y-132125000D03*
X125660000Y-134665000D03*
X123120000Y-132125000D03*
X123120000Y-134665000D03*
D27*
X123800000Y-150100000D03*
D28*
X123800000Y-145020000D03*
D23*
X106000000Y-129400000D03*
D29*
X100900000Y-124972500D03*
X100900000Y-127047500D03*
D18*
X135330000Y-136935000D03*
D19*
X137870000Y-136935000D03*
X135330000Y-139475000D03*
X137870000Y-139475000D03*
X135330000Y-142015000D03*
X137870000Y-142015000D03*
X135330000Y-144555000D03*
X137870000Y-144555000D03*
X135330000Y-147095000D03*
X137870000Y-147095000D03*
D30*
X110442500Y-131960000D03*
X110442500Y-128860000D03*
D31*
X65892500Y-96357500D03*
D32*
X65892500Y-86357500D03*
X78392500Y-96357500D03*
X78392500Y-86357500D03*
D33*
X115817500Y-136272500D03*
X115817500Y-133147500D03*
D34*
X125367500Y-118335000D03*
D35*
X125367500Y-117535000D03*
X125367500Y-116735000D03*
D34*
X125367500Y-115935000D03*
X123567500Y-115935000D03*
D35*
X123567500Y-116735000D03*
X123567500Y-117535000D03*
D34*
X123567500Y-118335000D03*
D36*
X94900000Y-125010000D03*
X94900000Y-127010000D03*
D33*
X113750000Y-100812500D03*
X113750000Y-97687500D03*
D37*
X81600000Y-147900000D03*
X86600000Y-147900000D03*
D23*
X105492500Y-114710000D03*
D20*
X129042500Y-124180000D03*
X129042500Y-125450000D03*
X129042500Y-126720000D03*
X129042500Y-127990000D03*
X133992500Y-127990000D03*
X133992500Y-126720000D03*
X133992500Y-125450000D03*
X133992500Y-124180000D03*
D38*
X126900000Y-95850000D03*
X126900000Y-91550000D03*
D15*
X132267500Y-110310000D03*
X130267500Y-110310000D03*
D39*
X136117500Y-105910000D03*
X135167500Y-105910000D03*
X134217500Y-105910000D03*
X134217500Y-108310000D03*
X136117500Y-108310000D03*
D33*
X113017500Y-131972500D03*
X113017500Y-128847500D03*
D40*
X133850000Y-96300000D03*
X131350000Y-96300000D03*
D41*
X97200000Y-134200000D03*
X105000000Y-134200000D03*
D17*
X113895000Y-92425000D03*
X113895000Y-94325000D03*
X115770000Y-93375000D03*
D37*
X78100000Y-119600000D03*
X63100000Y-119600000D03*
D17*
X114062500Y-145550000D03*
X114062500Y-147450000D03*
X115937500Y-146500000D03*
D38*
X138600000Y-96300000D03*
X138600000Y-92000000D03*
D10*
X115605000Y-140410000D03*
X118580000Y-140410000D03*
D42*
X116300000Y-100600000D03*
X117250000Y-100600000D03*
X118200000Y-100600000D03*
X118200000Y-97900000D03*
X116300000Y-97900000D03*
D14*
X98150000Y-103200000D03*
X102450000Y-103200000D03*
D43*
X130387500Y-112600000D03*
X127412500Y-112600000D03*
D44*
X133980000Y-122110000D03*
X130855000Y-122110000D03*
D45*
X107992500Y-118460000D03*
X107992500Y-116735000D03*
D37*
X76300000Y-79200000D03*
X76300000Y-64200000D03*
D18*
X70750000Y-64225000D03*
D46*
X126100000Y-140400000D03*
D47*
X127400000Y-140400000D03*
D48*
X128700000Y-140400000D03*
D27*
X105737500Y-97520000D03*
D28*
X105737500Y-92440000D03*
D34*
X123567500Y-122510000D03*
D35*
X123567500Y-123310000D03*
X123567500Y-124110000D03*
D34*
X123567500Y-124910000D03*
X125367500Y-124910000D03*
D35*
X125367500Y-124110000D03*
X125367500Y-123310000D03*
D34*
X125367500Y-122510000D03*
D37*
X65200000Y-64200000D03*
X65200000Y-79200000D03*
D49*
X104885000Y-65840000D03*
D50*
X99805000Y-65840000D03*
X94725000Y-86160000D03*
X104885000Y-86160000D03*
D49*
X131285000Y-65840000D03*
D50*
X126205000Y-65840000D03*
X121125000Y-86160000D03*
X131285000Y-86160000D03*
D36*
X122717500Y-106732500D03*
X122717500Y-108732500D03*
D51*
X84100000Y-90100000D03*
X84100000Y-97600000D03*
D40*
X65720000Y-113300000D03*
D52*
X75880000Y-113300000D03*
D15*
X136117500Y-110310000D03*
X134117500Y-110310000D03*
D44*
X113892500Y-109910000D03*
X110767500Y-109910000D03*
D11*
X102250000Y-137400000D03*
X104250000Y-137400000D03*
D36*
X121950000Y-98250000D03*
X121950000Y-100250000D03*
D24*
X112842500Y-112210000D03*
X110767500Y-112210000D03*
D53*
X67400000Y-108500000D03*
X67400000Y-101000000D03*
D54*
X110767500Y-114195000D03*
X110767500Y-115465000D03*
X110767500Y-116735000D03*
X110767500Y-118005000D03*
X110767500Y-119275000D03*
X110767500Y-120545000D03*
X110767500Y-121815000D03*
X110767500Y-123085000D03*
X110767500Y-124355000D03*
X110767500Y-125625000D03*
X120067500Y-125625000D03*
X120067500Y-124355000D03*
X120067500Y-123085000D03*
X120067500Y-121815000D03*
X120067500Y-120545000D03*
X120067500Y-119275000D03*
X120067500Y-118005000D03*
X120067500Y-116735000D03*
X120067500Y-115465000D03*
X120067500Y-114195000D03*
D33*
X97917500Y-119860000D03*
X97917500Y-116735000D03*
D51*
X97000000Y-92100000D03*
X94460000Y-92100000D03*
D55*
X124817500Y-108735000D03*
X124817500Y-106685000D03*
D56*
X116017500Y-103262500D03*
X116017500Y-106387500D03*
D51*
X133850000Y-90800000D03*
X131310000Y-90800000D03*
D57*
X95567500Y-118810000D03*
X95567500Y-116735000D03*
D24*
X99987500Y-137400000D03*
X97912500Y-137400000D03*
D27*
X81405000Y-137985000D03*
D28*
X81405000Y-132905000D03*
X81405000Y-127825000D03*
D57*
X136117500Y-103260000D03*
X136117500Y-101185000D03*
D18*
X102725000Y-108700000D03*
D19*
X102725000Y-111240000D03*
X100185000Y-108700000D03*
X100185000Y-111240000D03*
X97645000Y-108700000D03*
X97645000Y-111240000D03*
D40*
X96700000Y-97300000D03*
X94200000Y-97300000D03*
D24*
X136117500Y-112410000D03*
X134042500Y-112410000D03*
M02*
