%TF.GenerationSoftware,KiCad,Pcbnew,(6.0.1)*%
%TF.CreationDate,2023-01-03T01:15:44-07:00*%
%TF.ProjectId,main_board,6d61696e-5f62-46f6-9172-642e6b696361,1.4*%
%TF.SameCoordinates,Original*%
%TF.FileFunction,Copper,L1,Top*%
%TF.FilePolarity,Positive*%
%FSLAX46Y46*%
G04 Gerber Fmt 4.6, Leading zero omitted, Abs format (unit mm)*
G04 Created by KiCad (PCBNEW (6.0.1)) date 2023-01-03 01:15:44*
%MOMM*%
%LPD*%
G01*
G04 APERTURE LIST*
G04 Aperture macros list*
%AMRoundRect*
0 Rectangle with rounded corners*
0 $1 Rounding radius*
0 $2 $3 $4 $5 $6 $7 $8 $9 X,Y pos of 4 corners*
0 Add a 4 corners polygon primitive as box body*
4,1,4,$2,$3,$4,$5,$6,$7,$8,$9,$2,$3,0*
0 Add four circle primitives for the rounded corners*
1,1,$1+$1,$2,$3*
1,1,$1+$1,$4,$5*
1,1,$1+$1,$6,$7*
1,1,$1+$1,$8,$9*
0 Add four rect primitives between the rounded corners*
20,1,$1+$1,$2,$3,$4,$5,0*
20,1,$1+$1,$4,$5,$6,$7,0*
20,1,$1+$1,$6,$7,$8,$9,0*
20,1,$1+$1,$8,$9,$2,$3,0*%
%AMFreePoly0*
4,1,22,0.550000,-0.750000,0.000000,-0.750000,0.000000,-0.745033,-0.079941,-0.743568,-0.215256,-0.701293,-0.333266,-0.622738,-0.424486,-0.514219,-0.481581,-0.384460,-0.499164,-0.250000,-0.500000,-0.250000,-0.500000,0.250000,-0.499164,0.250000,-0.499963,0.256109,-0.478152,0.396186,-0.417904,0.524511,-0.324060,0.630769,-0.204165,0.706417,-0.067858,0.745374,0.000000,0.744959,0.000000,0.750000,
0.550000,0.750000,0.550000,-0.750000,0.550000,-0.750000,$1*%
%AMFreePoly1*
4,1,20,0.000000,0.744959,0.073905,0.744508,0.209726,0.703889,0.328688,0.626782,0.421226,0.519385,0.479903,0.390333,0.500000,0.250000,0.500000,-0.250000,0.499851,-0.262216,0.476331,-0.402017,0.414519,-0.529596,0.319384,-0.634700,0.198574,-0.708877,0.061801,-0.746166,0.000000,-0.745033,0.000000,-0.750000,-0.550000,-0.750000,-0.550000,0.750000,0.000000,0.750000,0.000000,0.744959,
0.000000,0.744959,$1*%
G04 Aperture macros list end*
%TA.AperFunction,SMDPad,CuDef*%
%ADD10RoundRect,0.250001X-0.462499X-0.624999X0.462499X-0.624999X0.462499X0.624999X-0.462499X0.624999X0*%
%TD*%
%TA.AperFunction,SMDPad,CuDef*%
%ADD11RoundRect,0.250000X-0.350000X-0.450000X0.350000X-0.450000X0.350000X0.450000X-0.350000X0.450000X0*%
%TD*%
%TA.AperFunction,SMDPad,CuDef*%
%ADD12R,1.560000X0.650000*%
%TD*%
%TA.AperFunction,ComponentPad*%
%ADD13C,1.800000*%
%TD*%
%TA.AperFunction,SMDPad,CuDef*%
%ADD14R,2.500000X2.300000*%
%TD*%
%TA.AperFunction,SMDPad,CuDef*%
%ADD15RoundRect,0.250000X0.350000X0.450000X-0.350000X0.450000X-0.350000X-0.450000X0.350000X-0.450000X0*%
%TD*%
%TA.AperFunction,SMDPad,CuDef*%
%ADD16RoundRect,0.250000X-0.625000X0.400000X-0.625000X-0.400000X0.625000X-0.400000X0.625000X0.400000X0*%
%TD*%
%TA.AperFunction,SMDPad,CuDef*%
%ADD17RoundRect,0.150000X-0.587500X-0.150000X0.587500X-0.150000X0.587500X0.150000X-0.587500X0.150000X0*%
%TD*%
%TA.AperFunction,ComponentPad*%
%ADD18R,1.700000X1.700000*%
%TD*%
%TA.AperFunction,ComponentPad*%
%ADD19O,1.700000X1.700000*%
%TD*%
%TA.AperFunction,SMDPad,CuDef*%
%ADD20RoundRect,0.150000X-0.825000X-0.150000X0.825000X-0.150000X0.825000X0.150000X-0.825000X0.150000X0*%
%TD*%
%TA.AperFunction,SMDPad,CuDef*%
%ADD21RoundRect,0.150000X0.587500X0.150000X-0.587500X0.150000X-0.587500X-0.150000X0.587500X-0.150000X0*%
%TD*%
%TA.AperFunction,SMDPad,CuDef*%
%ADD22RoundRect,0.250001X-0.624999X0.462499X-0.624999X-0.462499X0.624999X-0.462499X0.624999X0.462499X0*%
%TD*%
%TA.AperFunction,SMDPad,CuDef*%
%ADD23C,1.000000*%
%TD*%
%TA.AperFunction,SMDPad,CuDef*%
%ADD24RoundRect,0.250000X0.337500X0.475000X-0.337500X0.475000X-0.337500X-0.475000X0.337500X-0.475000X0*%
%TD*%
%TA.AperFunction,ComponentPad*%
%ADD25R,1.000000X1.000000*%
%TD*%
%TA.AperFunction,ComponentPad*%
%ADD26O,1.000000X1.000000*%
%TD*%
%TA.AperFunction,ComponentPad*%
%ADD27R,2.600000X2.600000*%
%TD*%
%TA.AperFunction,ComponentPad*%
%ADD28C,2.600000*%
%TD*%
%TA.AperFunction,SMDPad,CuDef*%
%ADD29RoundRect,0.250000X-0.475000X0.337500X-0.475000X-0.337500X0.475000X-0.337500X0.475000X0.337500X0*%
%TD*%
%TA.AperFunction,SMDPad,CuDef*%
%ADD30RoundRect,0.250000X0.625000X-0.400000X0.625000X0.400000X-0.625000X0.400000X-0.625000X-0.400000X0*%
%TD*%
%TA.AperFunction,ComponentPad*%
%ADD31R,2.000000X2.000000*%
%TD*%
%TA.AperFunction,ComponentPad*%
%ADD32C,2.000000*%
%TD*%
%TA.AperFunction,SMDPad,CuDef*%
%ADD33RoundRect,0.250000X0.650000X-0.412500X0.650000X0.412500X-0.650000X0.412500X-0.650000X-0.412500X0*%
%TD*%
%TA.AperFunction,SMDPad,CuDef*%
%ADD34R,0.800000X0.500000*%
%TD*%
%TA.AperFunction,SMDPad,CuDef*%
%ADD35R,0.800000X0.400000*%
%TD*%
%TA.AperFunction,SMDPad,CuDef*%
%ADD36RoundRect,0.250000X-0.450000X0.350000X-0.450000X-0.350000X0.450000X-0.350000X0.450000X0.350000X0*%
%TD*%
%TA.AperFunction,ComponentPad*%
%ADD37C,2.400000*%
%TD*%
%TA.AperFunction,SMDPad,CuDef*%
%ADD38R,2.300000X2.500000*%
%TD*%
%TA.AperFunction,SMDPad,CuDef*%
%ADD39R,0.700000X1.000000*%
%TD*%
%TA.AperFunction,ComponentPad*%
%ADD40C,1.600000*%
%TD*%
%TA.AperFunction,SMDPad,CuDef*%
%ADD41R,1.500000X1.500000*%
%TD*%
%TA.AperFunction,SMDPad,CuDef*%
%ADD42R,0.650000X1.560000*%
%TD*%
%TA.AperFunction,SMDPad,CuDef*%
%ADD43RoundRect,0.250001X0.462499X0.624999X-0.462499X0.624999X-0.462499X-0.624999X0.462499X-0.624999X0*%
%TD*%
%TA.AperFunction,SMDPad,CuDef*%
%ADD44RoundRect,0.250000X0.412500X0.650000X-0.412500X0.650000X-0.412500X-0.650000X0.412500X-0.650000X0*%
%TD*%
%TA.AperFunction,SMDPad,CuDef*%
%ADD45RoundRect,0.237500X0.237500X-0.300000X0.237500X0.300000X-0.237500X0.300000X-0.237500X-0.300000X0*%
%TD*%
%TA.AperFunction,SMDPad,CuDef*%
%ADD46FreePoly0,0.000000*%
%TD*%
%TA.AperFunction,SMDPad,CuDef*%
%ADD47R,1.000000X1.500000*%
%TD*%
%TA.AperFunction,SMDPad,CuDef*%
%ADD48FreePoly1,0.000000*%
%TD*%
%TA.AperFunction,ComponentPad*%
%ADD49R,1.650000X1.650000*%
%TD*%
%TA.AperFunction,ComponentPad*%
%ADD50C,1.650000*%
%TD*%
%TA.AperFunction,ComponentPad*%
%ADD51C,1.524000*%
%TD*%
%TA.AperFunction,ComponentPad*%
%ADD52O,1.600000X1.600000*%
%TD*%
%TA.AperFunction,ComponentPad*%
%ADD53C,1.350000*%
%TD*%
%TA.AperFunction,SMDPad,CuDef*%
%ADD54RoundRect,0.150000X-0.875000X-0.150000X0.875000X-0.150000X0.875000X0.150000X-0.875000X0.150000X0*%
%TD*%
%TA.AperFunction,SMDPad,CuDef*%
%ADD55RoundRect,0.250000X0.450000X-0.325000X0.450000X0.325000X-0.450000X0.325000X-0.450000X-0.325000X0*%
%TD*%
%TA.AperFunction,SMDPad,CuDef*%
%ADD56RoundRect,0.250000X-0.650000X0.412500X-0.650000X-0.412500X0.650000X-0.412500X0.650000X0.412500X0*%
%TD*%
%TA.AperFunction,SMDPad,CuDef*%
%ADD57RoundRect,0.250000X0.475000X-0.337500X0.475000X0.337500X-0.475000X0.337500X-0.475000X-0.337500X0*%
%TD*%
%TA.AperFunction,ViaPad*%
%ADD58C,0.800000*%
%TD*%
%TA.AperFunction,Conductor*%
%ADD59C,0.500000*%
%TD*%
%TA.AperFunction,Conductor*%
%ADD60C,0.200000*%
%TD*%
%TA.AperFunction,Conductor*%
%ADD61C,1.000000*%
%TD*%
%TA.AperFunction,Conductor*%
%ADD62C,0.250000*%
%TD*%
%TA.AperFunction,Conductor*%
%ADD63C,0.150000*%
%TD*%
G04 APERTURE END LIST*
D10*
X125317500Y-103310000D03*
X128292500Y-103310000D03*
D11*
X96885000Y-130100000D03*
X98885000Y-130100000D03*
D12*
X110442500Y-134710000D03*
X110442500Y-135660000D03*
X110442500Y-136610000D03*
X113142500Y-136610000D03*
X113142500Y-134710000D03*
D13*
X72255000Y-129150000D03*
X70955000Y-136650000D03*
D14*
X107250000Y-145200000D03*
X102950000Y-145200000D03*
D15*
X112792500Y-140410000D03*
X110792500Y-140410000D03*
D16*
X112817500Y-103275000D03*
X112817500Y-106375000D03*
D17*
X136980000Y-118560000D03*
X136980000Y-120460000D03*
X138855000Y-119510000D03*
D18*
X97910000Y-124760000D03*
D19*
X97910000Y-127300000D03*
D20*
X100517500Y-116735000D03*
X100517500Y-118005000D03*
X100517500Y-119275000D03*
X100517500Y-120545000D03*
X105467500Y-120545000D03*
X105467500Y-119275000D03*
X105467500Y-118005000D03*
X105467500Y-116735000D03*
D21*
X131955000Y-107760000D03*
X131955000Y-105860000D03*
X130080000Y-106810000D03*
D22*
X121950000Y-92887500D03*
X121950000Y-95862500D03*
D23*
X132117500Y-116660000D03*
D24*
X108617500Y-109910000D03*
X106542500Y-109910000D03*
D23*
X122467500Y-103310000D03*
D12*
X103267500Y-125060000D03*
X103267500Y-126010000D03*
X103267500Y-126960000D03*
X105967500Y-126960000D03*
X105967500Y-125060000D03*
D25*
X138800000Y-129400000D03*
D26*
X138800000Y-128130000D03*
X138800000Y-126860000D03*
D23*
X108092500Y-140410000D03*
D18*
X128200000Y-132125000D03*
D19*
X128200000Y-134665000D03*
X125660000Y-132125000D03*
X125660000Y-134665000D03*
X123120000Y-132125000D03*
X123120000Y-134665000D03*
D27*
X123800000Y-150100000D03*
D28*
X123800000Y-145020000D03*
D23*
X106000000Y-129400000D03*
D29*
X100900000Y-124972500D03*
X100900000Y-127047500D03*
D18*
X135330000Y-136935000D03*
D19*
X137870000Y-136935000D03*
X135330000Y-139475000D03*
X137870000Y-139475000D03*
X135330000Y-142015000D03*
X137870000Y-142015000D03*
X135330000Y-144555000D03*
X137870000Y-144555000D03*
X135330000Y-147095000D03*
X137870000Y-147095000D03*
D30*
X110442500Y-131960000D03*
X110442500Y-128860000D03*
D31*
X65892500Y-96357500D03*
D32*
X65892500Y-86357500D03*
X78392500Y-96357500D03*
X78392500Y-86357500D03*
D33*
X115817500Y-136272500D03*
X115817500Y-133147500D03*
D34*
X125367500Y-118335000D03*
D35*
X125367500Y-117535000D03*
X125367500Y-116735000D03*
D34*
X125367500Y-115935000D03*
X123567500Y-115935000D03*
D35*
X123567500Y-116735000D03*
X123567500Y-117535000D03*
D34*
X123567500Y-118335000D03*
D36*
X94900000Y-125010000D03*
X94900000Y-127010000D03*
D33*
X113750000Y-100812500D03*
X113750000Y-97687500D03*
D37*
X81600000Y-147900000D03*
X86600000Y-147900000D03*
D23*
X105492500Y-114710000D03*
D20*
X129042500Y-124180000D03*
X129042500Y-125450000D03*
X129042500Y-126720000D03*
X129042500Y-127990000D03*
X133992500Y-127990000D03*
X133992500Y-126720000D03*
X133992500Y-125450000D03*
X133992500Y-124180000D03*
D38*
X126900000Y-95850000D03*
X126900000Y-91550000D03*
D15*
X132267500Y-110310000D03*
X130267500Y-110310000D03*
D39*
X136117500Y-105910000D03*
X135167500Y-105910000D03*
X134217500Y-105910000D03*
X134217500Y-108310000D03*
X136117500Y-108310000D03*
D33*
X113017500Y-131972500D03*
X113017500Y-128847500D03*
D40*
X133850000Y-96300000D03*
X131350000Y-96300000D03*
D41*
X97200000Y-134200000D03*
X105000000Y-134200000D03*
D17*
X113895000Y-92425000D03*
X113895000Y-94325000D03*
X115770000Y-93375000D03*
D37*
X78100000Y-119600000D03*
X63100000Y-119600000D03*
D17*
X114062500Y-145550000D03*
X114062500Y-147450000D03*
X115937500Y-146500000D03*
D38*
X138600000Y-96300000D03*
X138600000Y-92000000D03*
D10*
X115605000Y-140410000D03*
X118580000Y-140410000D03*
D42*
X116300000Y-100600000D03*
X117250000Y-100600000D03*
X118200000Y-100600000D03*
X118200000Y-97900000D03*
X116300000Y-97900000D03*
D14*
X98150000Y-103200000D03*
X102450000Y-103200000D03*
D43*
X130387500Y-112600000D03*
X127412500Y-112600000D03*
D44*
X133980000Y-122110000D03*
X130855000Y-122110000D03*
D45*
X107992500Y-118460000D03*
X107992500Y-116735000D03*
D37*
X76300000Y-79200000D03*
X76300000Y-64200000D03*
D18*
X70750000Y-64225000D03*
D46*
X126100000Y-140400000D03*
D47*
X127400000Y-140400000D03*
D48*
X128700000Y-140400000D03*
D27*
X105737500Y-97520000D03*
D28*
X105737500Y-92440000D03*
D34*
X123567500Y-122510000D03*
D35*
X123567500Y-123310000D03*
X123567500Y-124110000D03*
D34*
X123567500Y-124910000D03*
X125367500Y-124910000D03*
D35*
X125367500Y-124110000D03*
X125367500Y-123310000D03*
D34*
X125367500Y-122510000D03*
D37*
X65200000Y-64200000D03*
X65200000Y-79200000D03*
D49*
X104885000Y-65840000D03*
D50*
X99805000Y-65840000D03*
X94725000Y-86160000D03*
X104885000Y-86160000D03*
D49*
X131285000Y-65840000D03*
D50*
X126205000Y-65840000D03*
X121125000Y-86160000D03*
X131285000Y-86160000D03*
D36*
X122717500Y-106732500D03*
X122717500Y-108732500D03*
D51*
X84100000Y-90100000D03*
X84100000Y-97600000D03*
D40*
X65720000Y-113300000D03*
D52*
X75880000Y-113300000D03*
D15*
X136117500Y-110310000D03*
X134117500Y-110310000D03*
D44*
X113892500Y-109910000D03*
X110767500Y-109910000D03*
D11*
X102250000Y-137400000D03*
X104250000Y-137400000D03*
D36*
X121950000Y-98250000D03*
X121950000Y-100250000D03*
D24*
X112842500Y-112210000D03*
X110767500Y-112210000D03*
D53*
X67400000Y-108500000D03*
X67400000Y-101000000D03*
D54*
X110767500Y-114195000D03*
X110767500Y-115465000D03*
X110767500Y-116735000D03*
X110767500Y-118005000D03*
X110767500Y-119275000D03*
X110767500Y-120545000D03*
X110767500Y-121815000D03*
X110767500Y-123085000D03*
X110767500Y-124355000D03*
X110767500Y-125625000D03*
X120067500Y-125625000D03*
X120067500Y-124355000D03*
X120067500Y-123085000D03*
X120067500Y-121815000D03*
X120067500Y-120545000D03*
X120067500Y-119275000D03*
X120067500Y-118005000D03*
X120067500Y-116735000D03*
X120067500Y-115465000D03*
X120067500Y-114195000D03*
D33*
X97917500Y-119860000D03*
X97917500Y-116735000D03*
D51*
X97000000Y-92100000D03*
X94460000Y-92100000D03*
D55*
X124817500Y-108735000D03*
X124817500Y-106685000D03*
D56*
X116017500Y-103262500D03*
X116017500Y-106387500D03*
D51*
X133850000Y-90800000D03*
X131310000Y-90800000D03*
D57*
X95567500Y-118810000D03*
X95567500Y-116735000D03*
D24*
X99987500Y-137400000D03*
X97912500Y-137400000D03*
D27*
X81405000Y-137985000D03*
D28*
X81405000Y-132905000D03*
X81405000Y-127825000D03*
D57*
X136117500Y-103260000D03*
X136117500Y-101185000D03*
D18*
X102725000Y-108700000D03*
D19*
X102725000Y-111240000D03*
X100185000Y-108700000D03*
X100185000Y-111240000D03*
X97645000Y-108700000D03*
X97645000Y-111240000D03*
D40*
X96700000Y-97300000D03*
X94200000Y-97300000D03*
D24*
X136117500Y-112410000D03*
X134042500Y-112410000D03*
D58*
X126800000Y-101500000D03*
X128767500Y-115900000D03*
X127900000Y-109700000D03*
X127900000Y-108650000D03*
X126300000Y-98600000D03*
X125100000Y-98600000D03*
X126800000Y-102550000D03*
X127567500Y-115900000D03*
X114017500Y-116310000D03*
X115317500Y-117610000D03*
X118217500Y-130310000D03*
X116493000Y-130310000D03*
X115718000Y-128810000D03*
X118217500Y-128810000D03*
X126317500Y-130010000D03*
X126317500Y-128010000D03*
X112800000Y-123400000D03*
X106768000Y-123700000D03*
X124442500Y-128010000D03*
X124442500Y-130010000D03*
X118049562Y-111600938D03*
X119250938Y-110399562D03*
X106542500Y-111310000D03*
X117250000Y-99200000D03*
X108917500Y-115510000D03*
X102217500Y-118010000D03*
X112232500Y-100850000D03*
X124817500Y-110060000D03*
X97867500Y-121210000D03*
X134717500Y-101160000D03*
X121917500Y-113010000D03*
X130767500Y-128059500D03*
X112842500Y-113610000D03*
X124725000Y-140400000D03*
X102600000Y-128100000D03*
X102217500Y-120560000D03*
X135167500Y-104760000D03*
X121917500Y-114210000D03*
X137517500Y-101160000D03*
X106542500Y-108510000D03*
X114667500Y-131760000D03*
X130267500Y-108960000D03*
X115250000Y-100850000D03*
X118217500Y-114210000D03*
X120067500Y-113010000D03*
X115817500Y-134910000D03*
X107117500Y-119460000D03*
X112517500Y-110810000D03*
X135517500Y-120460000D03*
X129042500Y-129060000D03*
X109017500Y-135660000D03*
X126517500Y-117160000D03*
X100517500Y-121610000D03*
X113917500Y-108310000D03*
X131967500Y-108810000D03*
X132817500Y-112410000D03*
X135167500Y-107060000D03*
X96267500Y-120010000D03*
X130867500Y-120510000D03*
X117567500Y-103275000D03*
X95800000Y-134200000D03*
X114467500Y-103275000D03*
X117250000Y-102000000D03*
X115817500Y-137610000D03*
X111917500Y-135660000D03*
X113017500Y-133310000D03*
X118217500Y-113010000D03*
X134017500Y-113760000D03*
X130867500Y-123660000D03*
X122567500Y-130010000D03*
X122567500Y-128010000D03*
X104400000Y-123500000D03*
X112700000Y-121800000D03*
X132175000Y-131009500D03*
X132175000Y-129110500D03*
X120367500Y-130009989D03*
X120367500Y-128010000D03*
X118167500Y-127210000D03*
X115718000Y-127210000D03*
D59*
X107992500Y-116735000D02*
X105467500Y-116735000D01*
X105492500Y-114710000D02*
X105492500Y-116710000D01*
X105467500Y-118005000D02*
X105467500Y-116735000D01*
D60*
X105492500Y-116710000D02*
X105467500Y-116735000D01*
D59*
X107992500Y-116735000D02*
X110767500Y-116735000D01*
D61*
X115605000Y-140795000D02*
X115605000Y-140410000D01*
D62*
X113142500Y-136610000D02*
X113142500Y-140060000D01*
X125367500Y-118460000D02*
X125367500Y-118335000D01*
X117217500Y-138797500D02*
X115605000Y-140410000D01*
X117217500Y-121110000D02*
X117217500Y-138797500D01*
X118417500Y-119910000D02*
X117217500Y-121110000D01*
X113142500Y-140060000D02*
X112792500Y-140410000D01*
X123917500Y-119910000D02*
X125367500Y-118460000D01*
X123917500Y-119910000D02*
X118417500Y-119910000D01*
D61*
X107250000Y-145200000D02*
X111200000Y-145200000D01*
X112792500Y-140410000D02*
X115605000Y-140410000D01*
X111200000Y-145200000D02*
X115605000Y-140795000D01*
D59*
X110767500Y-112210000D02*
X110767500Y-109910000D01*
X95700000Y-122600000D02*
X94900000Y-123400000D01*
X115817500Y-133147500D02*
X115817500Y-131117500D01*
X126237500Y-111425000D02*
X127412500Y-112600000D01*
X133980000Y-118522500D02*
X132117500Y-116660000D01*
X107567500Y-125060000D02*
X105967500Y-125060000D01*
X110767500Y-104832500D02*
X110774511Y-104825489D01*
X128057500Y-112600000D02*
X127412500Y-112600000D01*
X95567500Y-116735000D02*
X97917500Y-116735000D01*
X110767500Y-109910000D02*
X110767500Y-104832500D01*
X133980000Y-122110000D02*
X137560000Y-122110000D01*
X136942500Y-118522500D02*
X136980000Y-118560000D01*
X115817500Y-131117500D02*
X115100000Y-130400000D01*
X133980000Y-118522500D02*
X136942500Y-118522500D01*
X110774511Y-104825489D02*
X117475489Y-104825489D01*
X95567500Y-116735000D02*
X94300000Y-118002500D01*
X138800000Y-123350000D02*
X138800000Y-126860000D01*
X118150000Y-105500000D02*
X118150000Y-110500000D01*
X113750000Y-97687500D02*
X110767500Y-100670000D01*
X95400000Y-107100000D02*
X95400000Y-113300000D01*
X100665000Y-113300000D02*
X95400000Y-113300000D01*
X140425000Y-127425000D02*
X140425000Y-134380000D01*
X107617500Y-125110000D02*
X107617500Y-123110000D01*
X140425000Y-134380000D02*
X137870000Y-136935000D01*
X116300000Y-97900000D02*
X113962500Y-97900000D01*
X110474511Y-104825489D02*
X108900000Y-106400000D01*
X119075000Y-111425000D02*
X126237500Y-111425000D01*
X115352500Y-133147500D02*
X113790000Y-134710000D01*
X118150000Y-110500000D02*
X119075000Y-111425000D01*
X102725000Y-111240000D02*
X100665000Y-113300000D01*
X108007500Y-130400000D02*
X107617500Y-130010000D01*
X94300000Y-118002500D02*
X94300000Y-121200000D01*
X100517500Y-119275000D02*
X99964651Y-119275000D01*
X108900000Y-106400000D02*
X96100000Y-106400000D01*
X95400000Y-116567500D02*
X95567500Y-116735000D01*
X132117500Y-116660000D02*
X128057500Y-112600000D01*
X115100000Y-130400000D02*
X108007500Y-130400000D01*
X133992500Y-122122500D02*
X133980000Y-122110000D01*
X96100000Y-106400000D02*
X95400000Y-107100000D01*
X133980000Y-122110000D02*
X133980000Y-118522500D01*
X99964651Y-119275000D02*
X97917500Y-117227849D01*
X113962500Y-97900000D02*
X113750000Y-97687500D01*
X115817500Y-133147500D02*
X115352500Y-133147500D01*
X137560000Y-122110000D02*
X138800000Y-123350000D01*
X138800000Y-126860000D02*
X139860000Y-126860000D01*
X133992500Y-124180000D02*
X133992500Y-122122500D01*
X107617500Y-125110000D02*
X107567500Y-125060000D01*
X94300000Y-121200000D02*
X95700000Y-122600000D01*
X100192500Y-116735000D02*
X97917500Y-116735000D01*
X95400000Y-113300000D02*
X95400000Y-116567500D01*
X97917500Y-117227849D02*
X97917500Y-116735000D01*
X97917500Y-116735000D02*
X100517500Y-116735000D01*
X110767500Y-114195000D02*
X110767500Y-112210000D01*
X107617500Y-123110000D02*
X107107500Y-122600000D01*
X108617500Y-109910000D02*
X110767500Y-109910000D01*
X94900000Y-123400000D02*
X94900000Y-125010000D01*
X107107500Y-122600000D02*
X96300000Y-122600000D01*
X117475489Y-104825489D02*
X118150000Y-105500000D01*
X135330000Y-136935000D02*
X137870000Y-136935000D01*
X128200000Y-134665000D02*
X133060000Y-134665000D01*
X113790000Y-134710000D02*
X113142500Y-134710000D01*
X110767500Y-100670000D02*
X110767500Y-104832500D01*
X95700000Y-122600000D02*
X96300000Y-122600000D01*
X139860000Y-126860000D02*
X140425000Y-127425000D01*
X107617500Y-130010000D02*
X107617500Y-125110000D01*
X110774511Y-104825489D02*
X110474511Y-104825489D01*
X133060000Y-134665000D02*
X135330000Y-136935000D01*
D62*
X125100000Y-98600000D02*
X122300000Y-98600000D01*
X122300000Y-98600000D02*
X121950000Y-98250000D01*
D61*
X126887500Y-95862500D02*
X126900000Y-95850000D01*
D62*
X126800000Y-107550000D02*
X127900000Y-108650000D01*
X118200000Y-97900000D02*
X121600000Y-97900000D01*
X121600000Y-97900000D02*
X121950000Y-98250000D01*
X125367500Y-115935000D02*
X127532500Y-115935000D01*
X127532500Y-115935000D02*
X127567500Y-115900000D01*
X126800000Y-102550000D02*
X126800000Y-107550000D01*
D61*
X121950000Y-95862500D02*
X121950000Y-98250000D01*
X121950000Y-95862500D02*
X126887500Y-95862500D01*
D62*
X116017500Y-106387500D02*
X112830000Y-106387500D01*
X113522500Y-118005000D02*
X115967500Y-115560000D01*
X115967500Y-106437500D02*
X116017500Y-106387500D01*
X110767500Y-118005000D02*
X113522500Y-118005000D01*
X115967500Y-115560000D02*
X115967500Y-106437500D01*
X112830000Y-106387500D02*
X112817500Y-106375000D01*
D59*
X136117500Y-113660000D02*
X135167989Y-114609511D01*
X136117500Y-112410000D02*
X136117500Y-113660000D01*
X136117500Y-112410000D02*
X136117500Y-110310000D01*
X135167989Y-114609511D02*
X132397011Y-114609511D01*
X132397011Y-114609511D02*
X130387500Y-112600000D01*
X136117500Y-110310000D02*
X136117500Y-108310000D01*
D60*
X116982500Y-119275000D02*
X115317500Y-117610000D01*
X120067500Y-119275000D02*
X116982500Y-119275000D01*
X108010000Y-114810000D02*
X104800000Y-111600000D01*
X114017500Y-116310000D02*
X112517500Y-114810000D01*
X112517500Y-114810000D02*
X108010000Y-114810000D01*
X104800000Y-111600000D02*
X104800000Y-110775000D01*
X104800000Y-110775000D02*
X102725000Y-108700000D01*
X118617500Y-135342500D02*
X118617500Y-130710000D01*
X126725000Y-139275000D02*
X122550000Y-139275000D01*
X116493000Y-130310000D02*
X116493000Y-123685500D01*
X113352500Y-120545000D02*
X110767500Y-120545000D01*
X127400000Y-139950000D02*
X126725000Y-139275000D01*
X118617500Y-130710000D02*
X118217500Y-130310000D01*
X122550000Y-139275000D02*
X118617500Y-135342500D01*
X116493000Y-123685500D02*
X113352500Y-120545000D01*
X127400000Y-140400000D02*
X127400000Y-139950000D01*
D62*
X116300000Y-101500000D02*
X116300000Y-100600000D01*
X112825000Y-103275000D02*
X114000000Y-102100000D01*
X112817500Y-103275000D02*
X112825000Y-103275000D01*
X114000000Y-102100000D02*
X115700000Y-102100000D01*
X115700000Y-102100000D02*
X116300000Y-101500000D01*
X110442500Y-134710000D02*
X110442500Y-131960000D01*
D61*
X119190000Y-140410000D02*
X123800000Y-145020000D01*
D62*
X114062500Y-145550000D02*
X114592500Y-145020000D01*
D61*
X118580000Y-140410000D02*
X119190000Y-140410000D01*
D62*
X114592500Y-145020000D02*
X123800000Y-145020000D01*
D61*
X107467500Y-92440000D02*
X105737500Y-92440000D01*
D62*
X112652500Y-92425000D02*
X112637500Y-92440000D01*
D61*
X119532500Y-90175000D02*
X109732500Y-90175000D01*
X121950000Y-92592500D02*
X119532500Y-90175000D01*
D62*
X113895000Y-92425000D02*
X112652500Y-92425000D01*
D61*
X109732500Y-90175000D02*
X107467500Y-92440000D01*
D62*
X112637500Y-92440000D02*
X105737500Y-92440000D01*
D61*
X121950000Y-92887500D02*
X121950000Y-92592500D01*
X125317500Y-100482500D02*
X125317500Y-103310000D01*
X127420000Y-100250000D02*
X125550000Y-100250000D01*
X127420000Y-100250000D02*
X121950000Y-100250000D01*
X125550000Y-100250000D02*
X125317500Y-100482500D01*
X133850000Y-90800000D02*
X133850000Y-96300000D01*
X131850000Y-100250000D02*
X127420000Y-100250000D01*
X133850000Y-96300000D02*
X133850000Y-98250000D01*
X133850000Y-90800000D02*
X133850000Y-88725000D01*
D62*
X121600000Y-100600000D02*
X121950000Y-100250000D01*
D59*
X122467500Y-103310000D02*
X125317500Y-103310000D01*
D61*
X133850000Y-96300000D02*
X138600000Y-96300000D01*
D62*
X118200000Y-100600000D02*
X121600000Y-100600000D01*
D61*
X133850000Y-88725000D02*
X131285000Y-86160000D01*
X133850000Y-98250000D02*
X131850000Y-100250000D01*
D60*
X115718000Y-128810000D02*
X114517520Y-127609520D01*
X114517520Y-127609520D02*
X112317020Y-127609520D01*
X131490000Y-138175000D02*
X135330000Y-142015000D01*
X118217500Y-128810000D02*
X119517500Y-130110000D01*
X110767500Y-126060000D02*
X110767500Y-125625000D01*
X119517500Y-130110000D02*
X119517500Y-134367500D01*
X119517500Y-134367500D02*
X123325000Y-138175000D01*
X112317020Y-127609520D02*
X110767500Y-126060000D01*
X123325000Y-138175000D02*
X131490000Y-138175000D01*
D59*
X137870000Y-142015000D02*
X135330000Y-142015000D01*
D60*
X132377494Y-126085000D02*
X133012494Y-126720000D01*
X126317500Y-130242500D02*
X128200000Y-132125000D01*
X133012494Y-126720000D02*
X133992500Y-126720000D01*
X126317500Y-130010000D02*
X126317500Y-130242500D01*
X126542500Y-126085000D02*
X132377494Y-126085000D01*
X126317500Y-125860000D02*
X126542500Y-126085000D01*
X126317500Y-125860000D02*
X125367500Y-124910000D01*
X126317500Y-128010000D02*
X126317500Y-125860000D01*
X104817500Y-125810000D02*
X105967500Y-126960000D01*
X106000000Y-129400000D02*
X105967500Y-129367500D01*
X106768000Y-123700000D02*
X105623478Y-123700000D01*
X105623478Y-123700000D02*
X104817500Y-124505978D01*
X105967500Y-129367500D02*
X105967500Y-126960000D01*
X112485000Y-123085000D02*
X110767500Y-123085000D01*
X112800000Y-123400000D02*
X112485000Y-123085000D01*
X104817500Y-124505978D02*
X104817500Y-125810000D01*
X99987500Y-137400000D02*
X102250000Y-137400000D01*
D63*
X102250000Y-137400000D02*
X102250000Y-136950000D01*
X102250000Y-136950000D02*
X105000000Y-134200000D01*
D60*
X130080000Y-105097500D02*
X128292500Y-103310000D01*
D59*
X136117500Y-103260000D02*
X128342500Y-103260000D01*
D60*
X130080000Y-106810000D02*
X130080000Y-105097500D01*
D59*
X136117500Y-105910000D02*
X136117500Y-103260000D01*
X128342500Y-103260000D02*
X128292500Y-103310000D01*
D62*
X134217500Y-110210000D02*
X134117500Y-110310000D01*
X134217500Y-108310000D02*
X134217500Y-110210000D01*
X134117500Y-110310000D02*
X132267500Y-110310000D01*
D60*
X122717500Y-106732500D02*
X124770000Y-106732500D01*
X124770000Y-106732500D02*
X124817500Y-106685000D01*
D62*
X109252500Y-119275000D02*
X109000000Y-119527500D01*
X109000000Y-127417500D02*
X110442500Y-128860000D01*
X110442500Y-128860000D02*
X113005000Y-128860000D01*
X109000000Y-119527500D02*
X109000000Y-127417500D01*
X110767500Y-119275000D02*
X109252500Y-119275000D01*
X113005000Y-128860000D02*
X113017500Y-128847500D01*
D63*
X124617500Y-124360000D02*
X124617500Y-127835000D01*
D60*
X125967500Y-124110000D02*
X127307500Y-125450000D01*
X124442500Y-130010000D02*
X124442500Y-130907500D01*
D63*
X124867500Y-124110000D02*
X124617500Y-124360000D01*
D60*
X124442500Y-130907500D02*
X125660000Y-132125000D01*
X125367500Y-124110000D02*
X125967500Y-124110000D01*
D63*
X124617500Y-127835000D02*
X124442500Y-128010000D01*
X125367500Y-124110000D02*
X124867500Y-124110000D01*
D60*
X127307500Y-125450000D02*
X129042500Y-125450000D01*
X117272500Y-115465000D02*
X120067500Y-115465000D01*
X121035432Y-110399562D02*
X122667980Y-108767014D01*
X118049562Y-111600938D02*
X116867500Y-112783000D01*
X116867500Y-112783000D02*
X116867500Y-115060000D01*
X116867500Y-115060000D02*
X117272500Y-115465000D01*
X119250938Y-110399562D02*
X121035432Y-110399562D01*
D62*
X134167500Y-105860000D02*
X134217500Y-105910000D01*
X131955000Y-105860000D02*
X134167500Y-105860000D01*
D59*
X130855000Y-122110000D02*
X130855000Y-123647500D01*
D61*
X102950000Y-147550000D02*
X105380000Y-149980000D01*
D59*
X115817500Y-136272500D02*
X115817500Y-137610000D01*
X107117500Y-119460000D02*
X105652500Y-119460000D01*
X134042500Y-112410000D02*
X132817500Y-112410000D01*
D62*
X113895000Y-94325000D02*
X110700000Y-97520000D01*
D59*
X106542500Y-109910000D02*
X106542500Y-111310000D01*
X114667500Y-131760000D02*
X113230000Y-131760000D01*
D60*
X97200000Y-134200000D02*
X97200000Y-136687500D01*
D59*
X108962500Y-115465000D02*
X110767500Y-115465000D01*
D61*
X102450000Y-100807500D02*
X105737500Y-97520000D01*
D59*
X95567500Y-119310000D02*
X95567500Y-118810000D01*
X131967500Y-108810000D02*
X131955000Y-108797500D01*
X129042500Y-127990000D02*
X130698000Y-127990000D01*
X107117500Y-119335000D02*
X107992500Y-118460000D01*
X110442500Y-135660000D02*
X109017500Y-135660000D01*
X97767500Y-120010000D02*
X97917500Y-119860000D01*
X130855000Y-123647500D02*
X130867500Y-123660000D01*
X111917500Y-135660000D02*
X110442500Y-135660000D01*
D62*
X103267500Y-127432500D02*
X103267500Y-126960000D01*
D59*
X130698000Y-127990000D02*
X130767500Y-128059500D01*
X136117500Y-101185000D02*
X134742500Y-101185000D01*
X102217500Y-120560000D02*
X102217500Y-118010000D01*
X134017500Y-113760000D02*
X134017500Y-112435000D01*
X100517500Y-121610000D02*
X100517500Y-120545000D01*
X136117500Y-101185000D02*
X137492500Y-101185000D01*
X105652500Y-119460000D02*
X105467500Y-119275000D01*
D62*
X116712500Y-150100000D02*
X123800000Y-150100000D01*
X100900000Y-124972500D02*
X100687500Y-124760000D01*
X136980000Y-120460000D02*
X135517500Y-120460000D01*
D60*
X97200000Y-136687500D02*
X97912500Y-137400000D01*
D59*
X96267500Y-120010000D02*
X97767500Y-120010000D01*
X108917500Y-115510000D02*
X108962500Y-115465000D01*
D60*
X126142500Y-117535000D02*
X126517500Y-117160000D01*
D59*
X131955000Y-108797500D02*
X131955000Y-107760000D01*
X129042500Y-127990000D02*
X129042500Y-129060000D01*
X97867500Y-119910000D02*
X97917500Y-119860000D01*
D62*
X114062500Y-147450000D02*
X116712500Y-150100000D01*
D59*
X135167500Y-105910000D02*
X135167500Y-107060000D01*
X100532500Y-120560000D02*
X100517500Y-120545000D01*
D61*
X105380000Y-149980000D02*
X124380000Y-149980000D01*
D59*
X130855000Y-120522500D02*
X130867500Y-120510000D01*
D61*
X136200000Y-84400000D02*
X138600000Y-86800000D01*
D59*
X113787500Y-100850000D02*
X113750000Y-100812500D01*
X105467500Y-120545000D02*
X105467500Y-119275000D01*
X100522500Y-118010000D02*
X100517500Y-118005000D01*
X113017500Y-133310000D02*
X113017500Y-131972500D01*
X112517500Y-110810000D02*
X112992500Y-110810000D01*
X106542500Y-109910000D02*
X106542500Y-108510000D01*
X134017500Y-112435000D02*
X134042500Y-112410000D01*
D61*
X102450000Y-103200000D02*
X102450000Y-100807500D01*
D60*
X124817500Y-108735000D02*
X124817500Y-110060000D01*
D59*
X135167500Y-105910000D02*
X135167500Y-104760000D01*
X96267500Y-120010000D02*
X95567500Y-119310000D01*
D62*
X130267500Y-110310000D02*
X130267500Y-108960000D01*
D59*
X115250000Y-100850000D02*
X113787500Y-100850000D01*
D62*
X102600000Y-128100000D02*
X103267500Y-127432500D01*
D59*
X112842500Y-111135000D02*
X112842500Y-112210000D01*
X116017500Y-103262500D02*
X117555000Y-103262500D01*
X117250000Y-100600000D02*
X117250000Y-99200000D01*
D61*
X126900000Y-91550000D02*
X126515000Y-91550000D01*
X122885000Y-84400000D02*
X136200000Y-84400000D01*
D60*
X126517500Y-117160000D02*
X126092500Y-116735000D01*
D59*
X97867500Y-121210000D02*
X97867500Y-119910000D01*
D61*
X121125000Y-86160000D02*
X122885000Y-84400000D01*
D62*
X110700000Y-97520000D02*
X105737500Y-97520000D01*
D59*
X113892500Y-108335000D02*
X113917500Y-108310000D01*
D60*
X124725000Y-140400000D02*
X126100000Y-140400000D01*
D59*
X117555000Y-103262500D02*
X117567500Y-103275000D01*
D60*
X125367500Y-117535000D02*
X126142500Y-117535000D01*
X97200000Y-134200000D02*
X95800000Y-134200000D01*
X126092500Y-116735000D02*
X125367500Y-116735000D01*
D61*
X126515000Y-91550000D02*
X121125000Y-86160000D01*
D59*
X112517500Y-110810000D02*
X112842500Y-111135000D01*
X102217500Y-120560000D02*
X100532500Y-120560000D01*
D61*
X102950000Y-145200000D02*
X102950000Y-147550000D01*
D59*
X107117500Y-119460000D02*
X107117500Y-119335000D01*
D61*
X138600000Y-86800000D02*
X138600000Y-92000000D01*
D59*
X102217500Y-118010000D02*
X100522500Y-118010000D01*
X116005000Y-103275000D02*
X116017500Y-103262500D01*
X114467500Y-103275000D02*
X116005000Y-103275000D01*
X134742500Y-101185000D02*
X134717500Y-101160000D01*
X112232500Y-100850000D02*
X113712500Y-100850000D01*
X112992500Y-110810000D02*
X113892500Y-109910000D01*
D62*
X100687500Y-124760000D02*
X97910000Y-124760000D01*
D59*
X112842500Y-113610000D02*
X112842500Y-112210000D01*
X117250000Y-102000000D02*
X117250000Y-100600000D01*
X113230000Y-131760000D02*
X113017500Y-131972500D01*
X130855000Y-122110000D02*
X130855000Y-120522500D01*
X137492500Y-101185000D02*
X137517500Y-101160000D01*
X113712500Y-100850000D02*
X113750000Y-100812500D01*
X113892500Y-109910000D02*
X113892500Y-108335000D01*
X115817500Y-136272500D02*
X115817500Y-134910000D01*
D63*
X122567500Y-127160000D02*
X122567500Y-128010000D01*
D60*
X131741783Y-124810000D02*
X127542500Y-124810000D01*
X127542500Y-124810000D02*
X126042500Y-123310000D01*
X133992500Y-127990000D02*
X135387500Y-127990000D01*
X133041783Y-126110000D02*
X131741783Y-124810000D01*
X126042500Y-123310000D02*
X125367500Y-123310000D01*
D63*
X124242500Y-123885000D02*
X124242500Y-125485000D01*
X124242500Y-125485000D02*
X122567500Y-127160000D01*
D60*
X135717500Y-126410000D02*
X135417500Y-126110000D01*
X122567500Y-130010000D02*
X122575000Y-130017500D01*
X122575000Y-131580000D02*
X123120000Y-132125000D01*
X135717500Y-127660000D02*
X135717500Y-126410000D01*
X122575000Y-130017500D02*
X122575000Y-131580000D01*
X135417500Y-126110000D02*
X133041783Y-126110000D01*
X135387500Y-127990000D02*
X135717500Y-127660000D01*
D63*
X124817500Y-123310000D02*
X124242500Y-123885000D01*
X125367500Y-123310000D02*
X124817500Y-123310000D01*
D60*
X137317500Y-125610000D02*
X137317500Y-128910000D01*
X130725000Y-132700000D02*
X130025000Y-133400000D01*
X132517011Y-124359511D02*
X132967500Y-124810000D01*
X124385000Y-133400000D02*
X123120000Y-134665000D01*
X125367500Y-122510000D02*
X126592500Y-122510000D01*
X130025000Y-133400000D02*
X124385000Y-133400000D01*
X135917500Y-130310000D02*
X131490000Y-130310000D01*
X130725000Y-131075000D02*
X130725000Y-132700000D01*
X137317500Y-128910000D02*
X135917500Y-130310000D01*
X131490000Y-130310000D02*
X130725000Y-131075000D01*
X129042500Y-124180000D02*
X129222011Y-124359511D01*
X128262500Y-124180000D02*
X129042500Y-124180000D01*
X136517500Y-124810000D02*
X137317500Y-125610000D01*
X129222011Y-124359511D02*
X132517011Y-124359511D01*
X126592500Y-122510000D02*
X128262500Y-124180000D01*
X132967500Y-124810000D02*
X136517500Y-124810000D01*
X104417500Y-123517500D02*
X104417500Y-130517500D01*
X106400000Y-132500000D02*
X106400000Y-136100000D01*
X105100000Y-137400000D02*
X104250000Y-137400000D01*
X106400000Y-136100000D02*
X105100000Y-137400000D01*
X104417500Y-130517500D02*
X106400000Y-132500000D01*
X112700000Y-121800000D02*
X110782500Y-121800000D01*
X104400000Y-123500000D02*
X104417500Y-123517500D01*
X110782500Y-121800000D02*
X110767500Y-121815000D01*
D62*
X123567500Y-116735000D02*
X120067500Y-116735000D01*
X123567500Y-115935000D02*
X123567500Y-116735000D01*
D60*
X131127500Y-126720000D02*
X129042500Y-126720000D01*
X138800000Y-128130000D02*
X138120000Y-128130000D01*
X137850000Y-128400000D02*
X137850000Y-130725000D01*
X132175000Y-127767500D02*
X131127500Y-126720000D01*
X137850000Y-130725000D02*
X137565500Y-131009500D01*
X138120000Y-128130000D02*
X137850000Y-128400000D01*
X132175000Y-129110500D02*
X132175000Y-127767500D01*
X137565500Y-131009500D02*
X132175000Y-131009500D01*
X120067500Y-118005000D02*
X120072500Y-118010000D01*
D62*
X123567500Y-118335000D02*
X123567500Y-117535000D01*
X120072500Y-118010000D02*
X123092500Y-118010000D01*
X123092500Y-118010000D02*
X123567500Y-117535000D01*
D60*
X120367500Y-125925000D02*
X120367500Y-128010000D01*
X120067500Y-125625000D02*
X120367500Y-125925000D01*
X120367500Y-133542500D02*
X123900000Y-137075000D01*
X123900000Y-137075000D02*
X132325000Y-137075000D01*
X120367500Y-130009989D02*
X120367500Y-133542500D01*
X134725000Y-139475000D02*
X135330000Y-139475000D01*
X132325000Y-137075000D02*
X134725000Y-139475000D01*
D59*
X135330000Y-139475000D02*
X137870000Y-139475000D01*
D60*
X120458217Y-120545000D02*
X122423217Y-122510000D01*
X120067500Y-120545000D02*
X120458217Y-120545000D01*
X122423217Y-122510000D02*
X123567500Y-122510000D01*
X122317500Y-123310000D02*
X120822500Y-121815000D01*
X123567500Y-123310000D02*
X122317500Y-123310000D01*
X120822500Y-121815000D02*
X120067500Y-121815000D01*
X123567500Y-124110000D02*
X122317500Y-124110000D01*
X121292500Y-123085000D02*
X120067500Y-123085000D01*
X122317500Y-124110000D02*
X121292500Y-123085000D01*
X120067500Y-124355000D02*
X121262500Y-124355000D01*
X121817500Y-124910000D02*
X123567500Y-124910000D01*
X121262500Y-124355000D02*
X121817500Y-124910000D01*
X115718000Y-126910500D02*
X113162500Y-124355000D01*
X118167500Y-127210000D02*
X118217500Y-127210000D01*
X115718000Y-127210000D02*
X115718000Y-126910500D01*
X119917500Y-128910000D02*
X126967500Y-128910000D01*
X118217500Y-127210000D02*
X119917500Y-128910000D01*
X136517500Y-128610000D02*
X136517500Y-126010000D01*
X126967500Y-128910000D02*
X127867500Y-129810000D01*
X113162500Y-124355000D02*
X110767500Y-124355000D01*
X135317500Y-129810000D02*
X136517500Y-128610000D01*
X135957500Y-125450000D02*
X133992500Y-125450000D01*
X127867500Y-129810000D02*
X135317500Y-129810000D01*
X136517500Y-126010000D02*
X135957500Y-125450000D01*
D62*
X98885000Y-129062500D02*
X100900000Y-127047500D01*
X101937500Y-126010000D02*
X103267500Y-126010000D01*
X98885000Y-130100000D02*
X98885000Y-129062500D01*
X100900000Y-127047500D02*
X101937500Y-126010000D01*
D61*
X93200000Y-105100000D02*
X93200000Y-138592500D01*
D62*
X110442500Y-136610000D02*
X110442500Y-140060000D01*
D61*
X96700000Y-101750000D02*
X96550000Y-101750000D01*
X96700000Y-97300000D02*
X96700000Y-101750000D01*
X104885000Y-86160000D02*
X102940000Y-86160000D01*
X97000000Y-92100000D02*
X97000000Y-97000000D01*
X93200000Y-138592500D02*
X95017500Y-140410000D01*
X97000000Y-97000000D02*
X96700000Y-97300000D01*
X96550000Y-101750000D02*
X93200000Y-105100000D01*
X102940000Y-86160000D02*
X97000000Y-92100000D01*
D62*
X110442500Y-140060000D02*
X110792500Y-140410000D01*
D61*
X108092500Y-140410000D02*
X110792500Y-140410000D01*
X95017500Y-140410000D02*
X108417500Y-140410000D01*
X96700000Y-101750000D02*
X98150000Y-103200000D01*
X70775000Y-64200000D02*
X70750000Y-64225000D01*
X70725000Y-64200000D02*
X70750000Y-64225000D01*
X65200000Y-64200000D02*
X70725000Y-64200000D01*
X76300000Y-64200000D02*
X70775000Y-64200000D01*
D60*
X131175000Y-140400000D02*
X135330000Y-144555000D01*
D59*
X137870000Y-144555000D02*
X135330000Y-144555000D01*
D60*
X128700000Y-140400000D02*
X131175000Y-140400000D01*
D62*
X96885000Y-128325000D02*
X96885000Y-130100000D01*
X94900000Y-127010000D02*
X95190000Y-127300000D01*
X97910000Y-127300000D02*
X96885000Y-128325000D01*
X95190000Y-127300000D02*
X97825000Y-127300000D01*
%TA.AperFunction,Conductor*%
G36*
X126308188Y-98101078D02*
G01*
X126412963Y-98114872D01*
X126444735Y-98123385D01*
X126534674Y-98160639D01*
X126563160Y-98177086D01*
X126640393Y-98236349D01*
X126663651Y-98259607D01*
X126722914Y-98336840D01*
X126739361Y-98365326D01*
X126776615Y-98455265D01*
X126785128Y-98487037D01*
X126798922Y-98591812D01*
X126800000Y-98608258D01*
X126800000Y-98641742D01*
X126798922Y-98658188D01*
X126785128Y-98762963D01*
X126776615Y-98794735D01*
X126739361Y-98884674D01*
X126722914Y-98913160D01*
X126663651Y-98990393D01*
X126640393Y-99013651D01*
X126563160Y-99072914D01*
X126534674Y-99089361D01*
X126444735Y-99126615D01*
X126412963Y-99135128D01*
X126308188Y-99148922D01*
X126291742Y-99150000D01*
X125108258Y-99150000D01*
X125091812Y-99148922D01*
X124987037Y-99135128D01*
X124955265Y-99126615D01*
X124865326Y-99089361D01*
X124836840Y-99072914D01*
X124759607Y-99013651D01*
X124736349Y-98990393D01*
X124677086Y-98913160D01*
X124660639Y-98884674D01*
X124623385Y-98794735D01*
X124614872Y-98762963D01*
X124601078Y-98658188D01*
X124600000Y-98641742D01*
X124600000Y-98608258D01*
X124601078Y-98591812D01*
X124614872Y-98487037D01*
X124623385Y-98455265D01*
X124660639Y-98365326D01*
X124677086Y-98336840D01*
X124736349Y-98259607D01*
X124759607Y-98236349D01*
X124836840Y-98177086D01*
X124865326Y-98160639D01*
X124955265Y-98123385D01*
X124987037Y-98114872D01*
X125091812Y-98101078D01*
X125108258Y-98100000D01*
X126291742Y-98100000D01*
X126308188Y-98101078D01*
G37*
%TD.AperFunction*%
%TA.AperFunction,Conductor*%
G36*
X122459621Y-112430002D02*
G01*
X122506114Y-112483658D01*
X122517500Y-112536000D01*
X122517500Y-114834000D01*
X122497498Y-114902121D01*
X122443842Y-114948614D01*
X122391500Y-114960000D01*
X121560764Y-114960000D01*
X121492643Y-114939998D01*
X121446150Y-114886342D01*
X121436046Y-114816068D01*
X121461208Y-114756770D01*
X121470588Y-114744678D01*
X121547148Y-114615221D01*
X121553393Y-114600790D01*
X121592439Y-114466395D01*
X121592399Y-114452294D01*
X121585130Y-114449000D01*
X118555622Y-114449000D01*
X118542091Y-114452973D01*
X118540956Y-114460871D01*
X118581607Y-114600790D01*
X118587852Y-114615221D01*
X118664412Y-114744678D01*
X118673792Y-114756770D01*
X118699742Y-114822854D01*
X118685844Y-114892477D01*
X118636512Y-114943534D01*
X118574236Y-114960000D01*
X117793500Y-114960000D01*
X117725379Y-114939998D01*
X117678886Y-114886342D01*
X117667500Y-114834000D01*
X117667500Y-113923605D01*
X118542561Y-113923605D01*
X118542601Y-113937706D01*
X118549870Y-113941000D01*
X119795385Y-113941000D01*
X119810624Y-113936525D01*
X119811829Y-113935135D01*
X119813500Y-113927452D01*
X119813500Y-113922885D01*
X120321500Y-113922885D01*
X120325975Y-113938124D01*
X120327365Y-113939329D01*
X120335048Y-113941000D01*
X121579378Y-113941000D01*
X121592909Y-113937027D01*
X121594044Y-113929129D01*
X121553393Y-113789210D01*
X121547148Y-113774779D01*
X121470589Y-113645322D01*
X121460949Y-113632896D01*
X121354604Y-113526551D01*
X121342178Y-113516911D01*
X121212721Y-113440352D01*
X121198290Y-113434107D01*
X121052435Y-113391731D01*
X121039833Y-113389430D01*
X121011416Y-113387193D01*
X121006486Y-113387000D01*
X120339615Y-113387000D01*
X120324376Y-113391475D01*
X120323171Y-113392865D01*
X120321500Y-113400548D01*
X120321500Y-113922885D01*
X119813500Y-113922885D01*
X119813500Y-113405116D01*
X119809025Y-113389877D01*
X119807635Y-113388672D01*
X119799952Y-113387001D01*
X119128517Y-113387001D01*
X119123580Y-113387195D01*
X119095164Y-113389430D01*
X119082569Y-113391730D01*
X118936710Y-113434107D01*
X118922279Y-113440352D01*
X118792822Y-113516911D01*
X118780396Y-113526551D01*
X118674051Y-113632896D01*
X118664411Y-113645322D01*
X118587852Y-113774779D01*
X118581607Y-113789210D01*
X118542561Y-113923605D01*
X117667500Y-113923605D01*
X117667500Y-112536000D01*
X117687502Y-112467879D01*
X117741158Y-112421386D01*
X117793500Y-112410000D01*
X122391500Y-112410000D01*
X122459621Y-112430002D01*
G37*
%TD.AperFunction*%
%TA.AperFunction,Conductor*%
G36*
X128775688Y-115351078D02*
G01*
X128880463Y-115364872D01*
X128912235Y-115373385D01*
X129002174Y-115410639D01*
X129030660Y-115427086D01*
X129107893Y-115486349D01*
X129131151Y-115509607D01*
X129190414Y-115586840D01*
X129206861Y-115615326D01*
X129244115Y-115705265D01*
X129252628Y-115737037D01*
X129266422Y-115841812D01*
X129267500Y-115858258D01*
X129267500Y-115891742D01*
X129266422Y-115908188D01*
X129252628Y-116012963D01*
X129244115Y-116044735D01*
X129206861Y-116134674D01*
X129190414Y-116163160D01*
X129131151Y-116240393D01*
X129107893Y-116263651D01*
X129030660Y-116322914D01*
X129002174Y-116339361D01*
X128912235Y-116376615D01*
X128880463Y-116385128D01*
X128775688Y-116398922D01*
X128759242Y-116400000D01*
X127575758Y-116400000D01*
X127559312Y-116398922D01*
X127454537Y-116385128D01*
X127422765Y-116376615D01*
X127332826Y-116339361D01*
X127304340Y-116322914D01*
X127227107Y-116263651D01*
X127203849Y-116240393D01*
X127144586Y-116163160D01*
X127128139Y-116134674D01*
X127090885Y-116044735D01*
X127082372Y-116012963D01*
X127068578Y-115908188D01*
X127067500Y-115891742D01*
X127067500Y-115858258D01*
X127068578Y-115841812D01*
X127082372Y-115737037D01*
X127090885Y-115705265D01*
X127128139Y-115615326D01*
X127144586Y-115586840D01*
X127203849Y-115509607D01*
X127227107Y-115486349D01*
X127304340Y-115427086D01*
X127332826Y-115410639D01*
X127422765Y-115373385D01*
X127454537Y-115364872D01*
X127559312Y-115351078D01*
X127575758Y-115350000D01*
X128759242Y-115350000D01*
X128775688Y-115351078D01*
G37*
%TD.AperFunction*%
%TA.AperFunction,Conductor*%
G36*
X126880295Y-101010571D02*
G01*
X126912964Y-101014872D01*
X126944735Y-101023385D01*
X127034674Y-101060639D01*
X127063160Y-101077086D01*
X127140393Y-101136349D01*
X127163651Y-101159607D01*
X127222914Y-101236840D01*
X127239361Y-101265326D01*
X127276615Y-101355265D01*
X127285128Y-101387037D01*
X127298922Y-101491812D01*
X127300000Y-101508258D01*
X127300000Y-102541742D01*
X127298922Y-102558188D01*
X127285128Y-102662963D01*
X127276615Y-102694735D01*
X127239361Y-102784674D01*
X127222914Y-102813160D01*
X127163651Y-102890393D01*
X127140393Y-102913651D01*
X127063160Y-102972914D01*
X127034674Y-102989361D01*
X126944735Y-103026615D01*
X126912964Y-103035128D01*
X126880295Y-103039429D01*
X126816445Y-103047835D01*
X126783555Y-103047835D01*
X126719705Y-103039429D01*
X126687036Y-103035128D01*
X126655265Y-103026615D01*
X126565326Y-102989361D01*
X126536840Y-102972914D01*
X126459607Y-102913651D01*
X126436349Y-102890393D01*
X126377086Y-102813160D01*
X126360639Y-102784674D01*
X126323385Y-102694735D01*
X126314872Y-102662963D01*
X126301078Y-102558188D01*
X126300000Y-102541742D01*
X126300000Y-101508258D01*
X126301078Y-101491812D01*
X126314872Y-101387037D01*
X126323385Y-101355265D01*
X126360639Y-101265326D01*
X126377086Y-101236840D01*
X126436349Y-101159607D01*
X126459607Y-101136349D01*
X126536840Y-101077086D01*
X126565326Y-101060639D01*
X126655265Y-101023385D01*
X126687036Y-101014872D01*
X126719705Y-101010571D01*
X126783555Y-101002165D01*
X126816445Y-101002165D01*
X126880295Y-101010571D01*
G37*
%TD.AperFunction*%
%TA.AperFunction,Conductor*%
G36*
X127980295Y-108160571D02*
G01*
X128012964Y-108164872D01*
X128044735Y-108173385D01*
X128134674Y-108210639D01*
X128163160Y-108227086D01*
X128240393Y-108286349D01*
X128263651Y-108309607D01*
X128322914Y-108386840D01*
X128339361Y-108415326D01*
X128376615Y-108505265D01*
X128385128Y-108537037D01*
X128398922Y-108641812D01*
X128400000Y-108658258D01*
X128400000Y-109691742D01*
X128398922Y-109708188D01*
X128385128Y-109812963D01*
X128376615Y-109844735D01*
X128339361Y-109934674D01*
X128322914Y-109963160D01*
X128263651Y-110040393D01*
X128240393Y-110063651D01*
X128163160Y-110122914D01*
X128134674Y-110139361D01*
X128044735Y-110176615D01*
X128012964Y-110185128D01*
X127980295Y-110189429D01*
X127916445Y-110197835D01*
X127883555Y-110197835D01*
X127819705Y-110189429D01*
X127787036Y-110185128D01*
X127755265Y-110176615D01*
X127665326Y-110139361D01*
X127636840Y-110122914D01*
X127559607Y-110063651D01*
X127536349Y-110040393D01*
X127477086Y-109963160D01*
X127460639Y-109934674D01*
X127423385Y-109844735D01*
X127414872Y-109812963D01*
X127401078Y-109708188D01*
X127400000Y-109691742D01*
X127400000Y-108658258D01*
X127401078Y-108641812D01*
X127414872Y-108537037D01*
X127423385Y-108505265D01*
X127460639Y-108415326D01*
X127477086Y-108386840D01*
X127536349Y-108309607D01*
X127559607Y-108286349D01*
X127636840Y-108227086D01*
X127665326Y-108210639D01*
X127755265Y-108173385D01*
X127787036Y-108164872D01*
X127819705Y-108160571D01*
X127883555Y-108152165D01*
X127916445Y-108152165D01*
X127980295Y-108160571D01*
G37*
%TD.AperFunction*%
M02*
