%TF.GenerationSoftware,KiCad,Pcbnew,(6.0.1)*%
%TF.CreationDate,2022-08-06T00:30:52-06:00*%
%TF.ProjectId,main_board,6d61696e-5f62-46f6-9172-642e6b696361,1.4*%
%TF.SameCoordinates,Original*%
%TF.FileFunction,Legend,Top*%
%TF.FilePolarity,Positive*%
%FSLAX46Y46*%
G04 Gerber Fmt 4.6, Leading zero omitted, Abs format (unit mm)*
G04 Created by KiCad (PCBNEW (6.0.1)) date 2022-08-06 00:30:52*
%MOMM*%
%LPD*%
G01*
G04 APERTURE LIST*
G04 Aperture macros list*
%AMRoundRect*
0 Rectangle with rounded corners*
0 $1 Rounding radius*
0 $2 $3 $4 $5 $6 $7 $8 $9 X,Y pos of 4 corners*
0 Add a 4 corners polygon primitive as box body*
4,1,4,$2,$3,$4,$5,$6,$7,$8,$9,$2,$3,0*
0 Add four circle primitives for the rounded corners*
1,1,$1+$1,$2,$3*
1,1,$1+$1,$4,$5*
1,1,$1+$1,$6,$7*
1,1,$1+$1,$8,$9*
0 Add four rect primitives between the rounded corners*
20,1,$1+$1,$2,$3,$4,$5,0*
20,1,$1+$1,$4,$5,$6,$7,0*
20,1,$1+$1,$6,$7,$8,$9,0*
20,1,$1+$1,$8,$9,$2,$3,0*%
%AMFreePoly0*
4,1,22,0.550000,-0.750000,0.000000,-0.750000,0.000000,-0.745033,-0.079941,-0.743568,-0.215256,-0.701293,-0.333266,-0.622738,-0.424486,-0.514219,-0.481581,-0.384460,-0.499164,-0.250000,-0.500000,-0.250000,-0.500000,0.250000,-0.499164,0.250000,-0.499963,0.256109,-0.478152,0.396186,-0.417904,0.524511,-0.324060,0.630769,-0.204165,0.706417,-0.067858,0.745374,0.000000,0.744959,0.000000,0.750000,
0.550000,0.750000,0.550000,-0.750000,0.550000,-0.750000,$1*%
%AMFreePoly1*
4,1,20,0.000000,0.744959,0.073905,0.744508,0.209726,0.703889,0.328688,0.626782,0.421226,0.519385,0.479903,0.390333,0.500000,0.250000,0.500000,-0.250000,0.499851,-0.262216,0.476331,-0.402017,0.414519,-0.529596,0.319384,-0.634700,0.198574,-0.708877,0.061801,-0.746166,0.000000,-0.745033,0.000000,-0.750000,-0.550000,-0.750000,-0.550000,0.750000,0.000000,0.750000,0.000000,0.744959,
0.000000,0.744959,$1*%
G04 Aperture macros list end*
%ADD10C,0.300000*%
%ADD11C,0.150000*%
%ADD12C,0.127000*%
%ADD13C,0.200000*%
%ADD14C,0.120000*%
%ADD15C,0.010000*%
%ADD16R,1.650000X1.650000*%
%ADD17C,1.650000*%
%ADD18R,2.000000X2.000000*%
%ADD19C,2.000000*%
%ADD20C,1.524000*%
%ADD21R,1.700000X1.700000*%
%ADD22O,1.700000X1.700000*%
%ADD23RoundRect,0.250001X-0.462499X-0.624999X0.462499X-0.624999X0.462499X0.624999X-0.462499X0.624999X0*%
%ADD24RoundRect,0.250000X-0.350000X-0.450000X0.350000X-0.450000X0.350000X0.450000X-0.350000X0.450000X0*%
%ADD25R,1.560000X0.650000*%
%ADD26C,1.800000*%
%ADD27R,2.500000X2.300000*%
%ADD28RoundRect,0.250000X0.350000X0.450000X-0.350000X0.450000X-0.350000X-0.450000X0.350000X-0.450000X0*%
%ADD29RoundRect,0.250000X-0.625000X0.400000X-0.625000X-0.400000X0.625000X-0.400000X0.625000X0.400000X0*%
%ADD30RoundRect,0.150000X-0.587500X-0.150000X0.587500X-0.150000X0.587500X0.150000X-0.587500X0.150000X0*%
%ADD31RoundRect,0.150000X-0.825000X-0.150000X0.825000X-0.150000X0.825000X0.150000X-0.825000X0.150000X0*%
%ADD32RoundRect,0.150000X0.587500X0.150000X-0.587500X0.150000X-0.587500X-0.150000X0.587500X-0.150000X0*%
%ADD33RoundRect,0.250001X-0.624999X0.462499X-0.624999X-0.462499X0.624999X-0.462499X0.624999X0.462499X0*%
%ADD34C,1.000000*%
%ADD35RoundRect,0.250000X0.337500X0.475000X-0.337500X0.475000X-0.337500X-0.475000X0.337500X-0.475000X0*%
%ADD36R,1.000000X1.000000*%
%ADD37O,1.000000X1.000000*%
%ADD38C,2.600000*%
%ADD39R,2.600000X2.600000*%
%ADD40RoundRect,0.250000X-0.475000X0.337500X-0.475000X-0.337500X0.475000X-0.337500X0.475000X0.337500X0*%
%ADD41RoundRect,0.250000X0.625000X-0.400000X0.625000X0.400000X-0.625000X0.400000X-0.625000X-0.400000X0*%
%ADD42RoundRect,0.250000X0.650000X-0.412500X0.650000X0.412500X-0.650000X0.412500X-0.650000X-0.412500X0*%
%ADD43R,0.800000X0.500000*%
%ADD44R,0.800000X0.400000*%
%ADD45R,2.300000X2.500000*%
%ADD46RoundRect,0.250000X-0.450000X0.350000X-0.450000X-0.350000X0.450000X-0.350000X0.450000X0.350000X0*%
%ADD47C,2.400000*%
%ADD48R,0.700000X1.000000*%
%ADD49C,1.600000*%
%ADD50R,1.500000X1.500000*%
%ADD51R,0.650000X1.560000*%
%ADD52RoundRect,0.250001X0.462499X0.624999X-0.462499X0.624999X-0.462499X-0.624999X0.462499X-0.624999X0*%
%ADD53RoundRect,0.250000X0.412500X0.650000X-0.412500X0.650000X-0.412500X-0.650000X0.412500X-0.650000X0*%
%ADD54RoundRect,0.237500X0.237500X-0.300000X0.237500X0.300000X-0.237500X0.300000X-0.237500X-0.300000X0*%
%ADD55FreePoly0,0.000000*%
%ADD56R,1.000000X1.500000*%
%ADD57FreePoly1,0.000000*%
%ADD58RoundRect,0.250000X-0.325000X-0.450000X0.325000X-0.450000X0.325000X0.450000X-0.325000X0.450000X0*%
%ADD59O,1.600000X1.600000*%
%ADD60C,1.350000*%
%ADD61RoundRect,0.150000X-0.875000X-0.150000X0.875000X-0.150000X0.875000X0.150000X-0.875000X0.150000X0*%
%ADD62RoundRect,0.250000X0.450000X-0.325000X0.450000X0.325000X-0.450000X0.325000X-0.450000X-0.325000X0*%
%ADD63RoundRect,0.250000X-0.650000X0.412500X-0.650000X-0.412500X0.650000X-0.412500X0.650000X0.412500X0*%
%ADD64RoundRect,0.250000X0.475000X-0.337500X0.475000X0.337500X-0.475000X0.337500X-0.475000X-0.337500X0*%
%ADD65RoundRect,0.250000X-0.337500X-0.475000X0.337500X-0.475000X0.337500X0.475000X-0.337500X0.475000X0*%
G04 APERTURE END LIST*
D10*
X141721428Y-99392857D02*
X141650000Y-99321428D01*
X141578571Y-99178571D01*
X141578571Y-98821428D01*
X141650000Y-98678571D01*
X141721428Y-98607142D01*
X141864285Y-98535714D01*
X142007142Y-98535714D01*
X142221428Y-98607142D01*
X143078571Y-99464285D01*
X143078571Y-98535714D01*
X141578571Y-97607142D02*
X141578571Y-97464285D01*
X141650000Y-97321428D01*
X141721428Y-97250000D01*
X141864285Y-97178571D01*
X142150000Y-97107142D01*
X142507142Y-97107142D01*
X142792857Y-97178571D01*
X142935714Y-97250000D01*
X143007142Y-97321428D01*
X143078571Y-97464285D01*
X143078571Y-97607142D01*
X143007142Y-97750000D01*
X142935714Y-97821428D01*
X142792857Y-97892857D01*
X142507142Y-97964285D01*
X142150000Y-97964285D01*
X141864285Y-97892857D01*
X141721428Y-97821428D01*
X141650000Y-97750000D01*
X141578571Y-97607142D01*
X141721428Y-96535714D02*
X141650000Y-96464285D01*
X141578571Y-96321428D01*
X141578571Y-95964285D01*
X141650000Y-95821428D01*
X141721428Y-95750000D01*
X141864285Y-95678571D01*
X142007142Y-95678571D01*
X142221428Y-95750000D01*
X143078571Y-96607142D01*
X143078571Y-95678571D01*
X141721428Y-95107142D02*
X141650000Y-95035714D01*
X141578571Y-94892857D01*
X141578571Y-94535714D01*
X141650000Y-94392857D01*
X141721428Y-94321428D01*
X141864285Y-94250000D01*
X142007142Y-94250000D01*
X142221428Y-94321428D01*
X143078571Y-95178571D01*
X143078571Y-94250000D01*
X143078571Y-86821428D02*
X142364285Y-87321428D01*
X143078571Y-87678571D02*
X141578571Y-87678571D01*
X141578571Y-87107142D01*
X141650000Y-86964285D01*
X141721428Y-86892857D01*
X141864285Y-86821428D01*
X142078571Y-86821428D01*
X142221428Y-86892857D01*
X142292857Y-86964285D01*
X142364285Y-87107142D01*
X142364285Y-87678571D01*
X142292857Y-86178571D02*
X142292857Y-85678571D01*
X143078571Y-85464285D02*
X143078571Y-86178571D01*
X141578571Y-86178571D01*
X141578571Y-85464285D01*
X141578571Y-85035714D02*
X143078571Y-84535714D01*
X141578571Y-84035714D01*
X142935714Y-83535714D02*
X143007142Y-83464285D01*
X143078571Y-83535714D01*
X143007142Y-83607142D01*
X142935714Y-83535714D01*
X143078571Y-83535714D01*
X143078571Y-80892857D02*
X143078571Y-81750000D01*
X143078571Y-81321428D02*
X141578571Y-81321428D01*
X141792857Y-81464285D01*
X141935714Y-81607142D01*
X142007142Y-81750000D01*
X142935714Y-80250000D02*
X143007142Y-80178571D01*
X143078571Y-80250000D01*
X143007142Y-80321428D01*
X142935714Y-80250000D01*
X143078571Y-80250000D01*
X142078571Y-78892857D02*
X143078571Y-78892857D01*
X141507142Y-79250000D02*
X142578571Y-79607142D01*
X142578571Y-78678571D01*
X141578571Y-69250000D02*
X142650000Y-69250000D01*
X142864285Y-69321428D01*
X143007142Y-69464285D01*
X143078571Y-69678571D01*
X143078571Y-69821428D01*
X141578571Y-68678571D02*
X141578571Y-67678571D01*
X143078571Y-68678571D01*
X143078571Y-67678571D01*
X142650000Y-67178571D02*
X142650000Y-66464285D01*
X143078571Y-67321428D02*
X141578571Y-66821428D01*
X143078571Y-66321428D01*
X142935714Y-64964285D02*
X143007142Y-65035714D01*
X143078571Y-65250000D01*
X143078571Y-65392857D01*
X143007142Y-65607142D01*
X142864285Y-65750000D01*
X142721428Y-65821428D01*
X142435714Y-65892857D01*
X142221428Y-65892857D01*
X141935714Y-65821428D01*
X141792857Y-65750000D01*
X141650000Y-65607142D01*
X141578571Y-65392857D01*
X141578571Y-65250000D01*
X141650000Y-65035714D01*
X141721428Y-64964285D01*
X141578571Y-64535714D02*
X141578571Y-63678571D01*
X143078571Y-64107142D02*
X141578571Y-64107142D01*
D11*
X101509523Y-112752380D02*
X101842857Y-113752380D01*
X102176190Y-112752380D01*
X102938095Y-113704761D02*
X102842857Y-113752380D01*
X102652380Y-113752380D01*
X102557142Y-113704761D01*
X102509523Y-113657142D01*
X102461904Y-113561904D01*
X102461904Y-113276190D01*
X102509523Y-113180952D01*
X102557142Y-113133333D01*
X102652380Y-113085714D01*
X102842857Y-113085714D01*
X102938095Y-113133333D01*
X103795238Y-113704761D02*
X103700000Y-113752380D01*
X103509523Y-113752380D01*
X103414285Y-113704761D01*
X103366666Y-113657142D01*
X103319047Y-113561904D01*
X103319047Y-113276190D01*
X103366666Y-113180952D01*
X103414285Y-113133333D01*
X103509523Y-113085714D01*
X103700000Y-113085714D01*
X103795238Y-113133333D01*
D10*
X111271428Y-68378571D02*
X111271428Y-69450000D01*
X111200000Y-69664285D01*
X111057142Y-69807142D01*
X110842857Y-69878571D01*
X110700000Y-69878571D01*
X112700000Y-69878571D02*
X111985714Y-69878571D01*
X111985714Y-68378571D01*
X114057142Y-69735714D02*
X113985714Y-69807142D01*
X113771428Y-69878571D01*
X113628571Y-69878571D01*
X113414285Y-69807142D01*
X113271428Y-69664285D01*
X113200000Y-69521428D01*
X113128571Y-69235714D01*
X113128571Y-69021428D01*
X113200000Y-68735714D01*
X113271428Y-68592857D01*
X113414285Y-68450000D01*
X113628571Y-68378571D01*
X113771428Y-68378571D01*
X113985714Y-68450000D01*
X114057142Y-68521428D01*
X115128571Y-68378571D02*
X115128571Y-69450000D01*
X115057142Y-69664285D01*
X114914285Y-69807142D01*
X114700000Y-69878571D01*
X114557142Y-69878571D01*
X116557142Y-69878571D02*
X115842857Y-69878571D01*
X115842857Y-68378571D01*
X117914285Y-69735714D02*
X117842857Y-69807142D01*
X117628571Y-69878571D01*
X117485714Y-69878571D01*
X117271428Y-69807142D01*
X117128571Y-69664285D01*
X117057142Y-69521428D01*
X116985714Y-69235714D01*
X116985714Y-69021428D01*
X117057142Y-68735714D01*
X117128571Y-68592857D01*
X117271428Y-68450000D01*
X117485714Y-68378571D01*
X117628571Y-68378571D01*
X117842857Y-68450000D01*
X117914285Y-68521428D01*
X118985714Y-68378571D02*
X118985714Y-69450000D01*
X118914285Y-69664285D01*
X118771428Y-69807142D01*
X118557142Y-69878571D01*
X118414285Y-69878571D01*
X120414285Y-69878571D02*
X119700000Y-69878571D01*
X119700000Y-68378571D01*
X121771428Y-69735714D02*
X121700000Y-69807142D01*
X121485714Y-69878571D01*
X121342857Y-69878571D01*
X121128571Y-69807142D01*
X120985714Y-69664285D01*
X120914285Y-69521428D01*
X120842857Y-69235714D01*
X120842857Y-69021428D01*
X120914285Y-68735714D01*
X120985714Y-68592857D01*
X121128571Y-68450000D01*
X121342857Y-68378571D01*
X121485714Y-68378571D01*
X121700000Y-68450000D01*
X121771428Y-68521428D01*
X122842857Y-68378571D02*
X122842857Y-69450000D01*
X122771428Y-69664285D01*
X122628571Y-69807142D01*
X122414285Y-69878571D01*
X122271428Y-69878571D01*
X124271428Y-69878571D02*
X123557142Y-69878571D01*
X123557142Y-68378571D01*
X125628571Y-69735714D02*
X125557142Y-69807142D01*
X125342857Y-69878571D01*
X125200000Y-69878571D01*
X124985714Y-69807142D01*
X124842857Y-69664285D01*
X124771428Y-69521428D01*
X124700000Y-69235714D01*
X124700000Y-69021428D01*
X124771428Y-68735714D01*
X124842857Y-68592857D01*
X124985714Y-68450000D01*
X125200000Y-68378571D01*
X125342857Y-68378571D01*
X125557142Y-68450000D01*
X125628571Y-68521428D01*
D11*
X138419047Y-125071428D02*
X139180952Y-125071428D01*
X138800000Y-125452380D02*
X138800000Y-124690476D01*
X93585714Y-90152380D02*
X93585714Y-89152380D01*
X93966666Y-89152380D01*
X94061904Y-89200000D01*
X94109523Y-89247619D01*
X94157142Y-89342857D01*
X94157142Y-89485714D01*
X94109523Y-89580952D01*
X94061904Y-89628571D01*
X93966666Y-89676190D01*
X93585714Y-89676190D01*
X94538095Y-90104761D02*
X94680952Y-90152380D01*
X94919047Y-90152380D01*
X95014285Y-90104761D01*
X95061904Y-90057142D01*
X95109523Y-89961904D01*
X95109523Y-89866666D01*
X95061904Y-89771428D01*
X95014285Y-89723809D01*
X94919047Y-89676190D01*
X94728571Y-89628571D01*
X94633333Y-89580952D01*
X94585714Y-89533333D01*
X94538095Y-89438095D01*
X94538095Y-89342857D01*
X94585714Y-89247619D01*
X94633333Y-89200000D01*
X94728571Y-89152380D01*
X94966666Y-89152380D01*
X95109523Y-89200000D01*
X96061904Y-90152380D02*
X95490476Y-90152380D01*
X95776190Y-90152380D02*
X95776190Y-89152380D01*
X95680952Y-89295238D01*
X95585714Y-89390476D01*
X95490476Y-89438095D01*
X62028571Y-92138095D02*
X62028571Y-92471428D01*
X62552380Y-92471428D02*
X61552380Y-92471428D01*
X61552380Y-91995238D01*
X62552380Y-91138095D02*
X62552380Y-91614285D01*
X61552380Y-91614285D01*
X62552380Y-90280952D02*
X62552380Y-90852380D01*
X62552380Y-90566666D02*
X61552380Y-90566666D01*
X61695238Y-90661904D01*
X61790476Y-90757142D01*
X61838095Y-90852380D01*
X99457142Y-92266666D02*
X99504761Y-92314285D01*
X99552380Y-92457142D01*
X99552380Y-92552380D01*
X99504761Y-92695238D01*
X99409523Y-92790476D01*
X99314285Y-92838095D01*
X99123809Y-92885714D01*
X98980952Y-92885714D01*
X98790476Y-92838095D01*
X98695238Y-92790476D01*
X98600000Y-92695238D01*
X98552380Y-92552380D01*
X98552380Y-92457142D01*
X98600000Y-92314285D01*
X98647619Y-92266666D01*
X98552380Y-91361904D02*
X98552380Y-91838095D01*
X99028571Y-91885714D01*
X98980952Y-91838095D01*
X98933333Y-91742857D01*
X98933333Y-91504761D01*
X98980952Y-91409523D01*
X99028571Y-91361904D01*
X99123809Y-91314285D01*
X99361904Y-91314285D01*
X99457142Y-91361904D01*
X99504761Y-91409523D01*
X99552380Y-91504761D01*
X99552380Y-91742857D01*
X99504761Y-91838095D01*
X99457142Y-91885714D01*
X136133333Y-88857142D02*
X136085714Y-88904761D01*
X135942857Y-88952380D01*
X135847619Y-88952380D01*
X135704761Y-88904761D01*
X135609523Y-88809523D01*
X135561904Y-88714285D01*
X135514285Y-88523809D01*
X135514285Y-88380952D01*
X135561904Y-88190476D01*
X135609523Y-88095238D01*
X135704761Y-88000000D01*
X135847619Y-87952380D01*
X135942857Y-87952380D01*
X136085714Y-88000000D01*
X136133333Y-88047619D01*
X136990476Y-87952380D02*
X136800000Y-87952380D01*
X136704761Y-88000000D01*
X136657142Y-88047619D01*
X136561904Y-88190476D01*
X136514285Y-88380952D01*
X136514285Y-88761904D01*
X136561904Y-88857142D01*
X136609523Y-88904761D01*
X136704761Y-88952380D01*
X136895238Y-88952380D01*
X136990476Y-88904761D01*
X137038095Y-88857142D01*
X137085714Y-88761904D01*
X137085714Y-88523809D01*
X137038095Y-88428571D01*
X136990476Y-88380952D01*
X136895238Y-88333333D01*
X136704761Y-88333333D01*
X136609523Y-88380952D01*
X136561904Y-88428571D01*
X136514285Y-88523809D01*
X104507380Y-110303333D02*
X105221666Y-110303333D01*
X105364523Y-110350952D01*
X105459761Y-110446190D01*
X105507380Y-110589047D01*
X105507380Y-110684285D01*
X104507380Y-109398571D02*
X104507380Y-109589047D01*
X104555000Y-109684285D01*
X104602619Y-109731904D01*
X104745476Y-109827142D01*
X104935952Y-109874761D01*
X105316904Y-109874761D01*
X105412142Y-109827142D01*
X105459761Y-109779523D01*
X105507380Y-109684285D01*
X105507380Y-109493809D01*
X105459761Y-109398571D01*
X105412142Y-109350952D01*
X105316904Y-109303333D01*
X105078809Y-109303333D01*
X104983571Y-109350952D01*
X104935952Y-109398571D01*
X104888333Y-109493809D01*
X104888333Y-109684285D01*
X104935952Y-109779523D01*
X104983571Y-109827142D01*
X105078809Y-109874761D01*
X125959166Y-101238571D02*
X125625833Y-101238571D01*
X125625833Y-101762380D02*
X125625833Y-100762380D01*
X126102023Y-100762380D01*
X126816309Y-101238571D02*
X126959166Y-101286190D01*
X127006785Y-101333809D01*
X127054404Y-101429047D01*
X127054404Y-101571904D01*
X127006785Y-101667142D01*
X126959166Y-101714761D01*
X126863928Y-101762380D01*
X126482976Y-101762380D01*
X126482976Y-100762380D01*
X126816309Y-100762380D01*
X126911547Y-100810000D01*
X126959166Y-100857619D01*
X127006785Y-100952857D01*
X127006785Y-101048095D01*
X126959166Y-101143333D01*
X126911547Y-101190952D01*
X126816309Y-101238571D01*
X126482976Y-101238571D01*
X128006785Y-101762380D02*
X127435357Y-101762380D01*
X127721071Y-101762380D02*
X127721071Y-100762380D01*
X127625833Y-100905238D01*
X127530595Y-101000476D01*
X127435357Y-101048095D01*
X94833333Y-130552380D02*
X94500000Y-130076190D01*
X94261904Y-130552380D02*
X94261904Y-129552380D01*
X94642857Y-129552380D01*
X94738095Y-129600000D01*
X94785714Y-129647619D01*
X94833333Y-129742857D01*
X94833333Y-129885714D01*
X94785714Y-129980952D01*
X94738095Y-130028571D01*
X94642857Y-130076190D01*
X94261904Y-130076190D01*
X95738095Y-129552380D02*
X95261904Y-129552380D01*
X95214285Y-130028571D01*
X95261904Y-129980952D01*
X95357142Y-129933333D01*
X95595238Y-129933333D01*
X95690476Y-129980952D01*
X95738095Y-130028571D01*
X95785714Y-130123809D01*
X95785714Y-130361904D01*
X95738095Y-130457142D01*
X95690476Y-130504761D01*
X95595238Y-130552380D01*
X95357142Y-130552380D01*
X95261904Y-130504761D01*
X95214285Y-130457142D01*
X111055595Y-137662380D02*
X111055595Y-138471904D01*
X111103214Y-138567142D01*
X111150833Y-138614761D01*
X111246071Y-138662380D01*
X111436547Y-138662380D01*
X111531785Y-138614761D01*
X111579404Y-138567142D01*
X111627023Y-138471904D01*
X111627023Y-137662380D01*
X112531785Y-137995714D02*
X112531785Y-138662380D01*
X112293690Y-137614761D02*
X112055595Y-138329047D01*
X112674642Y-138329047D01*
X66557380Y-134209523D02*
X67557380Y-133876190D01*
X66557380Y-133542857D01*
X67557380Y-132638095D02*
X67081190Y-132971428D01*
X67557380Y-133209523D02*
X66557380Y-133209523D01*
X66557380Y-132828571D01*
X66605000Y-132733333D01*
X66652619Y-132685714D01*
X66747857Y-132638095D01*
X66890714Y-132638095D01*
X66985952Y-132685714D01*
X67033571Y-132733333D01*
X67081190Y-132828571D01*
X67081190Y-133209523D01*
X67557380Y-131685714D02*
X67557380Y-132257142D01*
X67557380Y-131971428D02*
X66557380Y-131971428D01*
X66700238Y-132066666D01*
X66795476Y-132161904D01*
X66843095Y-132257142D01*
X104361904Y-148652380D02*
X104361904Y-147652380D01*
X104600000Y-147652380D01*
X104742857Y-147700000D01*
X104838095Y-147795238D01*
X104885714Y-147890476D01*
X104933333Y-148080952D01*
X104933333Y-148223809D01*
X104885714Y-148414285D01*
X104838095Y-148509523D01*
X104742857Y-148604761D01*
X104600000Y-148652380D01*
X104361904Y-148652380D01*
X105885714Y-148652380D02*
X105314285Y-148652380D01*
X105600000Y-148652380D02*
X105600000Y-147652380D01*
X105504761Y-147795238D01*
X105409523Y-147890476D01*
X105314285Y-147938095D01*
X109514285Y-142452380D02*
X109180952Y-141976190D01*
X108942857Y-142452380D02*
X108942857Y-141452380D01*
X109323809Y-141452380D01*
X109419047Y-141500000D01*
X109466666Y-141547619D01*
X109514285Y-141642857D01*
X109514285Y-141785714D01*
X109466666Y-141880952D01*
X109419047Y-141928571D01*
X109323809Y-141976190D01*
X108942857Y-141976190D01*
X109895238Y-142404761D02*
X110038095Y-142452380D01*
X110276190Y-142452380D01*
X110371428Y-142404761D01*
X110419047Y-142357142D01*
X110466666Y-142261904D01*
X110466666Y-142166666D01*
X110419047Y-142071428D01*
X110371428Y-142023809D01*
X110276190Y-141976190D01*
X110085714Y-141928571D01*
X109990476Y-141880952D01*
X109942857Y-141833333D01*
X109895238Y-141738095D01*
X109895238Y-141642857D01*
X109942857Y-141547619D01*
X109990476Y-141500000D01*
X110085714Y-141452380D01*
X110323809Y-141452380D01*
X110466666Y-141500000D01*
X110895238Y-142452380D02*
X110895238Y-141452380D01*
X111323809Y-142452380D02*
X111323809Y-141928571D01*
X111276190Y-141833333D01*
X111180952Y-141785714D01*
X111038095Y-141785714D01*
X110942857Y-141833333D01*
X110895238Y-141880952D01*
X112228571Y-141785714D02*
X112228571Y-142452380D01*
X111800000Y-141785714D02*
X111800000Y-142309523D01*
X111847619Y-142404761D01*
X111942857Y-142452380D01*
X112085714Y-142452380D01*
X112180952Y-142404761D01*
X112228571Y-142357142D01*
X112704761Y-141785714D02*
X112704761Y-142452380D01*
X112704761Y-141880952D02*
X112752380Y-141833333D01*
X112847619Y-141785714D01*
X112990476Y-141785714D01*
X113085714Y-141833333D01*
X113133333Y-141928571D01*
X113133333Y-142452380D01*
X113466666Y-141785714D02*
X113847619Y-141785714D01*
X113609523Y-141452380D02*
X113609523Y-142309523D01*
X113657142Y-142404761D01*
X113752380Y-142452380D01*
X113847619Y-142452380D01*
X114704761Y-142452380D02*
X114133333Y-142452380D01*
X114419047Y-142452380D02*
X114419047Y-141452380D01*
X114323809Y-141595238D01*
X114228571Y-141690476D01*
X114133333Y-141738095D01*
X111569880Y-104991666D02*
X111093690Y-105325000D01*
X111569880Y-105563095D02*
X110569880Y-105563095D01*
X110569880Y-105182142D01*
X110617500Y-105086904D01*
X110665119Y-105039285D01*
X110760357Y-104991666D01*
X110903214Y-104991666D01*
X110998452Y-105039285D01*
X111046071Y-105086904D01*
X111093690Y-105182142D01*
X111093690Y-105563095D01*
X110665119Y-104610714D02*
X110617500Y-104563095D01*
X110569880Y-104467857D01*
X110569880Y-104229761D01*
X110617500Y-104134523D01*
X110665119Y-104086904D01*
X110760357Y-104039285D01*
X110855595Y-104039285D01*
X110998452Y-104086904D01*
X111569880Y-104658333D01*
X111569880Y-104039285D01*
X137229404Y-117562380D02*
X137229404Y-116562380D01*
X137467500Y-116562380D01*
X137610357Y-116610000D01*
X137705595Y-116705238D01*
X137753214Y-116800476D01*
X137800833Y-116990952D01*
X137800833Y-117133809D01*
X137753214Y-117324285D01*
X137705595Y-117419523D01*
X137610357Y-117514761D01*
X137467500Y-117562380D01*
X137229404Y-117562380D01*
X138657976Y-116895714D02*
X138657976Y-117562380D01*
X138419880Y-116514761D02*
X138181785Y-117229047D01*
X138800833Y-117229047D01*
X96551666Y-122614761D02*
X96694523Y-122662380D01*
X96932619Y-122662380D01*
X97027857Y-122614761D01*
X97075476Y-122567142D01*
X97123095Y-122471904D01*
X97123095Y-122376666D01*
X97075476Y-122281428D01*
X97027857Y-122233809D01*
X96932619Y-122186190D01*
X96742142Y-122138571D01*
X96646904Y-122090952D01*
X96599285Y-122043333D01*
X96551666Y-121948095D01*
X96551666Y-121852857D01*
X96599285Y-121757619D01*
X96646904Y-121710000D01*
X96742142Y-121662380D01*
X96980238Y-121662380D01*
X97123095Y-121710000D01*
X97456428Y-121662380D02*
X97694523Y-122662380D01*
X97885000Y-121948095D01*
X98075476Y-122662380D01*
X98313571Y-121662380D01*
X98646904Y-121757619D02*
X98694523Y-121710000D01*
X98789761Y-121662380D01*
X99027857Y-121662380D01*
X99123095Y-121710000D01*
X99170714Y-121757619D01*
X99218333Y-121852857D01*
X99218333Y-121948095D01*
X99170714Y-122090952D01*
X98599285Y-122662380D01*
X99218333Y-122662380D01*
X102155595Y-114762380D02*
X102155595Y-115571904D01*
X102203214Y-115667142D01*
X102250833Y-115714761D01*
X102346071Y-115762380D01*
X102536547Y-115762380D01*
X102631785Y-115714761D01*
X102679404Y-115667142D01*
X102727023Y-115571904D01*
X102727023Y-114762380D01*
X103679404Y-114762380D02*
X103203214Y-114762380D01*
X103155595Y-115238571D01*
X103203214Y-115190952D01*
X103298452Y-115143333D01*
X103536547Y-115143333D01*
X103631785Y-115190952D01*
X103679404Y-115238571D01*
X103727023Y-115333809D01*
X103727023Y-115571904D01*
X103679404Y-115667142D01*
X103631785Y-115714761D01*
X103536547Y-115762380D01*
X103298452Y-115762380D01*
X103203214Y-115714761D01*
X103155595Y-115667142D01*
X127919880Y-106671904D02*
X128729404Y-106671904D01*
X128824642Y-106624285D01*
X128872261Y-106576666D01*
X128919880Y-106481428D01*
X128919880Y-106290952D01*
X128872261Y-106195714D01*
X128824642Y-106148095D01*
X128729404Y-106100476D01*
X127919880Y-106100476D01*
X128348452Y-105481428D02*
X128300833Y-105576666D01*
X128253214Y-105624285D01*
X128157976Y-105671904D01*
X128110357Y-105671904D01*
X128015119Y-105624285D01*
X127967500Y-105576666D01*
X127919880Y-105481428D01*
X127919880Y-105290952D01*
X127967500Y-105195714D01*
X128015119Y-105148095D01*
X128110357Y-105100476D01*
X128157976Y-105100476D01*
X128253214Y-105148095D01*
X128300833Y-105195714D01*
X128348452Y-105290952D01*
X128348452Y-105481428D01*
X128396071Y-105576666D01*
X128443690Y-105624285D01*
X128538928Y-105671904D01*
X128729404Y-105671904D01*
X128824642Y-105624285D01*
X128872261Y-105576666D01*
X128919880Y-105481428D01*
X128919880Y-105290952D01*
X128872261Y-105195714D01*
X128824642Y-105148095D01*
X128729404Y-105100476D01*
X128538928Y-105100476D01*
X128443690Y-105148095D01*
X128396071Y-105195714D01*
X128348452Y-105290952D01*
X120028571Y-94733333D02*
X120028571Y-95066666D01*
X120552380Y-95066666D02*
X119552380Y-95066666D01*
X119552380Y-94590476D01*
X119552380Y-94304761D02*
X119552380Y-93685714D01*
X119933333Y-94019047D01*
X119933333Y-93876190D01*
X119980952Y-93780952D01*
X120028571Y-93733333D01*
X120123809Y-93685714D01*
X120361904Y-93685714D01*
X120457142Y-93733333D01*
X120504761Y-93780952D01*
X120552380Y-93876190D01*
X120552380Y-94161904D01*
X120504761Y-94257142D01*
X120457142Y-94304761D01*
X133305595Y-116112380D02*
X133877023Y-116112380D01*
X133591309Y-117112380D02*
X133591309Y-116112380D01*
X134210357Y-117112380D02*
X134210357Y-116112380D01*
X134591309Y-116112380D01*
X134686547Y-116160000D01*
X134734166Y-116207619D01*
X134781785Y-116302857D01*
X134781785Y-116445714D01*
X134734166Y-116540952D01*
X134686547Y-116588571D01*
X134591309Y-116636190D01*
X134210357Y-116636190D01*
X135115119Y-116112380D02*
X135734166Y-116112380D01*
X135400833Y-116493333D01*
X135543690Y-116493333D01*
X135638928Y-116540952D01*
X135686547Y-116588571D01*
X135734166Y-116683809D01*
X135734166Y-116921904D01*
X135686547Y-117017142D01*
X135638928Y-117064761D01*
X135543690Y-117112380D01*
X135257976Y-117112380D01*
X135162738Y-117064761D01*
X135115119Y-117017142D01*
X107674642Y-108367142D02*
X107627023Y-108414761D01*
X107484166Y-108462380D01*
X107388928Y-108462380D01*
X107246071Y-108414761D01*
X107150833Y-108319523D01*
X107103214Y-108224285D01*
X107055595Y-108033809D01*
X107055595Y-107890952D01*
X107103214Y-107700476D01*
X107150833Y-107605238D01*
X107246071Y-107510000D01*
X107388928Y-107462380D01*
X107484166Y-107462380D01*
X107627023Y-107510000D01*
X107674642Y-107557619D01*
X108627023Y-108462380D02*
X108055595Y-108462380D01*
X108341309Y-108462380D02*
X108341309Y-107462380D01*
X108246071Y-107605238D01*
X108150833Y-107700476D01*
X108055595Y-107748095D01*
X109198452Y-107890952D02*
X109103214Y-107843333D01*
X109055595Y-107795714D01*
X109007976Y-107700476D01*
X109007976Y-107652857D01*
X109055595Y-107557619D01*
X109103214Y-107510000D01*
X109198452Y-107462380D01*
X109388928Y-107462380D01*
X109484166Y-107510000D01*
X109531785Y-107557619D01*
X109579404Y-107652857D01*
X109579404Y-107700476D01*
X109531785Y-107795714D01*
X109484166Y-107843333D01*
X109388928Y-107890952D01*
X109198452Y-107890952D01*
X109103214Y-107938571D01*
X109055595Y-107986190D01*
X109007976Y-108081428D01*
X109007976Y-108271904D01*
X109055595Y-108367142D01*
X109103214Y-108414761D01*
X109198452Y-108462380D01*
X109388928Y-108462380D01*
X109484166Y-108414761D01*
X109531785Y-108367142D01*
X109579404Y-108271904D01*
X109579404Y-108081428D01*
X109531785Y-107986190D01*
X109484166Y-107938571D01*
X109388928Y-107890952D01*
X119138095Y-103952380D02*
X119709523Y-103952380D01*
X119423809Y-104952380D02*
X119423809Y-103952380D01*
X120042857Y-104952380D02*
X120042857Y-103952380D01*
X120423809Y-103952380D01*
X120519047Y-104000000D01*
X120566666Y-104047619D01*
X120614285Y-104142857D01*
X120614285Y-104285714D01*
X120566666Y-104380952D01*
X120519047Y-104428571D01*
X120423809Y-104476190D01*
X120042857Y-104476190D01*
X121471428Y-104285714D02*
X121471428Y-104952380D01*
X121233333Y-103904761D02*
X120995238Y-104619047D01*
X121614285Y-104619047D01*
X103855595Y-122962380D02*
X103855595Y-123771904D01*
X103903214Y-123867142D01*
X103950833Y-123914761D01*
X104046071Y-123962380D01*
X104236547Y-123962380D01*
X104331785Y-123914761D01*
X104379404Y-123867142D01*
X104427023Y-123771904D01*
X104427023Y-122962380D01*
X105331785Y-122962380D02*
X105141309Y-122962380D01*
X105046071Y-123010000D01*
X104998452Y-123057619D01*
X104903214Y-123200476D01*
X104855595Y-123390952D01*
X104855595Y-123771904D01*
X104903214Y-123867142D01*
X104950833Y-123914761D01*
X105046071Y-123962380D01*
X105236547Y-123962380D01*
X105331785Y-123914761D01*
X105379404Y-123867142D01*
X105427023Y-123771904D01*
X105427023Y-123533809D01*
X105379404Y-123438571D01*
X105331785Y-123390952D01*
X105236547Y-123343333D01*
X105046071Y-123343333D01*
X104950833Y-123390952D01*
X104903214Y-123438571D01*
X104855595Y-123533809D01*
X140552380Y-130343333D02*
X141266666Y-130343333D01*
X141409523Y-130390952D01*
X141504761Y-130486190D01*
X141552380Y-130629047D01*
X141552380Y-130724285D01*
X141552380Y-129867142D02*
X140552380Y-129867142D01*
X140552380Y-129486190D01*
X140600000Y-129390952D01*
X140647619Y-129343333D01*
X140742857Y-129295714D01*
X140885714Y-129295714D01*
X140980952Y-129343333D01*
X141028571Y-129390952D01*
X141076190Y-129486190D01*
X141076190Y-129867142D01*
X141552380Y-128343333D02*
X141552380Y-128914761D01*
X141552380Y-128629047D02*
X140552380Y-128629047D01*
X140695238Y-128724285D01*
X140790476Y-128819523D01*
X140838095Y-128914761D01*
X104330595Y-139862380D02*
X104902023Y-139862380D01*
X104616309Y-140862380D02*
X104616309Y-139862380D01*
X105235357Y-140862380D02*
X105235357Y-139862380D01*
X105616309Y-139862380D01*
X105711547Y-139910000D01*
X105759166Y-139957619D01*
X105806785Y-140052857D01*
X105806785Y-140195714D01*
X105759166Y-140290952D01*
X105711547Y-140338571D01*
X105616309Y-140386190D01*
X105235357Y-140386190D01*
X106711547Y-139862380D02*
X106235357Y-139862380D01*
X106187738Y-140338571D01*
X106235357Y-140290952D01*
X106330595Y-140243333D01*
X106568690Y-140243333D01*
X106663928Y-140290952D01*
X106711547Y-140338571D01*
X106759166Y-140433809D01*
X106759166Y-140671904D01*
X106711547Y-140767142D01*
X106663928Y-140814761D01*
X106568690Y-140862380D01*
X106330595Y-140862380D01*
X106235357Y-140814761D01*
X106187738Y-140767142D01*
X120184880Y-133723333D02*
X120899166Y-133723333D01*
X121042023Y-133770952D01*
X121137261Y-133866190D01*
X121184880Y-134009047D01*
X121184880Y-134104285D01*
X120184880Y-132770952D02*
X120184880Y-133247142D01*
X120661071Y-133294761D01*
X120613452Y-133247142D01*
X120565833Y-133151904D01*
X120565833Y-132913809D01*
X120613452Y-132818571D01*
X120661071Y-132770952D01*
X120756309Y-132723333D01*
X120994404Y-132723333D01*
X121089642Y-132770952D01*
X121137261Y-132818571D01*
X121184880Y-132913809D01*
X121184880Y-133151904D01*
X121137261Y-133247142D01*
X121089642Y-133294761D01*
X129052380Y-147513333D02*
X129766666Y-147513333D01*
X129909523Y-147560952D01*
X130004761Y-147656190D01*
X130052380Y-147799047D01*
X130052380Y-147894285D01*
X129052380Y-147132380D02*
X129052380Y-146513333D01*
X129433333Y-146846666D01*
X129433333Y-146703809D01*
X129480952Y-146608571D01*
X129528571Y-146560952D01*
X129623809Y-146513333D01*
X129861904Y-146513333D01*
X129957142Y-146560952D01*
X130004761Y-146608571D01*
X130052380Y-146703809D01*
X130052380Y-146989523D01*
X130004761Y-147084761D01*
X129957142Y-147132380D01*
X102488095Y-128852380D02*
X103059523Y-128852380D01*
X102773809Y-129852380D02*
X102773809Y-128852380D01*
X103392857Y-129852380D02*
X103392857Y-128852380D01*
X103773809Y-128852380D01*
X103869047Y-128900000D01*
X103916666Y-128947619D01*
X103964285Y-129042857D01*
X103964285Y-129185714D01*
X103916666Y-129280952D01*
X103869047Y-129328571D01*
X103773809Y-129376190D01*
X103392857Y-129376190D01*
X104916666Y-129852380D02*
X104345238Y-129852380D01*
X104630952Y-129852380D02*
X104630952Y-128852380D01*
X104535714Y-128995238D01*
X104440476Y-129090476D01*
X104345238Y-129138095D01*
X100733333Y-123857142D02*
X100685714Y-123904761D01*
X100542857Y-123952380D01*
X100447619Y-123952380D01*
X100304761Y-123904761D01*
X100209523Y-123809523D01*
X100161904Y-123714285D01*
X100114285Y-123523809D01*
X100114285Y-123380952D01*
X100161904Y-123190476D01*
X100209523Y-123095238D01*
X100304761Y-123000000D01*
X100447619Y-122952380D01*
X100542857Y-122952380D01*
X100685714Y-123000000D01*
X100733333Y-123047619D01*
X101114285Y-123047619D02*
X101161904Y-123000000D01*
X101257142Y-122952380D01*
X101495238Y-122952380D01*
X101590476Y-123000000D01*
X101638095Y-123047619D01*
X101685714Y-123142857D01*
X101685714Y-123238095D01*
X101638095Y-123380952D01*
X101066666Y-123952380D01*
X101685714Y-123952380D01*
X140247380Y-142348333D02*
X140961666Y-142348333D01*
X141104523Y-142395952D01*
X141199761Y-142491190D01*
X141247380Y-142634047D01*
X141247380Y-142729285D01*
X140342619Y-141919761D02*
X140295000Y-141872142D01*
X140247380Y-141776904D01*
X140247380Y-141538809D01*
X140295000Y-141443571D01*
X140342619Y-141395952D01*
X140437857Y-141348333D01*
X140533095Y-141348333D01*
X140675952Y-141395952D01*
X141247380Y-141967380D01*
X141247380Y-141348333D01*
X109169880Y-130576666D02*
X108693690Y-130910000D01*
X109169880Y-131148095D02*
X108169880Y-131148095D01*
X108169880Y-130767142D01*
X108217500Y-130671904D01*
X108265119Y-130624285D01*
X108360357Y-130576666D01*
X108503214Y-130576666D01*
X108598452Y-130624285D01*
X108646071Y-130671904D01*
X108693690Y-130767142D01*
X108693690Y-131148095D01*
X109169880Y-129624285D02*
X109169880Y-130195714D01*
X109169880Y-129910000D02*
X108169880Y-129910000D01*
X108312738Y-130005238D01*
X108407976Y-130100476D01*
X108455595Y-130195714D01*
X118074642Y-134876666D02*
X118122261Y-134924285D01*
X118169880Y-135067142D01*
X118169880Y-135162380D01*
X118122261Y-135305238D01*
X118027023Y-135400476D01*
X117931785Y-135448095D01*
X117741309Y-135495714D01*
X117598452Y-135495714D01*
X117407976Y-135448095D01*
X117312738Y-135400476D01*
X117217500Y-135305238D01*
X117169880Y-135162380D01*
X117169880Y-135067142D01*
X117217500Y-134924285D01*
X117265119Y-134876666D01*
X117169880Y-134543333D02*
X117169880Y-133876666D01*
X118169880Y-134305238D01*
X123787023Y-114937380D02*
X123453690Y-114461190D01*
X123215595Y-114937380D02*
X123215595Y-113937380D01*
X123596547Y-113937380D01*
X123691785Y-113985000D01*
X123739404Y-114032619D01*
X123787023Y-114127857D01*
X123787023Y-114270714D01*
X123739404Y-114365952D01*
X123691785Y-114413571D01*
X123596547Y-114461190D01*
X123215595Y-114461190D01*
X124215595Y-114937380D02*
X124215595Y-113937380D01*
X124787023Y-114937380D01*
X124787023Y-113937380D01*
X125787023Y-114937380D02*
X125215595Y-114937380D01*
X125501309Y-114937380D02*
X125501309Y-113937380D01*
X125406071Y-114080238D01*
X125310833Y-114175476D01*
X125215595Y-114223095D01*
X144119880Y-109348095D02*
X143119880Y-109348095D01*
X143119880Y-109110000D01*
X143167500Y-108967142D01*
X143262738Y-108871904D01*
X143357976Y-108824285D01*
X143548452Y-108776666D01*
X143691309Y-108776666D01*
X143881785Y-108824285D01*
X143977023Y-108871904D01*
X144072261Y-108967142D01*
X144119880Y-109110000D01*
X144119880Y-109348095D01*
X143119880Y-107919523D02*
X143119880Y-108110000D01*
X143167500Y-108205238D01*
X143215119Y-108252857D01*
X143357976Y-108348095D01*
X143548452Y-108395714D01*
X143929404Y-108395714D01*
X144024642Y-108348095D01*
X144072261Y-108300476D01*
X144119880Y-108205238D01*
X144119880Y-108014761D01*
X144072261Y-107919523D01*
X144024642Y-107871904D01*
X143929404Y-107824285D01*
X143691309Y-107824285D01*
X143596071Y-107871904D01*
X143548452Y-107919523D01*
X143500833Y-108014761D01*
X143500833Y-108205238D01*
X143548452Y-108300476D01*
X143596071Y-108348095D01*
X143691309Y-108395714D01*
X94733333Y-123962380D02*
X94400000Y-123486190D01*
X94161904Y-123962380D02*
X94161904Y-122962380D01*
X94542857Y-122962380D01*
X94638095Y-123010000D01*
X94685714Y-123057619D01*
X94733333Y-123152857D01*
X94733333Y-123295714D01*
X94685714Y-123390952D01*
X94638095Y-123438571D01*
X94542857Y-123486190D01*
X94161904Y-123486190D01*
X95590476Y-123295714D02*
X95590476Y-123962380D01*
X95352380Y-122914761D02*
X95114285Y-123629047D01*
X95733333Y-123629047D01*
X112207142Y-99416666D02*
X112254761Y-99464285D01*
X112302380Y-99607142D01*
X112302380Y-99702380D01*
X112254761Y-99845238D01*
X112159523Y-99940476D01*
X112064285Y-99988095D01*
X111873809Y-100035714D01*
X111730952Y-100035714D01*
X111540476Y-99988095D01*
X111445238Y-99940476D01*
X111350000Y-99845238D01*
X111302380Y-99702380D01*
X111302380Y-99607142D01*
X111350000Y-99464285D01*
X111397619Y-99416666D01*
X112302380Y-98940476D02*
X112302380Y-98750000D01*
X112254761Y-98654761D01*
X112207142Y-98607142D01*
X112064285Y-98511904D01*
X111873809Y-98464285D01*
X111492857Y-98464285D01*
X111397619Y-98511904D01*
X111350000Y-98559523D01*
X111302380Y-98654761D01*
X111302380Y-98845238D01*
X111350000Y-98940476D01*
X111397619Y-98988095D01*
X111492857Y-99035714D01*
X111730952Y-99035714D01*
X111826190Y-98988095D01*
X111873809Y-98940476D01*
X111921428Y-98845238D01*
X111921428Y-98654761D01*
X111873809Y-98559523D01*
X111826190Y-98511904D01*
X111730952Y-98464285D01*
X76977380Y-148091666D02*
X76501190Y-148425000D01*
X76977380Y-148663095D02*
X75977380Y-148663095D01*
X75977380Y-148282142D01*
X76025000Y-148186904D01*
X76072619Y-148139285D01*
X76167857Y-148091666D01*
X76310714Y-148091666D01*
X76405952Y-148139285D01*
X76453571Y-148186904D01*
X76501190Y-148282142D01*
X76501190Y-148663095D01*
X76405952Y-147520238D02*
X76358333Y-147615476D01*
X76310714Y-147663095D01*
X76215476Y-147710714D01*
X76167857Y-147710714D01*
X76072619Y-147663095D01*
X76025000Y-147615476D01*
X75977380Y-147520238D01*
X75977380Y-147329761D01*
X76025000Y-147234523D01*
X76072619Y-147186904D01*
X76167857Y-147139285D01*
X76215476Y-147139285D01*
X76310714Y-147186904D01*
X76358333Y-147234523D01*
X76405952Y-147329761D01*
X76405952Y-147520238D01*
X76453571Y-147615476D01*
X76501190Y-147663095D01*
X76596428Y-147710714D01*
X76786904Y-147710714D01*
X76882142Y-147663095D01*
X76929761Y-147615476D01*
X76977380Y-147520238D01*
X76977380Y-147329761D01*
X76929761Y-147234523D01*
X76882142Y-147186904D01*
X76786904Y-147139285D01*
X76596428Y-147139285D01*
X76501190Y-147186904D01*
X76453571Y-147234523D01*
X76405952Y-147329761D01*
X106755595Y-114162380D02*
X107327023Y-114162380D01*
X107041309Y-115162380D02*
X107041309Y-114162380D01*
X107660357Y-115162380D02*
X107660357Y-114162380D01*
X108041309Y-114162380D01*
X108136547Y-114210000D01*
X108184166Y-114257619D01*
X108231785Y-114352857D01*
X108231785Y-114495714D01*
X108184166Y-114590952D01*
X108136547Y-114638571D01*
X108041309Y-114686190D01*
X107660357Y-114686190D01*
X108612738Y-114257619D02*
X108660357Y-114210000D01*
X108755595Y-114162380D01*
X108993690Y-114162380D01*
X109088928Y-114210000D01*
X109136547Y-114257619D01*
X109184166Y-114352857D01*
X109184166Y-114448095D01*
X109136547Y-114590952D01*
X108565119Y-115162380D01*
X109184166Y-115162380D01*
X127605595Y-122162380D02*
X127605595Y-122971904D01*
X127653214Y-123067142D01*
X127700833Y-123114761D01*
X127796071Y-123162380D01*
X127986547Y-123162380D01*
X128081785Y-123114761D01*
X128129404Y-123067142D01*
X128177023Y-122971904D01*
X128177023Y-122162380D01*
X129177023Y-123162380D02*
X128605595Y-123162380D01*
X128891309Y-123162380D02*
X128891309Y-122162380D01*
X128796071Y-122305238D01*
X128700833Y-122400476D01*
X128605595Y-122448095D01*
X124352380Y-94438095D02*
X123352380Y-94438095D01*
X123352380Y-94200000D01*
X123400000Y-94057142D01*
X123495238Y-93961904D01*
X123590476Y-93914285D01*
X123780952Y-93866666D01*
X123923809Y-93866666D01*
X124114285Y-93914285D01*
X124209523Y-93961904D01*
X124304761Y-94057142D01*
X124352380Y-94200000D01*
X124352380Y-94438095D01*
X123447619Y-93485714D02*
X123400000Y-93438095D01*
X123352380Y-93342857D01*
X123352380Y-93104761D01*
X123400000Y-93009523D01*
X123447619Y-92961904D01*
X123542857Y-92914285D01*
X123638095Y-92914285D01*
X123780952Y-92961904D01*
X124352380Y-93533333D01*
X124352380Y-92914285D01*
X129352380Y-110466666D02*
X128876190Y-110800000D01*
X129352380Y-111038095D02*
X128352380Y-111038095D01*
X128352380Y-110657142D01*
X128400000Y-110561904D01*
X128447619Y-110514285D01*
X128542857Y-110466666D01*
X128685714Y-110466666D01*
X128780952Y-110514285D01*
X128828571Y-110561904D01*
X128876190Y-110657142D01*
X128876190Y-111038095D01*
X128352380Y-110133333D02*
X128352380Y-109466666D01*
X129352380Y-109895238D01*
X137119880Y-107871904D02*
X137929404Y-107871904D01*
X138024642Y-107824285D01*
X138072261Y-107776666D01*
X138119880Y-107681428D01*
X138119880Y-107490952D01*
X138072261Y-107395714D01*
X138024642Y-107348095D01*
X137929404Y-107300476D01*
X137119880Y-107300476D01*
X137119880Y-106919523D02*
X137119880Y-106252857D01*
X138119880Y-106681428D01*
X115274642Y-130576666D02*
X115322261Y-130624285D01*
X115369880Y-130767142D01*
X115369880Y-130862380D01*
X115322261Y-131005238D01*
X115227023Y-131100476D01*
X115131785Y-131148095D01*
X114941309Y-131195714D01*
X114798452Y-131195714D01*
X114607976Y-131148095D01*
X114512738Y-131100476D01*
X114417500Y-131005238D01*
X114369880Y-130862380D01*
X114369880Y-130767142D01*
X114417500Y-130624285D01*
X114465119Y-130576666D01*
X114798452Y-130005238D02*
X114750833Y-130100476D01*
X114703214Y-130148095D01*
X114607976Y-130195714D01*
X114560357Y-130195714D01*
X114465119Y-130148095D01*
X114417500Y-130100476D01*
X114369880Y-130005238D01*
X114369880Y-129814761D01*
X114417500Y-129719523D01*
X114465119Y-129671904D01*
X114560357Y-129624285D01*
X114607976Y-129624285D01*
X114703214Y-129671904D01*
X114750833Y-129719523D01*
X114798452Y-129814761D01*
X114798452Y-130005238D01*
X114846071Y-130100476D01*
X114893690Y-130148095D01*
X114988928Y-130195714D01*
X115179404Y-130195714D01*
X115274642Y-130148095D01*
X115322261Y-130100476D01*
X115369880Y-130005238D01*
X115369880Y-129814761D01*
X115322261Y-129719523D01*
X115274642Y-129671904D01*
X115179404Y-129624285D01*
X114988928Y-129624285D01*
X114893690Y-129671904D01*
X114846071Y-129719523D01*
X114798452Y-129814761D01*
X127757142Y-99257142D02*
X127709523Y-99304761D01*
X127566666Y-99352380D01*
X127471428Y-99352380D01*
X127328571Y-99304761D01*
X127233333Y-99209523D01*
X127185714Y-99114285D01*
X127138095Y-98923809D01*
X127138095Y-98780952D01*
X127185714Y-98590476D01*
X127233333Y-98495238D01*
X127328571Y-98400000D01*
X127471428Y-98352380D01*
X127566666Y-98352380D01*
X127709523Y-98400000D01*
X127757142Y-98447619D01*
X128138095Y-98447619D02*
X128185714Y-98400000D01*
X128280952Y-98352380D01*
X128519047Y-98352380D01*
X128614285Y-98400000D01*
X128661904Y-98447619D01*
X128709523Y-98542857D01*
X128709523Y-98638095D01*
X128661904Y-98780952D01*
X128090476Y-99352380D01*
X128709523Y-99352380D01*
X129090476Y-98447619D02*
X129138095Y-98400000D01*
X129233333Y-98352380D01*
X129471428Y-98352380D01*
X129566666Y-98400000D01*
X129614285Y-98447619D01*
X129661904Y-98542857D01*
X129661904Y-98638095D01*
X129614285Y-98780952D01*
X129042857Y-99352380D01*
X129661904Y-99352380D01*
X93366666Y-133804761D02*
X93509523Y-133852380D01*
X93747619Y-133852380D01*
X93842857Y-133804761D01*
X93890476Y-133757142D01*
X93938095Y-133661904D01*
X93938095Y-133566666D01*
X93890476Y-133471428D01*
X93842857Y-133423809D01*
X93747619Y-133376190D01*
X93557142Y-133328571D01*
X93461904Y-133280952D01*
X93414285Y-133233333D01*
X93366666Y-133138095D01*
X93366666Y-133042857D01*
X93414285Y-132947619D01*
X93461904Y-132900000D01*
X93557142Y-132852380D01*
X93795238Y-132852380D01*
X93938095Y-132900000D01*
X94271428Y-132852380D02*
X94509523Y-133852380D01*
X94700000Y-133138095D01*
X94890476Y-133852380D01*
X95128571Y-132852380D01*
X96033333Y-133852380D02*
X95461904Y-133852380D01*
X95747619Y-133852380D02*
X95747619Y-132852380D01*
X95652380Y-132995238D01*
X95557142Y-133090476D01*
X95461904Y-133138095D01*
X114094404Y-96327380D02*
X114094404Y-95327380D01*
X114332500Y-95327380D01*
X114475357Y-95375000D01*
X114570595Y-95470238D01*
X114618214Y-95565476D01*
X114665833Y-95755952D01*
X114665833Y-95898809D01*
X114618214Y-96089285D01*
X114570595Y-96184523D01*
X114475357Y-96279761D01*
X114332500Y-96327380D01*
X114094404Y-96327380D01*
X115570595Y-95327380D02*
X115094404Y-95327380D01*
X115046785Y-95803571D01*
X115094404Y-95755952D01*
X115189642Y-95708333D01*
X115427738Y-95708333D01*
X115522976Y-95755952D01*
X115570595Y-95803571D01*
X115618214Y-95898809D01*
X115618214Y-96136904D01*
X115570595Y-96232142D01*
X115522976Y-96279761D01*
X115427738Y-96327380D01*
X115189642Y-96327380D01*
X115094404Y-96279761D01*
X115046785Y-96232142D01*
X81382142Y-120267857D02*
X81429761Y-120315476D01*
X81477380Y-120458333D01*
X81477380Y-120553571D01*
X81429761Y-120696428D01*
X81334523Y-120791666D01*
X81239285Y-120839285D01*
X81048809Y-120886904D01*
X80905952Y-120886904D01*
X80715476Y-120839285D01*
X80620238Y-120791666D01*
X80525000Y-120696428D01*
X80477380Y-120553571D01*
X80477380Y-120458333D01*
X80525000Y-120315476D01*
X80572619Y-120267857D01*
X81477380Y-119315476D02*
X81477380Y-119886904D01*
X81477380Y-119601190D02*
X80477380Y-119601190D01*
X80620238Y-119696428D01*
X80715476Y-119791666D01*
X80763095Y-119886904D01*
X80477380Y-118458333D02*
X80477380Y-118648809D01*
X80525000Y-118744047D01*
X80572619Y-118791666D01*
X80715476Y-118886904D01*
X80905952Y-118934523D01*
X81286904Y-118934523D01*
X81382142Y-118886904D01*
X81429761Y-118839285D01*
X81477380Y-118744047D01*
X81477380Y-118553571D01*
X81429761Y-118458333D01*
X81382142Y-118410714D01*
X81286904Y-118363095D01*
X81048809Y-118363095D01*
X80953571Y-118410714D01*
X80905952Y-118458333D01*
X80858333Y-118553571D01*
X80858333Y-118744047D01*
X80905952Y-118839285D01*
X80953571Y-118886904D01*
X81048809Y-118934523D01*
X114161904Y-149452380D02*
X114161904Y-148452380D01*
X114400000Y-148452380D01*
X114542857Y-148500000D01*
X114638095Y-148595238D01*
X114685714Y-148690476D01*
X114733333Y-148880952D01*
X114733333Y-149023809D01*
X114685714Y-149214285D01*
X114638095Y-149309523D01*
X114542857Y-149404761D01*
X114400000Y-149452380D01*
X114161904Y-149452380D01*
X115066666Y-148452380D02*
X115685714Y-148452380D01*
X115352380Y-148833333D01*
X115495238Y-148833333D01*
X115590476Y-148880952D01*
X115638095Y-148928571D01*
X115685714Y-149023809D01*
X115685714Y-149261904D01*
X115638095Y-149357142D01*
X115590476Y-149404761D01*
X115495238Y-149452380D01*
X115209523Y-149452380D01*
X115114285Y-149404761D01*
X115066666Y-149357142D01*
X139052380Y-99638095D02*
X138052380Y-99638095D01*
X138052380Y-99400000D01*
X138100000Y-99257142D01*
X138195238Y-99161904D01*
X138290476Y-99114285D01*
X138480952Y-99066666D01*
X138623809Y-99066666D01*
X138814285Y-99114285D01*
X138909523Y-99161904D01*
X139004761Y-99257142D01*
X139052380Y-99400000D01*
X139052380Y-99638095D01*
X139052380Y-98590476D02*
X139052380Y-98400000D01*
X139004761Y-98304761D01*
X138957142Y-98257142D01*
X138814285Y-98161904D01*
X138623809Y-98114285D01*
X138242857Y-98114285D01*
X138147619Y-98161904D01*
X138100000Y-98209523D01*
X138052380Y-98304761D01*
X138052380Y-98495238D01*
X138100000Y-98590476D01*
X138147619Y-98638095D01*
X138242857Y-98685714D01*
X138480952Y-98685714D01*
X138576190Y-98638095D01*
X138623809Y-98590476D01*
X138671428Y-98495238D01*
X138671428Y-98304761D01*
X138623809Y-98209523D01*
X138576190Y-98161904D01*
X138480952Y-98114285D01*
X116766666Y-138628571D02*
X116433333Y-138628571D01*
X116433333Y-139152380D02*
X116433333Y-138152380D01*
X116909523Y-138152380D01*
X117242857Y-138247619D02*
X117290476Y-138200000D01*
X117385714Y-138152380D01*
X117623809Y-138152380D01*
X117719047Y-138200000D01*
X117766666Y-138247619D01*
X117814285Y-138342857D01*
X117814285Y-138438095D01*
X117766666Y-138580952D01*
X117195238Y-139152380D01*
X117814285Y-139152380D01*
X119402380Y-100011904D02*
X120211904Y-100011904D01*
X120307142Y-99964285D01*
X120354761Y-99916666D01*
X120402380Y-99821428D01*
X120402380Y-99630952D01*
X120354761Y-99535714D01*
X120307142Y-99488095D01*
X120211904Y-99440476D01*
X119402380Y-99440476D01*
X119402380Y-99059523D02*
X119402380Y-98440476D01*
X119783333Y-98773809D01*
X119783333Y-98630952D01*
X119830952Y-98535714D01*
X119878571Y-98488095D01*
X119973809Y-98440476D01*
X120211904Y-98440476D01*
X120307142Y-98488095D01*
X120354761Y-98535714D01*
X120402380Y-98630952D01*
X120402380Y-98916666D01*
X120354761Y-99011904D01*
X120307142Y-99059523D01*
X104361904Y-103652380D02*
X104361904Y-102652380D01*
X104600000Y-102652380D01*
X104742857Y-102700000D01*
X104838095Y-102795238D01*
X104885714Y-102890476D01*
X104933333Y-103080952D01*
X104933333Y-103223809D01*
X104885714Y-103414285D01*
X104838095Y-103509523D01*
X104742857Y-103604761D01*
X104600000Y-103652380D01*
X104361904Y-103652380D01*
X105266666Y-102652380D02*
X105933333Y-102652380D01*
X105504761Y-103652380D01*
X129066666Y-114378571D02*
X128733333Y-114378571D01*
X128733333Y-114902380D02*
X128733333Y-113902380D01*
X129209523Y-113902380D01*
X129923809Y-114378571D02*
X130066666Y-114426190D01*
X130114285Y-114473809D01*
X130161904Y-114569047D01*
X130161904Y-114711904D01*
X130114285Y-114807142D01*
X130066666Y-114854761D01*
X129971428Y-114902380D01*
X129590476Y-114902380D01*
X129590476Y-113902380D01*
X129923809Y-113902380D01*
X130019047Y-113950000D01*
X130066666Y-113997619D01*
X130114285Y-114092857D01*
X130114285Y-114188095D01*
X130066666Y-114283333D01*
X130019047Y-114330952D01*
X129923809Y-114378571D01*
X129590476Y-114378571D01*
X130542857Y-113997619D02*
X130590476Y-113950000D01*
X130685714Y-113902380D01*
X130923809Y-113902380D01*
X131019047Y-113950000D01*
X131066666Y-113997619D01*
X131114285Y-114092857D01*
X131114285Y-114188095D01*
X131066666Y-114330952D01*
X130495238Y-114902380D01*
X131114285Y-114902380D01*
X132250833Y-120667142D02*
X132203214Y-120714761D01*
X132060357Y-120762380D01*
X131965119Y-120762380D01*
X131822261Y-120714761D01*
X131727023Y-120619523D01*
X131679404Y-120524285D01*
X131631785Y-120333809D01*
X131631785Y-120190952D01*
X131679404Y-120000476D01*
X131727023Y-119905238D01*
X131822261Y-119810000D01*
X131965119Y-119762380D01*
X132060357Y-119762380D01*
X132203214Y-119810000D01*
X132250833Y-119857619D01*
X132584166Y-119762380D02*
X133203214Y-119762380D01*
X132869880Y-120143333D01*
X133012738Y-120143333D01*
X133107976Y-120190952D01*
X133155595Y-120238571D01*
X133203214Y-120333809D01*
X133203214Y-120571904D01*
X133155595Y-120667142D01*
X133107976Y-120714761D01*
X133012738Y-120762380D01*
X132727023Y-120762380D01*
X132631785Y-120714761D01*
X132584166Y-120667142D01*
X108350833Y-120267142D02*
X108303214Y-120314761D01*
X108160357Y-120362380D01*
X108065119Y-120362380D01*
X107922261Y-120314761D01*
X107827023Y-120219523D01*
X107779404Y-120124285D01*
X107731785Y-119933809D01*
X107731785Y-119790952D01*
X107779404Y-119600476D01*
X107827023Y-119505238D01*
X107922261Y-119410000D01*
X108065119Y-119362380D01*
X108160357Y-119362380D01*
X108303214Y-119410000D01*
X108350833Y-119457619D01*
X109207976Y-119695714D02*
X109207976Y-120362380D01*
X108969880Y-119314761D02*
X108731785Y-120029047D01*
X109350833Y-120029047D01*
X72657142Y-72242857D02*
X72704761Y-72290476D01*
X72752380Y-72433333D01*
X72752380Y-72528571D01*
X72704761Y-72671428D01*
X72609523Y-72766666D01*
X72514285Y-72814285D01*
X72323809Y-72861904D01*
X72180952Y-72861904D01*
X71990476Y-72814285D01*
X71895238Y-72766666D01*
X71800000Y-72671428D01*
X71752380Y-72528571D01*
X71752380Y-72433333D01*
X71800000Y-72290476D01*
X71847619Y-72242857D01*
X71847619Y-71861904D02*
X71800000Y-71814285D01*
X71752380Y-71719047D01*
X71752380Y-71480952D01*
X71800000Y-71385714D01*
X71847619Y-71338095D01*
X71942857Y-71290476D01*
X72038095Y-71290476D01*
X72180952Y-71338095D01*
X72752380Y-71909523D01*
X72752380Y-71290476D01*
X71752380Y-70671428D02*
X71752380Y-70576190D01*
X71800000Y-70480952D01*
X71847619Y-70433333D01*
X71942857Y-70385714D01*
X72133333Y-70338095D01*
X72371428Y-70338095D01*
X72561904Y-70385714D01*
X72657142Y-70433333D01*
X72704761Y-70480952D01*
X72752380Y-70576190D01*
X72752380Y-70671428D01*
X72704761Y-70766666D01*
X72657142Y-70814285D01*
X72561904Y-70861904D01*
X72371428Y-70909523D01*
X72133333Y-70909523D01*
X71942857Y-70861904D01*
X71847619Y-70814285D01*
X71800000Y-70766666D01*
X71752380Y-70671428D01*
X70416666Y-61052380D02*
X70416666Y-61766666D01*
X70369047Y-61909523D01*
X70273809Y-62004761D01*
X70130952Y-62052380D01*
X70035714Y-62052380D01*
X70797619Y-61052380D02*
X71464285Y-61052380D01*
X71035714Y-62052380D01*
X126566666Y-137902380D02*
X126566666Y-138616666D01*
X126519047Y-138759523D01*
X126423809Y-138854761D01*
X126280952Y-138902380D01*
X126185714Y-138902380D01*
X127042857Y-138902380D02*
X127042857Y-137902380D01*
X127423809Y-137902380D01*
X127519047Y-137950000D01*
X127566666Y-137997619D01*
X127614285Y-138092857D01*
X127614285Y-138235714D01*
X127566666Y-138330952D01*
X127519047Y-138378571D01*
X127423809Y-138426190D01*
X127042857Y-138426190D01*
X127995238Y-137997619D02*
X128042857Y-137950000D01*
X128138095Y-137902380D01*
X128376190Y-137902380D01*
X128471428Y-137950000D01*
X128519047Y-137997619D01*
X128566666Y-138092857D01*
X128566666Y-138188095D01*
X128519047Y-138330952D01*
X127947619Y-138902380D01*
X128566666Y-138902380D01*
X125185714Y-138902380D02*
X124614285Y-138902380D01*
X124900000Y-138902380D02*
X124900000Y-137902380D01*
X124804761Y-138045238D01*
X124709523Y-138140476D01*
X124614285Y-138188095D01*
X129666666Y-137902380D02*
X130285714Y-137902380D01*
X129952380Y-138283333D01*
X130095238Y-138283333D01*
X130190476Y-138330952D01*
X130238095Y-138378571D01*
X130285714Y-138473809D01*
X130285714Y-138711904D01*
X130238095Y-138807142D01*
X130190476Y-138854761D01*
X130095238Y-138902380D01*
X129809523Y-138902380D01*
X129714285Y-138854761D01*
X129666666Y-138807142D01*
X111089880Y-95353333D02*
X111804166Y-95353333D01*
X111947023Y-95400952D01*
X112042261Y-95496190D01*
X112089880Y-95639047D01*
X112089880Y-95734285D01*
X111423214Y-94448571D02*
X112089880Y-94448571D01*
X111042261Y-94686666D02*
X111756547Y-94924761D01*
X111756547Y-94305714D01*
X123777023Y-121612380D02*
X123443690Y-121136190D01*
X123205595Y-121612380D02*
X123205595Y-120612380D01*
X123586547Y-120612380D01*
X123681785Y-120660000D01*
X123729404Y-120707619D01*
X123777023Y-120802857D01*
X123777023Y-120945714D01*
X123729404Y-121040952D01*
X123681785Y-121088571D01*
X123586547Y-121136190D01*
X123205595Y-121136190D01*
X124205595Y-121612380D02*
X124205595Y-120612380D01*
X124777023Y-121612380D01*
X124777023Y-120612380D01*
X125205595Y-120707619D02*
X125253214Y-120660000D01*
X125348452Y-120612380D01*
X125586547Y-120612380D01*
X125681785Y-120660000D01*
X125729404Y-120707619D01*
X125777023Y-120802857D01*
X125777023Y-120898095D01*
X125729404Y-121040952D01*
X125157976Y-121612380D01*
X125777023Y-121612380D01*
X61557142Y-72342857D02*
X61604761Y-72390476D01*
X61652380Y-72533333D01*
X61652380Y-72628571D01*
X61604761Y-72771428D01*
X61509523Y-72866666D01*
X61414285Y-72914285D01*
X61223809Y-72961904D01*
X61080952Y-72961904D01*
X60890476Y-72914285D01*
X60795238Y-72866666D01*
X60700000Y-72771428D01*
X60652380Y-72628571D01*
X60652380Y-72533333D01*
X60700000Y-72390476D01*
X60747619Y-72342857D01*
X61652380Y-71390476D02*
X61652380Y-71961904D01*
X61652380Y-71676190D02*
X60652380Y-71676190D01*
X60795238Y-71771428D01*
X60890476Y-71866666D01*
X60938095Y-71961904D01*
X61652380Y-70914285D02*
X61652380Y-70723809D01*
X61604761Y-70628571D01*
X61557142Y-70580952D01*
X61414285Y-70485714D01*
X61223809Y-70438095D01*
X60842857Y-70438095D01*
X60747619Y-70485714D01*
X60700000Y-70533333D01*
X60652380Y-70628571D01*
X60652380Y-70819047D01*
X60700000Y-70914285D01*
X60747619Y-70961904D01*
X60842857Y-71009523D01*
X61080952Y-71009523D01*
X61176190Y-70961904D01*
X61223809Y-70914285D01*
X61271428Y-70819047D01*
X61271428Y-70628571D01*
X61223809Y-70533333D01*
X61176190Y-70485714D01*
X61080952Y-70438095D01*
X119885714Y-90252380D02*
X119885714Y-89252380D01*
X120266666Y-89252380D01*
X120361904Y-89300000D01*
X120409523Y-89347619D01*
X120457142Y-89442857D01*
X120457142Y-89585714D01*
X120409523Y-89680952D01*
X120361904Y-89728571D01*
X120266666Y-89776190D01*
X119885714Y-89776190D01*
X120838095Y-90204761D02*
X120980952Y-90252380D01*
X121219047Y-90252380D01*
X121314285Y-90204761D01*
X121361904Y-90157142D01*
X121409523Y-90061904D01*
X121409523Y-89966666D01*
X121361904Y-89871428D01*
X121314285Y-89823809D01*
X121219047Y-89776190D01*
X121028571Y-89728571D01*
X120933333Y-89680952D01*
X120885714Y-89633333D01*
X120838095Y-89538095D01*
X120838095Y-89442857D01*
X120885714Y-89347619D01*
X120933333Y-89300000D01*
X121028571Y-89252380D01*
X121266666Y-89252380D01*
X121409523Y-89300000D01*
X121790476Y-89347619D02*
X121838095Y-89300000D01*
X121933333Y-89252380D01*
X122171428Y-89252380D01*
X122266666Y-89300000D01*
X122314285Y-89347619D01*
X122361904Y-89442857D01*
X122361904Y-89538095D01*
X122314285Y-89680952D01*
X121742857Y-90252380D01*
X122361904Y-90252380D01*
X122550833Y-105684880D02*
X122217500Y-105208690D01*
X121979404Y-105684880D02*
X121979404Y-104684880D01*
X122360357Y-104684880D01*
X122455595Y-104732500D01*
X122503214Y-104780119D01*
X122550833Y-104875357D01*
X122550833Y-105018214D01*
X122503214Y-105113452D01*
X122455595Y-105161071D01*
X122360357Y-105208690D01*
X121979404Y-105208690D01*
X123027023Y-105684880D02*
X123217500Y-105684880D01*
X123312738Y-105637261D01*
X123360357Y-105589642D01*
X123455595Y-105446785D01*
X123503214Y-105256309D01*
X123503214Y-104875357D01*
X123455595Y-104780119D01*
X123407976Y-104732500D01*
X123312738Y-104684880D01*
X123122261Y-104684880D01*
X123027023Y-104732500D01*
X122979404Y-104780119D01*
X122931785Y-104875357D01*
X122931785Y-105113452D01*
X122979404Y-105208690D01*
X123027023Y-105256309D01*
X123122261Y-105303928D01*
X123312738Y-105303928D01*
X123407976Y-105256309D01*
X123455595Y-105208690D01*
X123503214Y-105113452D01*
X131134166Y-101538571D02*
X130800833Y-101538571D01*
X130800833Y-102062380D02*
X130800833Y-101062380D01*
X131277023Y-101062380D01*
X132181785Y-102062380D02*
X131610357Y-102062380D01*
X131896071Y-102062380D02*
X131896071Y-101062380D01*
X131800833Y-101205238D01*
X131705595Y-101300476D01*
X131610357Y-101348095D01*
X86800000Y-94714285D02*
X86752380Y-94809523D01*
X86752380Y-94952380D01*
X86800000Y-95095238D01*
X86895238Y-95190476D01*
X86990476Y-95238095D01*
X87180952Y-95285714D01*
X87323809Y-95285714D01*
X87514285Y-95238095D01*
X87609523Y-95190476D01*
X87704761Y-95095238D01*
X87752380Y-94952380D01*
X87752380Y-94857142D01*
X87704761Y-94714285D01*
X87657142Y-94666666D01*
X87323809Y-94666666D01*
X87323809Y-94857142D01*
X87752380Y-94238095D02*
X86752380Y-94238095D01*
X86752380Y-94000000D01*
X86800000Y-93857142D01*
X86895238Y-93761904D01*
X86990476Y-93714285D01*
X87180952Y-93666666D01*
X87323809Y-93666666D01*
X87514285Y-93714285D01*
X87609523Y-93761904D01*
X87704761Y-93857142D01*
X87752380Y-94000000D01*
X87752380Y-94238095D01*
X87752380Y-92714285D02*
X87752380Y-93285714D01*
X87752380Y-93000000D02*
X86752380Y-93000000D01*
X86895238Y-93095238D01*
X86990476Y-93190476D01*
X87038095Y-93285714D01*
X63752380Y-113967857D02*
X63276190Y-114301190D01*
X63752380Y-114539285D02*
X62752380Y-114539285D01*
X62752380Y-114158333D01*
X62800000Y-114063095D01*
X62847619Y-114015476D01*
X62942857Y-113967857D01*
X63085714Y-113967857D01*
X63180952Y-114015476D01*
X63228571Y-114063095D01*
X63276190Y-114158333D01*
X63276190Y-114539285D01*
X63752380Y-113015476D02*
X63752380Y-113586904D01*
X63752380Y-113301190D02*
X62752380Y-113301190D01*
X62895238Y-113396428D01*
X62990476Y-113491666D01*
X63038095Y-113586904D01*
X62752380Y-112396428D02*
X62752380Y-112301190D01*
X62800000Y-112205952D01*
X62847619Y-112158333D01*
X62942857Y-112110714D01*
X63133333Y-112063095D01*
X63371428Y-112063095D01*
X63561904Y-112110714D01*
X63657142Y-112158333D01*
X63704761Y-112205952D01*
X63752380Y-112301190D01*
X63752380Y-112396428D01*
X63704761Y-112491666D01*
X63657142Y-112539285D01*
X63561904Y-112586904D01*
X63371428Y-112634523D01*
X63133333Y-112634523D01*
X62942857Y-112586904D01*
X62847619Y-112539285D01*
X62800000Y-112491666D01*
X62752380Y-112396428D01*
X138169880Y-110176666D02*
X137693690Y-110510000D01*
X138169880Y-110748095D02*
X137169880Y-110748095D01*
X137169880Y-110367142D01*
X137217500Y-110271904D01*
X137265119Y-110224285D01*
X137360357Y-110176666D01*
X137503214Y-110176666D01*
X137598452Y-110224285D01*
X137646071Y-110271904D01*
X137693690Y-110367142D01*
X137693690Y-110748095D01*
X137169880Y-109319523D02*
X137169880Y-109510000D01*
X137217500Y-109605238D01*
X137265119Y-109652857D01*
X137407976Y-109748095D01*
X137598452Y-109795714D01*
X137979404Y-109795714D01*
X138074642Y-109748095D01*
X138122261Y-109700476D01*
X138169880Y-109605238D01*
X138169880Y-109414761D01*
X138122261Y-109319523D01*
X138074642Y-109271904D01*
X137979404Y-109224285D01*
X137741309Y-109224285D01*
X137646071Y-109271904D01*
X137598452Y-109319523D01*
X137550833Y-109414761D01*
X137550833Y-109605238D01*
X137598452Y-109700476D01*
X137646071Y-109748095D01*
X137741309Y-109795714D01*
X112150833Y-108367142D02*
X112103214Y-108414761D01*
X111960357Y-108462380D01*
X111865119Y-108462380D01*
X111722261Y-108414761D01*
X111627023Y-108319523D01*
X111579404Y-108224285D01*
X111531785Y-108033809D01*
X111531785Y-107890952D01*
X111579404Y-107700476D01*
X111627023Y-107605238D01*
X111722261Y-107510000D01*
X111865119Y-107462380D01*
X111960357Y-107462380D01*
X112103214Y-107510000D01*
X112150833Y-107557619D01*
X113103214Y-108462380D02*
X112531785Y-108462380D01*
X112817500Y-108462380D02*
X112817500Y-107462380D01*
X112722261Y-107605238D01*
X112627023Y-107700476D01*
X112531785Y-107748095D01*
X103033333Y-139552380D02*
X102700000Y-139076190D01*
X102461904Y-139552380D02*
X102461904Y-138552380D01*
X102842857Y-138552380D01*
X102938095Y-138600000D01*
X102985714Y-138647619D01*
X103033333Y-138742857D01*
X103033333Y-138885714D01*
X102985714Y-138980952D01*
X102938095Y-139028571D01*
X102842857Y-139076190D01*
X102461904Y-139076190D01*
X103366666Y-138552380D02*
X103985714Y-138552380D01*
X103652380Y-138933333D01*
X103795238Y-138933333D01*
X103890476Y-138980952D01*
X103938095Y-139028571D01*
X103985714Y-139123809D01*
X103985714Y-139361904D01*
X103938095Y-139457142D01*
X103890476Y-139504761D01*
X103795238Y-139552380D01*
X103509523Y-139552380D01*
X103414285Y-139504761D01*
X103366666Y-139457142D01*
X124202380Y-101585714D02*
X123726190Y-101919047D01*
X124202380Y-102157142D02*
X123202380Y-102157142D01*
X123202380Y-101776190D01*
X123250000Y-101680952D01*
X123297619Y-101633333D01*
X123392857Y-101585714D01*
X123535714Y-101585714D01*
X123630952Y-101633333D01*
X123678571Y-101680952D01*
X123726190Y-101776190D01*
X123726190Y-102157142D01*
X124154761Y-101204761D02*
X124202380Y-101061904D01*
X124202380Y-100823809D01*
X124154761Y-100728571D01*
X124107142Y-100680952D01*
X124011904Y-100633333D01*
X123916666Y-100633333D01*
X123821428Y-100680952D01*
X123773809Y-100728571D01*
X123726190Y-100823809D01*
X123678571Y-101014285D01*
X123630952Y-101109523D01*
X123583333Y-101157142D01*
X123488095Y-101204761D01*
X123392857Y-101204761D01*
X123297619Y-101157142D01*
X123250000Y-101109523D01*
X123202380Y-101014285D01*
X123202380Y-100776190D01*
X123250000Y-100633333D01*
X124202380Y-100204761D02*
X123202380Y-100204761D01*
X124202380Y-99776190D02*
X123678571Y-99776190D01*
X123583333Y-99823809D01*
X123535714Y-99919047D01*
X123535714Y-100061904D01*
X123583333Y-100157142D01*
X123630952Y-100204761D01*
X123535714Y-98871428D02*
X124202380Y-98871428D01*
X123535714Y-99300000D02*
X124059523Y-99300000D01*
X124154761Y-99252380D01*
X124202380Y-99157142D01*
X124202380Y-99014285D01*
X124154761Y-98919047D01*
X124107142Y-98871428D01*
X123535714Y-98395238D02*
X124202380Y-98395238D01*
X123630952Y-98395238D02*
X123583333Y-98347619D01*
X123535714Y-98252380D01*
X123535714Y-98109523D01*
X123583333Y-98014285D01*
X123678571Y-97966666D01*
X124202380Y-97966666D01*
X123535714Y-97633333D02*
X123535714Y-97252380D01*
X123202380Y-97490476D02*
X124059523Y-97490476D01*
X124154761Y-97442857D01*
X124202380Y-97347619D01*
X124202380Y-97252380D01*
X123297619Y-96966666D02*
X123250000Y-96919047D01*
X123202380Y-96823809D01*
X123202380Y-96585714D01*
X123250000Y-96490476D01*
X123297619Y-96442857D01*
X123392857Y-96395238D01*
X123488095Y-96395238D01*
X123630952Y-96442857D01*
X124202380Y-97014285D01*
X124202380Y-96395238D01*
X107674642Y-112567142D02*
X107627023Y-112614761D01*
X107484166Y-112662380D01*
X107388928Y-112662380D01*
X107246071Y-112614761D01*
X107150833Y-112519523D01*
X107103214Y-112424285D01*
X107055595Y-112233809D01*
X107055595Y-112090952D01*
X107103214Y-111900476D01*
X107150833Y-111805238D01*
X107246071Y-111710000D01*
X107388928Y-111662380D01*
X107484166Y-111662380D01*
X107627023Y-111710000D01*
X107674642Y-111757619D01*
X108627023Y-112662380D02*
X108055595Y-112662380D01*
X108341309Y-112662380D02*
X108341309Y-111662380D01*
X108246071Y-111805238D01*
X108150833Y-111900476D01*
X108055595Y-111948095D01*
X109579404Y-112662380D02*
X109007976Y-112662380D01*
X109293690Y-112662380D02*
X109293690Y-111662380D01*
X109198452Y-111805238D01*
X109103214Y-111900476D01*
X109007976Y-111948095D01*
X75152380Y-105166666D02*
X75152380Y-105642857D01*
X74152380Y-105642857D01*
X75152380Y-104309523D02*
X75152380Y-104880952D01*
X75152380Y-104595238D02*
X74152380Y-104595238D01*
X74295238Y-104690476D01*
X74390476Y-104785714D01*
X74438095Y-104880952D01*
X115805595Y-112162380D02*
X115805595Y-112971904D01*
X115853214Y-113067142D01*
X115900833Y-113114761D01*
X115996071Y-113162380D01*
X116186547Y-113162380D01*
X116281785Y-113114761D01*
X116329404Y-113067142D01*
X116377023Y-112971904D01*
X116377023Y-112162380D01*
X116805595Y-112257619D02*
X116853214Y-112210000D01*
X116948452Y-112162380D01*
X117186547Y-112162380D01*
X117281785Y-112210000D01*
X117329404Y-112257619D01*
X117377023Y-112352857D01*
X117377023Y-112448095D01*
X117329404Y-112590952D01*
X116757976Y-113162380D01*
X117377023Y-113162380D01*
X97274642Y-115392142D02*
X97227023Y-115439761D01*
X97084166Y-115487380D01*
X96988928Y-115487380D01*
X96846071Y-115439761D01*
X96750833Y-115344523D01*
X96703214Y-115249285D01*
X96655595Y-115058809D01*
X96655595Y-114915952D01*
X96703214Y-114725476D01*
X96750833Y-114630238D01*
X96846071Y-114535000D01*
X96988928Y-114487380D01*
X97084166Y-114487380D01*
X97227023Y-114535000D01*
X97274642Y-114582619D01*
X98227023Y-115487380D02*
X97655595Y-115487380D01*
X97941309Y-115487380D02*
X97941309Y-114487380D01*
X97846071Y-114630238D01*
X97750833Y-114725476D01*
X97655595Y-114773095D01*
X99084166Y-114820714D02*
X99084166Y-115487380D01*
X98846071Y-114439761D02*
X98607976Y-115154047D01*
X99227023Y-115154047D01*
X124079404Y-105684880D02*
X124079404Y-104684880D01*
X124317500Y-104684880D01*
X124460357Y-104732500D01*
X124555595Y-104827738D01*
X124603214Y-104922976D01*
X124650833Y-105113452D01*
X124650833Y-105256309D01*
X124603214Y-105446785D01*
X124555595Y-105542023D01*
X124460357Y-105637261D01*
X124317500Y-105684880D01*
X124079404Y-105684880D01*
X125222261Y-105113452D02*
X125127023Y-105065833D01*
X125079404Y-105018214D01*
X125031785Y-104922976D01*
X125031785Y-104875357D01*
X125079404Y-104780119D01*
X125127023Y-104732500D01*
X125222261Y-104684880D01*
X125412738Y-104684880D01*
X125507976Y-104732500D01*
X125555595Y-104780119D01*
X125603214Y-104875357D01*
X125603214Y-104922976D01*
X125555595Y-105018214D01*
X125507976Y-105065833D01*
X125412738Y-105113452D01*
X125222261Y-105113452D01*
X125127023Y-105161071D01*
X125079404Y-105208690D01*
X125031785Y-105303928D01*
X125031785Y-105494404D01*
X125079404Y-105589642D01*
X125127023Y-105637261D01*
X125222261Y-105684880D01*
X125412738Y-105684880D01*
X125507976Y-105637261D01*
X125555595Y-105589642D01*
X125603214Y-105494404D01*
X125603214Y-105303928D01*
X125555595Y-105208690D01*
X125507976Y-105161071D01*
X125412738Y-105113452D01*
X118274642Y-105467857D02*
X118322261Y-105515476D01*
X118369880Y-105658333D01*
X118369880Y-105753571D01*
X118322261Y-105896428D01*
X118227023Y-105991666D01*
X118131785Y-106039285D01*
X117941309Y-106086904D01*
X117798452Y-106086904D01*
X117607976Y-106039285D01*
X117512738Y-105991666D01*
X117417500Y-105896428D01*
X117369880Y-105753571D01*
X117369880Y-105658333D01*
X117417500Y-105515476D01*
X117465119Y-105467857D01*
X118369880Y-104515476D02*
X118369880Y-105086904D01*
X118369880Y-104801190D02*
X117369880Y-104801190D01*
X117512738Y-104896428D01*
X117607976Y-104991666D01*
X117655595Y-105086904D01*
X117465119Y-104134523D02*
X117417500Y-104086904D01*
X117369880Y-103991666D01*
X117369880Y-103753571D01*
X117417500Y-103658333D01*
X117465119Y-103610714D01*
X117560357Y-103563095D01*
X117655595Y-103563095D01*
X117798452Y-103610714D01*
X118369880Y-104182142D01*
X118369880Y-103563095D01*
X94124642Y-118452857D02*
X94172261Y-118500476D01*
X94219880Y-118643333D01*
X94219880Y-118738571D01*
X94172261Y-118881428D01*
X94077023Y-118976666D01*
X93981785Y-119024285D01*
X93791309Y-119071904D01*
X93648452Y-119071904D01*
X93457976Y-119024285D01*
X93362738Y-118976666D01*
X93267500Y-118881428D01*
X93219880Y-118738571D01*
X93219880Y-118643333D01*
X93267500Y-118500476D01*
X93315119Y-118452857D01*
X94219880Y-117500476D02*
X94219880Y-118071904D01*
X94219880Y-117786190D02*
X93219880Y-117786190D01*
X93362738Y-117881428D01*
X93457976Y-117976666D01*
X93505595Y-118071904D01*
X93219880Y-116881428D02*
X93219880Y-116786190D01*
X93267500Y-116690952D01*
X93315119Y-116643333D01*
X93410357Y-116595714D01*
X93600833Y-116548095D01*
X93838928Y-116548095D01*
X94029404Y-116595714D01*
X94124642Y-116643333D01*
X94172261Y-116690952D01*
X94219880Y-116786190D01*
X94219880Y-116881428D01*
X94172261Y-116976666D01*
X94124642Y-117024285D01*
X94029404Y-117071904D01*
X93838928Y-117119523D01*
X93600833Y-117119523D01*
X93410357Y-117071904D01*
X93315119Y-117024285D01*
X93267500Y-116976666D01*
X93219880Y-116881428D01*
X98357142Y-139457142D02*
X98309523Y-139504761D01*
X98166666Y-139552380D01*
X98071428Y-139552380D01*
X97928571Y-139504761D01*
X97833333Y-139409523D01*
X97785714Y-139314285D01*
X97738095Y-139123809D01*
X97738095Y-138980952D01*
X97785714Y-138790476D01*
X97833333Y-138695238D01*
X97928571Y-138600000D01*
X98071428Y-138552380D01*
X98166666Y-138552380D01*
X98309523Y-138600000D01*
X98357142Y-138647619D01*
X99309523Y-139552380D02*
X98738095Y-139552380D01*
X99023809Y-139552380D02*
X99023809Y-138552380D01*
X98928571Y-138695238D01*
X98833333Y-138790476D01*
X98738095Y-138838095D01*
X99642857Y-138552380D02*
X100261904Y-138552380D01*
X99928571Y-138933333D01*
X100071428Y-138933333D01*
X100166666Y-138980952D01*
X100214285Y-139028571D01*
X100261904Y-139123809D01*
X100261904Y-139361904D01*
X100214285Y-139457142D01*
X100166666Y-139504761D01*
X100071428Y-139552380D01*
X99785714Y-139552380D01*
X99690476Y-139504761D01*
X99642857Y-139457142D01*
X86752380Y-133233333D02*
X87466666Y-133233333D01*
X87609523Y-133280952D01*
X87704761Y-133376190D01*
X87752380Y-133519047D01*
X87752380Y-133614285D01*
X87752380Y-132233333D02*
X87752380Y-132804761D01*
X87752380Y-132519047D02*
X86752380Y-132519047D01*
X86895238Y-132614285D01*
X86990476Y-132709523D01*
X87038095Y-132804761D01*
X138174642Y-103602857D02*
X138222261Y-103650476D01*
X138269880Y-103793333D01*
X138269880Y-103888571D01*
X138222261Y-104031428D01*
X138127023Y-104126666D01*
X138031785Y-104174285D01*
X137841309Y-104221904D01*
X137698452Y-104221904D01*
X137507976Y-104174285D01*
X137412738Y-104126666D01*
X137317500Y-104031428D01*
X137269880Y-103888571D01*
X137269880Y-103793333D01*
X137317500Y-103650476D01*
X137365119Y-103602857D01*
X138269880Y-102650476D02*
X138269880Y-103221904D01*
X138269880Y-102936190D02*
X137269880Y-102936190D01*
X137412738Y-103031428D01*
X137507976Y-103126666D01*
X137555595Y-103221904D01*
X137269880Y-102317142D02*
X137269880Y-101650476D01*
X138269880Y-102079047D01*
X99857142Y-97942857D02*
X99904761Y-97990476D01*
X99952380Y-98133333D01*
X99952380Y-98228571D01*
X99904761Y-98371428D01*
X99809523Y-98466666D01*
X99714285Y-98514285D01*
X99523809Y-98561904D01*
X99380952Y-98561904D01*
X99190476Y-98514285D01*
X99095238Y-98466666D01*
X99000000Y-98371428D01*
X98952380Y-98228571D01*
X98952380Y-98133333D01*
X99000000Y-97990476D01*
X99047619Y-97942857D01*
X99047619Y-97561904D02*
X99000000Y-97514285D01*
X98952380Y-97419047D01*
X98952380Y-97180952D01*
X99000000Y-97085714D01*
X99047619Y-97038095D01*
X99142857Y-96990476D01*
X99238095Y-96990476D01*
X99380952Y-97038095D01*
X99952380Y-97609523D01*
X99952380Y-96990476D01*
X99952380Y-96038095D02*
X99952380Y-96609523D01*
X99952380Y-96323809D02*
X98952380Y-96323809D01*
X99095238Y-96419047D01*
X99190476Y-96514285D01*
X99238095Y-96609523D01*
X138074642Y-113552857D02*
X138122261Y-113600476D01*
X138169880Y-113743333D01*
X138169880Y-113838571D01*
X138122261Y-113981428D01*
X138027023Y-114076666D01*
X137931785Y-114124285D01*
X137741309Y-114171904D01*
X137598452Y-114171904D01*
X137407976Y-114124285D01*
X137312738Y-114076666D01*
X137217500Y-113981428D01*
X137169880Y-113838571D01*
X137169880Y-113743333D01*
X137217500Y-113600476D01*
X137265119Y-113552857D01*
X138169880Y-112600476D02*
X138169880Y-113171904D01*
X138169880Y-112886190D02*
X137169880Y-112886190D01*
X137312738Y-112981428D01*
X137407976Y-113076666D01*
X137455595Y-113171904D01*
X137169880Y-111695714D02*
X137169880Y-112171904D01*
X137646071Y-112219523D01*
X137598452Y-112171904D01*
X137550833Y-112076666D01*
X137550833Y-111838571D01*
X137598452Y-111743333D01*
X137646071Y-111695714D01*
X137741309Y-111648095D01*
X137979404Y-111648095D01*
X138074642Y-111695714D01*
X138122261Y-111743333D01*
X138169880Y-111838571D01*
X138169880Y-112076666D01*
X138122261Y-112171904D01*
X138074642Y-112219523D01*
D12*
X107425000Y-88700000D02*
X82025000Y-88700000D01*
X82025000Y-88700000D02*
X82025000Y-63300000D01*
X82025000Y-63300000D02*
X107425000Y-63300000D01*
X107425000Y-63300000D02*
X107425000Y-88700000D01*
D13*
X104985000Y-62500000D02*
G75*
G03*
X104985000Y-62500000I-100000J0D01*
G01*
D14*
X62642500Y-98107500D02*
X62642500Y-97107500D01*
X81262500Y-97727500D02*
X63022500Y-97727500D01*
X62642500Y-98107500D02*
X65642500Y-98107500D01*
X63022500Y-84987500D02*
X81262500Y-84987500D01*
X81262500Y-84987500D02*
X81262500Y-97727500D01*
X63022500Y-97727500D02*
X63022500Y-84987500D01*
X98270000Y-90510000D02*
X93190000Y-90510000D01*
X93190000Y-90510000D02*
X93190000Y-93690000D01*
X93190000Y-93690000D02*
X98270000Y-93690000D01*
X98270000Y-93690000D02*
X98270000Y-90510000D01*
X135120000Y-89210000D02*
X130040000Y-89210000D01*
X130040000Y-89210000D02*
X130040000Y-92390000D01*
X130040000Y-92390000D02*
X135120000Y-92390000D01*
X135120000Y-92390000D02*
X135120000Y-89210000D01*
X102725000Y-107370000D02*
X104055000Y-107370000D01*
X104055000Y-109970000D02*
X104055000Y-112570000D01*
X101455000Y-107370000D02*
X101455000Y-109970000D01*
X104055000Y-107370000D02*
X104055000Y-108700000D01*
X101455000Y-107370000D02*
X96315000Y-107370000D01*
X101455000Y-109970000D02*
X104055000Y-109970000D01*
X104055000Y-112570000D02*
X96315000Y-112570000D01*
X96315000Y-107370000D02*
X96315000Y-112570000D01*
X126202936Y-104220000D02*
X127407064Y-104220000D01*
X126202936Y-102400000D02*
X127407064Y-102400000D01*
X97657936Y-129365000D02*
X98112064Y-129365000D01*
X97657936Y-130835000D02*
X98112064Y-130835000D01*
X112692500Y-134050000D02*
X110242500Y-134050000D01*
X110892500Y-137270000D02*
X112692500Y-137270000D01*
D11*
X75105000Y-141300000D02*
X68105000Y-141300000D01*
X75105000Y-124500000D02*
X68105000Y-124500000D01*
X75105000Y-124500000D02*
X75105000Y-141300000D01*
X68105000Y-124500000D02*
X68105000Y-141300000D01*
D14*
X108650000Y-147350000D02*
X108650000Y-143050000D01*
X108650000Y-143050000D02*
X102950000Y-143050000D01*
X108650000Y-147350000D02*
X102950000Y-147350000D01*
X112019564Y-141145000D02*
X111565436Y-141145000D01*
X112019564Y-139675000D02*
X111565436Y-139675000D01*
X111907500Y-104097936D02*
X111907500Y-105552064D01*
X113727500Y-104097936D02*
X113727500Y-105552064D01*
X137917500Y-121070000D02*
X138567500Y-121070000D01*
X137917500Y-117950000D02*
X136242500Y-117950000D01*
X137917500Y-117950000D02*
X138567500Y-117950000D01*
X137917500Y-121070000D02*
X137267500Y-121070000D01*
X96580000Y-128630000D02*
X99240000Y-128630000D01*
X99240000Y-123430000D02*
X99240000Y-124760000D01*
X96580000Y-126030000D02*
X99240000Y-126030000D01*
X97910000Y-123430000D02*
X99240000Y-123430000D01*
X99240000Y-126030000D02*
X99240000Y-128630000D01*
X96580000Y-126030000D02*
X96580000Y-128630000D01*
X102992500Y-121200000D02*
X101042500Y-121200000D01*
X102992500Y-116080000D02*
X99542500Y-116080000D01*
X102992500Y-116080000D02*
X104942500Y-116080000D01*
X102992500Y-121200000D02*
X104942500Y-121200000D01*
X131017500Y-105250000D02*
X130367500Y-105250000D01*
X131017500Y-108370000D02*
X130367500Y-108370000D01*
X131017500Y-105250000D02*
X131667500Y-105250000D01*
X131017500Y-108370000D02*
X132692500Y-108370000D01*
X122860000Y-93772936D02*
X122860000Y-94977064D01*
X121040000Y-93772936D02*
X121040000Y-94977064D01*
X132817500Y-116660000D02*
G75*
G03*
X132817500Y-116660000I-700000J0D01*
G01*
X107841252Y-110645000D02*
X107318748Y-110645000D01*
X107841252Y-109175000D02*
X107318748Y-109175000D01*
X123167500Y-103310000D02*
G75*
G03*
X123167500Y-103310000I-700000J0D01*
G01*
X103717500Y-127620000D02*
X105517500Y-127620000D01*
X105517500Y-124400000D02*
X103067500Y-124400000D01*
X139910000Y-130160000D02*
X138800000Y-130160000D01*
X139910000Y-129400000D02*
X139910000Y-130160000D01*
X138492470Y-126165000D02*
X137690000Y-126165000D01*
X139910000Y-128640000D02*
X139910000Y-126165000D01*
X139910000Y-128640000D02*
X139363471Y-128640000D01*
X139910000Y-126165000D02*
X139107530Y-126165000D01*
X137690000Y-128640000D02*
X137690000Y-126165000D01*
X138236529Y-128640000D02*
X137690000Y-128640000D01*
X108792500Y-140410000D02*
G75*
G03*
X108792500Y-140410000I-700000J0D01*
G01*
X128200000Y-130795000D02*
X129530000Y-130795000D01*
X126930000Y-133395000D02*
X129530000Y-133395000D01*
X121790000Y-130795000D02*
X121790000Y-135995000D01*
X129530000Y-135995000D02*
X121790000Y-135995000D01*
X129530000Y-130795000D02*
X129530000Y-132125000D01*
X126930000Y-130795000D02*
X126930000Y-133395000D01*
X129530000Y-133395000D02*
X129530000Y-135995000D01*
X126930000Y-130795000D02*
X121790000Y-130795000D01*
X125480000Y-145020000D02*
G75*
G03*
X125480000Y-145020000I-1680000J0D01*
G01*
X122265000Y-149416000D02*
G75*
G03*
X122264573Y-150783042I1534993J-684001D01*
G01*
X125480000Y-150100000D02*
G75*
G03*
X125334756Y-149416682I-1679992J1D01*
G01*
X125335000Y-150784000D02*
G75*
G03*
X125480253Y-150071195I-1535001J683999D01*
G01*
X124484000Y-148565000D02*
G75*
G03*
X123116958Y-148564573I-684001J-1534993D01*
G01*
X123116000Y-151635000D02*
G75*
G03*
X124483042Y-151635427I684001J1534993D01*
G01*
X125039000Y-146054000D02*
X125074000Y-146089000D01*
X121499000Y-152700000D02*
X121499000Y-142420000D01*
X128460000Y-152700000D02*
X128460000Y-142420000D01*
X128700000Y-152940000D02*
X128700000Y-152440000D01*
X118539000Y-152700000D02*
X118539000Y-142420000D01*
X118539000Y-152700000D02*
X128460000Y-152700000D01*
X122731000Y-143745000D02*
X122777000Y-143792000D01*
X118539000Y-142420000D02*
X128460000Y-142420000D01*
X122525000Y-143950000D02*
X122561000Y-143985000D01*
X127900000Y-152700000D02*
X127900000Y-142420000D01*
X124823000Y-146247000D02*
X124869000Y-146294000D01*
X126400000Y-152700000D02*
X126400000Y-142420000D01*
X127960000Y-152940000D02*
X128700000Y-152940000D01*
X106700000Y-129400000D02*
G75*
G03*
X106700000Y-129400000I-700000J0D01*
G01*
X100165000Y-125748748D02*
X100165000Y-126271252D01*
X101635000Y-125748748D02*
X101635000Y-126271252D01*
X140030000Y-139765000D02*
X140030000Y-144265000D01*
X141150000Y-144265000D02*
X141150000Y-152195000D01*
X141150000Y-131835000D02*
X141150000Y-139765000D01*
X141150000Y-152195000D02*
X132050000Y-152195000D01*
X132050000Y-152195000D02*
X132050000Y-131835000D01*
X141150000Y-139765000D02*
X140030000Y-139765000D01*
X140030000Y-144265000D02*
X141150000Y-144265000D01*
X132050000Y-131835000D02*
X141150000Y-131835000D01*
X111352500Y-131137064D02*
X111352500Y-129682936D01*
X109532500Y-131137064D02*
X109532500Y-129682936D01*
X116727500Y-135421252D02*
X116727500Y-133998748D01*
X114907500Y-135421252D02*
X114907500Y-133998748D01*
X123967500Y-115455000D02*
X124967500Y-115455000D01*
X123967500Y-118815000D02*
X124967500Y-118815000D01*
X138517500Y-105060000D02*
X138517500Y-110760000D01*
X142817500Y-105060000D02*
X138517500Y-105060000D01*
X142817500Y-105060000D02*
X142817500Y-110760000D01*
X94165000Y-125782936D02*
X94165000Y-126237064D01*
X95635000Y-125782936D02*
X95635000Y-126237064D01*
X114660000Y-99961252D02*
X114660000Y-98538748D01*
X112840000Y-99961252D02*
X112840000Y-98538748D01*
X77480000Y-152520000D02*
X90720000Y-152520000D01*
X77480000Y-143280000D02*
X90720000Y-143280000D01*
X77480000Y-143280000D02*
X77480000Y-152520000D01*
X78600000Y-143280000D02*
X78600000Y-152520000D01*
X89600000Y-143280000D02*
X89600000Y-152520000D01*
X90720000Y-143280000D02*
X90720000Y-152520000D01*
X106192500Y-114710000D02*
G75*
G03*
X106192500Y-114710000I-700000J0D01*
G01*
X131517500Y-128645000D02*
X133467500Y-128645000D01*
X131517500Y-123525000D02*
X133467500Y-123525000D01*
X131517500Y-123525000D02*
X128067500Y-123525000D01*
X131517500Y-128645000D02*
X129567500Y-128645000D01*
X129050000Y-97250000D02*
X129050000Y-91550000D01*
X124750000Y-97250000D02*
X124750000Y-91550000D01*
X124750000Y-97250000D02*
X129050000Y-97250000D01*
X131494564Y-109575000D02*
X131040436Y-109575000D01*
X131494564Y-111045000D02*
X131040436Y-111045000D01*
X133567500Y-106310000D02*
X133567500Y-107910000D01*
X136767500Y-107910000D02*
X136767500Y-105610000D01*
X113927500Y-131121252D02*
X113927500Y-129698748D01*
X112107500Y-131121252D02*
X112107500Y-129698748D01*
X135870000Y-96300000D02*
G75*
G03*
X135870000Y-96300000I-3270000J0D01*
G01*
X98040000Y-132350000D02*
X104160000Y-132350000D01*
X104160000Y-136050000D02*
X98040000Y-136050000D01*
X98040000Y-136050000D02*
X98040000Y-132350000D01*
X104160000Y-132350000D02*
X104160000Y-136050000D01*
X114832500Y-91815000D02*
X115482500Y-91815000D01*
X114832500Y-91815000D02*
X113157500Y-91815000D01*
X114832500Y-94935000D02*
X114182500Y-94935000D01*
X114832500Y-94935000D02*
X115482500Y-94935000D01*
X79720000Y-115480000D02*
X61480000Y-115480000D01*
X79720000Y-123720000D02*
X79720000Y-115480000D01*
X61480000Y-123720000D02*
X61480000Y-115480000D01*
X79720000Y-123720000D02*
X61480000Y-123720000D01*
X115000000Y-148060000D02*
X114350000Y-148060000D01*
X115000000Y-144940000D02*
X113325000Y-144940000D01*
X115000000Y-148060000D02*
X115650000Y-148060000D01*
X115000000Y-144940000D02*
X115650000Y-144940000D01*
X136450000Y-97700000D02*
X140750000Y-97700000D01*
X136450000Y-97700000D02*
X136450000Y-92000000D01*
X140750000Y-97700000D02*
X140750000Y-92000000D01*
X116490436Y-139500000D02*
X117694564Y-139500000D01*
X116490436Y-141320000D02*
X117694564Y-141320000D01*
X115640000Y-98350000D02*
X115640000Y-100800000D01*
X118860000Y-100150000D02*
X118860000Y-98350000D01*
X96750000Y-101050000D02*
X102450000Y-101050000D01*
X96750000Y-105350000D02*
X102450000Y-105350000D01*
X96750000Y-101050000D02*
X96750000Y-105350000D01*
X129502064Y-111690000D02*
X128297936Y-111690000D01*
X129502064Y-113510000D02*
X128297936Y-113510000D01*
X133128752Y-123020000D02*
X131706248Y-123020000D01*
X133128752Y-121200000D02*
X131706248Y-121200000D01*
X108502500Y-117743767D02*
X108502500Y-117451233D01*
X107482500Y-117743767D02*
X107482500Y-117451233D01*
X73180000Y-80820000D02*
X73180000Y-62580000D01*
X73180000Y-80820000D02*
X79420000Y-80820000D01*
X73180000Y-62580000D02*
X79420000Y-62580000D01*
X79420000Y-80820000D02*
X79420000Y-62580000D01*
X70750000Y-62895000D02*
X72080000Y-62895000D01*
X69420000Y-65435000D02*
X69420000Y-65555000D01*
X72080000Y-62895000D02*
X72080000Y-64225000D01*
X69420000Y-65555000D02*
X72080000Y-65555000D01*
X72080000Y-65435000D02*
X72080000Y-65555000D01*
X125350000Y-140700000D02*
X125350000Y-140100000D01*
X129450000Y-140100000D02*
X129450000Y-140700000D01*
X126000000Y-139400000D02*
X128800000Y-139400000D01*
X128800000Y-141400000D02*
X126000000Y-141400000D01*
X129450000Y-140100000D02*
G75*
G03*
X128750000Y-139400000I-699999J1D01*
G01*
X128750000Y-141400000D02*
G75*
G03*
X129450000Y-140700000I1J699999D01*
G01*
X126050000Y-139400000D02*
G75*
G03*
X125350000Y-140100000I-1J-699999D01*
G01*
X125350000Y-140700000D02*
G75*
G03*
X126050000Y-141400000I699999J-1D01*
G01*
D15*
X74176471Y-144238628D02*
X74176471Y-151211177D01*
X74176471Y-151211177D02*
X72458235Y-151211177D01*
X72458235Y-151211177D02*
X72458235Y-144238628D01*
X72458235Y-144238628D02*
X74176471Y-144238628D01*
X74176471Y-144238628D02*
X74176471Y-144238628D01*
G36*
X74176471Y-151211177D02*
G01*
X72458235Y-151211177D01*
X72458235Y-144238628D01*
X74176471Y-144238628D01*
X74176471Y-151211177D01*
G37*
X74176471Y-151211177D02*
X72458235Y-151211177D01*
X72458235Y-144238628D01*
X74176471Y-144238628D01*
X74176471Y-151211177D01*
X62387248Y-143492795D02*
X62559706Y-143494022D01*
X62559706Y-143494022D02*
X63468628Y-144388614D01*
X63468628Y-144388614D02*
X64377549Y-145283206D01*
X64377549Y-145283206D02*
X65211765Y-145284510D01*
X65211765Y-145284510D02*
X65211765Y-145829301D01*
X65211765Y-145829301D02*
X65317598Y-145843339D01*
X65317598Y-145843339D02*
X65365837Y-145848655D01*
X65365837Y-145848655D02*
X65456679Y-145857614D01*
X65456679Y-145857614D02*
X65584704Y-145869739D01*
X65584704Y-145869739D02*
X65744494Y-145884550D01*
X65744494Y-145884550D02*
X65930630Y-145901568D01*
X65930630Y-145901568D02*
X66137693Y-145920313D01*
X66137693Y-145920313D02*
X66360265Y-145940306D01*
X66360265Y-145940306D02*
X66592926Y-145961068D01*
X66592926Y-145961068D02*
X66830257Y-145982120D01*
X66830257Y-145982120D02*
X67066840Y-146002983D01*
X67066840Y-146002983D02*
X67297256Y-146023177D01*
X67297256Y-146023177D02*
X67516086Y-146042222D01*
X67516086Y-146042222D02*
X67717911Y-146059641D01*
X67717911Y-146059641D02*
X67897312Y-146074953D01*
X67897312Y-146074953D02*
X68048870Y-146087679D01*
X68048870Y-146087679D02*
X68167168Y-146097341D01*
X68167168Y-146097341D02*
X68246784Y-146103458D01*
X68246784Y-146103458D02*
X68282302Y-146105551D01*
X68282302Y-146105551D02*
X68282471Y-146105550D01*
X68282471Y-146105550D02*
X68310970Y-146090284D01*
X68310970Y-146090284D02*
X68369815Y-146044430D01*
X68369815Y-146044430D02*
X68459691Y-145967365D01*
X68459691Y-145967365D02*
X68581283Y-145858465D01*
X68581283Y-145858465D02*
X68735276Y-145717105D01*
X68735276Y-145717105D02*
X68922355Y-145542662D01*
X68922355Y-145542662D02*
X69143204Y-145334512D01*
X69143204Y-145334512D02*
X69398510Y-145092032D01*
X69398510Y-145092032D02*
X69470000Y-145023875D01*
X69470000Y-145023875D02*
X70603039Y-143942925D01*
X70603039Y-143942925D02*
X70690196Y-144030316D01*
X70690196Y-144030316D02*
X70777353Y-144117706D01*
X70777353Y-144117706D02*
X70623521Y-144259098D01*
X70623521Y-144259098D02*
X70567926Y-144310824D01*
X70567926Y-144310824D02*
X70481953Y-144391624D01*
X70481953Y-144391624D02*
X70371235Y-144496167D01*
X70371235Y-144496167D02*
X70241403Y-144619121D01*
X70241403Y-144619121D02*
X70098089Y-144755157D01*
X70098089Y-144755157D02*
X69946927Y-144898941D01*
X69946927Y-144898941D02*
X69856644Y-144984960D01*
X69856644Y-144984960D02*
X69687509Y-145146451D01*
X69687509Y-145146451D02*
X69552033Y-145276983D01*
X69552033Y-145276983D02*
X69447752Y-145379884D01*
X69447752Y-145379884D02*
X69372203Y-145458483D01*
X69372203Y-145458483D02*
X69322922Y-145516108D01*
X69322922Y-145516108D02*
X69297446Y-145556089D01*
X69297446Y-145556089D02*
X69293311Y-145581752D01*
X69293311Y-145581752D02*
X69308054Y-145596427D01*
X69308054Y-145596427D02*
X69339212Y-145603442D01*
X69339212Y-145603442D02*
X69384320Y-145606125D01*
X69384320Y-145606125D02*
X69396630Y-145606485D01*
X69396630Y-145606485D02*
X69481433Y-145625137D01*
X69481433Y-145625137D02*
X69583934Y-145671094D01*
X69583934Y-145671094D02*
X69687924Y-145735181D01*
X69687924Y-145735181D02*
X69777191Y-145808226D01*
X69777191Y-145808226D02*
X69804766Y-145837454D01*
X69804766Y-145837454D02*
X69901250Y-145987422D01*
X69901250Y-145987422D02*
X69955234Y-146162605D01*
X69955234Y-146162605D02*
X69968039Y-146317488D01*
X69968039Y-146317488D02*
X69943886Y-146493014D01*
X69943886Y-146493014D02*
X69873061Y-146655121D01*
X69873061Y-146655121D02*
X69758017Y-146798596D01*
X69758017Y-146798596D02*
X69729381Y-146825068D01*
X69729381Y-146825068D02*
X69619412Y-146921867D01*
X69619412Y-146921867D02*
X69619412Y-148596471D01*
X69619412Y-148596471D02*
X69968039Y-148596471D01*
X69968039Y-148596471D02*
X69968039Y-149044706D01*
X69968039Y-149044706D02*
X69805168Y-149044706D01*
X69805168Y-149044706D02*
X69693980Y-149050331D01*
X69693980Y-149050331D02*
X69616805Y-149069229D01*
X69616805Y-149069229D02*
X69574825Y-149092197D01*
X69574825Y-149092197D02*
X69544789Y-149108607D01*
X69544789Y-149108607D02*
X69501239Y-149122659D01*
X69501239Y-149122659D02*
X69437720Y-149135284D01*
X69437720Y-149135284D02*
X69347774Y-149147413D01*
X69347774Y-149147413D02*
X69224947Y-149159976D01*
X69224947Y-149159976D02*
X69062782Y-149173906D01*
X69062782Y-149173906D02*
X68942144Y-149183444D01*
X68942144Y-149183444D02*
X68376934Y-149227200D01*
X68376934Y-149227200D02*
X69465085Y-150301374D01*
X69465085Y-150301374D02*
X69661981Y-150495595D01*
X69661981Y-150495595D02*
X69851281Y-150682043D01*
X69851281Y-150682043D02*
X70029506Y-150857310D01*
X70029506Y-150857310D02*
X70193180Y-151017989D01*
X70193180Y-151017989D02*
X70338824Y-151160674D01*
X70338824Y-151160674D02*
X70462962Y-151281958D01*
X70462962Y-151281958D02*
X70562115Y-151378434D01*
X70562115Y-151378434D02*
X70632807Y-151446696D01*
X70632807Y-151446696D02*
X70671520Y-151483298D01*
X70671520Y-151483298D02*
X70732811Y-151543432D01*
X70732811Y-151543432D02*
X70775559Y-151593592D01*
X70775559Y-151593592D02*
X70789804Y-151620571D01*
X70789804Y-151620571D02*
X70773118Y-151655032D01*
X70773118Y-151655032D02*
X70731425Y-151705264D01*
X70731425Y-151705264D02*
X70714447Y-151722291D01*
X70714447Y-151722291D02*
X70639089Y-151794488D01*
X70639089Y-151794488D02*
X70235164Y-151396999D01*
X70235164Y-151396999D02*
X70132266Y-151295592D01*
X70132266Y-151295592D02*
X69999820Y-151164833D01*
X69999820Y-151164833D02*
X69843625Y-151010459D01*
X69843625Y-151010459D02*
X69669478Y-150838204D01*
X69669478Y-150838204D02*
X69483176Y-150653806D01*
X69483176Y-150653806D02*
X69290518Y-150463001D01*
X69290518Y-150463001D02*
X69097301Y-150271523D01*
X69097301Y-150271523D02*
X68958777Y-150134167D01*
X68958777Y-150134167D02*
X68747678Y-149925372D01*
X68747678Y-149925372D02*
X68568960Y-149749962D01*
X68568960Y-149749962D02*
X68420204Y-149605692D01*
X68420204Y-149605692D02*
X68298991Y-149490320D01*
X68298991Y-149490320D02*
X68202903Y-149401601D01*
X68202903Y-149401601D02*
X68152727Y-149357630D01*
X68152727Y-149357630D02*
X68152727Y-149004531D01*
X68152727Y-149004531D02*
X68717981Y-148960323D01*
X68717981Y-148960323D02*
X68883668Y-148946991D01*
X68883668Y-148946991D02*
X69035185Y-148934095D01*
X69035185Y-148934095D02*
X69164611Y-148922364D01*
X69164611Y-148922364D02*
X69264027Y-148912530D01*
X69264027Y-148912530D02*
X69325515Y-148905324D01*
X69325515Y-148905324D02*
X69339265Y-148903005D01*
X69339265Y-148903005D02*
X69395294Y-148889895D01*
X69395294Y-148889895D02*
X69395294Y-147009564D01*
X69395294Y-147009564D02*
X69238925Y-146997012D01*
X69238925Y-146997012D02*
X69054173Y-146959116D01*
X69054173Y-146959116D02*
X68890742Y-146879812D01*
X68890742Y-146879812D02*
X68754585Y-146764101D01*
X68754585Y-146764101D02*
X68651654Y-146616981D01*
X68651654Y-146616981D02*
X68589866Y-146451854D01*
X68589866Y-146451854D02*
X68560883Y-146398284D01*
X68560883Y-146398284D02*
X68498680Y-146371465D01*
X68498680Y-146371465D02*
X68495937Y-146370903D01*
X68495937Y-146370903D02*
X68469677Y-146367685D01*
X68469677Y-146367685D02*
X68442787Y-146371663D01*
X68442787Y-146371663D02*
X68410279Y-146386719D01*
X68410279Y-146386719D02*
X68367166Y-146416736D01*
X68367166Y-146416736D02*
X68308461Y-146465597D01*
X68308461Y-146465597D02*
X68229174Y-146537184D01*
X68229174Y-146537184D02*
X68124319Y-146635380D01*
X68124319Y-146635380D02*
X67988907Y-146764068D01*
X67988907Y-146764068D02*
X67980186Y-146772383D01*
X67980186Y-146772383D02*
X67834837Y-146910800D01*
X67834837Y-146910800D02*
X67680021Y-147057957D01*
X67680021Y-147057957D02*
X67526397Y-147203741D01*
X67526397Y-147203741D02*
X67384623Y-147338042D01*
X67384623Y-147338042D02*
X67265355Y-147450747D01*
X67265355Y-147450747D02*
X67238692Y-147475882D01*
X67238692Y-147475882D02*
X67138153Y-147572238D01*
X67138153Y-147572238D02*
X67052115Y-147657834D01*
X67052115Y-147657834D02*
X66986496Y-147726527D01*
X66986496Y-147726527D02*
X66947214Y-147772172D01*
X66947214Y-147772172D02*
X66938580Y-147787497D01*
X66938580Y-147787497D02*
X66956650Y-147810352D01*
X66956650Y-147810352D02*
X67006219Y-147863799D01*
X67006219Y-147863799D02*
X67083162Y-147943630D01*
X67083162Y-147943630D02*
X67183351Y-148045636D01*
X67183351Y-148045636D02*
X67302660Y-148165608D01*
X67302660Y-148165608D02*
X67436962Y-148299337D01*
X67436962Y-148299337D02*
X67547589Y-148408636D01*
X67547589Y-148408636D02*
X68152727Y-149004531D01*
X68152727Y-149004531D02*
X68152727Y-149357630D01*
X68152727Y-149357630D02*
X68129519Y-149337292D01*
X68129519Y-149337292D02*
X68076420Y-149295148D01*
X68076420Y-149295148D02*
X68041189Y-149272927D01*
X68041189Y-149272927D02*
X68024873Y-149267983D01*
X68024873Y-149267983D02*
X67989266Y-149269856D01*
X67989266Y-149269856D02*
X67908669Y-149275546D01*
X67908669Y-149275546D02*
X67787720Y-149284685D01*
X67787720Y-149284685D02*
X67631058Y-149296904D01*
X67631058Y-149296904D02*
X67443320Y-149311836D01*
X67443320Y-149311836D02*
X67229146Y-149329113D01*
X67229146Y-149329113D02*
X66993172Y-149348365D01*
X66993172Y-149348365D02*
X66740036Y-149369225D01*
X66740036Y-149369225D02*
X66537729Y-149386037D01*
X66537729Y-149386037D02*
X65397099Y-149481157D01*
X65397099Y-149481157D02*
X65397099Y-149236398D01*
X65397099Y-149236398D02*
X65421714Y-149235344D01*
X65421714Y-149235344D02*
X65491041Y-149230386D01*
X65491041Y-149230386D02*
X65600171Y-149221922D01*
X65600171Y-149221922D02*
X65744200Y-149210352D01*
X65744200Y-149210352D02*
X65918219Y-149196072D01*
X65918219Y-149196072D02*
X66117322Y-149179483D01*
X66117322Y-149179483D02*
X66336604Y-149160981D01*
X66336604Y-149160981D02*
X66544797Y-149143225D01*
X66544797Y-149143225D02*
X66781016Y-149123113D01*
X66781016Y-149123113D02*
X67004000Y-149104379D01*
X67004000Y-149104379D02*
X67208428Y-149087454D01*
X67208428Y-149087454D02*
X67388975Y-149072765D01*
X67388975Y-149072765D02*
X67540320Y-149060743D01*
X67540320Y-149060743D02*
X67657139Y-149051817D01*
X67657139Y-149051817D02*
X67734111Y-149046415D01*
X67734111Y-149046415D02*
X67764004Y-149044916D01*
X67764004Y-149044916D02*
X67782608Y-149042577D01*
X67782608Y-149042577D02*
X67789991Y-149033311D01*
X67789991Y-149033311D02*
X67783070Y-149013546D01*
X67783070Y-149013546D02*
X67758767Y-148979710D01*
X67758767Y-148979710D02*
X67713999Y-148928231D01*
X67713999Y-148928231D02*
X67645688Y-148855538D01*
X67645688Y-148855538D02*
X67550751Y-148758058D01*
X67550751Y-148758058D02*
X67426110Y-148632221D01*
X67426110Y-148632221D02*
X67292917Y-148498703D01*
X67292917Y-148498703D02*
X66747337Y-147952699D01*
X66747337Y-147952699D02*
X66743235Y-147956526D01*
X66743235Y-147956526D02*
X66743235Y-147595613D01*
X66743235Y-147595613D02*
X66765761Y-147579164D01*
X66765761Y-147579164D02*
X66818801Y-147533117D01*
X66818801Y-147533117D02*
X66897481Y-147462086D01*
X66897481Y-147462086D02*
X66996926Y-147370686D01*
X66996926Y-147370686D02*
X67112261Y-147263532D01*
X67112261Y-147263532D02*
X67238612Y-147145240D01*
X67238612Y-147145240D02*
X67371104Y-147020424D01*
X67371104Y-147020424D02*
X67504863Y-146893700D01*
X67504863Y-146893700D02*
X67635013Y-146769682D01*
X67635013Y-146769682D02*
X67756680Y-146652987D01*
X67756680Y-146652987D02*
X67864990Y-146548228D01*
X67864990Y-146548228D02*
X67955068Y-146460021D01*
X67955068Y-146460021D02*
X68022038Y-146392981D01*
X68022038Y-146392981D02*
X68061027Y-146351724D01*
X68061027Y-146351724D02*
X68068970Y-146340473D01*
X68068970Y-146340473D02*
X68043332Y-146336764D01*
X68043332Y-146336764D02*
X67972519Y-146329065D01*
X67972519Y-146329065D02*
X67860964Y-146317798D01*
X67860964Y-146317798D02*
X67713100Y-146303389D01*
X67713100Y-146303389D02*
X67533359Y-146286259D01*
X67533359Y-146286259D02*
X67326175Y-146266833D01*
X67326175Y-146266833D02*
X67095981Y-146245533D01*
X67095981Y-146245533D02*
X66847210Y-146222783D01*
X66847210Y-146222783D02*
X66646615Y-146204619D01*
X66646615Y-146204619D02*
X66386512Y-146181384D01*
X66386512Y-146181384D02*
X66141484Y-146159917D01*
X66141484Y-146159917D02*
X65915976Y-146140579D01*
X65915976Y-146140579D02*
X65714432Y-146123732D01*
X65714432Y-146123732D02*
X65541297Y-146109735D01*
X65541297Y-146109735D02*
X65401018Y-146098950D01*
X65401018Y-146098950D02*
X65298037Y-146091739D01*
X65298037Y-146091739D02*
X65236801Y-146088461D01*
X65236801Y-146088461D02*
X65220902Y-146088836D01*
X65220902Y-146088836D02*
X65235064Y-146108426D01*
X65235064Y-146108426D02*
X65280587Y-146158311D01*
X65280587Y-146158311D02*
X65353064Y-146234132D01*
X65353064Y-146234132D02*
X65448090Y-146331528D01*
X65448090Y-146331528D02*
X65561258Y-146446136D01*
X65561258Y-146446136D02*
X65688162Y-146573597D01*
X65688162Y-146573597D02*
X65824396Y-146709548D01*
X65824396Y-146709548D02*
X65965554Y-146849629D01*
X65965554Y-146849629D02*
X66107230Y-146989478D01*
X66107230Y-146989478D02*
X66245016Y-147124735D01*
X66245016Y-147124735D02*
X66374508Y-147251038D01*
X66374508Y-147251038D02*
X66491300Y-147364026D01*
X66491300Y-147364026D02*
X66590984Y-147459338D01*
X66590984Y-147459338D02*
X66669154Y-147532612D01*
X66669154Y-147532612D02*
X66721406Y-147579489D01*
X66721406Y-147579489D02*
X66743235Y-147595613D01*
X66743235Y-147595613D02*
X66743235Y-147956526D01*
X66743235Y-147956526D02*
X66529132Y-148156301D01*
X66529132Y-148156301D02*
X66418393Y-148259992D01*
X66418393Y-148259992D02*
X66294759Y-148376372D01*
X66294759Y-148376372D02*
X66163054Y-148500840D01*
X66163054Y-148500840D02*
X66028100Y-148628794D01*
X66028100Y-148628794D02*
X65894720Y-148755633D01*
X65894720Y-148755633D02*
X65767737Y-148876755D01*
X65767737Y-148876755D02*
X65651972Y-148987558D01*
X65651972Y-148987558D02*
X65552250Y-149083442D01*
X65552250Y-149083442D02*
X65473392Y-149159806D01*
X65473392Y-149159806D02*
X65420222Y-149212046D01*
X65420222Y-149212046D02*
X65397562Y-149235563D01*
X65397562Y-149235563D02*
X65397099Y-149236398D01*
X65397099Y-149236398D02*
X65397099Y-149481157D01*
X65397099Y-149481157D02*
X65112026Y-149504931D01*
X65112026Y-149504931D02*
X62610520Y-151883529D01*
X62610520Y-151883529D02*
X62260882Y-151881779D01*
X62260882Y-151881779D02*
X62466103Y-151689664D01*
X62466103Y-151689664D02*
X62580564Y-151582145D01*
X62580564Y-151582145D02*
X62715041Y-151455204D01*
X62715041Y-151455204D02*
X62865956Y-151312266D01*
X62865956Y-151312266D02*
X63029729Y-151156757D01*
X63029729Y-151156757D02*
X63202782Y-150992103D01*
X63202782Y-150992103D02*
X63381537Y-150821729D01*
X63381537Y-150821729D02*
X63562415Y-150649061D01*
X63562415Y-150649061D02*
X63741838Y-150477525D01*
X63741838Y-150477525D02*
X63916226Y-150310546D01*
X63916226Y-150310546D02*
X64082002Y-150151550D01*
X64082002Y-150151550D02*
X64235586Y-150003963D01*
X64235586Y-150003963D02*
X64373400Y-149871211D01*
X64373400Y-149871211D02*
X64491866Y-149756718D01*
X64491866Y-149756718D02*
X64587404Y-149663912D01*
X64587404Y-149663912D02*
X64656437Y-149596217D01*
X64656437Y-149596217D02*
X64695385Y-149557060D01*
X64695385Y-149557060D02*
X64702857Y-149548478D01*
X64702857Y-149548478D02*
X64676866Y-149547888D01*
X64676866Y-149547888D02*
X64610319Y-149551134D01*
X64610319Y-149551134D02*
X64512272Y-149557653D01*
X64512272Y-149557653D02*
X64391779Y-149566880D01*
X64391779Y-149566880D02*
X64343645Y-149570841D01*
X64343645Y-149570841D02*
X63991569Y-149600339D01*
X63991569Y-149600339D02*
X63991569Y-149369380D01*
X63991569Y-149369380D02*
X64047598Y-149357456D01*
X64047598Y-149357456D02*
X64091909Y-149351375D01*
X64091909Y-149351375D02*
X64175283Y-149342830D01*
X64175283Y-149342830D02*
X64287097Y-149332809D01*
X64287097Y-149332809D02*
X64416728Y-149322299D01*
X64416728Y-149322299D02*
X64464706Y-149318662D01*
X64464706Y-149318662D02*
X64602460Y-149307934D01*
X64602460Y-149307934D02*
X64730387Y-149297106D01*
X64730387Y-149297106D02*
X64836399Y-149287261D01*
X64836399Y-149287261D02*
X64908409Y-149279482D01*
X64908409Y-149279482D02*
X64921477Y-149277728D01*
X64921477Y-149277728D02*
X64948307Y-149271111D01*
X64948307Y-149271111D02*
X64979712Y-149256788D01*
X64979712Y-149256788D02*
X65019214Y-149231713D01*
X65019214Y-149231713D02*
X65070332Y-149192841D01*
X65070332Y-149192841D02*
X65136589Y-149137126D01*
X65136589Y-149137126D02*
X65221503Y-149061523D01*
X65221503Y-149061523D02*
X65328595Y-148962987D01*
X65328595Y-148962987D02*
X65461386Y-148838471D01*
X65461386Y-148838471D02*
X65623397Y-148684930D01*
X65623397Y-148684930D02*
X65787783Y-148528300D01*
X65787783Y-148528300D02*
X65950461Y-148372470D01*
X65950461Y-148372470D02*
X66101118Y-148227006D01*
X66101118Y-148227006D02*
X66236093Y-148095531D01*
X66236093Y-148095531D02*
X66351722Y-147981665D01*
X66351722Y-147981665D02*
X66444343Y-147889030D01*
X66444343Y-147889030D02*
X66510294Y-147821246D01*
X66510294Y-147821246D02*
X66545910Y-147781935D01*
X66545910Y-147781935D02*
X66551208Y-147773552D01*
X66551208Y-147773552D02*
X66531996Y-147751496D01*
X66531996Y-147751496D02*
X66481893Y-147699942D01*
X66481893Y-147699942D02*
X66405926Y-147623894D01*
X66405926Y-147623894D02*
X66309121Y-147528355D01*
X66309121Y-147528355D02*
X66196504Y-147418328D01*
X66196504Y-147418328D02*
X66114461Y-147338760D01*
X66114461Y-147338760D02*
X65684902Y-146923350D01*
X65684902Y-146923350D02*
X65684902Y-148148235D01*
X65684902Y-148148235D02*
X65211765Y-148148235D01*
X65211765Y-148148235D02*
X65211765Y-146654118D01*
X65211765Y-146654118D02*
X65422582Y-146654118D01*
X65422582Y-146654118D02*
X65149510Y-146380196D01*
X65149510Y-146380196D02*
X64955800Y-146185884D01*
X64955800Y-146185884D02*
X64955800Y-145807451D01*
X64955800Y-145807451D02*
X64986358Y-145803831D01*
X64986358Y-145803831D02*
X65003383Y-145785509D01*
X65003383Y-145785509D02*
X65010801Y-145741293D01*
X65010801Y-145741293D02*
X65012536Y-145659988D01*
X65012536Y-145659988D02*
X65012549Y-145645588D01*
X65012549Y-145645588D02*
X65012549Y-145483726D01*
X65012549Y-145483726D02*
X64578204Y-145483726D01*
X64578204Y-145483726D02*
X64738628Y-145645588D01*
X64738628Y-145645588D02*
X64836161Y-145736895D01*
X64836161Y-145736895D02*
X64910883Y-145791507D01*
X64910883Y-145791507D02*
X64955800Y-145807451D01*
X64955800Y-145807451D02*
X64955800Y-146185884D01*
X64955800Y-146185884D02*
X64876438Y-146106275D01*
X64876438Y-146106275D02*
X64633219Y-146106275D01*
X64633219Y-146106275D02*
X64521323Y-146105512D01*
X64521323Y-146105512D02*
X64450137Y-146102021D01*
X64450137Y-146102021D02*
X64410579Y-146094000D01*
X64410579Y-146094000D02*
X64393562Y-146079644D01*
X64393562Y-146079644D02*
X64390000Y-146057996D01*
X64390000Y-146057996D02*
X64384771Y-146033920D01*
X64384771Y-146033920D02*
X64363805Y-146016125D01*
X64363805Y-146016125D02*
X64319186Y-146002459D01*
X64319186Y-146002459D02*
X64242997Y-145990772D01*
X64242997Y-145990772D02*
X64127320Y-145978911D01*
X64127320Y-145978911D02*
X64084951Y-145975104D01*
X64084951Y-145975104D02*
X63991569Y-145966863D01*
X63991569Y-145966863D02*
X63991569Y-149369380D01*
X63991569Y-149369380D02*
X63991569Y-149600339D01*
X63991569Y-149600339D02*
X63991569Y-149916275D01*
X63991569Y-149916275D02*
X63767451Y-149916275D01*
X63767451Y-149916275D02*
X63767451Y-149782013D01*
X63767451Y-149782013D02*
X63765300Y-149703486D01*
X63765300Y-149703486D02*
X63754919Y-149660817D01*
X63754919Y-149660817D02*
X63748740Y-149655597D01*
X63748740Y-149655597D02*
X63748740Y-149380593D01*
X63748740Y-149380593D02*
X63762855Y-149366120D01*
X63762855Y-149366120D02*
X63767212Y-149315986D01*
X63767212Y-149315986D02*
X63767451Y-149282151D01*
X63767451Y-149282151D02*
X63767451Y-149169216D01*
X63767451Y-149169216D02*
X63767451Y-148748064D01*
X63767451Y-148748064D02*
X63767451Y-145946755D01*
X63767451Y-145946755D02*
X63670419Y-146041504D01*
X63670419Y-146041504D02*
X63550681Y-146188664D01*
X63550681Y-146188664D02*
X63458330Y-146370793D01*
X63458330Y-146370793D02*
X63392100Y-146590977D01*
X63392100Y-146590977D02*
X63355470Y-146809755D01*
X63355470Y-146809755D02*
X63338379Y-146952941D01*
X63338379Y-146952941D02*
X63518431Y-146952941D01*
X63518431Y-146952941D02*
X63518431Y-148098431D01*
X63518431Y-148098431D02*
X63314161Y-148098431D01*
X63314161Y-148098431D02*
X63331197Y-148266520D01*
X63331197Y-148266520D02*
X63345574Y-148383963D01*
X63345574Y-148383963D02*
X63364633Y-148509091D01*
X63364633Y-148509091D02*
X63378245Y-148584020D01*
X63378245Y-148584020D02*
X63408257Y-148733431D01*
X63408257Y-148733431D02*
X63587854Y-148740748D01*
X63587854Y-148740748D02*
X63767451Y-148748064D01*
X63767451Y-148748064D02*
X63767451Y-149169216D01*
X63767451Y-149169216D02*
X63667843Y-149169216D01*
X63667843Y-149169216D02*
X63605443Y-149172508D01*
X63605443Y-149172508D02*
X63570760Y-149180733D01*
X63570760Y-149180733D02*
X63568235Y-149184048D01*
X63568235Y-149184048D02*
X63584208Y-149220914D01*
X63584208Y-149220914D02*
X63622957Y-149274774D01*
X63622957Y-149274774D02*
X63670732Y-149328769D01*
X63670732Y-149328769D02*
X63713781Y-149366038D01*
X63713781Y-149366038D02*
X63719379Y-149369358D01*
X63719379Y-149369358D02*
X63748740Y-149380593D01*
X63748740Y-149380593D02*
X63748740Y-149655597D01*
X63748740Y-149655597D02*
X63730416Y-149640115D01*
X63730416Y-149640115D02*
X63703724Y-149631758D01*
X63703724Y-149631758D02*
X63634456Y-149597648D01*
X63634456Y-149597648D02*
X63551185Y-149532136D01*
X63551185Y-149532136D02*
X63465587Y-149446493D01*
X63465587Y-149446493D02*
X63389339Y-149351991D01*
X63389339Y-149351991D02*
X63349625Y-149289917D01*
X63349625Y-149289917D02*
X63306155Y-149219205D01*
X63306155Y-149219205D02*
X63269638Y-149182956D01*
X63269638Y-149182956D02*
X63226578Y-149170220D01*
X63226578Y-149170220D02*
X63200931Y-149169241D01*
X63200931Y-149169241D02*
X63194706Y-149169240D01*
X63194706Y-149169240D02*
X63194706Y-147899216D01*
X63194706Y-147899216D02*
X63319216Y-147899216D01*
X63319216Y-147899216D02*
X63319216Y-147152157D01*
X63319216Y-147152157D02*
X63194706Y-147152157D01*
X63194706Y-147152157D02*
X63194706Y-147899216D01*
X63194706Y-147899216D02*
X63194706Y-149169240D01*
X63194706Y-149169240D02*
X63120000Y-149169216D01*
X63120000Y-149169216D02*
X63120000Y-148959624D01*
X63120000Y-148959624D02*
X63122331Y-148863193D01*
X63122331Y-148863193D02*
X63128543Y-148788037D01*
X63128543Y-148788037D02*
X63137465Y-148746257D01*
X63137465Y-148746257D02*
X63141078Y-148741732D01*
X63141078Y-148741732D02*
X63146624Y-148715230D01*
X63146624Y-148715230D02*
X63144352Y-148650733D01*
X63144352Y-148650733D02*
X63134935Y-148559323D01*
X63134935Y-148559323D02*
X63126240Y-148496863D01*
X63126240Y-148496863D02*
X63109159Y-148383608D01*
X63109159Y-148383608D02*
X63093739Y-148280030D01*
X63093739Y-148280030D02*
X63082363Y-148202192D01*
X63082363Y-148202192D02*
X63079132Y-148179363D01*
X63079132Y-148179363D02*
X63060660Y-148119718D01*
X63060660Y-148119718D02*
X63031715Y-148098431D01*
X63031715Y-148098431D02*
X63019926Y-148091959D01*
X63019926Y-148091959D02*
X63010933Y-148068808D01*
X63010933Y-148068808D02*
X63004381Y-148023374D01*
X63004381Y-148023374D02*
X62999915Y-147950055D01*
X62999915Y-147950055D02*
X62997181Y-147843246D01*
X62997181Y-147843246D02*
X62995826Y-147697346D01*
X62995826Y-147697346D02*
X62995490Y-147525686D01*
X62995490Y-147525686D02*
X62995681Y-147342481D01*
X62995681Y-147342481D02*
X62996579Y-147203108D01*
X62996579Y-147203108D02*
X62998677Y-147101596D01*
X62998677Y-147101596D02*
X63002467Y-147031974D01*
X63002467Y-147031974D02*
X63008439Y-146988269D01*
X63008439Y-146988269D02*
X63017085Y-146964512D01*
X63017085Y-146964512D02*
X63028897Y-146954731D01*
X63028897Y-146954731D02*
X63042630Y-146952941D01*
X63042630Y-146952941D02*
X63086221Y-146937705D01*
X63086221Y-146937705D02*
X63111027Y-146887799D01*
X63111027Y-146887799D02*
X63119874Y-146796924D01*
X63119874Y-146796924D02*
X63120000Y-146780574D01*
X63120000Y-146780574D02*
X63135876Y-146626680D01*
X63135876Y-146626680D02*
X63179579Y-146451891D01*
X63179579Y-146451891D02*
X63245224Y-146271968D01*
X63245224Y-146271968D02*
X63326927Y-146102676D01*
X63326927Y-146102676D02*
X63418801Y-145959777D01*
X63418801Y-145959777D02*
X63433358Y-145941269D01*
X63433358Y-145941269D02*
X63480720Y-145880944D01*
X63480720Y-145880944D02*
X63499690Y-145845220D01*
X63499690Y-145845220D02*
X63493557Y-145820272D01*
X63493557Y-145820272D02*
X63468256Y-145794664D01*
X63468256Y-145794664D02*
X63418695Y-145719028D01*
X63418695Y-145719028D02*
X63399669Y-145620591D01*
X63399669Y-145620591D02*
X63409564Y-145514588D01*
X63409564Y-145514588D02*
X63446763Y-145416254D01*
X63446763Y-145416254D02*
X63509651Y-145340824D01*
X63509651Y-145340824D02*
X63516961Y-145335361D01*
X63516961Y-145335361D02*
X63634354Y-145278919D01*
X63634354Y-145278919D02*
X63755869Y-145268418D01*
X63755869Y-145268418D02*
X63871707Y-145302699D01*
X63871707Y-145302699D02*
X63972068Y-145380604D01*
X63972068Y-145380604D02*
X63980355Y-145390130D01*
X63980355Y-145390130D02*
X64019722Y-145445442D01*
X64019722Y-145445442D02*
X64037058Y-145501562D01*
X64037058Y-145501562D02*
X64038310Y-145580459D01*
X64038310Y-145580459D02*
X64037200Y-145600168D01*
X64037200Y-145600168D02*
X64034367Y-145677362D01*
X64034367Y-145677362D02*
X64040857Y-145717124D01*
X64040857Y-145717124D02*
X64060441Y-145731519D01*
X64060441Y-145731519D02*
X64078726Y-145732996D01*
X64078726Y-145732996D02*
X64131768Y-145736013D01*
X64131768Y-145736013D02*
X64211539Y-145743500D01*
X64211539Y-145743500D02*
X64259265Y-145748881D01*
X64259265Y-145748881D02*
X64335069Y-145756686D01*
X64335069Y-145756686D02*
X64373874Y-145753440D01*
X64373874Y-145753440D02*
X64388058Y-145734617D01*
X64388058Y-145734617D02*
X64390000Y-145701089D01*
X64390000Y-145701089D02*
X64383587Y-145681204D01*
X64383587Y-145681204D02*
X64362831Y-145649126D01*
X64362831Y-145649126D02*
X64325456Y-145602478D01*
X64325456Y-145602478D02*
X64269189Y-145538882D01*
X64269189Y-145538882D02*
X64191755Y-145455962D01*
X64191755Y-145455962D02*
X64090878Y-145351340D01*
X64090878Y-145351340D02*
X63964283Y-145222639D01*
X63964283Y-145222639D02*
X63809696Y-145067482D01*
X63809696Y-145067482D02*
X63624842Y-144883492D01*
X63624842Y-144883492D02*
X63407446Y-144668291D01*
X63407446Y-144668291D02*
X63302395Y-144564581D01*
X63302395Y-144564581D02*
X62214791Y-143491569D01*
X62214791Y-143491569D02*
X62387248Y-143492795D01*
X62387248Y-143492795D02*
X62387248Y-143492795D01*
G36*
X63767451Y-149916275D02*
G01*
X63767451Y-149782013D01*
X63765300Y-149703486D01*
X63754919Y-149660817D01*
X63748740Y-149655597D01*
X63730416Y-149640115D01*
X63703724Y-149631758D01*
X63634456Y-149597648D01*
X63551185Y-149532136D01*
X63465587Y-149446493D01*
X63389339Y-149351991D01*
X63349625Y-149289917D01*
X63306155Y-149219205D01*
X63270738Y-149184048D01*
X63568235Y-149184048D01*
X63584208Y-149220914D01*
X63622957Y-149274774D01*
X63670732Y-149328769D01*
X63713781Y-149366038D01*
X63719379Y-149369358D01*
X63748740Y-149380593D01*
X63759676Y-149369380D01*
X63991569Y-149369380D01*
X64047598Y-149357456D01*
X64091909Y-149351375D01*
X64175283Y-149342830D01*
X64287097Y-149332809D01*
X64416728Y-149322299D01*
X64464706Y-149318662D01*
X64602460Y-149307934D01*
X64730387Y-149297106D01*
X64836399Y-149287261D01*
X64908409Y-149279482D01*
X64921477Y-149277728D01*
X64948307Y-149271111D01*
X64979712Y-149256788D01*
X65011833Y-149236398D01*
X65397099Y-149236398D01*
X65421714Y-149235344D01*
X65491041Y-149230386D01*
X65600171Y-149221922D01*
X65744200Y-149210352D01*
X65918219Y-149196072D01*
X66117322Y-149179483D01*
X66336604Y-149160981D01*
X66544797Y-149143225D01*
X66781016Y-149123113D01*
X67004000Y-149104379D01*
X67208428Y-149087454D01*
X67388975Y-149072765D01*
X67540320Y-149060743D01*
X67657139Y-149051817D01*
X67734111Y-149046415D01*
X67764004Y-149044916D01*
X67782608Y-149042577D01*
X67789991Y-149033311D01*
X67783070Y-149013546D01*
X67758767Y-148979710D01*
X67713999Y-148928231D01*
X67645688Y-148855538D01*
X67550751Y-148758058D01*
X67426110Y-148632221D01*
X67292917Y-148498703D01*
X66747337Y-147952699D01*
X66743235Y-147956526D01*
X66529132Y-148156301D01*
X66418393Y-148259992D01*
X66294759Y-148376372D01*
X66163054Y-148500840D01*
X66028100Y-148628794D01*
X65894720Y-148755633D01*
X65767737Y-148876755D01*
X65651972Y-148987558D01*
X65552250Y-149083442D01*
X65473392Y-149159806D01*
X65420222Y-149212046D01*
X65397562Y-149235563D01*
X65397099Y-149236398D01*
X65011833Y-149236398D01*
X65019214Y-149231713D01*
X65070332Y-149192841D01*
X65136589Y-149137126D01*
X65221503Y-149061523D01*
X65328595Y-148962987D01*
X65461386Y-148838471D01*
X65623397Y-148684930D01*
X65787783Y-148528300D01*
X65950461Y-148372470D01*
X66101118Y-148227006D01*
X66236093Y-148095531D01*
X66351722Y-147981665D01*
X66444343Y-147889030D01*
X66510294Y-147821246D01*
X66540871Y-147787497D01*
X66938580Y-147787497D01*
X66956650Y-147810352D01*
X67006219Y-147863799D01*
X67083162Y-147943630D01*
X67183351Y-148045636D01*
X67302660Y-148165608D01*
X67436962Y-148299337D01*
X67547589Y-148408636D01*
X68152727Y-149004531D01*
X68717981Y-148960323D01*
X68883668Y-148946991D01*
X69035185Y-148934095D01*
X69164611Y-148922364D01*
X69264027Y-148912530D01*
X69325515Y-148905324D01*
X69339265Y-148903005D01*
X69395294Y-148889895D01*
X69395294Y-147009564D01*
X69238925Y-146997012D01*
X69054173Y-146959116D01*
X68890742Y-146879812D01*
X68754585Y-146764101D01*
X68651654Y-146616981D01*
X68589866Y-146451854D01*
X68560883Y-146398284D01*
X68498680Y-146371465D01*
X68495937Y-146370903D01*
X68469677Y-146367685D01*
X68442787Y-146371663D01*
X68410279Y-146386719D01*
X68367166Y-146416736D01*
X68308461Y-146465597D01*
X68229174Y-146537184D01*
X68124319Y-146635380D01*
X67988907Y-146764068D01*
X67980186Y-146772383D01*
X67834837Y-146910800D01*
X67680021Y-147057957D01*
X67526397Y-147203741D01*
X67384623Y-147338042D01*
X67265355Y-147450747D01*
X67238692Y-147475882D01*
X67138153Y-147572238D01*
X67052115Y-147657834D01*
X66986496Y-147726527D01*
X66947214Y-147772172D01*
X66938580Y-147787497D01*
X66540871Y-147787497D01*
X66545910Y-147781935D01*
X66551208Y-147773552D01*
X66531996Y-147751496D01*
X66481893Y-147699942D01*
X66405926Y-147623894D01*
X66309121Y-147528355D01*
X66196504Y-147418328D01*
X66114461Y-147338760D01*
X65684902Y-146923350D01*
X65684902Y-148148235D01*
X65211765Y-148148235D01*
X65211765Y-146654118D01*
X65422582Y-146654118D01*
X65149510Y-146380196D01*
X64955800Y-146185884D01*
X64876438Y-146106275D01*
X64633219Y-146106275D01*
X64521323Y-146105512D01*
X64450137Y-146102021D01*
X64410579Y-146094000D01*
X64404458Y-146088836D01*
X65220902Y-146088836D01*
X65235064Y-146108426D01*
X65280587Y-146158311D01*
X65353064Y-146234132D01*
X65448090Y-146331528D01*
X65561258Y-146446136D01*
X65688162Y-146573597D01*
X65824396Y-146709548D01*
X65965554Y-146849629D01*
X66107230Y-146989478D01*
X66245016Y-147124735D01*
X66374508Y-147251038D01*
X66491300Y-147364026D01*
X66590984Y-147459338D01*
X66669154Y-147532612D01*
X66721406Y-147579489D01*
X66743235Y-147595613D01*
X66765761Y-147579164D01*
X66818801Y-147533117D01*
X66897481Y-147462086D01*
X66996926Y-147370686D01*
X67112261Y-147263532D01*
X67238612Y-147145240D01*
X67371104Y-147020424D01*
X67504863Y-146893700D01*
X67635013Y-146769682D01*
X67756680Y-146652987D01*
X67864990Y-146548228D01*
X67955068Y-146460021D01*
X68022038Y-146392981D01*
X68061027Y-146351724D01*
X68068970Y-146340473D01*
X68043332Y-146336764D01*
X67972519Y-146329065D01*
X67860964Y-146317798D01*
X67713100Y-146303389D01*
X67533359Y-146286259D01*
X67326175Y-146266833D01*
X67095981Y-146245533D01*
X66847210Y-146222783D01*
X66646615Y-146204619D01*
X66386512Y-146181384D01*
X66141484Y-146159917D01*
X65915976Y-146140579D01*
X65714432Y-146123732D01*
X65541297Y-146109735D01*
X65401018Y-146098950D01*
X65298037Y-146091739D01*
X65236801Y-146088461D01*
X65220902Y-146088836D01*
X64404458Y-146088836D01*
X64393562Y-146079644D01*
X64390000Y-146057996D01*
X64384771Y-146033920D01*
X64363805Y-146016125D01*
X64319186Y-146002459D01*
X64242997Y-145990772D01*
X64127320Y-145978911D01*
X64084951Y-145975104D01*
X63991569Y-145966863D01*
X63991569Y-149369380D01*
X63759676Y-149369380D01*
X63762855Y-149366120D01*
X63767212Y-149315986D01*
X63767451Y-149282151D01*
X63767451Y-149169216D01*
X63667843Y-149169216D01*
X63605443Y-149172508D01*
X63570760Y-149180733D01*
X63568235Y-149184048D01*
X63270738Y-149184048D01*
X63269638Y-149182956D01*
X63226578Y-149170220D01*
X63200931Y-149169241D01*
X63194706Y-149169240D01*
X63120000Y-149169216D01*
X63120000Y-148959624D01*
X63122331Y-148863193D01*
X63128543Y-148788037D01*
X63137465Y-148746257D01*
X63141078Y-148741732D01*
X63146624Y-148715230D01*
X63144352Y-148650733D01*
X63134935Y-148559323D01*
X63126240Y-148496863D01*
X63109159Y-148383608D01*
X63093739Y-148280030D01*
X63082363Y-148202192D01*
X63079132Y-148179363D01*
X63060660Y-148119718D01*
X63031715Y-148098431D01*
X63314161Y-148098431D01*
X63331197Y-148266520D01*
X63345574Y-148383963D01*
X63364633Y-148509091D01*
X63378245Y-148584020D01*
X63408257Y-148733431D01*
X63587854Y-148740748D01*
X63767451Y-148748064D01*
X63767451Y-145946755D01*
X63670419Y-146041504D01*
X63550681Y-146188664D01*
X63458330Y-146370793D01*
X63392100Y-146590977D01*
X63355470Y-146809755D01*
X63338379Y-146952941D01*
X63518431Y-146952941D01*
X63518431Y-148098431D01*
X63314161Y-148098431D01*
X63031715Y-148098431D01*
X63019926Y-148091959D01*
X63010933Y-148068808D01*
X63004381Y-148023374D01*
X62999915Y-147950055D01*
X62998614Y-147899216D01*
X63194706Y-147899216D01*
X63319216Y-147899216D01*
X63319216Y-147152157D01*
X63194706Y-147152157D01*
X63194706Y-147899216D01*
X62998614Y-147899216D01*
X62997181Y-147843246D01*
X62995826Y-147697346D01*
X62995490Y-147525686D01*
X62995681Y-147342481D01*
X62996579Y-147203108D01*
X62998677Y-147101596D01*
X63002467Y-147031974D01*
X63008439Y-146988269D01*
X63017085Y-146964512D01*
X63028897Y-146954731D01*
X63042630Y-146952941D01*
X63086221Y-146937705D01*
X63111027Y-146887799D01*
X63119874Y-146796924D01*
X63120000Y-146780574D01*
X63135876Y-146626680D01*
X63179579Y-146451891D01*
X63245224Y-146271968D01*
X63326927Y-146102676D01*
X63418801Y-145959777D01*
X63433358Y-145941269D01*
X63480720Y-145880944D01*
X63499690Y-145845220D01*
X63493557Y-145820272D01*
X63468256Y-145794664D01*
X63418695Y-145719028D01*
X63399669Y-145620591D01*
X63409564Y-145514588D01*
X63446763Y-145416254D01*
X63509651Y-145340824D01*
X63516961Y-145335361D01*
X63634354Y-145278919D01*
X63755869Y-145268418D01*
X63871707Y-145302699D01*
X63972068Y-145380604D01*
X63980355Y-145390130D01*
X64019722Y-145445442D01*
X64037058Y-145501562D01*
X64038310Y-145580459D01*
X64037200Y-145600168D01*
X64034367Y-145677362D01*
X64040857Y-145717124D01*
X64060441Y-145731519D01*
X64078726Y-145732996D01*
X64131768Y-145736013D01*
X64211539Y-145743500D01*
X64259265Y-145748881D01*
X64335069Y-145756686D01*
X64373874Y-145753440D01*
X64388058Y-145734617D01*
X64390000Y-145701089D01*
X64383587Y-145681204D01*
X64362831Y-145649126D01*
X64325456Y-145602478D01*
X64269189Y-145538882D01*
X64217682Y-145483726D01*
X64578204Y-145483726D01*
X64738628Y-145645588D01*
X64836161Y-145736895D01*
X64910883Y-145791507D01*
X64955800Y-145807451D01*
X64986358Y-145803831D01*
X65003383Y-145785509D01*
X65010801Y-145741293D01*
X65012536Y-145659988D01*
X65012549Y-145645588D01*
X65012549Y-145483726D01*
X64578204Y-145483726D01*
X64217682Y-145483726D01*
X64191755Y-145455962D01*
X64090878Y-145351340D01*
X63964283Y-145222639D01*
X63809696Y-145067482D01*
X63624842Y-144883492D01*
X63407446Y-144668291D01*
X63302395Y-144564581D01*
X62214791Y-143491569D01*
X62387248Y-143492795D01*
X62559706Y-143494022D01*
X63468628Y-144388614D01*
X64377549Y-145283206D01*
X65211765Y-145284510D01*
X65211765Y-145829301D01*
X65317598Y-145843339D01*
X65365837Y-145848655D01*
X65456679Y-145857614D01*
X65584704Y-145869739D01*
X65744494Y-145884550D01*
X65930630Y-145901568D01*
X66137693Y-145920313D01*
X66360265Y-145940306D01*
X66592926Y-145961068D01*
X66830257Y-145982120D01*
X67066840Y-146002983D01*
X67297256Y-146023177D01*
X67516086Y-146042222D01*
X67717911Y-146059641D01*
X67897312Y-146074953D01*
X68048870Y-146087679D01*
X68167168Y-146097341D01*
X68246784Y-146103458D01*
X68282302Y-146105551D01*
X68282471Y-146105550D01*
X68310970Y-146090284D01*
X68369815Y-146044430D01*
X68459691Y-145967365D01*
X68581283Y-145858465D01*
X68735276Y-145717105D01*
X68922355Y-145542662D01*
X69143204Y-145334512D01*
X69398510Y-145092032D01*
X69470000Y-145023875D01*
X70603039Y-143942925D01*
X70690196Y-144030316D01*
X70777353Y-144117706D01*
X70623521Y-144259098D01*
X70567926Y-144310824D01*
X70481953Y-144391624D01*
X70371235Y-144496167D01*
X70241403Y-144619121D01*
X70098089Y-144755157D01*
X69946927Y-144898941D01*
X69856644Y-144984960D01*
X69687509Y-145146451D01*
X69552033Y-145276983D01*
X69447752Y-145379884D01*
X69372203Y-145458483D01*
X69322922Y-145516108D01*
X69297446Y-145556089D01*
X69293311Y-145581752D01*
X69308054Y-145596427D01*
X69339212Y-145603442D01*
X69384320Y-145606125D01*
X69396630Y-145606485D01*
X69481433Y-145625137D01*
X69583934Y-145671094D01*
X69687924Y-145735181D01*
X69777191Y-145808226D01*
X69804766Y-145837454D01*
X69901250Y-145987422D01*
X69955234Y-146162605D01*
X69968039Y-146317488D01*
X69943886Y-146493014D01*
X69873061Y-146655121D01*
X69758017Y-146798596D01*
X69729381Y-146825068D01*
X69619412Y-146921867D01*
X69619412Y-148596471D01*
X69968039Y-148596471D01*
X69968039Y-149044706D01*
X69805168Y-149044706D01*
X69693980Y-149050331D01*
X69616805Y-149069229D01*
X69574825Y-149092197D01*
X69544789Y-149108607D01*
X69501239Y-149122659D01*
X69437720Y-149135284D01*
X69347774Y-149147413D01*
X69224947Y-149159976D01*
X69062782Y-149173906D01*
X68942144Y-149183444D01*
X68376934Y-149227200D01*
X69465085Y-150301374D01*
X69661981Y-150495595D01*
X69851281Y-150682043D01*
X70029506Y-150857310D01*
X70193180Y-151017989D01*
X70338824Y-151160674D01*
X70462962Y-151281958D01*
X70562115Y-151378434D01*
X70632807Y-151446696D01*
X70671520Y-151483298D01*
X70732811Y-151543432D01*
X70775559Y-151593592D01*
X70789804Y-151620571D01*
X70773118Y-151655032D01*
X70731425Y-151705264D01*
X70714447Y-151722291D01*
X70639089Y-151794488D01*
X70235164Y-151396999D01*
X70132266Y-151295592D01*
X69999820Y-151164833D01*
X69843625Y-151010459D01*
X69669478Y-150838204D01*
X69483176Y-150653806D01*
X69290518Y-150463001D01*
X69097301Y-150271523D01*
X68958777Y-150134167D01*
X68747678Y-149925372D01*
X68568960Y-149749962D01*
X68420204Y-149605692D01*
X68298991Y-149490320D01*
X68202903Y-149401601D01*
X68152727Y-149357630D01*
X68129519Y-149337292D01*
X68076420Y-149295148D01*
X68041189Y-149272927D01*
X68024873Y-149267983D01*
X67989266Y-149269856D01*
X67908669Y-149275546D01*
X67787720Y-149284685D01*
X67631058Y-149296904D01*
X67443320Y-149311836D01*
X67229146Y-149329113D01*
X66993172Y-149348365D01*
X66740036Y-149369225D01*
X66537729Y-149386037D01*
X65397099Y-149481157D01*
X65112026Y-149504931D01*
X62610520Y-151883529D01*
X62260882Y-151881779D01*
X62466103Y-151689664D01*
X62580564Y-151582145D01*
X62715041Y-151455204D01*
X62865956Y-151312266D01*
X63029729Y-151156757D01*
X63202782Y-150992103D01*
X63381537Y-150821729D01*
X63562415Y-150649061D01*
X63741838Y-150477525D01*
X63916226Y-150310546D01*
X64082002Y-150151550D01*
X64235586Y-150003963D01*
X64373400Y-149871211D01*
X64491866Y-149756718D01*
X64587404Y-149663912D01*
X64656437Y-149596217D01*
X64695385Y-149557060D01*
X64702857Y-149548478D01*
X64676866Y-149547888D01*
X64610319Y-149551134D01*
X64512272Y-149557653D01*
X64391779Y-149566880D01*
X64343645Y-149570841D01*
X63991569Y-149600339D01*
X63991569Y-149916275D01*
X63767451Y-149916275D01*
G37*
X63767451Y-149916275D02*
X63767451Y-149782013D01*
X63765300Y-149703486D01*
X63754919Y-149660817D01*
X63748740Y-149655597D01*
X63730416Y-149640115D01*
X63703724Y-149631758D01*
X63634456Y-149597648D01*
X63551185Y-149532136D01*
X63465587Y-149446493D01*
X63389339Y-149351991D01*
X63349625Y-149289917D01*
X63306155Y-149219205D01*
X63270738Y-149184048D01*
X63568235Y-149184048D01*
X63584208Y-149220914D01*
X63622957Y-149274774D01*
X63670732Y-149328769D01*
X63713781Y-149366038D01*
X63719379Y-149369358D01*
X63748740Y-149380593D01*
X63759676Y-149369380D01*
X63991569Y-149369380D01*
X64047598Y-149357456D01*
X64091909Y-149351375D01*
X64175283Y-149342830D01*
X64287097Y-149332809D01*
X64416728Y-149322299D01*
X64464706Y-149318662D01*
X64602460Y-149307934D01*
X64730387Y-149297106D01*
X64836399Y-149287261D01*
X64908409Y-149279482D01*
X64921477Y-149277728D01*
X64948307Y-149271111D01*
X64979712Y-149256788D01*
X65011833Y-149236398D01*
X65397099Y-149236398D01*
X65421714Y-149235344D01*
X65491041Y-149230386D01*
X65600171Y-149221922D01*
X65744200Y-149210352D01*
X65918219Y-149196072D01*
X66117322Y-149179483D01*
X66336604Y-149160981D01*
X66544797Y-149143225D01*
X66781016Y-149123113D01*
X67004000Y-149104379D01*
X67208428Y-149087454D01*
X67388975Y-149072765D01*
X67540320Y-149060743D01*
X67657139Y-149051817D01*
X67734111Y-149046415D01*
X67764004Y-149044916D01*
X67782608Y-149042577D01*
X67789991Y-149033311D01*
X67783070Y-149013546D01*
X67758767Y-148979710D01*
X67713999Y-148928231D01*
X67645688Y-148855538D01*
X67550751Y-148758058D01*
X67426110Y-148632221D01*
X67292917Y-148498703D01*
X66747337Y-147952699D01*
X66743235Y-147956526D01*
X66529132Y-148156301D01*
X66418393Y-148259992D01*
X66294759Y-148376372D01*
X66163054Y-148500840D01*
X66028100Y-148628794D01*
X65894720Y-148755633D01*
X65767737Y-148876755D01*
X65651972Y-148987558D01*
X65552250Y-149083442D01*
X65473392Y-149159806D01*
X65420222Y-149212046D01*
X65397562Y-149235563D01*
X65397099Y-149236398D01*
X65011833Y-149236398D01*
X65019214Y-149231713D01*
X65070332Y-149192841D01*
X65136589Y-149137126D01*
X65221503Y-149061523D01*
X65328595Y-148962987D01*
X65461386Y-148838471D01*
X65623397Y-148684930D01*
X65787783Y-148528300D01*
X65950461Y-148372470D01*
X66101118Y-148227006D01*
X66236093Y-148095531D01*
X66351722Y-147981665D01*
X66444343Y-147889030D01*
X66510294Y-147821246D01*
X66540871Y-147787497D01*
X66938580Y-147787497D01*
X66956650Y-147810352D01*
X67006219Y-147863799D01*
X67083162Y-147943630D01*
X67183351Y-148045636D01*
X67302660Y-148165608D01*
X67436962Y-148299337D01*
X67547589Y-148408636D01*
X68152727Y-149004531D01*
X68717981Y-148960323D01*
X68883668Y-148946991D01*
X69035185Y-148934095D01*
X69164611Y-148922364D01*
X69264027Y-148912530D01*
X69325515Y-148905324D01*
X69339265Y-148903005D01*
X69395294Y-148889895D01*
X69395294Y-147009564D01*
X69238925Y-146997012D01*
X69054173Y-146959116D01*
X68890742Y-146879812D01*
X68754585Y-146764101D01*
X68651654Y-146616981D01*
X68589866Y-146451854D01*
X68560883Y-146398284D01*
X68498680Y-146371465D01*
X68495937Y-146370903D01*
X68469677Y-146367685D01*
X68442787Y-146371663D01*
X68410279Y-146386719D01*
X68367166Y-146416736D01*
X68308461Y-146465597D01*
X68229174Y-146537184D01*
X68124319Y-146635380D01*
X67988907Y-146764068D01*
X67980186Y-146772383D01*
X67834837Y-146910800D01*
X67680021Y-147057957D01*
X67526397Y-147203741D01*
X67384623Y-147338042D01*
X67265355Y-147450747D01*
X67238692Y-147475882D01*
X67138153Y-147572238D01*
X67052115Y-147657834D01*
X66986496Y-147726527D01*
X66947214Y-147772172D01*
X66938580Y-147787497D01*
X66540871Y-147787497D01*
X66545910Y-147781935D01*
X66551208Y-147773552D01*
X66531996Y-147751496D01*
X66481893Y-147699942D01*
X66405926Y-147623894D01*
X66309121Y-147528355D01*
X66196504Y-147418328D01*
X66114461Y-147338760D01*
X65684902Y-146923350D01*
X65684902Y-148148235D01*
X65211765Y-148148235D01*
X65211765Y-146654118D01*
X65422582Y-146654118D01*
X65149510Y-146380196D01*
X64955800Y-146185884D01*
X64876438Y-146106275D01*
X64633219Y-146106275D01*
X64521323Y-146105512D01*
X64450137Y-146102021D01*
X64410579Y-146094000D01*
X64404458Y-146088836D01*
X65220902Y-146088836D01*
X65235064Y-146108426D01*
X65280587Y-146158311D01*
X65353064Y-146234132D01*
X65448090Y-146331528D01*
X65561258Y-146446136D01*
X65688162Y-146573597D01*
X65824396Y-146709548D01*
X65965554Y-146849629D01*
X66107230Y-146989478D01*
X66245016Y-147124735D01*
X66374508Y-147251038D01*
X66491300Y-147364026D01*
X66590984Y-147459338D01*
X66669154Y-147532612D01*
X66721406Y-147579489D01*
X66743235Y-147595613D01*
X66765761Y-147579164D01*
X66818801Y-147533117D01*
X66897481Y-147462086D01*
X66996926Y-147370686D01*
X67112261Y-147263532D01*
X67238612Y-147145240D01*
X67371104Y-147020424D01*
X67504863Y-146893700D01*
X67635013Y-146769682D01*
X67756680Y-146652987D01*
X67864990Y-146548228D01*
X67955068Y-146460021D01*
X68022038Y-146392981D01*
X68061027Y-146351724D01*
X68068970Y-146340473D01*
X68043332Y-146336764D01*
X67972519Y-146329065D01*
X67860964Y-146317798D01*
X67713100Y-146303389D01*
X67533359Y-146286259D01*
X67326175Y-146266833D01*
X67095981Y-146245533D01*
X66847210Y-146222783D01*
X66646615Y-146204619D01*
X66386512Y-146181384D01*
X66141484Y-146159917D01*
X65915976Y-146140579D01*
X65714432Y-146123732D01*
X65541297Y-146109735D01*
X65401018Y-146098950D01*
X65298037Y-146091739D01*
X65236801Y-146088461D01*
X65220902Y-146088836D01*
X64404458Y-146088836D01*
X64393562Y-146079644D01*
X64390000Y-146057996D01*
X64384771Y-146033920D01*
X64363805Y-146016125D01*
X64319186Y-146002459D01*
X64242997Y-145990772D01*
X64127320Y-145978911D01*
X64084951Y-145975104D01*
X63991569Y-145966863D01*
X63991569Y-149369380D01*
X63759676Y-149369380D01*
X63762855Y-149366120D01*
X63767212Y-149315986D01*
X63767451Y-149282151D01*
X63767451Y-149169216D01*
X63667843Y-149169216D01*
X63605443Y-149172508D01*
X63570760Y-149180733D01*
X63568235Y-149184048D01*
X63270738Y-149184048D01*
X63269638Y-149182956D01*
X63226578Y-149170220D01*
X63200931Y-149169241D01*
X63194706Y-149169240D01*
X63120000Y-149169216D01*
X63120000Y-148959624D01*
X63122331Y-148863193D01*
X63128543Y-148788037D01*
X63137465Y-148746257D01*
X63141078Y-148741732D01*
X63146624Y-148715230D01*
X63144352Y-148650733D01*
X63134935Y-148559323D01*
X63126240Y-148496863D01*
X63109159Y-148383608D01*
X63093739Y-148280030D01*
X63082363Y-148202192D01*
X63079132Y-148179363D01*
X63060660Y-148119718D01*
X63031715Y-148098431D01*
X63314161Y-148098431D01*
X63331197Y-148266520D01*
X63345574Y-148383963D01*
X63364633Y-148509091D01*
X63378245Y-148584020D01*
X63408257Y-148733431D01*
X63587854Y-148740748D01*
X63767451Y-148748064D01*
X63767451Y-145946755D01*
X63670419Y-146041504D01*
X63550681Y-146188664D01*
X63458330Y-146370793D01*
X63392100Y-146590977D01*
X63355470Y-146809755D01*
X63338379Y-146952941D01*
X63518431Y-146952941D01*
X63518431Y-148098431D01*
X63314161Y-148098431D01*
X63031715Y-148098431D01*
X63019926Y-148091959D01*
X63010933Y-148068808D01*
X63004381Y-148023374D01*
X62999915Y-147950055D01*
X62998614Y-147899216D01*
X63194706Y-147899216D01*
X63319216Y-147899216D01*
X63319216Y-147152157D01*
X63194706Y-147152157D01*
X63194706Y-147899216D01*
X62998614Y-147899216D01*
X62997181Y-147843246D01*
X62995826Y-147697346D01*
X62995490Y-147525686D01*
X62995681Y-147342481D01*
X62996579Y-147203108D01*
X62998677Y-147101596D01*
X63002467Y-147031974D01*
X63008439Y-146988269D01*
X63017085Y-146964512D01*
X63028897Y-146954731D01*
X63042630Y-146952941D01*
X63086221Y-146937705D01*
X63111027Y-146887799D01*
X63119874Y-146796924D01*
X63120000Y-146780574D01*
X63135876Y-146626680D01*
X63179579Y-146451891D01*
X63245224Y-146271968D01*
X63326927Y-146102676D01*
X63418801Y-145959777D01*
X63433358Y-145941269D01*
X63480720Y-145880944D01*
X63499690Y-145845220D01*
X63493557Y-145820272D01*
X63468256Y-145794664D01*
X63418695Y-145719028D01*
X63399669Y-145620591D01*
X63409564Y-145514588D01*
X63446763Y-145416254D01*
X63509651Y-145340824D01*
X63516961Y-145335361D01*
X63634354Y-145278919D01*
X63755869Y-145268418D01*
X63871707Y-145302699D01*
X63972068Y-145380604D01*
X63980355Y-145390130D01*
X64019722Y-145445442D01*
X64037058Y-145501562D01*
X64038310Y-145580459D01*
X64037200Y-145600168D01*
X64034367Y-145677362D01*
X64040857Y-145717124D01*
X64060441Y-145731519D01*
X64078726Y-145732996D01*
X64131768Y-145736013D01*
X64211539Y-145743500D01*
X64259265Y-145748881D01*
X64335069Y-145756686D01*
X64373874Y-145753440D01*
X64388058Y-145734617D01*
X64390000Y-145701089D01*
X64383587Y-145681204D01*
X64362831Y-145649126D01*
X64325456Y-145602478D01*
X64269189Y-145538882D01*
X64217682Y-145483726D01*
X64578204Y-145483726D01*
X64738628Y-145645588D01*
X64836161Y-145736895D01*
X64910883Y-145791507D01*
X64955800Y-145807451D01*
X64986358Y-145803831D01*
X65003383Y-145785509D01*
X65010801Y-145741293D01*
X65012536Y-145659988D01*
X65012549Y-145645588D01*
X65012549Y-145483726D01*
X64578204Y-145483726D01*
X64217682Y-145483726D01*
X64191755Y-145455962D01*
X64090878Y-145351340D01*
X63964283Y-145222639D01*
X63809696Y-145067482D01*
X63624842Y-144883492D01*
X63407446Y-144668291D01*
X63302395Y-144564581D01*
X62214791Y-143491569D01*
X62387248Y-143492795D01*
X62559706Y-143494022D01*
X63468628Y-144388614D01*
X64377549Y-145283206D01*
X65211765Y-145284510D01*
X65211765Y-145829301D01*
X65317598Y-145843339D01*
X65365837Y-145848655D01*
X65456679Y-145857614D01*
X65584704Y-145869739D01*
X65744494Y-145884550D01*
X65930630Y-145901568D01*
X66137693Y-145920313D01*
X66360265Y-145940306D01*
X66592926Y-145961068D01*
X66830257Y-145982120D01*
X67066840Y-146002983D01*
X67297256Y-146023177D01*
X67516086Y-146042222D01*
X67717911Y-146059641D01*
X67897312Y-146074953D01*
X68048870Y-146087679D01*
X68167168Y-146097341D01*
X68246784Y-146103458D01*
X68282302Y-146105551D01*
X68282471Y-146105550D01*
X68310970Y-146090284D01*
X68369815Y-146044430D01*
X68459691Y-145967365D01*
X68581283Y-145858465D01*
X68735276Y-145717105D01*
X68922355Y-145542662D01*
X69143204Y-145334512D01*
X69398510Y-145092032D01*
X69470000Y-145023875D01*
X70603039Y-143942925D01*
X70690196Y-144030316D01*
X70777353Y-144117706D01*
X70623521Y-144259098D01*
X70567926Y-144310824D01*
X70481953Y-144391624D01*
X70371235Y-144496167D01*
X70241403Y-144619121D01*
X70098089Y-144755157D01*
X69946927Y-144898941D01*
X69856644Y-144984960D01*
X69687509Y-145146451D01*
X69552033Y-145276983D01*
X69447752Y-145379884D01*
X69372203Y-145458483D01*
X69322922Y-145516108D01*
X69297446Y-145556089D01*
X69293311Y-145581752D01*
X69308054Y-145596427D01*
X69339212Y-145603442D01*
X69384320Y-145606125D01*
X69396630Y-145606485D01*
X69481433Y-145625137D01*
X69583934Y-145671094D01*
X69687924Y-145735181D01*
X69777191Y-145808226D01*
X69804766Y-145837454D01*
X69901250Y-145987422D01*
X69955234Y-146162605D01*
X69968039Y-146317488D01*
X69943886Y-146493014D01*
X69873061Y-146655121D01*
X69758017Y-146798596D01*
X69729381Y-146825068D01*
X69619412Y-146921867D01*
X69619412Y-148596471D01*
X69968039Y-148596471D01*
X69968039Y-149044706D01*
X69805168Y-149044706D01*
X69693980Y-149050331D01*
X69616805Y-149069229D01*
X69574825Y-149092197D01*
X69544789Y-149108607D01*
X69501239Y-149122659D01*
X69437720Y-149135284D01*
X69347774Y-149147413D01*
X69224947Y-149159976D01*
X69062782Y-149173906D01*
X68942144Y-149183444D01*
X68376934Y-149227200D01*
X69465085Y-150301374D01*
X69661981Y-150495595D01*
X69851281Y-150682043D01*
X70029506Y-150857310D01*
X70193180Y-151017989D01*
X70338824Y-151160674D01*
X70462962Y-151281958D01*
X70562115Y-151378434D01*
X70632807Y-151446696D01*
X70671520Y-151483298D01*
X70732811Y-151543432D01*
X70775559Y-151593592D01*
X70789804Y-151620571D01*
X70773118Y-151655032D01*
X70731425Y-151705264D01*
X70714447Y-151722291D01*
X70639089Y-151794488D01*
X70235164Y-151396999D01*
X70132266Y-151295592D01*
X69999820Y-151164833D01*
X69843625Y-151010459D01*
X69669478Y-150838204D01*
X69483176Y-150653806D01*
X69290518Y-150463001D01*
X69097301Y-150271523D01*
X68958777Y-150134167D01*
X68747678Y-149925372D01*
X68568960Y-149749962D01*
X68420204Y-149605692D01*
X68298991Y-149490320D01*
X68202903Y-149401601D01*
X68152727Y-149357630D01*
X68129519Y-149337292D01*
X68076420Y-149295148D01*
X68041189Y-149272927D01*
X68024873Y-149267983D01*
X67989266Y-149269856D01*
X67908669Y-149275546D01*
X67787720Y-149284685D01*
X67631058Y-149296904D01*
X67443320Y-149311836D01*
X67229146Y-149329113D01*
X66993172Y-149348365D01*
X66740036Y-149369225D01*
X66537729Y-149386037D01*
X65397099Y-149481157D01*
X65112026Y-149504931D01*
X62610520Y-151883529D01*
X62260882Y-151881779D01*
X62466103Y-151689664D01*
X62580564Y-151582145D01*
X62715041Y-151455204D01*
X62865956Y-151312266D01*
X63029729Y-151156757D01*
X63202782Y-150992103D01*
X63381537Y-150821729D01*
X63562415Y-150649061D01*
X63741838Y-150477525D01*
X63916226Y-150310546D01*
X64082002Y-150151550D01*
X64235586Y-150003963D01*
X64373400Y-149871211D01*
X64491866Y-149756718D01*
X64587404Y-149663912D01*
X64656437Y-149596217D01*
X64695385Y-149557060D01*
X64702857Y-149548478D01*
X64676866Y-149547888D01*
X64610319Y-149551134D01*
X64512272Y-149557653D01*
X64391779Y-149566880D01*
X64343645Y-149570841D01*
X63991569Y-149600339D01*
X63991569Y-149916275D01*
X63767451Y-149916275D01*
D14*
X107417500Y-92440000D02*
G75*
G03*
X107417500Y-92440000I-1680000J0D01*
G01*
X107417500Y-97520000D02*
G75*
G03*
X107272256Y-96836682I-1679992J1D01*
G01*
X106421500Y-95985000D02*
G75*
G03*
X105054458Y-95984573I-684001J-1534993D01*
G01*
X107272500Y-98204000D02*
G75*
G03*
X107417753Y-97491195I-1535001J683999D01*
G01*
X104202500Y-96836000D02*
G75*
G03*
X104202073Y-98203042I1534993J-684001D01*
G01*
X105053500Y-99055000D02*
G75*
G03*
X106420542Y-99055427I684001J1534993D01*
G01*
X110637500Y-100360000D02*
X110637500Y-99860000D01*
X106760500Y-93667000D02*
X106806500Y-93714000D01*
X109897500Y-100360000D02*
X110637500Y-100360000D01*
X106976500Y-93474000D02*
X107011500Y-93509000D01*
X104462500Y-91370000D02*
X104498500Y-91405000D01*
X103436500Y-100120000D02*
X103436500Y-89840000D01*
X110397500Y-100120000D02*
X110397500Y-89840000D01*
X108337500Y-100120000D02*
X108337500Y-89840000D01*
X100476500Y-100120000D02*
X100476500Y-89840000D01*
X109837500Y-100120000D02*
X109837500Y-89840000D01*
X100476500Y-89840000D02*
X110397500Y-89840000D01*
X104668500Y-91165000D02*
X104714500Y-91212000D01*
X100476500Y-100120000D02*
X110397500Y-100120000D01*
X124967500Y-122030000D02*
X123967500Y-122030000D01*
X124967500Y-125390000D02*
X123967500Y-125390000D01*
X68320000Y-62580000D02*
X62080000Y-62580000D01*
X68320000Y-62580000D02*
X68320000Y-80820000D01*
X68320000Y-80820000D02*
X62080000Y-80820000D01*
X62080000Y-62580000D02*
X62080000Y-80820000D01*
D12*
X133825000Y-63300000D02*
X133825000Y-88700000D01*
X108425000Y-63300000D02*
X133825000Y-63300000D01*
X108425000Y-88700000D02*
X108425000Y-63300000D01*
X133825000Y-88700000D02*
X108425000Y-88700000D01*
D13*
X131385000Y-62500000D02*
G75*
G03*
X131385000Y-62500000I-100000J0D01*
G01*
D14*
X121982500Y-107505436D02*
X121982500Y-107959564D01*
X123452500Y-107505436D02*
X123452500Y-107959564D01*
X131206248Y-103970000D02*
X131728752Y-103970000D01*
X131206248Y-102550000D02*
X131728752Y-102550000D01*
X86200000Y-91750000D02*
X82000000Y-91750000D01*
X82000000Y-91750000D02*
X82000000Y-95950000D01*
X82000000Y-95950000D02*
X86200000Y-95950000D01*
X86200000Y-95950000D02*
X86200000Y-91750000D01*
X84100000Y-95950000D02*
X84100000Y-96500000D01*
X84100000Y-91750000D02*
X84100000Y-91200000D01*
X74840000Y-113300000D02*
X74070000Y-113300000D01*
X67530000Y-111930000D02*
X67530000Y-114670000D01*
X74070000Y-114670000D02*
X74070000Y-111930000D01*
X74070000Y-111930000D02*
X67530000Y-111930000D01*
X67530000Y-114670000D02*
X74070000Y-114670000D01*
X66760000Y-113300000D02*
X67530000Y-113300000D01*
X135344564Y-111045000D02*
X134890436Y-111045000D01*
X135344564Y-109575000D02*
X134890436Y-109575000D01*
X113041252Y-109000000D02*
X111618748Y-109000000D01*
X113041252Y-110820000D02*
X111618748Y-110820000D01*
X103477064Y-138135000D02*
X103022936Y-138135000D01*
X103477064Y-136665000D02*
X103022936Y-136665000D01*
X121215000Y-99022936D02*
X121215000Y-99477064D01*
X122685000Y-99022936D02*
X122685000Y-99477064D01*
X112066252Y-112945000D02*
X111543748Y-112945000D01*
X112066252Y-111475000D02*
X111543748Y-111475000D01*
D12*
X73800000Y-104750000D02*
G75*
G03*
X73800000Y-104750000I-6400000J0D01*
G01*
D14*
X111557500Y-126420000D02*
X111557500Y-126185000D01*
X115417500Y-113400000D02*
X119277500Y-113400000D01*
X119277500Y-126420000D02*
X119277500Y-126185000D01*
X111557500Y-113635000D02*
X109742500Y-113635000D01*
X115417500Y-113400000D02*
X111557500Y-113400000D01*
X119277500Y-113400000D02*
X119277500Y-113635000D01*
X115417500Y-126420000D02*
X119277500Y-126420000D01*
X111557500Y-113400000D02*
X111557500Y-113635000D01*
X115417500Y-126420000D02*
X111557500Y-126420000D01*
X98827500Y-119008752D02*
X98827500Y-117586248D01*
X97007500Y-119008752D02*
X97007500Y-117586248D01*
X123857500Y-106710000D02*
X123857500Y-109570000D01*
X125777500Y-109570000D02*
X125777500Y-106710000D01*
X123857500Y-109570000D02*
X125777500Y-109570000D01*
X115107500Y-104113748D02*
X115107500Y-105536252D01*
X116927500Y-104113748D02*
X116927500Y-105536252D01*
X96302500Y-118033752D02*
X96302500Y-117511248D01*
X94832500Y-118033752D02*
X94832500Y-117511248D01*
X98688748Y-136665000D02*
X99211252Y-136665000D01*
X98688748Y-138135000D02*
X99211252Y-138135000D01*
X83085000Y-127825000D02*
G75*
G03*
X83085000Y-127825000I-1680000J0D01*
G01*
X83085000Y-132905000D02*
G75*
G03*
X83085000Y-132905000I-1680000J0D01*
G01*
X83085000Y-137985000D02*
G75*
G03*
X82939756Y-137301682I-1679992J1D01*
G01*
X82089000Y-136450000D02*
G75*
G03*
X80721958Y-136449573I-684001J-1534993D01*
G01*
X80721000Y-139520000D02*
G75*
G03*
X82088042Y-139520427I684001J1534993D01*
G01*
X79870000Y-137301000D02*
G75*
G03*
X79869573Y-138668042I1534993J-684001D01*
G01*
X82940000Y-138669000D02*
G75*
G03*
X83085253Y-137956195I-1535001J683999D01*
G01*
X80130000Y-131835000D02*
X80166000Y-131870000D01*
X84005000Y-140585000D02*
X84005000Y-125225000D01*
X76144000Y-140585000D02*
X76144000Y-125225000D01*
X76144000Y-140585000D02*
X86065000Y-140585000D01*
X82428000Y-134132000D02*
X82474000Y-134179000D01*
X85505000Y-140585000D02*
X85505000Y-125225000D01*
X80130000Y-126755000D02*
X80166000Y-126790000D01*
X86065000Y-140585000D02*
X86065000Y-125225000D01*
X86305000Y-140825000D02*
X86305000Y-140325000D01*
X79104000Y-140585000D02*
X79104000Y-125225000D01*
X80336000Y-131630000D02*
X80382000Y-131677000D01*
X80336000Y-126550000D02*
X80382000Y-126597000D01*
X82644000Y-133939000D02*
X82679000Y-133974000D01*
X82644000Y-128859000D02*
X82679000Y-128894000D01*
X76144000Y-125225000D02*
X86065000Y-125225000D01*
X82428000Y-129052000D02*
X82474000Y-129099000D01*
X85565000Y-140825000D02*
X86305000Y-140825000D01*
X135382500Y-102483752D02*
X135382500Y-101961248D01*
X136852500Y-102483752D02*
X136852500Y-101961248D01*
X98720000Y-97300000D02*
G75*
G03*
X98720000Y-97300000I-3270000J0D01*
G01*
X135341252Y-113145000D02*
X134818748Y-113145000D01*
X135341252Y-111675000D02*
X134818748Y-111675000D01*
%LPC*%
D16*
X104885000Y-65840000D03*
D17*
X99805000Y-65840000D03*
X94725000Y-86160000D03*
X104885000Y-86160000D03*
D18*
X65892500Y-96357500D03*
D19*
X65892500Y-86357500D03*
X78392500Y-96357500D03*
X78392500Y-86357500D03*
D20*
X94460000Y-92100000D03*
X97000000Y-92100000D03*
X133850000Y-90800000D03*
X131310000Y-90800000D03*
D21*
X102725000Y-108700000D03*
D22*
X102725000Y-111240000D03*
X100185000Y-108700000D03*
X100185000Y-111240000D03*
X97645000Y-108700000D03*
X97645000Y-111240000D03*
D23*
X125317500Y-103310000D03*
X128292500Y-103310000D03*
D24*
X96885000Y-130100000D03*
X98885000Y-130100000D03*
D25*
X110442500Y-134710000D03*
X110442500Y-135660000D03*
X110442500Y-136610000D03*
X113142500Y-136610000D03*
X113142500Y-134710000D03*
D26*
X70955000Y-136650000D03*
X72255000Y-129150000D03*
D27*
X102950000Y-145200000D03*
X107250000Y-145200000D03*
D28*
X112792500Y-140410000D03*
X110792500Y-140410000D03*
D29*
X112817500Y-103275000D03*
X112817500Y-106375000D03*
D30*
X136980000Y-118560000D03*
X136980000Y-120460000D03*
X138855000Y-119510000D03*
D22*
X97910000Y-127300000D03*
D21*
X97910000Y-124760000D03*
D31*
X100517500Y-116735000D03*
X100517500Y-118005000D03*
X100517500Y-119275000D03*
X100517500Y-120545000D03*
X105467500Y-120545000D03*
X105467500Y-119275000D03*
X105467500Y-118005000D03*
X105467500Y-116735000D03*
D32*
X131955000Y-107760000D03*
X131955000Y-105860000D03*
X130080000Y-106810000D03*
D33*
X121950000Y-95862500D03*
X121950000Y-92887500D03*
D34*
X132117500Y-116660000D03*
D35*
X108617500Y-109910000D03*
X106542500Y-109910000D03*
D34*
X122467500Y-103310000D03*
D25*
X105967500Y-125060000D03*
X105967500Y-126960000D03*
X103267500Y-126960000D03*
X103267500Y-126010000D03*
X103267500Y-125060000D03*
D36*
X138800000Y-129400000D03*
D37*
X138800000Y-128130000D03*
X138800000Y-126860000D03*
D34*
X108092500Y-140410000D03*
D21*
X128200000Y-132125000D03*
D22*
X128200000Y-134665000D03*
X125660000Y-132125000D03*
X125660000Y-134665000D03*
X123120000Y-132125000D03*
X123120000Y-134665000D03*
D38*
X123800000Y-145020000D03*
D39*
X123800000Y-150100000D03*
D34*
X106000000Y-129400000D03*
D40*
X100900000Y-124972500D03*
X100900000Y-127047500D03*
D21*
X135330000Y-136935000D03*
D22*
X137870000Y-136935000D03*
X135330000Y-139475000D03*
X137870000Y-139475000D03*
X135330000Y-142015000D03*
X137870000Y-142015000D03*
X135330000Y-144555000D03*
X137870000Y-144555000D03*
X135330000Y-147095000D03*
X137870000Y-147095000D03*
D41*
X110442500Y-131960000D03*
X110442500Y-128860000D03*
D42*
X115817500Y-136272500D03*
X115817500Y-133147500D03*
D43*
X125367500Y-118335000D03*
D44*
X125367500Y-117535000D03*
X125367500Y-116735000D03*
D43*
X125367500Y-115935000D03*
X123567500Y-115935000D03*
D44*
X123567500Y-116735000D03*
X123567500Y-117535000D03*
D43*
X123567500Y-118335000D03*
D45*
X140667500Y-106460000D03*
X140667500Y-110760000D03*
D46*
X94900000Y-125010000D03*
X94900000Y-127010000D03*
D42*
X113750000Y-97687500D03*
X113750000Y-100812500D03*
D47*
X81600000Y-147900000D03*
X86600000Y-147900000D03*
D34*
X105492500Y-114710000D03*
D31*
X129042500Y-124180000D03*
X129042500Y-125450000D03*
X129042500Y-126720000D03*
X129042500Y-127990000D03*
X133992500Y-127990000D03*
X133992500Y-126720000D03*
X133992500Y-125450000D03*
X133992500Y-124180000D03*
D45*
X126900000Y-95850000D03*
X126900000Y-91550000D03*
D28*
X132267500Y-110310000D03*
X130267500Y-110310000D03*
D48*
X136117500Y-105910000D03*
X135167500Y-105910000D03*
X134217500Y-105910000D03*
X134217500Y-108310000D03*
X136117500Y-108310000D03*
D42*
X113017500Y-131972500D03*
X113017500Y-128847500D03*
D49*
X133850000Y-96300000D03*
X131350000Y-96300000D03*
D50*
X105000000Y-134200000D03*
X97200000Y-134200000D03*
D30*
X115770000Y-93375000D03*
X113895000Y-94325000D03*
X113895000Y-92425000D03*
D47*
X63100000Y-119600000D03*
X78100000Y-119600000D03*
D30*
X115937500Y-146500000D03*
X114062500Y-147450000D03*
X114062500Y-145550000D03*
D45*
X138600000Y-96300000D03*
X138600000Y-92000000D03*
D23*
X115605000Y-140410000D03*
X118580000Y-140410000D03*
D51*
X116300000Y-97900000D03*
X118200000Y-97900000D03*
X118200000Y-100600000D03*
X117250000Y-100600000D03*
X116300000Y-100600000D03*
D27*
X98150000Y-103200000D03*
X102450000Y-103200000D03*
D52*
X127412500Y-112600000D03*
X130387500Y-112600000D03*
D53*
X133980000Y-122110000D03*
X130855000Y-122110000D03*
D54*
X107992500Y-118460000D03*
X107992500Y-116735000D03*
D47*
X76300000Y-79200000D03*
X76300000Y-64200000D03*
D21*
X70750000Y-64225000D03*
D55*
X126100000Y-140400000D03*
D56*
X127400000Y-140400000D03*
D57*
X128700000Y-140400000D03*
D38*
X105737500Y-92440000D03*
D39*
X105737500Y-97520000D03*
D43*
X123567500Y-122510000D03*
D44*
X123567500Y-123310000D03*
X123567500Y-124110000D03*
D43*
X123567500Y-124910000D03*
X125367500Y-124910000D03*
D44*
X125367500Y-124110000D03*
X125367500Y-123310000D03*
D43*
X125367500Y-122510000D03*
D47*
X65200000Y-64200000D03*
X65200000Y-79200000D03*
D16*
X131285000Y-65840000D03*
D17*
X126205000Y-65840000D03*
X121125000Y-86160000D03*
X131285000Y-86160000D03*
D46*
X122717500Y-106732500D03*
X122717500Y-108732500D03*
D58*
X130442500Y-103260000D03*
X132492500Y-103260000D03*
D20*
X84100000Y-97600000D03*
X84100000Y-90100000D03*
D49*
X65720000Y-113300000D03*
D59*
X75880000Y-113300000D03*
D28*
X136117500Y-110310000D03*
X134117500Y-110310000D03*
D53*
X113892500Y-109910000D03*
X110767500Y-109910000D03*
D28*
X104250000Y-137400000D03*
X102250000Y-137400000D03*
D46*
X121950000Y-100250000D03*
X121950000Y-98250000D03*
D35*
X112842500Y-112210000D03*
X110767500Y-112210000D03*
D60*
X67400000Y-108500000D03*
X67400000Y-101000000D03*
D61*
X110767500Y-114195000D03*
X110767500Y-115465000D03*
X110767500Y-116735000D03*
X110767500Y-118005000D03*
X110767500Y-119275000D03*
X110767500Y-120545000D03*
X110767500Y-121815000D03*
X110767500Y-123085000D03*
X110767500Y-124355000D03*
X110767500Y-125625000D03*
X120067500Y-125625000D03*
X120067500Y-124355000D03*
X120067500Y-123085000D03*
X120067500Y-121815000D03*
X120067500Y-120545000D03*
X120067500Y-119275000D03*
X120067500Y-118005000D03*
X120067500Y-116735000D03*
X120067500Y-115465000D03*
X120067500Y-114195000D03*
D42*
X97917500Y-119860000D03*
X97917500Y-116735000D03*
D62*
X124817500Y-108735000D03*
X124817500Y-106685000D03*
D63*
X116017500Y-103262500D03*
X116017500Y-106387500D03*
D64*
X95567500Y-118810000D03*
X95567500Y-116735000D03*
D65*
X97912500Y-137400000D03*
X99987500Y-137400000D03*
D38*
X81405000Y-127825000D03*
X81405000Y-132905000D03*
D39*
X81405000Y-137985000D03*
D64*
X136117500Y-103260000D03*
X136117500Y-101185000D03*
D49*
X96700000Y-97300000D03*
X94200000Y-97300000D03*
D35*
X136117500Y-112410000D03*
X134042500Y-112410000D03*
M02*
