%TF.GenerationSoftware,KiCad,Pcbnew,(6.0.1)*%
%TF.CreationDate,2022-08-06T00:30:52-06:00*%
%TF.ProjectId,main_board,6d61696e-5f62-46f6-9172-642e6b696361,1.4*%
%TF.SameCoordinates,Original*%
%TF.FileFunction,Copper,L2,Bot*%
%TF.FilePolarity,Positive*%
%FSLAX46Y46*%
G04 Gerber Fmt 4.6, Leading zero omitted, Abs format (unit mm)*
G04 Created by KiCad (PCBNEW (6.0.1)) date 2022-08-06 00:30:52*
%MOMM*%
%LPD*%
G01*
G04 APERTURE LIST*
%TA.AperFunction,ComponentPad*%
%ADD10R,1.650000X1.650000*%
%TD*%
%TA.AperFunction,ComponentPad*%
%ADD11C,1.650000*%
%TD*%
%TA.AperFunction,ComponentPad*%
%ADD12R,2.000000X2.000000*%
%TD*%
%TA.AperFunction,ComponentPad*%
%ADD13C,2.000000*%
%TD*%
%TA.AperFunction,ComponentPad*%
%ADD14C,1.524000*%
%TD*%
%TA.AperFunction,ComponentPad*%
%ADD15R,1.700000X1.700000*%
%TD*%
%TA.AperFunction,ComponentPad*%
%ADD16O,1.700000X1.700000*%
%TD*%
%TA.AperFunction,ComponentPad*%
%ADD17C,1.800000*%
%TD*%
%TA.AperFunction,ComponentPad*%
%ADD18R,1.000000X1.000000*%
%TD*%
%TA.AperFunction,ComponentPad*%
%ADD19O,1.000000X1.000000*%
%TD*%
%TA.AperFunction,ComponentPad*%
%ADD20C,2.600000*%
%TD*%
%TA.AperFunction,ComponentPad*%
%ADD21R,2.600000X2.600000*%
%TD*%
%TA.AperFunction,ComponentPad*%
%ADD22C,2.400000*%
%TD*%
%TA.AperFunction,ComponentPad*%
%ADD23C,1.600000*%
%TD*%
%TA.AperFunction,ComponentPad*%
%ADD24O,1.600000X1.600000*%
%TD*%
%TA.AperFunction,ComponentPad*%
%ADD25C,1.350000*%
%TD*%
%TA.AperFunction,ViaPad*%
%ADD26C,0.800000*%
%TD*%
%TA.AperFunction,Conductor*%
%ADD27C,0.200000*%
%TD*%
%TA.AperFunction,Conductor*%
%ADD28C,0.250000*%
%TD*%
%TA.AperFunction,Conductor*%
%ADD29C,1.000000*%
%TD*%
G04 APERTURE END LIST*
D10*
X104885000Y-65840000D03*
D11*
X99805000Y-65840000D03*
X94725000Y-86160000D03*
X104885000Y-86160000D03*
D12*
X65892500Y-96357500D03*
D13*
X65892500Y-86357500D03*
X78392500Y-96357500D03*
X78392500Y-86357500D03*
D14*
X94460000Y-92100000D03*
X97000000Y-92100000D03*
X133850000Y-90800000D03*
X131310000Y-90800000D03*
D15*
X102725000Y-108700000D03*
D16*
X102725000Y-111240000D03*
X100185000Y-108700000D03*
X100185000Y-111240000D03*
X97645000Y-108700000D03*
X97645000Y-111240000D03*
D17*
X70955000Y-136650000D03*
X72255000Y-129150000D03*
D16*
X97910000Y-127300000D03*
D15*
X97910000Y-124760000D03*
D18*
X138800000Y-129400000D03*
D19*
X138800000Y-128130000D03*
X138800000Y-126860000D03*
D15*
X128200000Y-132125000D03*
D16*
X128200000Y-134665000D03*
X125660000Y-132125000D03*
X125660000Y-134665000D03*
X123120000Y-132125000D03*
X123120000Y-134665000D03*
D20*
X123800000Y-145020000D03*
D21*
X123800000Y-150100000D03*
D15*
X135330000Y-136935000D03*
D16*
X137870000Y-136935000D03*
X135330000Y-139475000D03*
X137870000Y-139475000D03*
X135330000Y-142015000D03*
X137870000Y-142015000D03*
X135330000Y-144555000D03*
X137870000Y-144555000D03*
X135330000Y-147095000D03*
X137870000Y-147095000D03*
D22*
X81600000Y-147900000D03*
X86600000Y-147900000D03*
D23*
X133850000Y-96300000D03*
X131350000Y-96300000D03*
D22*
X63100000Y-119600000D03*
X78100000Y-119600000D03*
X76300000Y-79200000D03*
X76300000Y-64200000D03*
D15*
X70750000Y-64225000D03*
D20*
X105737500Y-92440000D03*
D21*
X105737500Y-97520000D03*
D22*
X65200000Y-64200000D03*
X65200000Y-79200000D03*
D10*
X131285000Y-65840000D03*
D11*
X126205000Y-65840000D03*
X121125000Y-86160000D03*
X131285000Y-86160000D03*
D14*
X84100000Y-97600000D03*
X84100000Y-90100000D03*
D23*
X65720000Y-113300000D03*
D24*
X75880000Y-113300000D03*
D25*
X67400000Y-108500000D03*
X67400000Y-101000000D03*
D20*
X81405000Y-127825000D03*
X81405000Y-132905000D03*
D21*
X81405000Y-137985000D03*
D23*
X96700000Y-97300000D03*
X94200000Y-97300000D03*
D26*
X112700000Y-121800000D03*
X112800000Y-123400000D03*
X126300000Y-98050000D03*
X126300000Y-99100000D03*
X125100000Y-99100000D03*
X125100000Y-98050000D03*
X119600000Y-103300000D03*
X120800000Y-103300000D03*
X119600000Y-102250000D03*
X120800000Y-102250000D03*
X102600000Y-128100000D03*
X128767500Y-116160000D03*
X126717500Y-108800000D03*
X126717500Y-107750000D03*
X127567500Y-115110000D03*
X128767500Y-115110000D03*
X127917500Y-107750000D03*
X127567500Y-116160000D03*
X127917500Y-108800000D03*
X114017500Y-116310000D03*
X115317500Y-117610000D03*
X118217500Y-130310000D03*
X116493000Y-130310000D03*
X115718000Y-128810000D03*
X118217500Y-128810000D03*
X126317500Y-130010000D03*
X126317500Y-128010000D03*
X106768000Y-123700000D03*
X124442500Y-128010000D03*
X124442500Y-130010000D03*
X118049562Y-111600938D03*
X119250938Y-110399562D03*
X106542500Y-111310000D03*
X117250000Y-99200000D03*
X108917500Y-115510000D03*
X102217500Y-118010000D03*
X112232500Y-100850000D03*
X124817500Y-110060000D03*
X97867500Y-121210000D03*
X134717500Y-101160000D03*
X121917500Y-113010000D03*
X130767500Y-128059500D03*
X112842500Y-113610000D03*
X124725000Y-140400000D03*
X102217500Y-120560000D03*
X135167500Y-104760000D03*
X121917500Y-114210000D03*
X137517500Y-101160000D03*
X106542500Y-108510000D03*
X114667500Y-131760000D03*
X130267500Y-108960000D03*
X115250000Y-100850000D03*
X118217500Y-114210000D03*
X120067500Y-113010000D03*
X115817500Y-134910000D03*
X107117500Y-119460000D03*
X112517500Y-110810000D03*
X135517500Y-120460000D03*
X129042500Y-129060000D03*
X109017500Y-135660000D03*
X126517500Y-117160000D03*
X100517500Y-121610000D03*
X113917500Y-108310000D03*
X131967500Y-108810000D03*
X132817500Y-112410000D03*
X135167500Y-107060000D03*
X96267500Y-120010000D03*
X130867500Y-120510000D03*
X117567500Y-103275000D03*
X114467500Y-103275000D03*
X117250000Y-102000000D03*
X115817500Y-137610000D03*
X111917500Y-135660000D03*
X113017500Y-133310000D03*
X118217500Y-113010000D03*
X100000000Y-135800000D03*
X134017500Y-113760000D03*
X130867500Y-123660000D03*
X122567500Y-130010000D03*
X122567500Y-128010000D03*
X104400000Y-123500000D03*
X132175000Y-131009500D03*
X132175000Y-129110500D03*
X120367500Y-130009989D03*
X120367500Y-128010000D03*
X118167500Y-127210000D03*
X115718000Y-127210000D03*
D27*
X104400000Y-122300000D02*
X104400000Y-123500000D01*
X112690000Y-121810000D02*
X104890000Y-121810000D01*
X104890000Y-121810000D02*
X104400000Y-122300000D01*
X112700000Y-121800000D02*
X112690000Y-121810000D01*
D28*
X128800000Y-115577500D02*
X128767500Y-115610000D01*
X128800000Y-111692500D02*
X128800000Y-115577500D01*
X127300000Y-110192500D02*
X128800000Y-111692500D01*
X127300000Y-108800000D02*
X127300000Y-110192500D01*
X127300000Y-108800000D02*
X127917500Y-108800000D01*
X126717500Y-108800000D02*
X127300000Y-108800000D01*
D27*
X112490000Y-123710000D02*
X112800000Y-123400000D01*
X106778000Y-123710000D02*
X112490000Y-123710000D01*
X106768000Y-123700000D02*
X106778000Y-123710000D01*
D28*
X125100000Y-99100000D02*
X125100000Y-98050000D01*
X124700000Y-99100000D02*
X125100000Y-99100000D01*
X121550000Y-102250000D02*
X124700000Y-99100000D01*
X120800000Y-102250000D02*
X121550000Y-102250000D01*
X119600000Y-102250000D02*
X120800000Y-102250000D01*
D29*
X104885000Y-72400000D02*
X104885000Y-65840000D01*
X90500000Y-72400000D02*
X78392500Y-84507500D01*
X78392500Y-84507500D02*
X78392500Y-86357500D01*
X131285000Y-72115000D02*
X131000000Y-72400000D01*
X131000000Y-72400000D02*
X90500000Y-72400000D01*
X131285000Y-65840000D02*
X131285000Y-72115000D01*
X122665000Y-62300000D02*
X126205000Y-65840000D01*
X89400000Y-62300000D02*
X122665000Y-62300000D01*
X99800000Y-62300000D02*
X89400000Y-62300000D01*
X99805000Y-62305000D02*
X99800000Y-62300000D01*
X99805000Y-65840000D02*
X99805000Y-62305000D01*
X88600000Y-63100000D02*
X89400000Y-62300000D01*
X84085000Y-137985000D02*
X81405000Y-137985000D01*
X63100000Y-141600000D02*
X63100000Y-119500000D01*
X69400000Y-147900000D02*
X63100000Y-141600000D01*
X86600000Y-147900000D02*
X86100000Y-147400000D01*
X81600000Y-147900000D02*
X69400000Y-147900000D01*
X86100000Y-147400000D02*
X86100000Y-140000000D01*
X86100000Y-140000000D02*
X84085000Y-137985000D01*
X78100000Y-124520000D02*
X81405000Y-127825000D01*
X78100000Y-119600000D02*
X78100000Y-124520000D01*
X73580000Y-127825000D02*
X72255000Y-129150000D01*
X81405000Y-127825000D02*
X73580000Y-127825000D01*
X72290000Y-137985000D02*
X70955000Y-136650000D01*
X81405000Y-137985000D02*
X72290000Y-137985000D01*
X78385000Y-113300000D02*
X78392500Y-113292500D01*
X78392500Y-113292500D02*
X78392500Y-119307500D01*
X78392500Y-96357500D02*
X78392500Y-113292500D01*
X75880000Y-113300000D02*
X78385000Y-113300000D01*
X65720000Y-110180000D02*
X67400000Y-108500000D01*
X65720000Y-113300000D02*
X65720000Y-110180000D01*
X63100000Y-115920000D02*
X65720000Y-113300000D01*
X63100000Y-119600000D02*
X63100000Y-115920000D01*
X65892500Y-96357500D02*
X65892500Y-100292500D01*
X65892500Y-100292500D02*
X66600000Y-101000000D01*
X66600000Y-101000000D02*
X67400000Y-101000000D01*
X78392500Y-119307500D02*
X78100000Y-119600000D01*
X65200000Y-85665000D02*
X65892500Y-86357500D01*
X65200000Y-79200000D02*
X65200000Y-85665000D01*
X78392500Y-81292500D02*
X76300000Y-79200000D01*
X78392500Y-86357500D02*
X78392500Y-81292500D01*
X81600000Y-86357500D02*
X84100000Y-88857500D01*
X84100000Y-88857500D02*
X84100000Y-90100000D01*
X78392500Y-86357500D02*
X81600000Y-86357500D01*
X78392500Y-96357500D02*
X82857500Y-96357500D01*
X82857500Y-96357500D02*
X84100000Y-97600000D01*
D28*
X128767500Y-115110000D02*
X128767500Y-115610000D01*
X128767500Y-115610000D02*
X128767500Y-116160000D01*
D29*
X80000000Y-71700000D02*
X88600000Y-63100000D01*
X72700000Y-71700000D02*
X80000000Y-71700000D01*
X65200000Y-79200000D02*
X72700000Y-71700000D01*
D27*
X115317500Y-117610000D02*
X114017500Y-116310000D01*
X118217500Y-130310000D02*
X116493000Y-130310000D01*
X118217500Y-128810000D02*
X115718000Y-128810000D01*
X126317500Y-130010000D02*
X126317500Y-128010000D01*
X124442500Y-130010000D02*
X124442500Y-128010000D01*
X118049562Y-111600938D02*
X119250938Y-110399562D01*
X122567500Y-130010000D02*
X122567500Y-128010000D01*
X132175000Y-131009500D02*
X132175000Y-129110500D01*
X120367500Y-130009989D02*
X120367500Y-128010000D01*
X115718000Y-127210000D02*
X118167500Y-127210000D01*
%TA.AperFunction,Conductor*%
G36*
X128775688Y-114611078D02*
G01*
X128880463Y-114624872D01*
X128912235Y-114633385D01*
X129002174Y-114670639D01*
X129030660Y-114687086D01*
X129107893Y-114746349D01*
X129131151Y-114769607D01*
X129190414Y-114846840D01*
X129206861Y-114875326D01*
X129244115Y-114965265D01*
X129252628Y-114997037D01*
X129266422Y-115101812D01*
X129267500Y-115118258D01*
X129267500Y-116151742D01*
X129266422Y-116168188D01*
X129252628Y-116272963D01*
X129244115Y-116304735D01*
X129206861Y-116394674D01*
X129190414Y-116423160D01*
X129131151Y-116500393D01*
X129107893Y-116523651D01*
X129030660Y-116582914D01*
X129002174Y-116599361D01*
X128912235Y-116636615D01*
X128880463Y-116645128D01*
X128775688Y-116658922D01*
X128759242Y-116660000D01*
X127575758Y-116660000D01*
X127559312Y-116658922D01*
X127454537Y-116645128D01*
X127422765Y-116636615D01*
X127332826Y-116599361D01*
X127304340Y-116582914D01*
X127227107Y-116523651D01*
X127203849Y-116500393D01*
X127144586Y-116423160D01*
X127128139Y-116394674D01*
X127090885Y-116304735D01*
X127082372Y-116272963D01*
X127068578Y-116168188D01*
X127067500Y-116151742D01*
X127067500Y-115118258D01*
X127068578Y-115101812D01*
X127082372Y-114997037D01*
X127090885Y-114965265D01*
X127128139Y-114875326D01*
X127144586Y-114846840D01*
X127203849Y-114769607D01*
X127227107Y-114746349D01*
X127304340Y-114687086D01*
X127332826Y-114670639D01*
X127422765Y-114633385D01*
X127454537Y-114624872D01*
X127559312Y-114611078D01*
X127575758Y-114610000D01*
X128759242Y-114610000D01*
X128775688Y-114611078D01*
G37*
%TD.AperFunction*%
%TA.AperFunction,Conductor*%
G36*
X127925688Y-107251078D02*
G01*
X128030463Y-107264872D01*
X128062235Y-107273385D01*
X128152174Y-107310639D01*
X128180660Y-107327086D01*
X128257893Y-107386349D01*
X128281151Y-107409607D01*
X128340414Y-107486840D01*
X128356861Y-107515326D01*
X128394115Y-107605265D01*
X128402628Y-107637037D01*
X128416422Y-107741812D01*
X128417500Y-107758258D01*
X128417500Y-108791742D01*
X128416422Y-108808188D01*
X128402628Y-108912963D01*
X128394115Y-108944735D01*
X128356861Y-109034674D01*
X128340414Y-109063160D01*
X128281151Y-109140393D01*
X128257893Y-109163651D01*
X128180660Y-109222914D01*
X128152174Y-109239361D01*
X128062235Y-109276615D01*
X128030463Y-109285128D01*
X127925688Y-109298922D01*
X127909242Y-109300000D01*
X126725758Y-109300000D01*
X126709312Y-109298922D01*
X126604537Y-109285128D01*
X126572765Y-109276615D01*
X126482826Y-109239361D01*
X126454340Y-109222914D01*
X126377107Y-109163651D01*
X126353849Y-109140393D01*
X126294586Y-109063160D01*
X126278139Y-109034674D01*
X126240885Y-108944735D01*
X126232372Y-108912963D01*
X126218578Y-108808188D01*
X126217500Y-108791742D01*
X126217500Y-107758258D01*
X126218578Y-107741812D01*
X126232372Y-107637037D01*
X126240885Y-107605265D01*
X126278139Y-107515326D01*
X126294586Y-107486840D01*
X126353849Y-107409607D01*
X126377107Y-107386349D01*
X126454340Y-107327086D01*
X126482826Y-107310639D01*
X126572765Y-107273385D01*
X126604537Y-107264872D01*
X126709312Y-107251078D01*
X126725758Y-107250000D01*
X127909242Y-107250000D01*
X127925688Y-107251078D01*
G37*
%TD.AperFunction*%
%TA.AperFunction,Conductor*%
G36*
X141204211Y-83000003D02*
G01*
X141995507Y-83000008D01*
X142004495Y-83000329D01*
X142275651Y-83019723D01*
X142293439Y-83022281D01*
X142442425Y-83054692D01*
X142554665Y-83079110D01*
X142571907Y-83084172D01*
X142822400Y-83177603D01*
X142838739Y-83185065D01*
X143073376Y-83313188D01*
X143088492Y-83322903D01*
X143302433Y-83483058D01*
X143302504Y-83483111D01*
X143316091Y-83494884D01*
X143505125Y-83683920D01*
X143516897Y-83697506D01*
X143677104Y-83911518D01*
X143686818Y-83926632D01*
X143814944Y-84161279D01*
X143822406Y-84177618D01*
X143822519Y-84177921D01*
X143915830Y-84428100D01*
X143920895Y-84445349D01*
X143977721Y-84706576D01*
X143980279Y-84724370D01*
X143999672Y-84995519D01*
X143999993Y-85004508D01*
X144000000Y-146515242D01*
X144000000Y-151243000D01*
X143999678Y-151251996D01*
X143980254Y-151523354D01*
X143977692Y-151541162D01*
X143920776Y-151802589D01*
X143915703Y-151819851D01*
X143822134Y-152070502D01*
X143814654Y-152086865D01*
X143686345Y-152321623D01*
X143676612Y-152336755D01*
X143516161Y-152550864D01*
X143504371Y-152564454D01*
X143315073Y-152753515D01*
X143301468Y-152765288D01*
X143087165Y-152925467D01*
X143072021Y-152935182D01*
X142837096Y-153063201D01*
X142820723Y-153070660D01*
X142569952Y-153163917D01*
X142552684Y-153168968D01*
X142291200Y-153225554D01*
X142273389Y-153228095D01*
X142001988Y-153247181D01*
X141992992Y-153247491D01*
X104840818Y-153201051D01*
X104832503Y-153200766D01*
X104581625Y-153183860D01*
X104565145Y-153181650D01*
X104322753Y-153132678D01*
X104306706Y-153128316D01*
X104234532Y-153103480D01*
X104072888Y-153047857D01*
X104057557Y-153041421D01*
X103836362Y-152930867D01*
X103822010Y-152922467D01*
X103617304Y-152783750D01*
X103604184Y-152773534D01*
X103540867Y-152717140D01*
X103416400Y-152606283D01*
X103410394Y-152600567D01*
X102273445Y-151444669D01*
X121992001Y-151444669D01*
X121992371Y-151451490D01*
X121997895Y-151502352D01*
X122001521Y-151517604D01*
X122046676Y-151638054D01*
X122055214Y-151653649D01*
X122131715Y-151755724D01*
X122144276Y-151768285D01*
X122246351Y-151844786D01*
X122261946Y-151853324D01*
X122382394Y-151898478D01*
X122397649Y-151902105D01*
X122448514Y-151907631D01*
X122455328Y-151908000D01*
X123527885Y-151908000D01*
X123543124Y-151903525D01*
X123544329Y-151902135D01*
X123546000Y-151894452D01*
X123546000Y-151889884D01*
X124054000Y-151889884D01*
X124058475Y-151905123D01*
X124059865Y-151906328D01*
X124067548Y-151907999D01*
X125144669Y-151907999D01*
X125151490Y-151907629D01*
X125202352Y-151902105D01*
X125217604Y-151898479D01*
X125338054Y-151853324D01*
X125353649Y-151844786D01*
X125455724Y-151768285D01*
X125468285Y-151755724D01*
X125544786Y-151653649D01*
X125553324Y-151638054D01*
X125598478Y-151517606D01*
X125602105Y-151502351D01*
X125607631Y-151451486D01*
X125608000Y-151444672D01*
X125608000Y-150372115D01*
X125603525Y-150356876D01*
X125602135Y-150355671D01*
X125594452Y-150354000D01*
X124072115Y-150354000D01*
X124056876Y-150358475D01*
X124055671Y-150359865D01*
X124054000Y-150367548D01*
X124054000Y-151889884D01*
X123546000Y-151889884D01*
X123546000Y-150372115D01*
X123541525Y-150356876D01*
X123540135Y-150355671D01*
X123532452Y-150354000D01*
X122010116Y-150354000D01*
X121994877Y-150358475D01*
X121993672Y-150359865D01*
X121992001Y-150367548D01*
X121992001Y-151444669D01*
X102273445Y-151444669D01*
X100683166Y-149827885D01*
X121992000Y-149827885D01*
X121996475Y-149843124D01*
X121997865Y-149844329D01*
X122005548Y-149846000D01*
X123527885Y-149846000D01*
X123543124Y-149841525D01*
X123544329Y-149840135D01*
X123546000Y-149832452D01*
X123546000Y-149827885D01*
X124054000Y-149827885D01*
X124058475Y-149843124D01*
X124059865Y-149844329D01*
X124067548Y-149846000D01*
X125589884Y-149846000D01*
X125605123Y-149841525D01*
X125606328Y-149840135D01*
X125607999Y-149832452D01*
X125607999Y-148755331D01*
X125607629Y-148748510D01*
X125602105Y-148697648D01*
X125598479Y-148682396D01*
X125553324Y-148561946D01*
X125544786Y-148546351D01*
X125468285Y-148444276D01*
X125455724Y-148431715D01*
X125353649Y-148355214D01*
X125338054Y-148346676D01*
X125217606Y-148301522D01*
X125202351Y-148297895D01*
X125151486Y-148292369D01*
X125144672Y-148292000D01*
X124072115Y-148292000D01*
X124056876Y-148296475D01*
X124055671Y-148297865D01*
X124054000Y-148305548D01*
X124054000Y-149827885D01*
X123546000Y-149827885D01*
X123546000Y-148310116D01*
X123541525Y-148294877D01*
X123540135Y-148293672D01*
X123532452Y-148292001D01*
X122455331Y-148292001D01*
X122448510Y-148292371D01*
X122397648Y-148297895D01*
X122382396Y-148301521D01*
X122261946Y-148346676D01*
X122246351Y-148355214D01*
X122144276Y-148431715D01*
X122131715Y-148444276D01*
X122055214Y-148546351D01*
X122046676Y-148561946D01*
X122001522Y-148682394D01*
X121997895Y-148697649D01*
X121992369Y-148748514D01*
X121992000Y-148755328D01*
X121992000Y-149827885D01*
X100683166Y-149827885D01*
X98258655Y-147362966D01*
X133998257Y-147362966D01*
X134028565Y-147497446D01*
X134031645Y-147507275D01*
X134111770Y-147704603D01*
X134116413Y-147713794D01*
X134227694Y-147895388D01*
X134233777Y-147903699D01*
X134373213Y-148064667D01*
X134380580Y-148071883D01*
X134544434Y-148207916D01*
X134552881Y-148213831D01*
X134736756Y-148321279D01*
X134746042Y-148325729D01*
X134945001Y-148401703D01*
X134954899Y-148404579D01*
X135058250Y-148425606D01*
X135072299Y-148424410D01*
X135076000Y-148414065D01*
X135076000Y-148413517D01*
X135584000Y-148413517D01*
X135588064Y-148427359D01*
X135601478Y-148429393D01*
X135608184Y-148428534D01*
X135618262Y-148426392D01*
X135822255Y-148365191D01*
X135831842Y-148361433D01*
X136023095Y-148267739D01*
X136031945Y-148262464D01*
X136205328Y-148138792D01*
X136213200Y-148132139D01*
X136364052Y-147981812D01*
X136370730Y-147973965D01*
X136498022Y-147796819D01*
X136499147Y-147797627D01*
X136546669Y-147753876D01*
X136616607Y-147741661D01*
X136682046Y-147769197D01*
X136709870Y-147801028D01*
X136767690Y-147895383D01*
X136773777Y-147903699D01*
X136913213Y-148064667D01*
X136920580Y-148071883D01*
X137084434Y-148207916D01*
X137092881Y-148213831D01*
X137276756Y-148321279D01*
X137286042Y-148325729D01*
X137485001Y-148401703D01*
X137494899Y-148404579D01*
X137598250Y-148425606D01*
X137612299Y-148424410D01*
X137616000Y-148414065D01*
X137616000Y-148413517D01*
X138124000Y-148413517D01*
X138128064Y-148427359D01*
X138141478Y-148429393D01*
X138148184Y-148428534D01*
X138158262Y-148426392D01*
X138362255Y-148365191D01*
X138371842Y-148361433D01*
X138563095Y-148267739D01*
X138571945Y-148262464D01*
X138745328Y-148138792D01*
X138753200Y-148132139D01*
X138904052Y-147981812D01*
X138910730Y-147973965D01*
X139035003Y-147801020D01*
X139040313Y-147792183D01*
X139134670Y-147601267D01*
X139138469Y-147591672D01*
X139200377Y-147387910D01*
X139202555Y-147377837D01*
X139203986Y-147366962D01*
X139201775Y-147352778D01*
X139188617Y-147349000D01*
X138142115Y-147349000D01*
X138126876Y-147353475D01*
X138125671Y-147354865D01*
X138124000Y-147362548D01*
X138124000Y-148413517D01*
X137616000Y-148413517D01*
X137616000Y-147367115D01*
X137611525Y-147351876D01*
X137610135Y-147350671D01*
X137602452Y-147349000D01*
X135602115Y-147349000D01*
X135586876Y-147353475D01*
X135585671Y-147354865D01*
X135584000Y-147362548D01*
X135584000Y-148413517D01*
X135076000Y-148413517D01*
X135076000Y-147367115D01*
X135071525Y-147351876D01*
X135070135Y-147350671D01*
X135062452Y-147349000D01*
X134013225Y-147349000D01*
X133999694Y-147352973D01*
X133998257Y-147362966D01*
X98258655Y-147362966D01*
X97733623Y-146829183D01*
X133994389Y-146829183D01*
X133995912Y-146837607D01*
X134008292Y-146841000D01*
X139188344Y-146841000D01*
X139201875Y-146837027D01*
X139203180Y-146827947D01*
X139161214Y-146660875D01*
X139157894Y-146651124D01*
X139072972Y-146455814D01*
X139068105Y-146446739D01*
X138952426Y-146267926D01*
X138946136Y-146259757D01*
X138802806Y-146102240D01*
X138795273Y-146095215D01*
X138628139Y-145963222D01*
X138619552Y-145957517D01*
X138433117Y-145854599D01*
X138423705Y-145850369D01*
X138232031Y-145782493D01*
X138174495Y-145740899D01*
X138148579Y-145674801D01*
X138162513Y-145605185D01*
X138211872Y-145554154D01*
X138240206Y-145542362D01*
X138245790Y-145540803D01*
X138245799Y-145540800D01*
X138251725Y-145539145D01*
X138257214Y-145536372D01*
X138257220Y-145536370D01*
X138430116Y-145449033D01*
X138435610Y-145446258D01*
X138597951Y-145319424D01*
X138732564Y-145163472D01*
X138753387Y-145126818D01*
X138774190Y-145090197D01*
X138834323Y-144984344D01*
X138899351Y-144788863D01*
X138925171Y-144584474D01*
X138925583Y-144555000D01*
X138905480Y-144349970D01*
X138845935Y-144152749D01*
X138749218Y-143970849D01*
X138675859Y-143880902D01*
X138622906Y-143815975D01*
X138622903Y-143815972D01*
X138619011Y-143811200D01*
X138543873Y-143749040D01*
X138465025Y-143683811D01*
X138465021Y-143683809D01*
X138460275Y-143679882D01*
X138279055Y-143581897D01*
X138082254Y-143520977D01*
X138076129Y-143520333D01*
X138076128Y-143520333D01*
X137883498Y-143500087D01*
X137883496Y-143500087D01*
X137877369Y-143499443D01*
X137790529Y-143507346D01*
X137678342Y-143517555D01*
X137678339Y-143517556D01*
X137672203Y-143518114D01*
X137474572Y-143576280D01*
X137292002Y-143671726D01*
X137287201Y-143675586D01*
X137287198Y-143675588D01*
X137199704Y-143745935D01*
X137131447Y-143800815D01*
X136999024Y-143958630D01*
X136996056Y-143964028D01*
X136996053Y-143964033D01*
X136936441Y-144072468D01*
X136899776Y-144139162D01*
X136837484Y-144335532D01*
X136836798Y-144341649D01*
X136836797Y-144341653D01*
X136819551Y-144495409D01*
X136814520Y-144540262D01*
X136831759Y-144745553D01*
X136888544Y-144943586D01*
X136891359Y-144949063D01*
X136891360Y-144949066D01*
X136967322Y-145096872D01*
X136982712Y-145126818D01*
X137110677Y-145288270D01*
X137115370Y-145292264D01*
X137115371Y-145292265D01*
X137163295Y-145333051D01*
X137267564Y-145421791D01*
X137447398Y-145522297D01*
X137512437Y-145543429D01*
X137571042Y-145583502D01*
X137598680Y-145648898D01*
X137586574Y-145718855D01*
X137538568Y-145771162D01*
X137512646Y-145783027D01*
X137346868Y-145837212D01*
X137337359Y-145841209D01*
X137148463Y-145939542D01*
X137139738Y-145945036D01*
X136969433Y-146072905D01*
X136961726Y-146079748D01*
X136814590Y-146233717D01*
X136808104Y-146241727D01*
X136703193Y-146395521D01*
X136648282Y-146440524D01*
X136577757Y-146448695D01*
X136514010Y-146417441D01*
X136493313Y-146392957D01*
X136412427Y-146267926D01*
X136406136Y-146259757D01*
X136262806Y-146102240D01*
X136255273Y-146095215D01*
X136088139Y-145963222D01*
X136079552Y-145957517D01*
X135893117Y-145854599D01*
X135883705Y-145850369D01*
X135692031Y-145782493D01*
X135634495Y-145740899D01*
X135608579Y-145674801D01*
X135622513Y-145605185D01*
X135671872Y-145554154D01*
X135700206Y-145542362D01*
X135705790Y-145540803D01*
X135705799Y-145540800D01*
X135711725Y-145539145D01*
X135717214Y-145536372D01*
X135717220Y-145536370D01*
X135890116Y-145449033D01*
X135895610Y-145446258D01*
X136057951Y-145319424D01*
X136192564Y-145163472D01*
X136213387Y-145126818D01*
X136234190Y-145090197D01*
X136294323Y-144984344D01*
X136359351Y-144788863D01*
X136385171Y-144584474D01*
X136385583Y-144555000D01*
X136365480Y-144349970D01*
X136305935Y-144152749D01*
X136209218Y-143970849D01*
X136135859Y-143880902D01*
X136082906Y-143815975D01*
X136082903Y-143815972D01*
X136079011Y-143811200D01*
X136003873Y-143749040D01*
X135925025Y-143683811D01*
X135925021Y-143683809D01*
X135920275Y-143679882D01*
X135739055Y-143581897D01*
X135542254Y-143520977D01*
X135536129Y-143520333D01*
X135536128Y-143520333D01*
X135343498Y-143500087D01*
X135343496Y-143500087D01*
X135337369Y-143499443D01*
X135250529Y-143507346D01*
X135138342Y-143517555D01*
X135138339Y-143517556D01*
X135132203Y-143518114D01*
X134934572Y-143576280D01*
X134752002Y-143671726D01*
X134747201Y-143675586D01*
X134747198Y-143675588D01*
X134659704Y-143745935D01*
X134591447Y-143800815D01*
X134459024Y-143958630D01*
X134456056Y-143964028D01*
X134456053Y-143964033D01*
X134396441Y-144072468D01*
X134359776Y-144139162D01*
X134297484Y-144335532D01*
X134296798Y-144341649D01*
X134296797Y-144341653D01*
X134279551Y-144495409D01*
X134274520Y-144540262D01*
X134291759Y-144745553D01*
X134348544Y-144943586D01*
X134351359Y-144949063D01*
X134351360Y-144949066D01*
X134427322Y-145096872D01*
X134442712Y-145126818D01*
X134570677Y-145288270D01*
X134575370Y-145292264D01*
X134575371Y-145292265D01*
X134623295Y-145333051D01*
X134727564Y-145421791D01*
X134907398Y-145522297D01*
X134972437Y-145543429D01*
X135031042Y-145583502D01*
X135058680Y-145648898D01*
X135046574Y-145718855D01*
X134998568Y-145771162D01*
X134972646Y-145783027D01*
X134806868Y-145837212D01*
X134797359Y-145841209D01*
X134608463Y-145939542D01*
X134599738Y-145945036D01*
X134429433Y-146072905D01*
X134421726Y-146079748D01*
X134274590Y-146233717D01*
X134268104Y-146241727D01*
X134148098Y-146417649D01*
X134143000Y-146426623D01*
X134053338Y-146619783D01*
X134049775Y-146629470D01*
X133994389Y-146829183D01*
X97733623Y-146829183D01*
X95917915Y-144983214D01*
X122294806Y-144983214D01*
X122295103Y-144988366D01*
X122295103Y-144988370D01*
X122303365Y-145131646D01*
X122309010Y-145229545D01*
X122310147Y-145234591D01*
X122310148Y-145234597D01*
X122328215Y-145314766D01*
X122363255Y-145470249D01*
X122456084Y-145698861D01*
X122585006Y-145909241D01*
X122746557Y-146095741D01*
X122936399Y-146253351D01*
X123149433Y-146377838D01*
X123154253Y-146379678D01*
X123154258Y-146379681D01*
X123268547Y-146423323D01*
X123379939Y-146465859D01*
X123385007Y-146466890D01*
X123385010Y-146466891D01*
X123504587Y-146491219D01*
X123621726Y-146515052D01*
X123626899Y-146515242D01*
X123626902Y-146515242D01*
X123863136Y-146523904D01*
X123863140Y-146523904D01*
X123868300Y-146524093D01*
X123873420Y-146523437D01*
X123873422Y-146523437D01*
X123949703Y-146513665D01*
X124113041Y-146492741D01*
X124117990Y-146491256D01*
X124117996Y-146491255D01*
X124344424Y-146423323D01*
X124344423Y-146423323D01*
X124349374Y-146421838D01*
X124453266Y-146370942D01*
X124566303Y-146315566D01*
X124566308Y-146315563D01*
X124570954Y-146313287D01*
X124575164Y-146310284D01*
X124575169Y-146310281D01*
X124767617Y-146173009D01*
X124767622Y-146173005D01*
X124771829Y-146170004D01*
X124946605Y-145995837D01*
X125090588Y-145795463D01*
X125199911Y-145574264D01*
X125237959Y-145449033D01*
X125270135Y-145343132D01*
X125270136Y-145343126D01*
X125271639Y-145338180D01*
X125299465Y-145126818D01*
X125303408Y-145096872D01*
X125303409Y-145096866D01*
X125303845Y-145093550D01*
X125305643Y-145020000D01*
X125286137Y-144782744D01*
X125285849Y-144779240D01*
X125285848Y-144779234D01*
X125285425Y-144774089D01*
X125225316Y-144534783D01*
X125126928Y-144308507D01*
X124992905Y-144101339D01*
X124966635Y-144072468D01*
X124940243Y-144043464D01*
X124826846Y-143918842D01*
X124822795Y-143915643D01*
X124822791Y-143915639D01*
X124637264Y-143769119D01*
X124637259Y-143769116D01*
X124633210Y-143765918D01*
X124628694Y-143763425D01*
X124628691Y-143763423D01*
X124421722Y-143649170D01*
X124421718Y-143649168D01*
X124417198Y-143646673D01*
X124412329Y-143644949D01*
X124412325Y-143644947D01*
X124189485Y-143566035D01*
X124189481Y-143566034D01*
X124184610Y-143564309D01*
X124179517Y-143563402D01*
X124179514Y-143563401D01*
X123946783Y-143521945D01*
X123946777Y-143521944D01*
X123941694Y-143521039D01*
X123862324Y-143520069D01*
X123700142Y-143518088D01*
X123700140Y-143518088D01*
X123694972Y-143518025D01*
X123451070Y-143555347D01*
X123216540Y-143632003D01*
X122997679Y-143745935D01*
X122993546Y-143749038D01*
X122993543Y-143749040D01*
X122910754Y-143811200D01*
X122800364Y-143894083D01*
X122629896Y-144072468D01*
X122626982Y-144076740D01*
X122626981Y-144076741D01*
X122607238Y-144105683D01*
X122490851Y-144276300D01*
X122386965Y-144500104D01*
X122321026Y-144737871D01*
X122294806Y-144983214D01*
X95917915Y-144983214D01*
X94751098Y-143796950D01*
X92983864Y-142000262D01*
X134274520Y-142000262D01*
X134291759Y-142205553D01*
X134348544Y-142403586D01*
X134351359Y-142409063D01*
X134351360Y-142409066D01*
X134372247Y-142449707D01*
X134442712Y-142586818D01*
X134570677Y-142748270D01*
X134727564Y-142881791D01*
X134907398Y-142982297D01*
X135002238Y-143013113D01*
X135097471Y-143044056D01*
X135097475Y-143044057D01*
X135103329Y-143045959D01*
X135307894Y-143070351D01*
X135314029Y-143069879D01*
X135314031Y-143069879D01*
X135370039Y-143065569D01*
X135513300Y-143054546D01*
X135519230Y-143052890D01*
X135519232Y-143052890D01*
X135705797Y-143000800D01*
X135705796Y-143000800D01*
X135711725Y-142999145D01*
X135717214Y-142996372D01*
X135717220Y-142996370D01*
X135890116Y-142909033D01*
X135895610Y-142906258D01*
X136057951Y-142779424D01*
X136192564Y-142623472D01*
X136213387Y-142586818D01*
X136291276Y-142449707D01*
X136294323Y-142444344D01*
X136359351Y-142248863D01*
X136385171Y-142044474D01*
X136385583Y-142015000D01*
X136384138Y-142000262D01*
X136814520Y-142000262D01*
X136831759Y-142205553D01*
X136888544Y-142403586D01*
X136891359Y-142409063D01*
X136891360Y-142409066D01*
X136912247Y-142449707D01*
X136982712Y-142586818D01*
X137110677Y-142748270D01*
X137267564Y-142881791D01*
X137447398Y-142982297D01*
X137542238Y-143013113D01*
X137637471Y-143044056D01*
X137637475Y-143044057D01*
X137643329Y-143045959D01*
X137847894Y-143070351D01*
X137854029Y-143069879D01*
X137854031Y-143069879D01*
X137910039Y-143065569D01*
X138053300Y-143054546D01*
X138059230Y-143052890D01*
X138059232Y-143052890D01*
X138245797Y-143000800D01*
X138245796Y-143000800D01*
X138251725Y-142999145D01*
X138257214Y-142996372D01*
X138257220Y-142996370D01*
X138430116Y-142909033D01*
X138435610Y-142906258D01*
X138597951Y-142779424D01*
X138732564Y-142623472D01*
X138753387Y-142586818D01*
X138831276Y-142449707D01*
X138834323Y-142444344D01*
X138899351Y-142248863D01*
X138925171Y-142044474D01*
X138925583Y-142015000D01*
X138905480Y-141809970D01*
X138845935Y-141612749D01*
X138749218Y-141430849D01*
X138673047Y-141337454D01*
X138622906Y-141275975D01*
X138622903Y-141275972D01*
X138619011Y-141271200D01*
X138552494Y-141216172D01*
X138465025Y-141143811D01*
X138465021Y-141143809D01*
X138460275Y-141139882D01*
X138279055Y-141041897D01*
X138082254Y-140980977D01*
X138076129Y-140980333D01*
X138076128Y-140980333D01*
X137883498Y-140960087D01*
X137883496Y-140960087D01*
X137877369Y-140959443D01*
X137790529Y-140967346D01*
X137678342Y-140977555D01*
X137678339Y-140977556D01*
X137672203Y-140978114D01*
X137474572Y-141036280D01*
X137292002Y-141131726D01*
X137287201Y-141135586D01*
X137287198Y-141135588D01*
X137276971Y-141143811D01*
X137131447Y-141260815D01*
X136999024Y-141418630D01*
X136996056Y-141424028D01*
X136996053Y-141424033D01*
X136989315Y-141436290D01*
X136899776Y-141599162D01*
X136837484Y-141795532D01*
X136836798Y-141801649D01*
X136836797Y-141801653D01*
X136815207Y-141994137D01*
X136814520Y-142000262D01*
X136384138Y-142000262D01*
X136365480Y-141809970D01*
X136305935Y-141612749D01*
X136209218Y-141430849D01*
X136133047Y-141337454D01*
X136082906Y-141275975D01*
X136082903Y-141275972D01*
X136079011Y-141271200D01*
X136012494Y-141216172D01*
X135925025Y-141143811D01*
X135925021Y-141143809D01*
X135920275Y-141139882D01*
X135739055Y-141041897D01*
X135542254Y-140980977D01*
X135536129Y-140980333D01*
X135536128Y-140980333D01*
X135343498Y-140960087D01*
X135343496Y-140960087D01*
X135337369Y-140959443D01*
X135250529Y-140967346D01*
X135138342Y-140977555D01*
X135138339Y-140977556D01*
X135132203Y-140978114D01*
X134934572Y-141036280D01*
X134752002Y-141131726D01*
X134747201Y-141135586D01*
X134747198Y-141135588D01*
X134736971Y-141143811D01*
X134591447Y-141260815D01*
X134459024Y-141418630D01*
X134456056Y-141424028D01*
X134456053Y-141424033D01*
X134449315Y-141436290D01*
X134359776Y-141599162D01*
X134297484Y-141795532D01*
X134296798Y-141801649D01*
X134296797Y-141801653D01*
X134275207Y-141994137D01*
X134274520Y-142000262D01*
X92983864Y-142000262D01*
X92577197Y-141586817D01*
X92570613Y-141579581D01*
X92380264Y-141353346D01*
X92368875Y-141337454D01*
X92218367Y-141088708D01*
X92209573Y-141071244D01*
X92196805Y-141040075D01*
X92099359Y-140802203D01*
X92093373Y-140783591D01*
X92026108Y-140500734D01*
X92023074Y-140481418D01*
X92000384Y-140191625D01*
X92000000Y-140181790D01*
X92000000Y-139460262D01*
X134274520Y-139460262D01*
X134291759Y-139665553D01*
X134348544Y-139863586D01*
X134351359Y-139869063D01*
X134351360Y-139869066D01*
X134372247Y-139909707D01*
X134442712Y-140046818D01*
X134570677Y-140208270D01*
X134727564Y-140341791D01*
X134907398Y-140442297D01*
X135002238Y-140473113D01*
X135097471Y-140504056D01*
X135097475Y-140504057D01*
X135103329Y-140505959D01*
X135307894Y-140530351D01*
X135314029Y-140529879D01*
X135314031Y-140529879D01*
X135370039Y-140525569D01*
X135513300Y-140514546D01*
X135519230Y-140512890D01*
X135519232Y-140512890D01*
X135705797Y-140460800D01*
X135705796Y-140460800D01*
X135711725Y-140459145D01*
X135717214Y-140456372D01*
X135717220Y-140456370D01*
X135890116Y-140369033D01*
X135895610Y-140366258D01*
X136057951Y-140239424D01*
X136192564Y-140083472D01*
X136213387Y-140046818D01*
X136291276Y-139909707D01*
X136294323Y-139904344D01*
X136359351Y-139708863D01*
X136385171Y-139504474D01*
X136385583Y-139475000D01*
X136384138Y-139460262D01*
X136814520Y-139460262D01*
X136831759Y-139665553D01*
X136888544Y-139863586D01*
X136891359Y-139869063D01*
X136891360Y-139869066D01*
X136912247Y-139909707D01*
X136982712Y-140046818D01*
X137110677Y-140208270D01*
X137267564Y-140341791D01*
X137447398Y-140442297D01*
X137542238Y-140473113D01*
X137637471Y-140504056D01*
X137637475Y-140504057D01*
X137643329Y-140505959D01*
X137847894Y-140530351D01*
X137854029Y-140529879D01*
X137854031Y-140529879D01*
X137910039Y-140525569D01*
X138053300Y-140514546D01*
X138059230Y-140512890D01*
X138059232Y-140512890D01*
X138245797Y-140460800D01*
X138245796Y-140460800D01*
X138251725Y-140459145D01*
X138257214Y-140456372D01*
X138257220Y-140456370D01*
X138430116Y-140369033D01*
X138435610Y-140366258D01*
X138597951Y-140239424D01*
X138732564Y-140083472D01*
X138753387Y-140046818D01*
X138831276Y-139909707D01*
X138834323Y-139904344D01*
X138899351Y-139708863D01*
X138925171Y-139504474D01*
X138925583Y-139475000D01*
X138905480Y-139269970D01*
X138845935Y-139072749D01*
X138749218Y-138890849D01*
X138675859Y-138800902D01*
X138622906Y-138735975D01*
X138622903Y-138735972D01*
X138619011Y-138731200D01*
X138601786Y-138716950D01*
X138465025Y-138603811D01*
X138465021Y-138603809D01*
X138460275Y-138599882D01*
X138279055Y-138501897D01*
X138082254Y-138440977D01*
X138076129Y-138440333D01*
X138076128Y-138440333D01*
X137883498Y-138420087D01*
X137883496Y-138420087D01*
X137877369Y-138419443D01*
X137790529Y-138427346D01*
X137678342Y-138437555D01*
X137678339Y-138437556D01*
X137672203Y-138438114D01*
X137474572Y-138496280D01*
X137292002Y-138591726D01*
X137287201Y-138595586D01*
X137287198Y-138595588D01*
X137276971Y-138603811D01*
X137131447Y-138720815D01*
X136999024Y-138878630D01*
X136996056Y-138884028D01*
X136996053Y-138884033D01*
X136989315Y-138896290D01*
X136899776Y-139059162D01*
X136837484Y-139255532D01*
X136836798Y-139261649D01*
X136836797Y-139261653D01*
X136815207Y-139454137D01*
X136814520Y-139460262D01*
X136384138Y-139460262D01*
X136365480Y-139269970D01*
X136305935Y-139072749D01*
X136209218Y-138890849D01*
X136135859Y-138800902D01*
X136082906Y-138735975D01*
X136082903Y-138735972D01*
X136079011Y-138731200D01*
X136061786Y-138716950D01*
X135925025Y-138603811D01*
X135925021Y-138603809D01*
X135920275Y-138599882D01*
X135739055Y-138501897D01*
X135542254Y-138440977D01*
X135536129Y-138440333D01*
X135536128Y-138440333D01*
X135343498Y-138420087D01*
X135343496Y-138420087D01*
X135337369Y-138419443D01*
X135250529Y-138427346D01*
X135138342Y-138437555D01*
X135138339Y-138437556D01*
X135132203Y-138438114D01*
X134934572Y-138496280D01*
X134752002Y-138591726D01*
X134747201Y-138595586D01*
X134747198Y-138595588D01*
X134736971Y-138603811D01*
X134591447Y-138720815D01*
X134459024Y-138878630D01*
X134456056Y-138884028D01*
X134456053Y-138884033D01*
X134449315Y-138896290D01*
X134359776Y-139059162D01*
X134297484Y-139255532D01*
X134296798Y-139261649D01*
X134296797Y-139261653D01*
X134275207Y-139454137D01*
X134274520Y-139460262D01*
X92000000Y-139460262D01*
X92000000Y-137804748D01*
X134279500Y-137804748D01*
X134280707Y-137810816D01*
X134284331Y-137829033D01*
X134291133Y-137863231D01*
X134335448Y-137929552D01*
X134401769Y-137973867D01*
X134413938Y-137976288D01*
X134413939Y-137976288D01*
X134454184Y-137984293D01*
X134460252Y-137985500D01*
X136199748Y-137985500D01*
X136205816Y-137984293D01*
X136246061Y-137976288D01*
X136246062Y-137976288D01*
X136258231Y-137973867D01*
X136324552Y-137929552D01*
X136368867Y-137863231D01*
X136375670Y-137829033D01*
X136379293Y-137810816D01*
X136380500Y-137804748D01*
X136380500Y-136920262D01*
X136814520Y-136920262D01*
X136831759Y-137125553D01*
X136888544Y-137323586D01*
X136891359Y-137329063D01*
X136891360Y-137329066D01*
X136912247Y-137369707D01*
X136982712Y-137506818D01*
X137110677Y-137668270D01*
X137267564Y-137801791D01*
X137447398Y-137902297D01*
X137531280Y-137929552D01*
X137637471Y-137964056D01*
X137637475Y-137964057D01*
X137643329Y-137965959D01*
X137847894Y-137990351D01*
X137854029Y-137989879D01*
X137854031Y-137989879D01*
X137926625Y-137984293D01*
X138053300Y-137974546D01*
X138059230Y-137972890D01*
X138059232Y-137972890D01*
X138245797Y-137920800D01*
X138245796Y-137920800D01*
X138251725Y-137919145D01*
X138257214Y-137916372D01*
X138257220Y-137916370D01*
X138430116Y-137829033D01*
X138435610Y-137826258D01*
X138597951Y-137699424D01*
X138732564Y-137543472D01*
X138753387Y-137506818D01*
X138831276Y-137369707D01*
X138834323Y-137364344D01*
X138899351Y-137168863D01*
X138925171Y-136964474D01*
X138925583Y-136935000D01*
X138905480Y-136729970D01*
X138845935Y-136532749D01*
X138749218Y-136350849D01*
X138675859Y-136260902D01*
X138622906Y-136195975D01*
X138622903Y-136195972D01*
X138619011Y-136191200D01*
X138601786Y-136176950D01*
X138465025Y-136063811D01*
X138465021Y-136063809D01*
X138460275Y-136059882D01*
X138279055Y-135961897D01*
X138082254Y-135900977D01*
X138076129Y-135900333D01*
X138076128Y-135900333D01*
X137883498Y-135880087D01*
X137883496Y-135880087D01*
X137877369Y-135879443D01*
X137790529Y-135887346D01*
X137678342Y-135897555D01*
X137678339Y-135897556D01*
X137672203Y-135898114D01*
X137474572Y-135956280D01*
X137469107Y-135959137D01*
X137422473Y-135983517D01*
X137292002Y-136051726D01*
X137287201Y-136055586D01*
X137287198Y-136055588D01*
X137136254Y-136176950D01*
X137131447Y-136180815D01*
X136999024Y-136338630D01*
X136996056Y-136344028D01*
X136996053Y-136344033D01*
X136989315Y-136356290D01*
X136899776Y-136519162D01*
X136837484Y-136715532D01*
X136836798Y-136721649D01*
X136836797Y-136721653D01*
X136815207Y-136914137D01*
X136814520Y-136920262D01*
X136380500Y-136920262D01*
X136380500Y-136065252D01*
X136368867Y-136006769D01*
X136324552Y-135940448D01*
X136258231Y-135896133D01*
X136246062Y-135893712D01*
X136246061Y-135893712D01*
X136205816Y-135885707D01*
X136199748Y-135884500D01*
X134460252Y-135884500D01*
X134454184Y-135885707D01*
X134413939Y-135893712D01*
X134413938Y-135893712D01*
X134401769Y-135896133D01*
X134335448Y-135940448D01*
X134291133Y-136006769D01*
X134279500Y-136065252D01*
X134279500Y-137804748D01*
X92000000Y-137804748D01*
X92000000Y-134650262D01*
X122064520Y-134650262D01*
X122081759Y-134855553D01*
X122083458Y-134861478D01*
X122129395Y-135021678D01*
X122138544Y-135053586D01*
X122141359Y-135059063D01*
X122141360Y-135059066D01*
X122229897Y-135231341D01*
X122232712Y-135236818D01*
X122360677Y-135398270D01*
X122365370Y-135402264D01*
X122365371Y-135402265D01*
X122439541Y-135465388D01*
X122517564Y-135531791D01*
X122522942Y-135534797D01*
X122522944Y-135534798D01*
X122553387Y-135551812D01*
X122697398Y-135632297D01*
X122792238Y-135663112D01*
X122887471Y-135694056D01*
X122887475Y-135694057D01*
X122893329Y-135695959D01*
X123097894Y-135720351D01*
X123104029Y-135719879D01*
X123104031Y-135719879D01*
X123160039Y-135715569D01*
X123303300Y-135704546D01*
X123309230Y-135702890D01*
X123309232Y-135702890D01*
X123495797Y-135650800D01*
X123495796Y-135650800D01*
X123501725Y-135649145D01*
X123507214Y-135646372D01*
X123507220Y-135646370D01*
X123680116Y-135559033D01*
X123685610Y-135556258D01*
X123701345Y-135543965D01*
X123843101Y-135433213D01*
X123847951Y-135429424D01*
X123905992Y-135362183D01*
X123978540Y-135278134D01*
X123978540Y-135278133D01*
X123982564Y-135273472D01*
X124003387Y-135236818D01*
X124021056Y-135205714D01*
X124084323Y-135094344D01*
X124093271Y-135067444D01*
X124108496Y-135021678D01*
X124148978Y-134963354D01*
X124214566Y-134936175D01*
X124284437Y-134948770D01*
X124336406Y-134997141D01*
X124350971Y-135033751D01*
X124358564Y-135067444D01*
X124361645Y-135077275D01*
X124441770Y-135274603D01*
X124446413Y-135283794D01*
X124557694Y-135465388D01*
X124563777Y-135473699D01*
X124703213Y-135634667D01*
X124710580Y-135641883D01*
X124874434Y-135777916D01*
X124882881Y-135783831D01*
X125066756Y-135891279D01*
X125076042Y-135895729D01*
X125275001Y-135971703D01*
X125284899Y-135974579D01*
X125388250Y-135995606D01*
X125402299Y-135994410D01*
X125406000Y-135984065D01*
X125406000Y-134537000D01*
X125426002Y-134468879D01*
X125479658Y-134422386D01*
X125532000Y-134411000D01*
X125788000Y-134411000D01*
X125856121Y-134431002D01*
X125902614Y-134484658D01*
X125914000Y-134537000D01*
X125914000Y-135983517D01*
X125918064Y-135997359D01*
X125931478Y-135999393D01*
X125938184Y-135998534D01*
X125948262Y-135996392D01*
X126152255Y-135935191D01*
X126161842Y-135931433D01*
X126353095Y-135837739D01*
X126361945Y-135832464D01*
X126535328Y-135708792D01*
X126543200Y-135702139D01*
X126694052Y-135551812D01*
X126700730Y-135543965D01*
X126825003Y-135371020D01*
X126830313Y-135362183D01*
X126924670Y-135171267D01*
X126928469Y-135161672D01*
X126969593Y-135026319D01*
X127008534Y-134966955D01*
X127073388Y-134938068D01*
X127143564Y-134948830D01*
X127196782Y-134995823D01*
X127211270Y-135028217D01*
X127218544Y-135053586D01*
X127221359Y-135059063D01*
X127221360Y-135059066D01*
X127309897Y-135231341D01*
X127312712Y-135236818D01*
X127440677Y-135398270D01*
X127445370Y-135402264D01*
X127445371Y-135402265D01*
X127519541Y-135465388D01*
X127597564Y-135531791D01*
X127602942Y-135534797D01*
X127602944Y-135534798D01*
X127633387Y-135551812D01*
X127777398Y-135632297D01*
X127872238Y-135663112D01*
X127967471Y-135694056D01*
X127967475Y-135694057D01*
X127973329Y-135695959D01*
X128177894Y-135720351D01*
X128184029Y-135719879D01*
X128184031Y-135719879D01*
X128240039Y-135715569D01*
X128383300Y-135704546D01*
X128389230Y-135702890D01*
X128389232Y-135702890D01*
X128575797Y-135650800D01*
X128575796Y-135650800D01*
X128581725Y-135649145D01*
X128587214Y-135646372D01*
X128587220Y-135646370D01*
X128760116Y-135559033D01*
X128765610Y-135556258D01*
X128781345Y-135543965D01*
X128923101Y-135433213D01*
X128927951Y-135429424D01*
X128985992Y-135362183D01*
X129058540Y-135278134D01*
X129058540Y-135278133D01*
X129062564Y-135273472D01*
X129083387Y-135236818D01*
X129101056Y-135205714D01*
X129164323Y-135094344D01*
X129229351Y-134898863D01*
X129255171Y-134694474D01*
X129255583Y-134665000D01*
X129235480Y-134459970D01*
X129175935Y-134262749D01*
X129079218Y-134080849D01*
X129003206Y-133987649D01*
X128952906Y-133925975D01*
X128952903Y-133925972D01*
X128949011Y-133921200D01*
X128931786Y-133906950D01*
X128795025Y-133793811D01*
X128795021Y-133793809D01*
X128790275Y-133789882D01*
X128609055Y-133691897D01*
X128412254Y-133630977D01*
X128406129Y-133630333D01*
X128406128Y-133630333D01*
X128213498Y-133610087D01*
X128213496Y-133610087D01*
X128207369Y-133609443D01*
X128120529Y-133617346D01*
X128008342Y-133627555D01*
X128008339Y-133627556D01*
X128002203Y-133628114D01*
X127804572Y-133686280D01*
X127622002Y-133781726D01*
X127617201Y-133785586D01*
X127617198Y-133785588D01*
X127584688Y-133811727D01*
X127461447Y-133910815D01*
X127329024Y-134068630D01*
X127326056Y-134074028D01*
X127326053Y-134074033D01*
X127319315Y-134086290D01*
X127229776Y-134249162D01*
X127227914Y-134255032D01*
X127211068Y-134308138D01*
X127171405Y-134367022D01*
X127106202Y-134395114D01*
X127036163Y-134383497D01*
X126983523Y-134335857D01*
X126968762Y-134300735D01*
X126951214Y-134230875D01*
X126947894Y-134221124D01*
X126862972Y-134025814D01*
X126858105Y-134016739D01*
X126742426Y-133837926D01*
X126736136Y-133829757D01*
X126592806Y-133672240D01*
X126585273Y-133665215D01*
X126418139Y-133533222D01*
X126409552Y-133527517D01*
X126223117Y-133424599D01*
X126213705Y-133420369D01*
X126022031Y-133352493D01*
X125964495Y-133310899D01*
X125938579Y-133244801D01*
X125952513Y-133175185D01*
X126001872Y-133124154D01*
X126030206Y-133112362D01*
X126035790Y-133110803D01*
X126035799Y-133110800D01*
X126041725Y-133109145D01*
X126047214Y-133106372D01*
X126047220Y-133106370D01*
X126220116Y-133019033D01*
X126225610Y-133016258D01*
X126253142Y-132994748D01*
X127149500Y-132994748D01*
X127150707Y-133000816D01*
X127154331Y-133019033D01*
X127161133Y-133053231D01*
X127205448Y-133119552D01*
X127271769Y-133163867D01*
X127283938Y-133166288D01*
X127283939Y-133166288D01*
X127324184Y-133174293D01*
X127330252Y-133175500D01*
X129069748Y-133175500D01*
X129075816Y-133174293D01*
X129116061Y-133166288D01*
X129116062Y-133166288D01*
X129128231Y-133163867D01*
X129194552Y-133119552D01*
X129238867Y-133053231D01*
X129245670Y-133019033D01*
X129249293Y-133000816D01*
X129250500Y-132994748D01*
X129250500Y-131255252D01*
X129238867Y-131196769D01*
X129194552Y-131130448D01*
X129128231Y-131086133D01*
X129116062Y-131083712D01*
X129116061Y-131083712D01*
X129075816Y-131075707D01*
X129069748Y-131074500D01*
X127330252Y-131074500D01*
X127324184Y-131075707D01*
X127283939Y-131083712D01*
X127283938Y-131083712D01*
X127271769Y-131086133D01*
X127205448Y-131130448D01*
X127161133Y-131196769D01*
X127149500Y-131255252D01*
X127149500Y-132994748D01*
X126253142Y-132994748D01*
X126387951Y-132889424D01*
X126522564Y-132733472D01*
X126543387Y-132696818D01*
X126621276Y-132559707D01*
X126624323Y-132554344D01*
X126689351Y-132358863D01*
X126715171Y-132154474D01*
X126715583Y-132125000D01*
X126695480Y-131919970D01*
X126635935Y-131722749D01*
X126539218Y-131540849D01*
X126449820Y-131431236D01*
X126412906Y-131385975D01*
X126412903Y-131385972D01*
X126409011Y-131381200D01*
X126316552Y-131304711D01*
X126255025Y-131253811D01*
X126255021Y-131253809D01*
X126250275Y-131249882D01*
X126069055Y-131151897D01*
X125872254Y-131090977D01*
X125866129Y-131090333D01*
X125866128Y-131090333D01*
X125673498Y-131070087D01*
X125673496Y-131070087D01*
X125667369Y-131069443D01*
X125580529Y-131077346D01*
X125468342Y-131087555D01*
X125468339Y-131087556D01*
X125462203Y-131088114D01*
X125264572Y-131146280D01*
X125082002Y-131241726D01*
X125077201Y-131245586D01*
X125077198Y-131245588D01*
X125003664Y-131304711D01*
X124921447Y-131370815D01*
X124789024Y-131528630D01*
X124786056Y-131534028D01*
X124786053Y-131534033D01*
X124692743Y-131703765D01*
X124689776Y-131709162D01*
X124627484Y-131905532D01*
X124626798Y-131911649D01*
X124626797Y-131911653D01*
X124605207Y-132104137D01*
X124604520Y-132110262D01*
X124621759Y-132315553D01*
X124678544Y-132513586D01*
X124681359Y-132519063D01*
X124681360Y-132519066D01*
X124702247Y-132559707D01*
X124772712Y-132696818D01*
X124900677Y-132858270D01*
X125057564Y-132991791D01*
X125237398Y-133092297D01*
X125302437Y-133113429D01*
X125361042Y-133153502D01*
X125388680Y-133218898D01*
X125376574Y-133288855D01*
X125328568Y-133341162D01*
X125302646Y-133353027D01*
X125136868Y-133407212D01*
X125127359Y-133411209D01*
X124938463Y-133509542D01*
X124929738Y-133515036D01*
X124759433Y-133642905D01*
X124751726Y-133649748D01*
X124604590Y-133803717D01*
X124598104Y-133811727D01*
X124478098Y-133987649D01*
X124473000Y-133996623D01*
X124383338Y-134189783D01*
X124379775Y-134199470D01*
X124351012Y-134303185D01*
X124313533Y-134363483D01*
X124249405Y-134393946D01*
X124178986Y-134384903D01*
X124124636Y-134339224D01*
X124108973Y-134305933D01*
X124108143Y-134303185D01*
X124095935Y-134262749D01*
X123999218Y-134080849D01*
X123923206Y-133987649D01*
X123872906Y-133925975D01*
X123872903Y-133925972D01*
X123869011Y-133921200D01*
X123851786Y-133906950D01*
X123715025Y-133793811D01*
X123715021Y-133793809D01*
X123710275Y-133789882D01*
X123529055Y-133691897D01*
X123332254Y-133630977D01*
X123326129Y-133630333D01*
X123326128Y-133630333D01*
X123133498Y-133610087D01*
X123133496Y-133610087D01*
X123127369Y-133609443D01*
X123040529Y-133617346D01*
X122928342Y-133627555D01*
X122928339Y-133627556D01*
X122922203Y-133628114D01*
X122724572Y-133686280D01*
X122542002Y-133781726D01*
X122537201Y-133785586D01*
X122537198Y-133785588D01*
X122504688Y-133811727D01*
X122381447Y-133910815D01*
X122249024Y-134068630D01*
X122246056Y-134074028D01*
X122246053Y-134074033D01*
X122239315Y-134086290D01*
X122149776Y-134249162D01*
X122087484Y-134445532D01*
X122086798Y-134451649D01*
X122086797Y-134451653D01*
X122084865Y-134468879D01*
X122064520Y-134650262D01*
X92000000Y-134650262D01*
X92000000Y-132110262D01*
X122064520Y-132110262D01*
X122081759Y-132315553D01*
X122138544Y-132513586D01*
X122141359Y-132519063D01*
X122141360Y-132519066D01*
X122162247Y-132559707D01*
X122232712Y-132696818D01*
X122360677Y-132858270D01*
X122517564Y-132991791D01*
X122697398Y-133092297D01*
X122781280Y-133119552D01*
X122887471Y-133154056D01*
X122887475Y-133154057D01*
X122893329Y-133155959D01*
X123097894Y-133180351D01*
X123104029Y-133179879D01*
X123104031Y-133179879D01*
X123160939Y-133175500D01*
X123303300Y-133164546D01*
X123309230Y-133162890D01*
X123309232Y-133162890D01*
X123439770Y-133126443D01*
X123501725Y-133109145D01*
X123507214Y-133106372D01*
X123507220Y-133106370D01*
X123680116Y-133019033D01*
X123685610Y-133016258D01*
X123847951Y-132889424D01*
X123982564Y-132733472D01*
X124003387Y-132696818D01*
X124081276Y-132559707D01*
X124084323Y-132554344D01*
X124149351Y-132358863D01*
X124175171Y-132154474D01*
X124175583Y-132125000D01*
X124155480Y-131919970D01*
X124095935Y-131722749D01*
X123999218Y-131540849D01*
X123909820Y-131431236D01*
X123872906Y-131385975D01*
X123872903Y-131385972D01*
X123869011Y-131381200D01*
X123776552Y-131304711D01*
X123715025Y-131253811D01*
X123715021Y-131253809D01*
X123710275Y-131249882D01*
X123529055Y-131151897D01*
X123332254Y-131090977D01*
X123326129Y-131090333D01*
X123326128Y-131090333D01*
X123133498Y-131070087D01*
X123133496Y-131070087D01*
X123127369Y-131069443D01*
X123040529Y-131077346D01*
X122928342Y-131087555D01*
X122928339Y-131087556D01*
X122922203Y-131088114D01*
X122724572Y-131146280D01*
X122542002Y-131241726D01*
X122537201Y-131245586D01*
X122537198Y-131245588D01*
X122463664Y-131304711D01*
X122381447Y-131370815D01*
X122249024Y-131528630D01*
X122246056Y-131534028D01*
X122246053Y-131534033D01*
X122152743Y-131703765D01*
X122149776Y-131709162D01*
X122087484Y-131905532D01*
X122086798Y-131911649D01*
X122086797Y-131911653D01*
X122065207Y-132104137D01*
X122064520Y-132110262D01*
X92000000Y-132110262D01*
X92000000Y-131009500D01*
X131569318Y-131009500D01*
X131589956Y-131166262D01*
X131650464Y-131312341D01*
X131746718Y-131437782D01*
X131872159Y-131534036D01*
X132018238Y-131594544D01*
X132175000Y-131615182D01*
X132183188Y-131614104D01*
X132323574Y-131595622D01*
X132331762Y-131594544D01*
X132477841Y-131534036D01*
X132603282Y-131437782D01*
X132699536Y-131312341D01*
X132760044Y-131166262D01*
X132780682Y-131009500D01*
X132760044Y-130852738D01*
X132699536Y-130706659D01*
X132603282Y-130581218D01*
X132524796Y-130520993D01*
X132482929Y-130463656D01*
X132475500Y-130421031D01*
X132475500Y-129944669D01*
X137792001Y-129944669D01*
X137792371Y-129951490D01*
X137797895Y-130002352D01*
X137801521Y-130017604D01*
X137846676Y-130138054D01*
X137855214Y-130153649D01*
X137931715Y-130255724D01*
X137944276Y-130268285D01*
X138046351Y-130344786D01*
X138061946Y-130353324D01*
X138182394Y-130398478D01*
X138197649Y-130402105D01*
X138248514Y-130407631D01*
X138255328Y-130408000D01*
X138527885Y-130408000D01*
X138543124Y-130403525D01*
X138544329Y-130402135D01*
X138546000Y-130394452D01*
X138546000Y-130389884D01*
X139054000Y-130389884D01*
X139058475Y-130405123D01*
X139059865Y-130406328D01*
X139067548Y-130407999D01*
X139344669Y-130407999D01*
X139351490Y-130407629D01*
X139402352Y-130402105D01*
X139417604Y-130398479D01*
X139538054Y-130353324D01*
X139553649Y-130344786D01*
X139655724Y-130268285D01*
X139668285Y-130255724D01*
X139744786Y-130153649D01*
X139753324Y-130138054D01*
X139798478Y-130017606D01*
X139802105Y-130002351D01*
X139807631Y-129951486D01*
X139808000Y-129944672D01*
X139808000Y-129672115D01*
X139803525Y-129656876D01*
X139802135Y-129655671D01*
X139794452Y-129654000D01*
X139072115Y-129654000D01*
X139056876Y-129658475D01*
X139055671Y-129659865D01*
X139054000Y-129667548D01*
X139054000Y-130389884D01*
X138546000Y-130389884D01*
X138546000Y-129672115D01*
X138541525Y-129656876D01*
X138540135Y-129655671D01*
X138532452Y-129654000D01*
X137810116Y-129654000D01*
X137794877Y-129658475D01*
X137793672Y-129659865D01*
X137792001Y-129667548D01*
X137792001Y-129944669D01*
X132475500Y-129944669D01*
X132475500Y-129698969D01*
X132495502Y-129630848D01*
X132524796Y-129599006D01*
X132538796Y-129588264D01*
X132603282Y-129538782D01*
X132699536Y-129413341D01*
X132760044Y-129267262D01*
X132778393Y-129127885D01*
X137792000Y-129127885D01*
X137796475Y-129143124D01*
X137797865Y-129144329D01*
X137805548Y-129146000D01*
X139789884Y-129146000D01*
X139805123Y-129141525D01*
X139806328Y-129140135D01*
X139807999Y-129132452D01*
X139807999Y-128855331D01*
X139807629Y-128848510D01*
X139802105Y-128797648D01*
X139798479Y-128782396D01*
X139753324Y-128661946D01*
X139744786Y-128646351D01*
X139668285Y-128544276D01*
X139655724Y-128531715D01*
X139553644Y-128455210D01*
X139543493Y-128449653D01*
X139493346Y-128399395D01*
X139478332Y-128330004D01*
X139481018Y-128314084D01*
X139481601Y-128312634D01*
X139484753Y-128290491D01*
X139504909Y-128148862D01*
X139504909Y-128148859D01*
X139505490Y-128144778D01*
X139505645Y-128130000D01*
X139503840Y-128115080D01*
X139491123Y-128010000D01*
X139485276Y-127961680D01*
X139425345Y-127803077D01*
X139374783Y-127729509D01*
X139333614Y-127669608D01*
X139333613Y-127669607D01*
X139329312Y-127663349D01*
X139306816Y-127643305D01*
X139245663Y-127588820D01*
X139208107Y-127528570D01*
X139209088Y-127457580D01*
X139247652Y-127398933D01*
X139313648Y-127342567D01*
X139313651Y-127342564D01*
X139319423Y-127337634D01*
X139418361Y-127199947D01*
X139426237Y-127180356D01*
X139478766Y-127049687D01*
X139478767Y-127049685D01*
X139481601Y-127042634D01*
X139499796Y-126914789D01*
X139504909Y-126878862D01*
X139504909Y-126878859D01*
X139505490Y-126874778D01*
X139505645Y-126860000D01*
X139503840Y-126845080D01*
X139488859Y-126721290D01*
X139485276Y-126691680D01*
X139425345Y-126533077D01*
X139329312Y-126393349D01*
X139317514Y-126382837D01*
X139208392Y-126285612D01*
X139208388Y-126285610D01*
X139202721Y-126280560D01*
X139175179Y-126265977D01*
X139117672Y-126235529D01*
X139052881Y-126201224D01*
X138888441Y-126159919D01*
X138880843Y-126159879D01*
X138880841Y-126159879D01*
X138803668Y-126159475D01*
X138718895Y-126159031D01*
X138711508Y-126160805D01*
X138711504Y-126160805D01*
X138582997Y-126191658D01*
X138554032Y-126198612D01*
X138547288Y-126202093D01*
X138547285Y-126202094D01*
X138423515Y-126265977D01*
X138403369Y-126276375D01*
X138275604Y-126387831D01*
X138178113Y-126526547D01*
X138116524Y-126684513D01*
X138115532Y-126692046D01*
X138115532Y-126692047D01*
X138112399Y-126715849D01*
X138094394Y-126852611D01*
X138112999Y-127021135D01*
X138171266Y-127180356D01*
X138175502Y-127186659D01*
X138175502Y-127186660D01*
X138185684Y-127201812D01*
X138265830Y-127321083D01*
X138284019Y-127337634D01*
X138354958Y-127402184D01*
X138391880Y-127462824D01*
X138390157Y-127533800D01*
X138352987Y-127590326D01*
X138275604Y-127657831D01*
X138178113Y-127796547D01*
X138116524Y-127954513D01*
X138115532Y-127962046D01*
X138115532Y-127962047D01*
X138102668Y-128059766D01*
X138094394Y-128122611D01*
X138112999Y-128291135D01*
X138115609Y-128298267D01*
X138117344Y-128305665D01*
X138115338Y-128306135D01*
X138119277Y-128366507D01*
X138084862Y-128428605D01*
X138056834Y-128449474D01*
X138046356Y-128455210D01*
X137944276Y-128531715D01*
X137931715Y-128544276D01*
X137855214Y-128646351D01*
X137846676Y-128661946D01*
X137801522Y-128782394D01*
X137797895Y-128797649D01*
X137792369Y-128848514D01*
X137792000Y-128855328D01*
X137792000Y-129127885D01*
X132778393Y-129127885D01*
X132780682Y-129110500D01*
X132760044Y-128953738D01*
X132699536Y-128807659D01*
X132603282Y-128682218D01*
X132477841Y-128585964D01*
X132331762Y-128525456D01*
X132175000Y-128504818D01*
X132018238Y-128525456D01*
X131872159Y-128585964D01*
X131746718Y-128682218D01*
X131650464Y-128807659D01*
X131589956Y-128953738D01*
X131569318Y-129110500D01*
X131589956Y-129267262D01*
X131650464Y-129413341D01*
X131746718Y-129538782D01*
X131811205Y-129588264D01*
X131825204Y-129599006D01*
X131867071Y-129656344D01*
X131874500Y-129698969D01*
X131874500Y-130421031D01*
X131854498Y-130489152D01*
X131825205Y-130520993D01*
X131746718Y-130581218D01*
X131650464Y-130706659D01*
X131589956Y-130852738D01*
X131569318Y-131009500D01*
X92000000Y-131009500D01*
X92000000Y-130310000D01*
X115887318Y-130310000D01*
X115907956Y-130466762D01*
X115968464Y-130612841D01*
X116064718Y-130738282D01*
X116190159Y-130834536D01*
X116336238Y-130895044D01*
X116493000Y-130915682D01*
X116501188Y-130914604D01*
X116641574Y-130896122D01*
X116649762Y-130895044D01*
X116795841Y-130834536D01*
X116921282Y-130738282D01*
X116981507Y-130659796D01*
X117038844Y-130617929D01*
X117081469Y-130610500D01*
X117629031Y-130610500D01*
X117697152Y-130630502D01*
X117728993Y-130659795D01*
X117789218Y-130738282D01*
X117914659Y-130834536D01*
X118060738Y-130895044D01*
X118217500Y-130915682D01*
X118225688Y-130914604D01*
X118366074Y-130896122D01*
X118374262Y-130895044D01*
X118520341Y-130834536D01*
X118645782Y-130738282D01*
X118742036Y-130612841D01*
X118802544Y-130466762D01*
X118823182Y-130310000D01*
X118802544Y-130153238D01*
X118743208Y-130009989D01*
X119761818Y-130009989D01*
X119782456Y-130166751D01*
X119842964Y-130312830D01*
X119939218Y-130438271D01*
X120064659Y-130534525D01*
X120210738Y-130595033D01*
X120367500Y-130615671D01*
X120375688Y-130614593D01*
X120516074Y-130596111D01*
X120524262Y-130595033D01*
X120670341Y-130534525D01*
X120795782Y-130438271D01*
X120892036Y-130312830D01*
X120952544Y-130166751D01*
X120973181Y-130010000D01*
X121961818Y-130010000D01*
X121982456Y-130166762D01*
X122042964Y-130312841D01*
X122139218Y-130438282D01*
X122264659Y-130534536D01*
X122365233Y-130576195D01*
X122403083Y-130591873D01*
X122410738Y-130595044D01*
X122567500Y-130615682D01*
X122575688Y-130614604D01*
X122589080Y-130612841D01*
X122724262Y-130595044D01*
X122731918Y-130591873D01*
X122769767Y-130576195D01*
X122870341Y-130534536D01*
X122995782Y-130438282D01*
X123092036Y-130312841D01*
X123152544Y-130166762D01*
X123173182Y-130010000D01*
X123836818Y-130010000D01*
X123857456Y-130166762D01*
X123917964Y-130312841D01*
X124014218Y-130438282D01*
X124139659Y-130534536D01*
X124240233Y-130576195D01*
X124278083Y-130591873D01*
X124285738Y-130595044D01*
X124442500Y-130615682D01*
X124450688Y-130614604D01*
X124464080Y-130612841D01*
X124599262Y-130595044D01*
X124606918Y-130591873D01*
X124644767Y-130576195D01*
X124745341Y-130534536D01*
X124870782Y-130438282D01*
X124967036Y-130312841D01*
X125027544Y-130166762D01*
X125048182Y-130010000D01*
X125711818Y-130010000D01*
X125732456Y-130166762D01*
X125792964Y-130312841D01*
X125889218Y-130438282D01*
X126014659Y-130534536D01*
X126115233Y-130576195D01*
X126153083Y-130591873D01*
X126160738Y-130595044D01*
X126317500Y-130615682D01*
X126325688Y-130614604D01*
X126339080Y-130612841D01*
X126474262Y-130595044D01*
X126481918Y-130591873D01*
X126519767Y-130576195D01*
X126620341Y-130534536D01*
X126745782Y-130438282D01*
X126842036Y-130312841D01*
X126902544Y-130166762D01*
X126923182Y-130010000D01*
X126902544Y-129853238D01*
X126842036Y-129707159D01*
X126745782Y-129581718D01*
X126667296Y-129521493D01*
X126625429Y-129464156D01*
X126618000Y-129421531D01*
X126618000Y-128598469D01*
X126638002Y-128530348D01*
X126667296Y-128498506D01*
X126739236Y-128443305D01*
X126745782Y-128438282D01*
X126842036Y-128312841D01*
X126902544Y-128166762D01*
X126923182Y-128010000D01*
X126902544Y-127853238D01*
X126842036Y-127707159D01*
X126745782Y-127581718D01*
X126620341Y-127485464D01*
X126474262Y-127424956D01*
X126317500Y-127404318D01*
X126160738Y-127424956D01*
X126014659Y-127485464D01*
X125889218Y-127581718D01*
X125792964Y-127707159D01*
X125732456Y-127853238D01*
X125711818Y-128010000D01*
X125732456Y-128166762D01*
X125792964Y-128312841D01*
X125889218Y-128438282D01*
X125895764Y-128443305D01*
X125967704Y-128498506D01*
X126009571Y-128555844D01*
X126017000Y-128598469D01*
X126017000Y-129421531D01*
X125996998Y-129489652D01*
X125967705Y-129521493D01*
X125889218Y-129581718D01*
X125792964Y-129707159D01*
X125732456Y-129853238D01*
X125711818Y-130010000D01*
X125048182Y-130010000D01*
X125027544Y-129853238D01*
X124967036Y-129707159D01*
X124870782Y-129581718D01*
X124792296Y-129521493D01*
X124750429Y-129464156D01*
X124743000Y-129421531D01*
X124743000Y-128598469D01*
X124763002Y-128530348D01*
X124792296Y-128498506D01*
X124864236Y-128443305D01*
X124870782Y-128438282D01*
X124967036Y-128312841D01*
X125027544Y-128166762D01*
X125048182Y-128010000D01*
X125027544Y-127853238D01*
X124967036Y-127707159D01*
X124870782Y-127581718D01*
X124745341Y-127485464D01*
X124599262Y-127424956D01*
X124442500Y-127404318D01*
X124285738Y-127424956D01*
X124139659Y-127485464D01*
X124014218Y-127581718D01*
X123917964Y-127707159D01*
X123857456Y-127853238D01*
X123836818Y-128010000D01*
X123857456Y-128166762D01*
X123917964Y-128312841D01*
X124014218Y-128438282D01*
X124020764Y-128443305D01*
X124092704Y-128498506D01*
X124134571Y-128555844D01*
X124142000Y-128598469D01*
X124142000Y-129421531D01*
X124121998Y-129489652D01*
X124092705Y-129521493D01*
X124014218Y-129581718D01*
X123917964Y-129707159D01*
X123857456Y-129853238D01*
X123836818Y-130010000D01*
X123173182Y-130010000D01*
X123152544Y-129853238D01*
X123092036Y-129707159D01*
X122995782Y-129581718D01*
X122917296Y-129521493D01*
X122875429Y-129464156D01*
X122868000Y-129421531D01*
X122868000Y-128598469D01*
X122888002Y-128530348D01*
X122917296Y-128498506D01*
X122989236Y-128443305D01*
X122995782Y-128438282D01*
X123092036Y-128312841D01*
X123152544Y-128166762D01*
X123173182Y-128010000D01*
X123152544Y-127853238D01*
X123092036Y-127707159D01*
X122995782Y-127581718D01*
X122870341Y-127485464D01*
X122724262Y-127424956D01*
X122567500Y-127404318D01*
X122410738Y-127424956D01*
X122264659Y-127485464D01*
X122139218Y-127581718D01*
X122042964Y-127707159D01*
X121982456Y-127853238D01*
X121961818Y-128010000D01*
X121982456Y-128166762D01*
X122042964Y-128312841D01*
X122139218Y-128438282D01*
X122145764Y-128443305D01*
X122217704Y-128498506D01*
X122259571Y-128555844D01*
X122267000Y-128598469D01*
X122267000Y-129421531D01*
X122246998Y-129489652D01*
X122217705Y-129521493D01*
X122139218Y-129581718D01*
X122042964Y-129707159D01*
X121982456Y-129853238D01*
X121961818Y-130010000D01*
X120973181Y-130010000D01*
X120973182Y-130009989D01*
X120952544Y-129853227D01*
X120892036Y-129707148D01*
X120795782Y-129581707D01*
X120717296Y-129521482D01*
X120675429Y-129464145D01*
X120668000Y-129421520D01*
X120668000Y-128598469D01*
X120688002Y-128530348D01*
X120717296Y-128498506D01*
X120789236Y-128443305D01*
X120795782Y-128438282D01*
X120892036Y-128312841D01*
X120952544Y-128166762D01*
X120973182Y-128010000D01*
X120952544Y-127853238D01*
X120892036Y-127707159D01*
X120795782Y-127581718D01*
X120670341Y-127485464D01*
X120524262Y-127424956D01*
X120367500Y-127404318D01*
X120210738Y-127424956D01*
X120064659Y-127485464D01*
X119939218Y-127581718D01*
X119842964Y-127707159D01*
X119782456Y-127853238D01*
X119761818Y-128010000D01*
X119782456Y-128166762D01*
X119842964Y-128312841D01*
X119939218Y-128438282D01*
X119945764Y-128443305D01*
X120017704Y-128498506D01*
X120059571Y-128555844D01*
X120067000Y-128598469D01*
X120067000Y-129421520D01*
X120046998Y-129489641D01*
X120017705Y-129521482D01*
X119939218Y-129581707D01*
X119842964Y-129707148D01*
X119782456Y-129853227D01*
X119761818Y-130009989D01*
X118743208Y-130009989D01*
X118742036Y-130007159D01*
X118645782Y-129881718D01*
X118520341Y-129785464D01*
X118374262Y-129724956D01*
X118217500Y-129704318D01*
X118060738Y-129724956D01*
X117914659Y-129785464D01*
X117789218Y-129881718D01*
X117784195Y-129888264D01*
X117728994Y-129960204D01*
X117671656Y-130002071D01*
X117629031Y-130009500D01*
X117081469Y-130009500D01*
X117013348Y-129989498D01*
X116981506Y-129960204D01*
X116926305Y-129888264D01*
X116921282Y-129881718D01*
X116795841Y-129785464D01*
X116649762Y-129724956D01*
X116493000Y-129704318D01*
X116336238Y-129724956D01*
X116190159Y-129785464D01*
X116064718Y-129881718D01*
X115968464Y-130007159D01*
X115907956Y-130153238D01*
X115887318Y-130310000D01*
X92000000Y-130310000D01*
X92000000Y-128810000D01*
X115112318Y-128810000D01*
X115132956Y-128966762D01*
X115193464Y-129112841D01*
X115289718Y-129238282D01*
X115415159Y-129334536D01*
X115561238Y-129395044D01*
X115718000Y-129415682D01*
X115726188Y-129414604D01*
X115866574Y-129396122D01*
X115874762Y-129395044D01*
X116020841Y-129334536D01*
X116146282Y-129238282D01*
X116206507Y-129159796D01*
X116263844Y-129117929D01*
X116306469Y-129110500D01*
X117629031Y-129110500D01*
X117697152Y-129130502D01*
X117728993Y-129159795D01*
X117789218Y-129238282D01*
X117914659Y-129334536D01*
X118060738Y-129395044D01*
X118217500Y-129415682D01*
X118225688Y-129414604D01*
X118366074Y-129396122D01*
X118374262Y-129395044D01*
X118520341Y-129334536D01*
X118645782Y-129238282D01*
X118742036Y-129112841D01*
X118802544Y-128966762D01*
X118823182Y-128810000D01*
X118802544Y-128653238D01*
X118742036Y-128507159D01*
X118645782Y-128381718D01*
X118520341Y-128285464D01*
X118374262Y-128224956D01*
X118217500Y-128204318D01*
X118060738Y-128224956D01*
X117914659Y-128285464D01*
X117789218Y-128381718D01*
X117736551Y-128450356D01*
X117728994Y-128460204D01*
X117671656Y-128502071D01*
X117629031Y-128509500D01*
X116306469Y-128509500D01*
X116238348Y-128489498D01*
X116206506Y-128460204D01*
X116198950Y-128450356D01*
X116146282Y-128381718D01*
X116020841Y-128285464D01*
X115874762Y-128224956D01*
X115718000Y-128204318D01*
X115561238Y-128224956D01*
X115415159Y-128285464D01*
X115289718Y-128381718D01*
X115193464Y-128507159D01*
X115132956Y-128653238D01*
X115112318Y-128810000D01*
X92000000Y-128810000D01*
X92000000Y-125654669D01*
X96552001Y-125654669D01*
X96552371Y-125661490D01*
X96557895Y-125712352D01*
X96561521Y-125727604D01*
X96606676Y-125848054D01*
X96615214Y-125863649D01*
X96691715Y-125965724D01*
X96704276Y-125978285D01*
X96806351Y-126054786D01*
X96821946Y-126063324D01*
X96942394Y-126108478D01*
X96957649Y-126112105D01*
X97008514Y-126117631D01*
X97015328Y-126118000D01*
X97390432Y-126118000D01*
X97458553Y-126138002D01*
X97505046Y-126191658D01*
X97515150Y-126261932D01*
X97485656Y-126326512D01*
X97448812Y-126355659D01*
X97332002Y-126416726D01*
X97327201Y-126420586D01*
X97327198Y-126420588D01*
X97176254Y-126541950D01*
X97171447Y-126545815D01*
X97039024Y-126703630D01*
X97036056Y-126709028D01*
X97036053Y-126709033D01*
X96953059Y-126860000D01*
X96939776Y-126884162D01*
X96877484Y-127080532D01*
X96876798Y-127086649D01*
X96876797Y-127086653D01*
X96855207Y-127279137D01*
X96854520Y-127285262D01*
X96855036Y-127291406D01*
X96866251Y-127424956D01*
X96871759Y-127490553D01*
X96873458Y-127496478D01*
X96914120Y-127638282D01*
X96928544Y-127688586D01*
X96931359Y-127694063D01*
X96931360Y-127694066D01*
X96993308Y-127814604D01*
X97022712Y-127871818D01*
X97150677Y-128033270D01*
X97155370Y-128037264D01*
X97155371Y-128037265D01*
X97264335Y-128130000D01*
X97307564Y-128166791D01*
X97312942Y-128169797D01*
X97312944Y-128169798D01*
X97376639Y-128205396D01*
X97487398Y-128267297D01*
X97558782Y-128290491D01*
X97677471Y-128329056D01*
X97677475Y-128329057D01*
X97683329Y-128330959D01*
X97887894Y-128355351D01*
X97894029Y-128354879D01*
X97894031Y-128354879D01*
X97950039Y-128350569D01*
X98093300Y-128339546D01*
X98099230Y-128337890D01*
X98099232Y-128337890D01*
X98223104Y-128303304D01*
X98291725Y-128284145D01*
X98297214Y-128281372D01*
X98297220Y-128281370D01*
X98429952Y-128214322D01*
X98475610Y-128191258D01*
X98637951Y-128064424D01*
X98726637Y-127961680D01*
X98768540Y-127913134D01*
X98768540Y-127913133D01*
X98772564Y-127908472D01*
X98793387Y-127871818D01*
X98825276Y-127815682D01*
X98874323Y-127729344D01*
X98939351Y-127533863D01*
X98965171Y-127329474D01*
X98965583Y-127300000D01*
X98956759Y-127210000D01*
X115112318Y-127210000D01*
X115132956Y-127366762D01*
X115193464Y-127512841D01*
X115289718Y-127638282D01*
X115415159Y-127734536D01*
X115561238Y-127795044D01*
X115569426Y-127796122D01*
X115622255Y-127803077D01*
X115718000Y-127815682D01*
X115726188Y-127814604D01*
X115866574Y-127796122D01*
X115874762Y-127795044D01*
X116020841Y-127734536D01*
X116146282Y-127638282D01*
X116206507Y-127559796D01*
X116263844Y-127517929D01*
X116306469Y-127510500D01*
X117579031Y-127510500D01*
X117647152Y-127530502D01*
X117678993Y-127559795D01*
X117739218Y-127638282D01*
X117864659Y-127734536D01*
X118010738Y-127795044D01*
X118018926Y-127796122D01*
X118071755Y-127803077D01*
X118167500Y-127815682D01*
X118175688Y-127814604D01*
X118316074Y-127796122D01*
X118324262Y-127795044D01*
X118470341Y-127734536D01*
X118595782Y-127638282D01*
X118692036Y-127512841D01*
X118752544Y-127366762D01*
X118773182Y-127210000D01*
X118752544Y-127053238D01*
X118692036Y-126907159D01*
X118595782Y-126781718D01*
X118470341Y-126685464D01*
X118324262Y-126624956D01*
X118167500Y-126604318D01*
X118010738Y-126624956D01*
X117864659Y-126685464D01*
X117739218Y-126781718D01*
X117679151Y-126860000D01*
X117678994Y-126860204D01*
X117621656Y-126902071D01*
X117579031Y-126909500D01*
X116306469Y-126909500D01*
X116238348Y-126889498D01*
X116206506Y-126860204D01*
X116206350Y-126860000D01*
X116146282Y-126781718D01*
X116020841Y-126685464D01*
X115874762Y-126624956D01*
X115718000Y-126604318D01*
X115561238Y-126624956D01*
X115415159Y-126685464D01*
X115289718Y-126781718D01*
X115193464Y-126907159D01*
X115132956Y-127053238D01*
X115112318Y-127210000D01*
X98956759Y-127210000D01*
X98945480Y-127094970D01*
X98885935Y-126897749D01*
X98789218Y-126715849D01*
X98714208Y-126623878D01*
X98662906Y-126560975D01*
X98662903Y-126560972D01*
X98659011Y-126556200D01*
X98641786Y-126541950D01*
X98505025Y-126428811D01*
X98505021Y-126428809D01*
X98500275Y-126424882D01*
X98441956Y-126393349D01*
X98370726Y-126354835D01*
X98320317Y-126304840D01*
X98304940Y-126235529D01*
X98329476Y-126168907D01*
X98386136Y-126126126D01*
X98430655Y-126117999D01*
X98804669Y-126117999D01*
X98811490Y-126117629D01*
X98862352Y-126112105D01*
X98877604Y-126108479D01*
X98998054Y-126063324D01*
X99013649Y-126054786D01*
X99115724Y-125978285D01*
X99128285Y-125965724D01*
X99204786Y-125863649D01*
X99213324Y-125848054D01*
X99258478Y-125727606D01*
X99262105Y-125712351D01*
X99267631Y-125661486D01*
X99268000Y-125654672D01*
X99268000Y-125032115D01*
X99263525Y-125016876D01*
X99262135Y-125015671D01*
X99254452Y-125014000D01*
X96570116Y-125014000D01*
X96554877Y-125018475D01*
X96553672Y-125019865D01*
X96552001Y-125027548D01*
X96552001Y-125654669D01*
X92000000Y-125654669D01*
X92000000Y-124487885D01*
X96552000Y-124487885D01*
X96556475Y-124503124D01*
X96557865Y-124504329D01*
X96565548Y-124506000D01*
X97637885Y-124506000D01*
X97653124Y-124501525D01*
X97654329Y-124500135D01*
X97656000Y-124492452D01*
X97656000Y-124487885D01*
X98164000Y-124487885D01*
X98168475Y-124503124D01*
X98169865Y-124504329D01*
X98177548Y-124506000D01*
X99249884Y-124506000D01*
X99265123Y-124501525D01*
X99266328Y-124500135D01*
X99267999Y-124492452D01*
X99267999Y-123865331D01*
X99267629Y-123858510D01*
X99262105Y-123807648D01*
X99258479Y-123792396D01*
X99213324Y-123671946D01*
X99204786Y-123656351D01*
X99128285Y-123554276D01*
X99115724Y-123541715D01*
X99060064Y-123500000D01*
X103794318Y-123500000D01*
X103814956Y-123656762D01*
X103875464Y-123802841D01*
X103971718Y-123928282D01*
X104097159Y-124024536D01*
X104243238Y-124085044D01*
X104400000Y-124105682D01*
X104408188Y-124104604D01*
X104548574Y-124086122D01*
X104556762Y-124085044D01*
X104702841Y-124024536D01*
X104828282Y-123928282D01*
X104924536Y-123802841D01*
X104967134Y-123700000D01*
X106162318Y-123700000D01*
X106182956Y-123856762D01*
X106243464Y-124002841D01*
X106339718Y-124128282D01*
X106465159Y-124224536D01*
X106611238Y-124285044D01*
X106768000Y-124305682D01*
X106776188Y-124304604D01*
X106916574Y-124286122D01*
X106924762Y-124285044D01*
X107070841Y-124224536D01*
X107196282Y-124128282D01*
X107248833Y-124059796D01*
X107306171Y-124017929D01*
X107348796Y-124010500D01*
X112437634Y-124010500D01*
X112440307Y-124010696D01*
X112445342Y-124012425D01*
X112456964Y-124011989D01*
X112456966Y-124011989D01*
X112494255Y-124010589D01*
X112498981Y-124010500D01*
X112517948Y-124010500D01*
X112522683Y-124009618D01*
X112526209Y-124009390D01*
X112529949Y-124009249D01*
X112557208Y-124008226D01*
X112567893Y-124003636D01*
X112572493Y-124002599D01*
X112584209Y-123999039D01*
X112588613Y-123997340D01*
X112600053Y-123995209D01*
X112602636Y-123993617D01*
X112658111Y-123987002D01*
X112800000Y-124005682D01*
X112808188Y-124004604D01*
X112821580Y-124002841D01*
X112885908Y-123994372D01*
X112948574Y-123986122D01*
X112956762Y-123985044D01*
X113102841Y-123924536D01*
X113228282Y-123828282D01*
X113324536Y-123702841D01*
X113385044Y-123556762D01*
X113405682Y-123400000D01*
X113385044Y-123243238D01*
X113324536Y-123097159D01*
X113228282Y-122971718D01*
X113102841Y-122875464D01*
X112956762Y-122814956D01*
X112800000Y-122794318D01*
X112643238Y-122814956D01*
X112497159Y-122875464D01*
X112371718Y-122971718D01*
X112275464Y-123097159D01*
X112214956Y-123243238D01*
X112213878Y-123251426D01*
X112207490Y-123299947D01*
X112178767Y-123364874D01*
X112119502Y-123403965D01*
X112082568Y-123409500D01*
X107364143Y-123409500D01*
X107296022Y-123389498D01*
X107264181Y-123360204D01*
X107201309Y-123278268D01*
X107201305Y-123278264D01*
X107196282Y-123271718D01*
X107070841Y-123175464D01*
X106924762Y-123114956D01*
X106768000Y-123094318D01*
X106611238Y-123114956D01*
X106465159Y-123175464D01*
X106339718Y-123271718D01*
X106243464Y-123397159D01*
X106182956Y-123543238D01*
X106162318Y-123700000D01*
X104967134Y-123700000D01*
X104985044Y-123656762D01*
X105005682Y-123500000D01*
X104985044Y-123343238D01*
X104924536Y-123197159D01*
X104828282Y-123071718D01*
X104749796Y-123011493D01*
X104707929Y-122954156D01*
X104700500Y-122911531D01*
X104700500Y-122476661D01*
X104720502Y-122408540D01*
X104737405Y-122387566D01*
X104977566Y-122147405D01*
X105039878Y-122113379D01*
X105066661Y-122110500D01*
X112119204Y-122110500D01*
X112187325Y-122130502D01*
X112219167Y-122159796D01*
X112263617Y-122217724D01*
X112271718Y-122228282D01*
X112397159Y-122324536D01*
X112543238Y-122385044D01*
X112551426Y-122386122D01*
X112621619Y-122395363D01*
X112700000Y-122405682D01*
X112708188Y-122404604D01*
X112848574Y-122386122D01*
X112856762Y-122385044D01*
X113002841Y-122324536D01*
X113128282Y-122228282D01*
X113224536Y-122102841D01*
X113285044Y-121956762D01*
X113305682Y-121800000D01*
X113285044Y-121643238D01*
X113224536Y-121497159D01*
X113128282Y-121371718D01*
X113002841Y-121275464D01*
X112856762Y-121214956D01*
X112700000Y-121194318D01*
X112543238Y-121214956D01*
X112397159Y-121275464D01*
X112271718Y-121371718D01*
X112266695Y-121378264D01*
X112266691Y-121378268D01*
X112203819Y-121460204D01*
X112146481Y-121502071D01*
X112103857Y-121509500D01*
X104942372Y-121509500D01*
X104939695Y-121509303D01*
X104934658Y-121507574D01*
X104923037Y-121508010D01*
X104923035Y-121508010D01*
X104885730Y-121509411D01*
X104881003Y-121509500D01*
X104862052Y-121509500D01*
X104857319Y-121510382D01*
X104853792Y-121510610D01*
X104834420Y-121511337D01*
X104834418Y-121511338D01*
X104822792Y-121511774D01*
X104812100Y-121516368D01*
X104807497Y-121517405D01*
X104795787Y-121520962D01*
X104791384Y-121522661D01*
X104779947Y-121524791D01*
X104770046Y-121530894D01*
X104770043Y-121530895D01*
X104758956Y-121537729D01*
X104742585Y-121546233D01*
X104728106Y-121552454D01*
X104728103Y-121552456D01*
X104719938Y-121555964D01*
X104715051Y-121559977D01*
X104712856Y-121562172D01*
X104710586Y-121564230D01*
X104710439Y-121564068D01*
X104701461Y-121571165D01*
X104694554Y-121577429D01*
X104684652Y-121583532D01*
X104668091Y-121605311D01*
X104656896Y-121618132D01*
X104224545Y-122050484D01*
X104222515Y-122052237D01*
X104217731Y-122054575D01*
X104209819Y-122063104D01*
X104209818Y-122063105D01*
X104184427Y-122090477D01*
X104181147Y-122093882D01*
X104167752Y-122107277D01*
X104165028Y-122111247D01*
X104162703Y-122113895D01*
X104149508Y-122128119D01*
X104149506Y-122128122D01*
X104141599Y-122136646D01*
X104137289Y-122147450D01*
X104134767Y-122151439D01*
X104129006Y-122162227D01*
X104127089Y-122166552D01*
X104120508Y-122176146D01*
X104117822Y-122187465D01*
X104117821Y-122187467D01*
X104114817Y-122200127D01*
X104109252Y-122217724D01*
X104105040Y-122228282D01*
X104100117Y-122240622D01*
X104099500Y-122246915D01*
X104099500Y-122249994D01*
X104099350Y-122253067D01*
X104099134Y-122253056D01*
X104097802Y-122264431D01*
X104097346Y-122273746D01*
X104094660Y-122285066D01*
X104096229Y-122296595D01*
X104096229Y-122296596D01*
X104098349Y-122312173D01*
X104099500Y-122329164D01*
X104099500Y-122911531D01*
X104079498Y-122979652D01*
X104050205Y-123011493D01*
X103971718Y-123071718D01*
X103875464Y-123197159D01*
X103814956Y-123343238D01*
X103794318Y-123500000D01*
X99060064Y-123500000D01*
X99013649Y-123465214D01*
X98998054Y-123456676D01*
X98877606Y-123411522D01*
X98862351Y-123407895D01*
X98811486Y-123402369D01*
X98804672Y-123402000D01*
X98182115Y-123402000D01*
X98166876Y-123406475D01*
X98165671Y-123407865D01*
X98164000Y-123415548D01*
X98164000Y-124487885D01*
X97656000Y-124487885D01*
X97656000Y-123420116D01*
X97651525Y-123404877D01*
X97650135Y-123403672D01*
X97642452Y-123402001D01*
X97015331Y-123402001D01*
X97008510Y-123402371D01*
X96957648Y-123407895D01*
X96942396Y-123411521D01*
X96821946Y-123456676D01*
X96806351Y-123465214D01*
X96704276Y-123541715D01*
X96691715Y-123554276D01*
X96615214Y-123656351D01*
X96606676Y-123671946D01*
X96561522Y-123792394D01*
X96557895Y-123807649D01*
X96552369Y-123858514D01*
X96552000Y-123865328D01*
X96552000Y-124487885D01*
X92000000Y-124487885D01*
X92000000Y-116310000D01*
X113411818Y-116310000D01*
X113432456Y-116466762D01*
X113492964Y-116612841D01*
X113589218Y-116738282D01*
X113595764Y-116743305D01*
X113625418Y-116766059D01*
X113714659Y-116834536D01*
X113860738Y-116895044D01*
X113868926Y-116896122D01*
X113939119Y-116905363D01*
X114017500Y-116915682D01*
X114115584Y-116902769D01*
X114185732Y-116913708D01*
X114221125Y-116938596D01*
X114688904Y-117406375D01*
X114722930Y-117468687D01*
X114724731Y-117511916D01*
X114711818Y-117610000D01*
X114732456Y-117766762D01*
X114792964Y-117912841D01*
X114889218Y-118038282D01*
X115014659Y-118134536D01*
X115160738Y-118195044D01*
X115317500Y-118215682D01*
X115325688Y-118214604D01*
X115466074Y-118196122D01*
X115474262Y-118195044D01*
X115620341Y-118134536D01*
X115745782Y-118038282D01*
X115842036Y-117912841D01*
X115902544Y-117766762D01*
X115923182Y-117610000D01*
X115902544Y-117453238D01*
X115842036Y-117307159D01*
X115745782Y-117181718D01*
X115620341Y-117085464D01*
X115474262Y-117024956D01*
X115415585Y-117017231D01*
X115325688Y-117005396D01*
X115317500Y-117004318D01*
X115219416Y-117017231D01*
X115149268Y-117006292D01*
X115113875Y-116981404D01*
X114646096Y-116513625D01*
X114612070Y-116451313D01*
X114610269Y-116408084D01*
X114622104Y-116318188D01*
X114623182Y-116310000D01*
X114602544Y-116153238D01*
X114542036Y-116007159D01*
X114445782Y-115881718D01*
X114320341Y-115785464D01*
X114174262Y-115724956D01*
X114017500Y-115704318D01*
X113860738Y-115724956D01*
X113714659Y-115785464D01*
X113589218Y-115881718D01*
X113492964Y-116007159D01*
X113432456Y-116153238D01*
X113411818Y-116310000D01*
X92000000Y-116310000D01*
X92000000Y-111507966D01*
X96313257Y-111507966D01*
X96343565Y-111642446D01*
X96346645Y-111652275D01*
X96426770Y-111849603D01*
X96431413Y-111858794D01*
X96542694Y-112040388D01*
X96548777Y-112048699D01*
X96688213Y-112209667D01*
X96695580Y-112216883D01*
X96859434Y-112352916D01*
X96867881Y-112358831D01*
X97051756Y-112466279D01*
X97061042Y-112470729D01*
X97260001Y-112546703D01*
X97269899Y-112549579D01*
X97373250Y-112570606D01*
X97387299Y-112569410D01*
X97391000Y-112559065D01*
X97391000Y-111512115D01*
X97386525Y-111496876D01*
X97385135Y-111495671D01*
X97377452Y-111494000D01*
X96328225Y-111494000D01*
X96314694Y-111497973D01*
X96313257Y-111507966D01*
X92000000Y-111507966D01*
X92000000Y-110974183D01*
X96309389Y-110974183D01*
X96310912Y-110982607D01*
X96323292Y-110986000D01*
X97773000Y-110986000D01*
X97841121Y-111006002D01*
X97887614Y-111059658D01*
X97899000Y-111112000D01*
X97899000Y-112558517D01*
X97903064Y-112572359D01*
X97916478Y-112574393D01*
X97923184Y-112573534D01*
X97933262Y-112571392D01*
X98137255Y-112510191D01*
X98146842Y-112506433D01*
X98338095Y-112412739D01*
X98346945Y-112407464D01*
X98520328Y-112283792D01*
X98528200Y-112277139D01*
X98679052Y-112126812D01*
X98685730Y-112118965D01*
X98810003Y-111946020D01*
X98815313Y-111937183D01*
X98909670Y-111746267D01*
X98913469Y-111736672D01*
X98954593Y-111601319D01*
X98993534Y-111541955D01*
X99058388Y-111513068D01*
X99128564Y-111523830D01*
X99181782Y-111570823D01*
X99196270Y-111603217D01*
X99203544Y-111628586D01*
X99206359Y-111634063D01*
X99206360Y-111634066D01*
X99265691Y-111749512D01*
X99297712Y-111811818D01*
X99425677Y-111973270D01*
X99430370Y-111977264D01*
X99430371Y-111977265D01*
X99504541Y-112040388D01*
X99582564Y-112106791D01*
X99587942Y-112109797D01*
X99587944Y-112109798D01*
X99606998Y-112120447D01*
X99762398Y-112207297D01*
X99857238Y-112238113D01*
X99952471Y-112269056D01*
X99952475Y-112269057D01*
X99958329Y-112270959D01*
X100162894Y-112295351D01*
X100169029Y-112294879D01*
X100169031Y-112294879D01*
X100225039Y-112290569D01*
X100368300Y-112279546D01*
X100374230Y-112277890D01*
X100374232Y-112277890D01*
X100560797Y-112225800D01*
X100560796Y-112225800D01*
X100566725Y-112224145D01*
X100572214Y-112221372D01*
X100572220Y-112221370D01*
X100745116Y-112134033D01*
X100750610Y-112131258D01*
X100766345Y-112118965D01*
X100908101Y-112008213D01*
X100912951Y-112004424D01*
X100970992Y-111937183D01*
X101043540Y-111853134D01*
X101043540Y-111853133D01*
X101047564Y-111848472D01*
X101068387Y-111811818D01*
X101103781Y-111749512D01*
X101149323Y-111669344D01*
X101214351Y-111473863D01*
X101240171Y-111269474D01*
X101240583Y-111240000D01*
X101239138Y-111225262D01*
X101669520Y-111225262D01*
X101686759Y-111430553D01*
X101688458Y-111436478D01*
X101710147Y-111512115D01*
X101743544Y-111628586D01*
X101746359Y-111634063D01*
X101746360Y-111634066D01*
X101805691Y-111749512D01*
X101837712Y-111811818D01*
X101965677Y-111973270D01*
X101970370Y-111977264D01*
X101970371Y-111977265D01*
X102044541Y-112040388D01*
X102122564Y-112106791D01*
X102127942Y-112109797D01*
X102127944Y-112109798D01*
X102146998Y-112120447D01*
X102302398Y-112207297D01*
X102397238Y-112238113D01*
X102492471Y-112269056D01*
X102492475Y-112269057D01*
X102498329Y-112270959D01*
X102702894Y-112295351D01*
X102709029Y-112294879D01*
X102709031Y-112294879D01*
X102765039Y-112290569D01*
X102908300Y-112279546D01*
X102914230Y-112277890D01*
X102914232Y-112277890D01*
X103100797Y-112225800D01*
X103100796Y-112225800D01*
X103106725Y-112224145D01*
X103112214Y-112221372D01*
X103112220Y-112221370D01*
X103285116Y-112134033D01*
X103290610Y-112131258D01*
X103306345Y-112118965D01*
X103448101Y-112008213D01*
X103452951Y-112004424D01*
X103510992Y-111937183D01*
X103583540Y-111853134D01*
X103583540Y-111853133D01*
X103587564Y-111848472D01*
X103608387Y-111811818D01*
X103643781Y-111749512D01*
X103689323Y-111669344D01*
X103712079Y-111600938D01*
X117443880Y-111600938D01*
X117464518Y-111757700D01*
X117525026Y-111903779D01*
X117621280Y-112029220D01*
X117746721Y-112125474D01*
X117892800Y-112185982D01*
X118049562Y-112206620D01*
X118057750Y-112205542D01*
X118198136Y-112187060D01*
X118206324Y-112185982D01*
X118352403Y-112125474D01*
X118477844Y-112029220D01*
X118574098Y-111903779D01*
X118634606Y-111757700D01*
X118655244Y-111600938D01*
X118642331Y-111502854D01*
X118653270Y-111432706D01*
X118678158Y-111397313D01*
X119047313Y-111028158D01*
X119109625Y-110994132D01*
X119152854Y-110992331D01*
X119250938Y-111005244D01*
X119259126Y-111004166D01*
X119318617Y-110996334D01*
X119335342Y-110994132D01*
X119399512Y-110985684D01*
X119407700Y-110984606D01*
X119553779Y-110924098D01*
X119643020Y-110855621D01*
X119672674Y-110832867D01*
X119679220Y-110827844D01*
X119775474Y-110702403D01*
X119835982Y-110556324D01*
X119856620Y-110399562D01*
X119845900Y-110318137D01*
X119837060Y-110250988D01*
X119835982Y-110242800D01*
X119775474Y-110096721D01*
X119679220Y-109971280D01*
X119553779Y-109875026D01*
X119407700Y-109814518D01*
X119250938Y-109793880D01*
X119094176Y-109814518D01*
X118948097Y-109875026D01*
X118822656Y-109971280D01*
X118726402Y-110096721D01*
X118665894Y-110242800D01*
X118664816Y-110250988D01*
X118655976Y-110318137D01*
X118645256Y-110399562D01*
X118646334Y-110407750D01*
X118658169Y-110497646D01*
X118647230Y-110567794D01*
X118622342Y-110603187D01*
X118253187Y-110972342D01*
X118190875Y-111006368D01*
X118147646Y-111008169D01*
X118125429Y-111005244D01*
X118049562Y-110995256D01*
X117973695Y-111005244D01*
X117951478Y-111008169D01*
X117892800Y-111015894D01*
X117746721Y-111076402D01*
X117621280Y-111172656D01*
X117525026Y-111298097D01*
X117464518Y-111444176D01*
X117443880Y-111600938D01*
X103712079Y-111600938D01*
X103754351Y-111473863D01*
X103780171Y-111269474D01*
X103780583Y-111240000D01*
X103760480Y-111034970D01*
X103700935Y-110837749D01*
X103604218Y-110655849D01*
X103516369Y-110548136D01*
X103477906Y-110500975D01*
X103477903Y-110500972D01*
X103474011Y-110496200D01*
X103456786Y-110481950D01*
X103320025Y-110368811D01*
X103320021Y-110368809D01*
X103315275Y-110364882D01*
X103134055Y-110266897D01*
X102937254Y-110205977D01*
X102931129Y-110205333D01*
X102931128Y-110205333D01*
X102738498Y-110185087D01*
X102738496Y-110185087D01*
X102732369Y-110184443D01*
X102645529Y-110192346D01*
X102533342Y-110202555D01*
X102533339Y-110202556D01*
X102527203Y-110203114D01*
X102329572Y-110261280D01*
X102147002Y-110356726D01*
X102142201Y-110360586D01*
X102142198Y-110360588D01*
X101991254Y-110481950D01*
X101986447Y-110485815D01*
X101854024Y-110643630D01*
X101851056Y-110649028D01*
X101851053Y-110649033D01*
X101787420Y-110764783D01*
X101754776Y-110824162D01*
X101692484Y-111020532D01*
X101691798Y-111026649D01*
X101691797Y-111026653D01*
X101686217Y-111076402D01*
X101669520Y-111225262D01*
X101239138Y-111225262D01*
X101220480Y-111034970D01*
X101160935Y-110837749D01*
X101064218Y-110655849D01*
X100976369Y-110548136D01*
X100937906Y-110500975D01*
X100937903Y-110500972D01*
X100934011Y-110496200D01*
X100916786Y-110481950D01*
X100780025Y-110368811D01*
X100780021Y-110368809D01*
X100775275Y-110364882D01*
X100594055Y-110266897D01*
X100397254Y-110205977D01*
X100391129Y-110205333D01*
X100391128Y-110205333D01*
X100198498Y-110185087D01*
X100198496Y-110185087D01*
X100192369Y-110184443D01*
X100105529Y-110192346D01*
X99993342Y-110202555D01*
X99993339Y-110202556D01*
X99987203Y-110203114D01*
X99789572Y-110261280D01*
X99607002Y-110356726D01*
X99602201Y-110360586D01*
X99602198Y-110360588D01*
X99451254Y-110481950D01*
X99446447Y-110485815D01*
X99314024Y-110643630D01*
X99311056Y-110649028D01*
X99311053Y-110649033D01*
X99247420Y-110764783D01*
X99214776Y-110824162D01*
X99212914Y-110830032D01*
X99196068Y-110883138D01*
X99156405Y-110942022D01*
X99091202Y-110970114D01*
X99021163Y-110958497D01*
X98968523Y-110910857D01*
X98953762Y-110875735D01*
X98936214Y-110805875D01*
X98932894Y-110796124D01*
X98847972Y-110600814D01*
X98843105Y-110591739D01*
X98727426Y-110412926D01*
X98721136Y-110404757D01*
X98577806Y-110247240D01*
X98570273Y-110240215D01*
X98403139Y-110108222D01*
X98394552Y-110102517D01*
X98208117Y-109999599D01*
X98198705Y-109995369D01*
X98007031Y-109927493D01*
X97949495Y-109885899D01*
X97923579Y-109819801D01*
X97937513Y-109750185D01*
X97986872Y-109699154D01*
X98015206Y-109687362D01*
X98020790Y-109685803D01*
X98020799Y-109685800D01*
X98026725Y-109684145D01*
X98032214Y-109681372D01*
X98032220Y-109681370D01*
X98205116Y-109594033D01*
X98210610Y-109591258D01*
X98253334Y-109557879D01*
X98312842Y-109511386D01*
X98372951Y-109464424D01*
X98445552Y-109380315D01*
X98503540Y-109313134D01*
X98503540Y-109313133D01*
X98507564Y-109308472D01*
X98528387Y-109271818D01*
X98590111Y-109163163D01*
X98609323Y-109129344D01*
X98674351Y-108933863D01*
X98700171Y-108729474D01*
X98700583Y-108700000D01*
X98699138Y-108685262D01*
X99129520Y-108685262D01*
X99130036Y-108691406D01*
X99142035Y-108834293D01*
X99146759Y-108890553D01*
X99148458Y-108896478D01*
X99161249Y-108941084D01*
X99203544Y-109088586D01*
X99206359Y-109094063D01*
X99206360Y-109094066D01*
X99253899Y-109186567D01*
X99297712Y-109271818D01*
X99425677Y-109433270D01*
X99430370Y-109437264D01*
X99430371Y-109437265D01*
X99504085Y-109500000D01*
X99582564Y-109566791D01*
X99762398Y-109667297D01*
X99846280Y-109694552D01*
X99952471Y-109729056D01*
X99952475Y-109729057D01*
X99958329Y-109730959D01*
X100162894Y-109755351D01*
X100169029Y-109754879D01*
X100169031Y-109754879D01*
X100225939Y-109750500D01*
X100368300Y-109739546D01*
X100374230Y-109737890D01*
X100374232Y-109737890D01*
X100504770Y-109701443D01*
X100566725Y-109684145D01*
X100572214Y-109681372D01*
X100572220Y-109681370D01*
X100745116Y-109594033D01*
X100750610Y-109591258D01*
X100778142Y-109569748D01*
X101674500Y-109569748D01*
X101675707Y-109575816D01*
X101679331Y-109594033D01*
X101686133Y-109628231D01*
X101730448Y-109694552D01*
X101796769Y-109738867D01*
X101808938Y-109741288D01*
X101808939Y-109741288D01*
X101849184Y-109749293D01*
X101855252Y-109750500D01*
X103594748Y-109750500D01*
X103600816Y-109749293D01*
X103641061Y-109741288D01*
X103641062Y-109741288D01*
X103653231Y-109738867D01*
X103719552Y-109694552D01*
X103763867Y-109628231D01*
X103770670Y-109594033D01*
X103774293Y-109575816D01*
X103775500Y-109569748D01*
X103775500Y-108791742D01*
X126017500Y-108791742D01*
X126017928Y-108804823D01*
X126019006Y-108821269D01*
X126020289Y-108834293D01*
X126020423Y-108835314D01*
X126020424Y-108835319D01*
X126033398Y-108933863D01*
X126034083Y-108939068D01*
X126039186Y-108964725D01*
X126039713Y-108966690D01*
X126039716Y-108966705D01*
X126043946Y-108982489D01*
X126047699Y-108996497D01*
X126048362Y-108998450D01*
X126055440Y-109019303D01*
X126055446Y-109019320D01*
X126056109Y-109021272D01*
X126056900Y-109023181D01*
X126056902Y-109023187D01*
X126083991Y-109088586D01*
X126093363Y-109111211D01*
X126094265Y-109113039D01*
X126094269Y-109113049D01*
X126102305Y-109129344D01*
X126104935Y-109134677D01*
X126121382Y-109163163D01*
X126135915Y-109184912D01*
X126195178Y-109262145D01*
X126196534Y-109263692D01*
X126196538Y-109263696D01*
X126211058Y-109280252D01*
X126212428Y-109281814D01*
X126235686Y-109305072D01*
X126237246Y-109306440D01*
X126237248Y-109306442D01*
X126244879Y-109313134D01*
X126255355Y-109322322D01*
X126332588Y-109381585D01*
X126354337Y-109396118D01*
X126382823Y-109412565D01*
X126384669Y-109413475D01*
X126384674Y-109413478D01*
X126404451Y-109423231D01*
X126404461Y-109423235D01*
X126406289Y-109424137D01*
X126408176Y-109424918D01*
X126408179Y-109424920D01*
X126494313Y-109460598D01*
X126494319Y-109460600D01*
X126496228Y-109461391D01*
X126498180Y-109462054D01*
X126498197Y-109462060D01*
X126516325Y-109468213D01*
X126521003Y-109469801D01*
X126535011Y-109473554D01*
X126550795Y-109477784D01*
X126550810Y-109477787D01*
X126552775Y-109478314D01*
X126578432Y-109483417D01*
X126580455Y-109483683D01*
X126580465Y-109483685D01*
X126682181Y-109497076D01*
X126682186Y-109497077D01*
X126683207Y-109497211D01*
X126696231Y-109498494D01*
X126708882Y-109499323D01*
X126711669Y-109499506D01*
X126711673Y-109499506D01*
X126712677Y-109499572D01*
X126719217Y-109499786D01*
X126724766Y-109499968D01*
X126724793Y-109499968D01*
X126725758Y-109500000D01*
X126848500Y-109500000D01*
X126916621Y-109520002D01*
X126963114Y-109573658D01*
X126974500Y-109626000D01*
X126974500Y-110172790D01*
X126974020Y-110183772D01*
X126972134Y-110205333D01*
X126970736Y-110221307D01*
X126980491Y-110257710D01*
X126982870Y-110268442D01*
X126989412Y-110305545D01*
X126994923Y-110315090D01*
X126996115Y-110318366D01*
X126997592Y-110321534D01*
X127000446Y-110332184D01*
X127017631Y-110356726D01*
X127022055Y-110363044D01*
X127027961Y-110372315D01*
X127036282Y-110386727D01*
X127046806Y-110404955D01*
X127075682Y-110429185D01*
X127083785Y-110436611D01*
X128437595Y-111790422D01*
X128471621Y-111852734D01*
X128474500Y-111879517D01*
X128474500Y-114284000D01*
X128454498Y-114352121D01*
X128400842Y-114398614D01*
X128348500Y-114410000D01*
X127575758Y-114410000D01*
X127574793Y-114410032D01*
X127574766Y-114410032D01*
X127569217Y-114410214D01*
X127562677Y-114410428D01*
X127561673Y-114410494D01*
X127561669Y-114410494D01*
X127558882Y-114410677D01*
X127546231Y-114411506D01*
X127533207Y-114412789D01*
X127532186Y-114412923D01*
X127532181Y-114412924D01*
X127430465Y-114426315D01*
X127430455Y-114426317D01*
X127428432Y-114426583D01*
X127402775Y-114431686D01*
X127400810Y-114432213D01*
X127400795Y-114432216D01*
X127385011Y-114436446D01*
X127371003Y-114440199D01*
X127369049Y-114440862D01*
X127369050Y-114440862D01*
X127348197Y-114447940D01*
X127348180Y-114447946D01*
X127346228Y-114448609D01*
X127344319Y-114449400D01*
X127344313Y-114449402D01*
X127258179Y-114485080D01*
X127256289Y-114485863D01*
X127254461Y-114486765D01*
X127254451Y-114486769D01*
X127251440Y-114488254D01*
X127232823Y-114497435D01*
X127204337Y-114513882D01*
X127182588Y-114528415D01*
X127105355Y-114587678D01*
X127085686Y-114604928D01*
X127062428Y-114628186D01*
X127045178Y-114647855D01*
X126985915Y-114725088D01*
X126971382Y-114746837D01*
X126954935Y-114775323D01*
X126943363Y-114798789D01*
X126906109Y-114888728D01*
X126905446Y-114890680D01*
X126905440Y-114890697D01*
X126898838Y-114910147D01*
X126897699Y-114913503D01*
X126897167Y-114915490D01*
X126889716Y-114943295D01*
X126889713Y-114943310D01*
X126889186Y-114945275D01*
X126884083Y-114970932D01*
X126870289Y-115075707D01*
X126869006Y-115088731D01*
X126867928Y-115105177D01*
X126867500Y-115118258D01*
X126867500Y-116151742D01*
X126867928Y-116164823D01*
X126869006Y-116181269D01*
X126870289Y-116194293D01*
X126884083Y-116299068D01*
X126889186Y-116324725D01*
X126889713Y-116326690D01*
X126889716Y-116326705D01*
X126893946Y-116342489D01*
X126897699Y-116356497D01*
X126898362Y-116358450D01*
X126905440Y-116379303D01*
X126905446Y-116379320D01*
X126906109Y-116381272D01*
X126906900Y-116383181D01*
X126906902Y-116383187D01*
X126941520Y-116466762D01*
X126943363Y-116471211D01*
X126954935Y-116494677D01*
X126971382Y-116523163D01*
X126985915Y-116544912D01*
X127045178Y-116622145D01*
X127062428Y-116641814D01*
X127085686Y-116665072D01*
X127105355Y-116682322D01*
X127182588Y-116741585D01*
X127204337Y-116756118D01*
X127232823Y-116772565D01*
X127234669Y-116773475D01*
X127234674Y-116773478D01*
X127254451Y-116783231D01*
X127254461Y-116783235D01*
X127256289Y-116784137D01*
X127258176Y-116784918D01*
X127258179Y-116784920D01*
X127344313Y-116820598D01*
X127344319Y-116820600D01*
X127346228Y-116821391D01*
X127348180Y-116822054D01*
X127348197Y-116822060D01*
X127367647Y-116828662D01*
X127371003Y-116829801D01*
X127385011Y-116833554D01*
X127400795Y-116837784D01*
X127400810Y-116837787D01*
X127402775Y-116838314D01*
X127428432Y-116843417D01*
X127430455Y-116843683D01*
X127430465Y-116843685D01*
X127532181Y-116857076D01*
X127532186Y-116857077D01*
X127533207Y-116857211D01*
X127546231Y-116858494D01*
X127558882Y-116859323D01*
X127561669Y-116859506D01*
X127561673Y-116859506D01*
X127562677Y-116859572D01*
X127569217Y-116859786D01*
X127574766Y-116859968D01*
X127574793Y-116859968D01*
X127575758Y-116860000D01*
X128759242Y-116860000D01*
X128760207Y-116859968D01*
X128760234Y-116859968D01*
X128765783Y-116859786D01*
X128772323Y-116859572D01*
X128773327Y-116859506D01*
X128773331Y-116859506D01*
X128776118Y-116859323D01*
X128788769Y-116858494D01*
X128801793Y-116857211D01*
X128802814Y-116857077D01*
X128802819Y-116857076D01*
X128904535Y-116843685D01*
X128904545Y-116843683D01*
X128906568Y-116843417D01*
X128932225Y-116838314D01*
X128934190Y-116837787D01*
X128934205Y-116837784D01*
X128949989Y-116833554D01*
X128963997Y-116829801D01*
X128967353Y-116828662D01*
X128986803Y-116822060D01*
X128986820Y-116822054D01*
X128988772Y-116821391D01*
X128990681Y-116820600D01*
X128990687Y-116820598D01*
X129076821Y-116784920D01*
X129076824Y-116784918D01*
X129078711Y-116784137D01*
X129080539Y-116783235D01*
X129080549Y-116783231D01*
X129100326Y-116773478D01*
X129100331Y-116773475D01*
X129102177Y-116772565D01*
X129130663Y-116756118D01*
X129152412Y-116741585D01*
X129229645Y-116682322D01*
X129249314Y-116665072D01*
X129272572Y-116641814D01*
X129289822Y-116622145D01*
X129349085Y-116544912D01*
X129363618Y-116523163D01*
X129380065Y-116494677D01*
X129391637Y-116471211D01*
X129393480Y-116466762D01*
X129428098Y-116383187D01*
X129428100Y-116383181D01*
X129428891Y-116381272D01*
X129429554Y-116379320D01*
X129429560Y-116379303D01*
X129436638Y-116358450D01*
X129437301Y-116356497D01*
X129441054Y-116342489D01*
X129445284Y-116326705D01*
X129445287Y-116326690D01*
X129445814Y-116324725D01*
X129450917Y-116299068D01*
X129464711Y-116194293D01*
X129465994Y-116181269D01*
X129467072Y-116164823D01*
X129467500Y-116151742D01*
X129467500Y-115118258D01*
X129467072Y-115105177D01*
X129465994Y-115088731D01*
X129464711Y-115075707D01*
X129450917Y-114970932D01*
X129445814Y-114945275D01*
X129445287Y-114943310D01*
X129445284Y-114943295D01*
X129437833Y-114915490D01*
X129437301Y-114913503D01*
X129436162Y-114910147D01*
X129429560Y-114890697D01*
X129429554Y-114890680D01*
X129428891Y-114888728D01*
X129391637Y-114798789D01*
X129380065Y-114775323D01*
X129363618Y-114746837D01*
X129349085Y-114725088D01*
X129289822Y-114647855D01*
X129272572Y-114628186D01*
X129249314Y-114604928D01*
X129229645Y-114587678D01*
X129174794Y-114545589D01*
X129132929Y-114488254D01*
X129125500Y-114445629D01*
X129125500Y-111712210D01*
X129125980Y-111701228D01*
X129128303Y-111674675D01*
X129128303Y-111674670D01*
X129129263Y-111663693D01*
X129119508Y-111627283D01*
X129117133Y-111616572D01*
X129112501Y-111590306D01*
X129110588Y-111579455D01*
X129105078Y-111569911D01*
X129103886Y-111566635D01*
X129102407Y-111563464D01*
X129099554Y-111552816D01*
X129077940Y-111521948D01*
X129072036Y-111512679D01*
X129058707Y-111489592D01*
X129058704Y-111489588D01*
X129053194Y-111480045D01*
X129024324Y-111455820D01*
X129016221Y-111448394D01*
X128342297Y-110774470D01*
X127662405Y-110094579D01*
X127628380Y-110032267D01*
X127625500Y-110005484D01*
X127625500Y-109626000D01*
X127645502Y-109557879D01*
X127699158Y-109511386D01*
X127751500Y-109500000D01*
X127909242Y-109500000D01*
X127910207Y-109499968D01*
X127910234Y-109499968D01*
X127915783Y-109499786D01*
X127922323Y-109499572D01*
X127923327Y-109499506D01*
X127923331Y-109499506D01*
X127926118Y-109499323D01*
X127938769Y-109498494D01*
X127951793Y-109497211D01*
X127952814Y-109497077D01*
X127952819Y-109497076D01*
X128054535Y-109483685D01*
X128054545Y-109483683D01*
X128056568Y-109483417D01*
X128082225Y-109478314D01*
X128084190Y-109477787D01*
X128084205Y-109477784D01*
X128099989Y-109473554D01*
X128113997Y-109469801D01*
X128118675Y-109468213D01*
X128136803Y-109462060D01*
X128136820Y-109462054D01*
X128138772Y-109461391D01*
X128140681Y-109460600D01*
X128140687Y-109460598D01*
X128226821Y-109424920D01*
X128226824Y-109424918D01*
X128228711Y-109424137D01*
X128230539Y-109423235D01*
X128230549Y-109423231D01*
X128250326Y-109413478D01*
X128250331Y-109413475D01*
X128252177Y-109412565D01*
X128280663Y-109396118D01*
X128302412Y-109381585D01*
X128379645Y-109322322D01*
X128390122Y-109313134D01*
X128397752Y-109306442D01*
X128397754Y-109306440D01*
X128399314Y-109305072D01*
X128422572Y-109281814D01*
X128423942Y-109280252D01*
X128438462Y-109263696D01*
X128438466Y-109263692D01*
X128439822Y-109262145D01*
X128499085Y-109184912D01*
X128513618Y-109163163D01*
X128530065Y-109134677D01*
X128532695Y-109129344D01*
X128540731Y-109113049D01*
X128540735Y-109113039D01*
X128541637Y-109111211D01*
X128551009Y-109088586D01*
X128578098Y-109023187D01*
X128578100Y-109023181D01*
X128578891Y-109021272D01*
X128579554Y-109019320D01*
X128579560Y-109019303D01*
X128586638Y-108998450D01*
X128587301Y-108996497D01*
X128591054Y-108982489D01*
X128595284Y-108966705D01*
X128595287Y-108966690D01*
X128595814Y-108964725D01*
X128600917Y-108939068D01*
X128601603Y-108933863D01*
X128614576Y-108835319D01*
X128614577Y-108835314D01*
X128614711Y-108834293D01*
X128615994Y-108821269D01*
X128617072Y-108804823D01*
X128617500Y-108791742D01*
X128617500Y-107758258D01*
X128617072Y-107745177D01*
X128615994Y-107728731D01*
X128614711Y-107715707D01*
X128607787Y-107663114D01*
X128601185Y-107612965D01*
X128601183Y-107612955D01*
X128600917Y-107610932D01*
X128595814Y-107585275D01*
X128595287Y-107583310D01*
X128595284Y-107583295D01*
X128587833Y-107555490D01*
X128587301Y-107553503D01*
X128586162Y-107550147D01*
X128579560Y-107530697D01*
X128579554Y-107530680D01*
X128578891Y-107528728D01*
X128541637Y-107438789D01*
X128530065Y-107415323D01*
X128513618Y-107386837D01*
X128499085Y-107365088D01*
X128439822Y-107287855D01*
X128422572Y-107268186D01*
X128399314Y-107244928D01*
X128379645Y-107227678D01*
X128302412Y-107168415D01*
X128280663Y-107153882D01*
X128252177Y-107137435D01*
X128250326Y-107136522D01*
X128230549Y-107126769D01*
X128230539Y-107126765D01*
X128228711Y-107125863D01*
X128226821Y-107125080D01*
X128140687Y-107089402D01*
X128140681Y-107089400D01*
X128138772Y-107088609D01*
X128136820Y-107087946D01*
X128136803Y-107087940D01*
X128115950Y-107080862D01*
X128115951Y-107080862D01*
X128113997Y-107080199D01*
X128099989Y-107076446D01*
X128084205Y-107072216D01*
X128084190Y-107072213D01*
X128082225Y-107071686D01*
X128056568Y-107066583D01*
X128054545Y-107066317D01*
X128054535Y-107066315D01*
X127952819Y-107052924D01*
X127952814Y-107052923D01*
X127951793Y-107052789D01*
X127938769Y-107051506D01*
X127926118Y-107050677D01*
X127923331Y-107050494D01*
X127923327Y-107050494D01*
X127922323Y-107050428D01*
X127915783Y-107050214D01*
X127910234Y-107050032D01*
X127910207Y-107050032D01*
X127909242Y-107050000D01*
X126725758Y-107050000D01*
X126724793Y-107050032D01*
X126724766Y-107050032D01*
X126719217Y-107050214D01*
X126712677Y-107050428D01*
X126711673Y-107050494D01*
X126711669Y-107050494D01*
X126708882Y-107050677D01*
X126696231Y-107051506D01*
X126683207Y-107052789D01*
X126682186Y-107052923D01*
X126682181Y-107052924D01*
X126580465Y-107066315D01*
X126580455Y-107066317D01*
X126578432Y-107066583D01*
X126552775Y-107071686D01*
X126550810Y-107072213D01*
X126550795Y-107072216D01*
X126535011Y-107076446D01*
X126521003Y-107080199D01*
X126519049Y-107080862D01*
X126519050Y-107080862D01*
X126498197Y-107087940D01*
X126498180Y-107087946D01*
X126496228Y-107088609D01*
X126494319Y-107089400D01*
X126494313Y-107089402D01*
X126408179Y-107125080D01*
X126406289Y-107125863D01*
X126404461Y-107126765D01*
X126404451Y-107126769D01*
X126384674Y-107136522D01*
X126382823Y-107137435D01*
X126354337Y-107153882D01*
X126332588Y-107168415D01*
X126255355Y-107227678D01*
X126235686Y-107244928D01*
X126212428Y-107268186D01*
X126195178Y-107287855D01*
X126135915Y-107365088D01*
X126121382Y-107386837D01*
X126104935Y-107415323D01*
X126093363Y-107438789D01*
X126056109Y-107528728D01*
X126055446Y-107530680D01*
X126055440Y-107530697D01*
X126048838Y-107550147D01*
X126047699Y-107553503D01*
X126047167Y-107555490D01*
X126039716Y-107583295D01*
X126039713Y-107583310D01*
X126039186Y-107585275D01*
X126034083Y-107610932D01*
X126033817Y-107612955D01*
X126033815Y-107612965D01*
X126027213Y-107663114D01*
X126020289Y-107715707D01*
X126019006Y-107728731D01*
X126017928Y-107745177D01*
X126017500Y-107758258D01*
X126017500Y-108791742D01*
X103775500Y-108791742D01*
X103775500Y-107830252D01*
X103763867Y-107771769D01*
X103719552Y-107705448D01*
X103653231Y-107661133D01*
X103641062Y-107658712D01*
X103641061Y-107658712D01*
X103600816Y-107650707D01*
X103594748Y-107649500D01*
X101855252Y-107649500D01*
X101849184Y-107650707D01*
X101808939Y-107658712D01*
X101808938Y-107658712D01*
X101796769Y-107661133D01*
X101730448Y-107705448D01*
X101686133Y-107771769D01*
X101674500Y-107830252D01*
X101674500Y-109569748D01*
X100778142Y-109569748D01*
X100793334Y-109557879D01*
X100852842Y-109511386D01*
X100912951Y-109464424D01*
X100985552Y-109380315D01*
X101043540Y-109313134D01*
X101043540Y-109313133D01*
X101047564Y-109308472D01*
X101068387Y-109271818D01*
X101130111Y-109163163D01*
X101149323Y-109129344D01*
X101214351Y-108933863D01*
X101240171Y-108729474D01*
X101240583Y-108700000D01*
X101220480Y-108494970D01*
X101160935Y-108297749D01*
X101064218Y-108115849D01*
X100990859Y-108025902D01*
X100937906Y-107960975D01*
X100937903Y-107960972D01*
X100934011Y-107956200D01*
X100916786Y-107941950D01*
X100780025Y-107828811D01*
X100780021Y-107828809D01*
X100775275Y-107824882D01*
X100594055Y-107726897D01*
X100397254Y-107665977D01*
X100391129Y-107665333D01*
X100391128Y-107665333D01*
X100198498Y-107645087D01*
X100198496Y-107645087D01*
X100192369Y-107644443D01*
X100105529Y-107652346D01*
X99993342Y-107662555D01*
X99993339Y-107662556D01*
X99987203Y-107663114D01*
X99789572Y-107721280D01*
X99784107Y-107724137D01*
X99773223Y-107729827D01*
X99607002Y-107816726D01*
X99602201Y-107820586D01*
X99602198Y-107820588D01*
X99451254Y-107941950D01*
X99446447Y-107945815D01*
X99314024Y-108103630D01*
X99311056Y-108109028D01*
X99311053Y-108109033D01*
X99304315Y-108121290D01*
X99214776Y-108284162D01*
X99152484Y-108480532D01*
X99151798Y-108486649D01*
X99151797Y-108486653D01*
X99130207Y-108679137D01*
X99129520Y-108685262D01*
X98699138Y-108685262D01*
X98680480Y-108494970D01*
X98620935Y-108297749D01*
X98524218Y-108115849D01*
X98450859Y-108025902D01*
X98397906Y-107960975D01*
X98397903Y-107960972D01*
X98394011Y-107956200D01*
X98376786Y-107941950D01*
X98240025Y-107828811D01*
X98240021Y-107828809D01*
X98235275Y-107824882D01*
X98054055Y-107726897D01*
X97857254Y-107665977D01*
X97851129Y-107665333D01*
X97851128Y-107665333D01*
X97658498Y-107645087D01*
X97658496Y-107645087D01*
X97652369Y-107644443D01*
X97565529Y-107652346D01*
X97453342Y-107662555D01*
X97453339Y-107662556D01*
X97447203Y-107663114D01*
X97249572Y-107721280D01*
X97244107Y-107724137D01*
X97233223Y-107729827D01*
X97067002Y-107816726D01*
X97062201Y-107820586D01*
X97062198Y-107820588D01*
X96911254Y-107941950D01*
X96906447Y-107945815D01*
X96774024Y-108103630D01*
X96771056Y-108109028D01*
X96771053Y-108109033D01*
X96764315Y-108121290D01*
X96674776Y-108284162D01*
X96612484Y-108480532D01*
X96611798Y-108486649D01*
X96611797Y-108486653D01*
X96590207Y-108679137D01*
X96589520Y-108685262D01*
X96590036Y-108691406D01*
X96602035Y-108834293D01*
X96606759Y-108890553D01*
X96608458Y-108896478D01*
X96621249Y-108941084D01*
X96663544Y-109088586D01*
X96666359Y-109094063D01*
X96666360Y-109094066D01*
X96713899Y-109186567D01*
X96757712Y-109271818D01*
X96885677Y-109433270D01*
X96890370Y-109437264D01*
X96890371Y-109437265D01*
X96964085Y-109500000D01*
X97042564Y-109566791D01*
X97222398Y-109667297D01*
X97287437Y-109688429D01*
X97346042Y-109728502D01*
X97373680Y-109793898D01*
X97361574Y-109863855D01*
X97313568Y-109916162D01*
X97287646Y-109928027D01*
X97121868Y-109982212D01*
X97112359Y-109986209D01*
X96923463Y-110084542D01*
X96914738Y-110090036D01*
X96744433Y-110217905D01*
X96736726Y-110224748D01*
X96589590Y-110378717D01*
X96583104Y-110386727D01*
X96463098Y-110562649D01*
X96458000Y-110571623D01*
X96368338Y-110764783D01*
X96364775Y-110774470D01*
X96309389Y-110974183D01*
X92000000Y-110974183D01*
X92000000Y-103291742D01*
X118900000Y-103291742D01*
X118900428Y-103304823D01*
X118901506Y-103321269D01*
X118902789Y-103334293D01*
X118916583Y-103439068D01*
X118921686Y-103464725D01*
X118922213Y-103466690D01*
X118922216Y-103466705D01*
X118926446Y-103482489D01*
X118930199Y-103496497D01*
X118930862Y-103498450D01*
X118937940Y-103519303D01*
X118937946Y-103519320D01*
X118938609Y-103521272D01*
X118975863Y-103611211D01*
X118987435Y-103634677D01*
X119003882Y-103663163D01*
X119018415Y-103684912D01*
X119077678Y-103762145D01*
X119094928Y-103781814D01*
X119118186Y-103805072D01*
X119137855Y-103822322D01*
X119215088Y-103881585D01*
X119236837Y-103896118D01*
X119265323Y-103912565D01*
X119267169Y-103913475D01*
X119267174Y-103913478D01*
X119286951Y-103923231D01*
X119286961Y-103923235D01*
X119288789Y-103924137D01*
X119290676Y-103924918D01*
X119290679Y-103924920D01*
X119376813Y-103960598D01*
X119376819Y-103960600D01*
X119378728Y-103961391D01*
X119380680Y-103962054D01*
X119380697Y-103962060D01*
X119400147Y-103968662D01*
X119403503Y-103969801D01*
X119417511Y-103973554D01*
X119433295Y-103977784D01*
X119433310Y-103977787D01*
X119435275Y-103978314D01*
X119460932Y-103983417D01*
X119462955Y-103983683D01*
X119462965Y-103983685D01*
X119564681Y-103997076D01*
X119564686Y-103997077D01*
X119565707Y-103997211D01*
X119578731Y-103998494D01*
X119591382Y-103999323D01*
X119594169Y-103999506D01*
X119594173Y-103999506D01*
X119595177Y-103999572D01*
X119601717Y-103999786D01*
X119607266Y-103999968D01*
X119607293Y-103999968D01*
X119608258Y-104000000D01*
X120791742Y-104000000D01*
X120792707Y-103999968D01*
X120792734Y-103999968D01*
X120798283Y-103999786D01*
X120804823Y-103999572D01*
X120805827Y-103999506D01*
X120805831Y-103999506D01*
X120808618Y-103999323D01*
X120821269Y-103998494D01*
X120834293Y-103997211D01*
X120835314Y-103997077D01*
X120835319Y-103997076D01*
X120937035Y-103983685D01*
X120937045Y-103983683D01*
X120939068Y-103983417D01*
X120964725Y-103978314D01*
X120966690Y-103977787D01*
X120966705Y-103977784D01*
X120982489Y-103973554D01*
X120996497Y-103969801D01*
X120999853Y-103968662D01*
X121019303Y-103962060D01*
X121019320Y-103962054D01*
X121021272Y-103961391D01*
X121023181Y-103960600D01*
X121023187Y-103960598D01*
X121109321Y-103924920D01*
X121109324Y-103924918D01*
X121111211Y-103924137D01*
X121113039Y-103923235D01*
X121113049Y-103923231D01*
X121132826Y-103913478D01*
X121132831Y-103913475D01*
X121134677Y-103912565D01*
X121163163Y-103896118D01*
X121184912Y-103881585D01*
X121262145Y-103822322D01*
X121281814Y-103805072D01*
X121305072Y-103781814D01*
X121322322Y-103762145D01*
X121381585Y-103684912D01*
X121396118Y-103663163D01*
X121412565Y-103634677D01*
X121424137Y-103611211D01*
X121461391Y-103521272D01*
X121462054Y-103519320D01*
X121462060Y-103519303D01*
X121469138Y-103498450D01*
X121469801Y-103496497D01*
X121473554Y-103482489D01*
X121477784Y-103466705D01*
X121477787Y-103466690D01*
X121478314Y-103464725D01*
X121483417Y-103439068D01*
X121497211Y-103334293D01*
X121498494Y-103321269D01*
X121499572Y-103304823D01*
X121500000Y-103291742D01*
X121500000Y-102697063D01*
X121520002Y-102628942D01*
X121573658Y-102582449D01*
X121593387Y-102575357D01*
X121603438Y-102572664D01*
X121615212Y-102569509D01*
X121625942Y-102567130D01*
X121629301Y-102566538D01*
X121663045Y-102560588D01*
X121672590Y-102555077D01*
X121675866Y-102553885D01*
X121679034Y-102552408D01*
X121689684Y-102549554D01*
X121720544Y-102527945D01*
X121729815Y-102522039D01*
X121752906Y-102508707D01*
X121762455Y-102503194D01*
X121786685Y-102474317D01*
X121794111Y-102466215D01*
X124560235Y-99700091D01*
X124622547Y-99666065D01*
X124693362Y-99671130D01*
X124719329Y-99684419D01*
X124736837Y-99696118D01*
X124765323Y-99712565D01*
X124767169Y-99713475D01*
X124767174Y-99713478D01*
X124786951Y-99723231D01*
X124786961Y-99723235D01*
X124788789Y-99724137D01*
X124790676Y-99724918D01*
X124790679Y-99724920D01*
X124876813Y-99760598D01*
X124876819Y-99760600D01*
X124878728Y-99761391D01*
X124880680Y-99762054D01*
X124880697Y-99762060D01*
X124900147Y-99768662D01*
X124903503Y-99769801D01*
X124917511Y-99773554D01*
X124933295Y-99777784D01*
X124933310Y-99777787D01*
X124935275Y-99778314D01*
X124960932Y-99783417D01*
X124962955Y-99783683D01*
X124962965Y-99783685D01*
X125064681Y-99797076D01*
X125064686Y-99797077D01*
X125065707Y-99797211D01*
X125078731Y-99798494D01*
X125091382Y-99799323D01*
X125094169Y-99799506D01*
X125094173Y-99799506D01*
X125095177Y-99799572D01*
X125101718Y-99799786D01*
X125107266Y-99799968D01*
X125107293Y-99799968D01*
X125108258Y-99800000D01*
X126291742Y-99800000D01*
X126292707Y-99799968D01*
X126292734Y-99799968D01*
X126298282Y-99799786D01*
X126304823Y-99799572D01*
X126305827Y-99799506D01*
X126305831Y-99799506D01*
X126308618Y-99799323D01*
X126321269Y-99798494D01*
X126334293Y-99797211D01*
X126335314Y-99797077D01*
X126335319Y-99797076D01*
X126437035Y-99783685D01*
X126437045Y-99783683D01*
X126439068Y-99783417D01*
X126464725Y-99778314D01*
X126466690Y-99777787D01*
X126466705Y-99777784D01*
X126482489Y-99773554D01*
X126496497Y-99769801D01*
X126499853Y-99768662D01*
X126519303Y-99762060D01*
X126519320Y-99762054D01*
X126521272Y-99761391D01*
X126523181Y-99760600D01*
X126523187Y-99760598D01*
X126609321Y-99724920D01*
X126609324Y-99724918D01*
X126611211Y-99724137D01*
X126613039Y-99723235D01*
X126613049Y-99723231D01*
X126632826Y-99713478D01*
X126632831Y-99713475D01*
X126634677Y-99712565D01*
X126663163Y-99696118D01*
X126684912Y-99681585D01*
X126762145Y-99622322D01*
X126781814Y-99605072D01*
X126805072Y-99581814D01*
X126822322Y-99562145D01*
X126881585Y-99484912D01*
X126896118Y-99463163D01*
X126912565Y-99434677D01*
X126924137Y-99411211D01*
X126961391Y-99321272D01*
X126962054Y-99319320D01*
X126962060Y-99319303D01*
X126969138Y-99298450D01*
X126969801Y-99296497D01*
X126976010Y-99273324D01*
X126977784Y-99266705D01*
X126977787Y-99266690D01*
X126978314Y-99264725D01*
X126983417Y-99239068D01*
X126991757Y-99175724D01*
X126997076Y-99135319D01*
X126997077Y-99135314D01*
X126997211Y-99134293D01*
X126998494Y-99121269D01*
X126999572Y-99104823D01*
X127000000Y-99091742D01*
X127000000Y-98058258D01*
X126999572Y-98045177D01*
X126998494Y-98028731D01*
X126997211Y-98015707D01*
X126995454Y-98002364D01*
X126983685Y-97912965D01*
X126983683Y-97912955D01*
X126983417Y-97910932D01*
X126978314Y-97885275D01*
X126977787Y-97883310D01*
X126977784Y-97883295D01*
X126970333Y-97855490D01*
X126969801Y-97853503D01*
X126966779Y-97844601D01*
X126962060Y-97830697D01*
X126962054Y-97830680D01*
X126961391Y-97828728D01*
X126946226Y-97792115D01*
X126924920Y-97740679D01*
X126924918Y-97740676D01*
X126924137Y-97738789D01*
X126912565Y-97715323D01*
X126896118Y-97686837D01*
X126881585Y-97665088D01*
X126822322Y-97587855D01*
X126805072Y-97568186D01*
X126781814Y-97544928D01*
X126762145Y-97527678D01*
X126684912Y-97468415D01*
X126663163Y-97453882D01*
X126634677Y-97437435D01*
X126632826Y-97436522D01*
X126613049Y-97426769D01*
X126613039Y-97426765D01*
X126611211Y-97425863D01*
X126544130Y-97398077D01*
X126523187Y-97389402D01*
X126523181Y-97389400D01*
X126521272Y-97388609D01*
X126519320Y-97387946D01*
X126519303Y-97387940D01*
X126513770Y-97386062D01*
X130628493Y-97386062D01*
X130637789Y-97398077D01*
X130688994Y-97433931D01*
X130698489Y-97439414D01*
X130895947Y-97531490D01*
X130906239Y-97535236D01*
X131116688Y-97591625D01*
X131127481Y-97593528D01*
X131344525Y-97612517D01*
X131355475Y-97612517D01*
X131572519Y-97593528D01*
X131583312Y-97591625D01*
X131793761Y-97535236D01*
X131804053Y-97531490D01*
X132001511Y-97439414D01*
X132011006Y-97433931D01*
X132063048Y-97397491D01*
X132071424Y-97387012D01*
X132064356Y-97373566D01*
X131362812Y-96672022D01*
X131348868Y-96664408D01*
X131347035Y-96664539D01*
X131340420Y-96668790D01*
X130634923Y-97374287D01*
X130628493Y-97386062D01*
X126513770Y-97386062D01*
X126498450Y-97380862D01*
X126498451Y-97380862D01*
X126496497Y-97380199D01*
X126482489Y-97376446D01*
X126466705Y-97372216D01*
X126466690Y-97372213D01*
X126464725Y-97371686D01*
X126439068Y-97366583D01*
X126437045Y-97366317D01*
X126437035Y-97366315D01*
X126335319Y-97352924D01*
X126335314Y-97352923D01*
X126334293Y-97352789D01*
X126321269Y-97351506D01*
X126308618Y-97350677D01*
X126305831Y-97350494D01*
X126305827Y-97350494D01*
X126304823Y-97350428D01*
X126298283Y-97350214D01*
X126292734Y-97350032D01*
X126292707Y-97350032D01*
X126291742Y-97350000D01*
X125108258Y-97350000D01*
X125107293Y-97350032D01*
X125107266Y-97350032D01*
X125101717Y-97350214D01*
X125095177Y-97350428D01*
X125094173Y-97350494D01*
X125094169Y-97350494D01*
X125091382Y-97350677D01*
X125078731Y-97351506D01*
X125065707Y-97352789D01*
X125064686Y-97352923D01*
X125064681Y-97352924D01*
X124962965Y-97366315D01*
X124962955Y-97366317D01*
X124960932Y-97366583D01*
X124935275Y-97371686D01*
X124933310Y-97372213D01*
X124933295Y-97372216D01*
X124917511Y-97376446D01*
X124903503Y-97380199D01*
X124901549Y-97380862D01*
X124901550Y-97380862D01*
X124880697Y-97387940D01*
X124880680Y-97387946D01*
X124878728Y-97388609D01*
X124876819Y-97389400D01*
X124876813Y-97389402D01*
X124855870Y-97398077D01*
X124788789Y-97425863D01*
X124786961Y-97426765D01*
X124786951Y-97426769D01*
X124767174Y-97436522D01*
X124765323Y-97437435D01*
X124736837Y-97453882D01*
X124715088Y-97468415D01*
X124637855Y-97527678D01*
X124618186Y-97544928D01*
X124594928Y-97568186D01*
X124577678Y-97587855D01*
X124518415Y-97665088D01*
X124503882Y-97686837D01*
X124487435Y-97715323D01*
X124475863Y-97738789D01*
X124475082Y-97740676D01*
X124475080Y-97740679D01*
X124453775Y-97792115D01*
X124438609Y-97828728D01*
X124437946Y-97830680D01*
X124437940Y-97830697D01*
X124433221Y-97844601D01*
X124430199Y-97853503D01*
X124429667Y-97855490D01*
X124422216Y-97883295D01*
X124422213Y-97883310D01*
X124421686Y-97885275D01*
X124416583Y-97910932D01*
X124416317Y-97912955D01*
X124416315Y-97912965D01*
X124404546Y-98002364D01*
X124402789Y-98015707D01*
X124401506Y-98028731D01*
X124400428Y-98045177D01*
X124400000Y-98058258D01*
X124400000Y-98887484D01*
X124379998Y-98955605D01*
X124363095Y-98976579D01*
X121523557Y-101816117D01*
X121461245Y-101850143D01*
X121390430Y-101845078D01*
X121334499Y-101803725D01*
X121323583Y-101789499D01*
X121322322Y-101787855D01*
X121305072Y-101768186D01*
X121281814Y-101744928D01*
X121262145Y-101727678D01*
X121184912Y-101668415D01*
X121163163Y-101653882D01*
X121134677Y-101637435D01*
X121132826Y-101636522D01*
X121113049Y-101626769D01*
X121113039Y-101626765D01*
X121111211Y-101625863D01*
X121109321Y-101625080D01*
X121023187Y-101589402D01*
X121023181Y-101589400D01*
X121021272Y-101588609D01*
X121019320Y-101587946D01*
X121019303Y-101587940D01*
X120998450Y-101580862D01*
X120998451Y-101580862D01*
X120996497Y-101580199D01*
X120982489Y-101576446D01*
X120966705Y-101572216D01*
X120966690Y-101572213D01*
X120964725Y-101571686D01*
X120939068Y-101566583D01*
X120937045Y-101566317D01*
X120937035Y-101566315D01*
X120835319Y-101552924D01*
X120835314Y-101552923D01*
X120834293Y-101552789D01*
X120821269Y-101551506D01*
X120808618Y-101550677D01*
X120805831Y-101550494D01*
X120805827Y-101550494D01*
X120804823Y-101550428D01*
X120798283Y-101550214D01*
X120792734Y-101550032D01*
X120792707Y-101550032D01*
X120791742Y-101550000D01*
X119608258Y-101550000D01*
X119607293Y-101550032D01*
X119607266Y-101550032D01*
X119601717Y-101550214D01*
X119595177Y-101550428D01*
X119594173Y-101550494D01*
X119594169Y-101550494D01*
X119591382Y-101550677D01*
X119578731Y-101551506D01*
X119565707Y-101552789D01*
X119564686Y-101552923D01*
X119564681Y-101552924D01*
X119462965Y-101566315D01*
X119462955Y-101566317D01*
X119460932Y-101566583D01*
X119435275Y-101571686D01*
X119433310Y-101572213D01*
X119433295Y-101572216D01*
X119417511Y-101576446D01*
X119403503Y-101580199D01*
X119401549Y-101580862D01*
X119401550Y-101580862D01*
X119380697Y-101587940D01*
X119380680Y-101587946D01*
X119378728Y-101588609D01*
X119376819Y-101589400D01*
X119376813Y-101589402D01*
X119290679Y-101625080D01*
X119288789Y-101625863D01*
X119286961Y-101626765D01*
X119286951Y-101626769D01*
X119267174Y-101636522D01*
X119265323Y-101637435D01*
X119236837Y-101653882D01*
X119215088Y-101668415D01*
X119137855Y-101727678D01*
X119118186Y-101744928D01*
X119094928Y-101768186D01*
X119077678Y-101787855D01*
X119018415Y-101865088D01*
X119003882Y-101886837D01*
X118987435Y-101915323D01*
X118986525Y-101917169D01*
X118986522Y-101917174D01*
X118983543Y-101923216D01*
X118975863Y-101938789D01*
X118938609Y-102028728D01*
X118937946Y-102030680D01*
X118937940Y-102030697D01*
X118931338Y-102050147D01*
X118930199Y-102053503D01*
X118929667Y-102055490D01*
X118922216Y-102083295D01*
X118922213Y-102083310D01*
X118921686Y-102085275D01*
X118916583Y-102110932D01*
X118902789Y-102215707D01*
X118901506Y-102228731D01*
X118900428Y-102245177D01*
X118900000Y-102258258D01*
X118900000Y-103291742D01*
X92000000Y-103291742D01*
X92000000Y-98864669D01*
X103929501Y-98864669D01*
X103929871Y-98871490D01*
X103935395Y-98922352D01*
X103939021Y-98937604D01*
X103984176Y-99058054D01*
X103992714Y-99073649D01*
X104069215Y-99175724D01*
X104081776Y-99188285D01*
X104183851Y-99264786D01*
X104199446Y-99273324D01*
X104319894Y-99318478D01*
X104335149Y-99322105D01*
X104386014Y-99327631D01*
X104392828Y-99328000D01*
X105465385Y-99328000D01*
X105480624Y-99323525D01*
X105481829Y-99322135D01*
X105483500Y-99314452D01*
X105483500Y-99309884D01*
X105991500Y-99309884D01*
X105995975Y-99325123D01*
X105997365Y-99326328D01*
X106005048Y-99327999D01*
X107082169Y-99327999D01*
X107088990Y-99327629D01*
X107139852Y-99322105D01*
X107155104Y-99318479D01*
X107275554Y-99273324D01*
X107291149Y-99264786D01*
X107393224Y-99188285D01*
X107405785Y-99175724D01*
X107482286Y-99073649D01*
X107490824Y-99058054D01*
X107535978Y-98937606D01*
X107539605Y-98922351D01*
X107545131Y-98871486D01*
X107545500Y-98864672D01*
X107545500Y-97792115D01*
X107541025Y-97776876D01*
X107539635Y-97775671D01*
X107531952Y-97774000D01*
X106009615Y-97774000D01*
X105994376Y-97778475D01*
X105993171Y-97779865D01*
X105991500Y-97787548D01*
X105991500Y-99309884D01*
X105483500Y-99309884D01*
X105483500Y-97792115D01*
X105479025Y-97776876D01*
X105477635Y-97775671D01*
X105469952Y-97774000D01*
X103947616Y-97774000D01*
X103932377Y-97778475D01*
X103931172Y-97779865D01*
X103929501Y-97787548D01*
X103929501Y-98864669D01*
X92000000Y-98864669D01*
X92000000Y-98386062D01*
X93478493Y-98386062D01*
X93487789Y-98398077D01*
X93538994Y-98433931D01*
X93548489Y-98439414D01*
X93745947Y-98531490D01*
X93756239Y-98535236D01*
X93966688Y-98591625D01*
X93977481Y-98593528D01*
X94194525Y-98612517D01*
X94205475Y-98612517D01*
X94422519Y-98593528D01*
X94433312Y-98591625D01*
X94643761Y-98535236D01*
X94654053Y-98531490D01*
X94851511Y-98439414D01*
X94861006Y-98433931D01*
X94913048Y-98397491D01*
X94921424Y-98387012D01*
X94914356Y-98373566D01*
X94212812Y-97672022D01*
X94198868Y-97664408D01*
X94197035Y-97664539D01*
X94190420Y-97668790D01*
X93484923Y-98374287D01*
X93478493Y-98386062D01*
X92000000Y-98386062D01*
X92000000Y-97305475D01*
X92887483Y-97305475D01*
X92906472Y-97522519D01*
X92908375Y-97533312D01*
X92964764Y-97743761D01*
X92968510Y-97754053D01*
X93060586Y-97951511D01*
X93066069Y-97961006D01*
X93102509Y-98013048D01*
X93112988Y-98021424D01*
X93126434Y-98014356D01*
X93827978Y-97312812D01*
X93834356Y-97301132D01*
X94564408Y-97301132D01*
X94564539Y-97302965D01*
X94568790Y-97309580D01*
X95274287Y-98015077D01*
X95286062Y-98021507D01*
X95298077Y-98012211D01*
X95333931Y-97961006D01*
X95339414Y-97951511D01*
X95431490Y-97754053D01*
X95435236Y-97743761D01*
X95487267Y-97549577D01*
X95524219Y-97488954D01*
X95588079Y-97457933D01*
X95658574Y-97466361D01*
X95713321Y-97511564D01*
X95730093Y-97547457D01*
X95765258Y-97670091D01*
X95768076Y-97675574D01*
X95852123Y-97839113D01*
X95852126Y-97839117D01*
X95854944Y-97844601D01*
X95976818Y-97998369D01*
X95981511Y-98002363D01*
X95981512Y-98002364D01*
X96047188Y-98058258D01*
X96126238Y-98125535D01*
X96131616Y-98128541D01*
X96131618Y-98128542D01*
X96167932Y-98148837D01*
X96297513Y-98221257D01*
X96484118Y-98281889D01*
X96678946Y-98305121D01*
X96685081Y-98304649D01*
X96685083Y-98304649D01*
X96868434Y-98290541D01*
X96868438Y-98290540D01*
X96874576Y-98290068D01*
X97063556Y-98237303D01*
X97238689Y-98148837D01*
X97268515Y-98125535D01*
X97353340Y-98059262D01*
X97393303Y-98028040D01*
X97403949Y-98015707D01*
X97517485Y-97884173D01*
X97517485Y-97884172D01*
X97521509Y-97879511D01*
X97618425Y-97708909D01*
X97680358Y-97522732D01*
X97704949Y-97328071D01*
X97705265Y-97305475D01*
X97705292Y-97303523D01*
X97705292Y-97303519D01*
X97705341Y-97300000D01*
X97700231Y-97247885D01*
X103929500Y-97247885D01*
X103933975Y-97263124D01*
X103935365Y-97264329D01*
X103943048Y-97266000D01*
X105465385Y-97266000D01*
X105480624Y-97261525D01*
X105481829Y-97260135D01*
X105483500Y-97252452D01*
X105483500Y-97247885D01*
X105991500Y-97247885D01*
X105995975Y-97263124D01*
X105997365Y-97264329D01*
X106005048Y-97266000D01*
X107527384Y-97266000D01*
X107542623Y-97261525D01*
X107543828Y-97260135D01*
X107545499Y-97252452D01*
X107545499Y-96305475D01*
X130037483Y-96305475D01*
X130056472Y-96522519D01*
X130058375Y-96533312D01*
X130114764Y-96743761D01*
X130118510Y-96754053D01*
X130210586Y-96951511D01*
X130216069Y-96961006D01*
X130252509Y-97013048D01*
X130262988Y-97021424D01*
X130276434Y-97014356D01*
X130977978Y-96312812D01*
X130984356Y-96301132D01*
X131714408Y-96301132D01*
X131714539Y-96302965D01*
X131718790Y-96309580D01*
X132424287Y-97015077D01*
X132436062Y-97021507D01*
X132448077Y-97012211D01*
X132483931Y-96961006D01*
X132489414Y-96951511D01*
X132581490Y-96754053D01*
X132585236Y-96743761D01*
X132637267Y-96549577D01*
X132674219Y-96488954D01*
X132738079Y-96457933D01*
X132808574Y-96466361D01*
X132863321Y-96511564D01*
X132880093Y-96547457D01*
X132915258Y-96670091D01*
X132918076Y-96675574D01*
X133002123Y-96839113D01*
X133002126Y-96839117D01*
X133004944Y-96844601D01*
X133126818Y-96998369D01*
X133131511Y-97002363D01*
X133131512Y-97002364D01*
X133244853Y-97098824D01*
X133276238Y-97125535D01*
X133281616Y-97128541D01*
X133281618Y-97128542D01*
X133317932Y-97148837D01*
X133447513Y-97221257D01*
X133634118Y-97281889D01*
X133828946Y-97305121D01*
X133835081Y-97304649D01*
X133835083Y-97304649D01*
X134018434Y-97290541D01*
X134018438Y-97290540D01*
X134024576Y-97290068D01*
X134213556Y-97237303D01*
X134388689Y-97148837D01*
X134418515Y-97125535D01*
X134480021Y-97077481D01*
X134543303Y-97028040D01*
X134554493Y-97015077D01*
X134667485Y-96884173D01*
X134667485Y-96884172D01*
X134671509Y-96879511D01*
X134684730Y-96856239D01*
X134748626Y-96743761D01*
X134768425Y-96708909D01*
X134830358Y-96522732D01*
X134854949Y-96328071D01*
X134855341Y-96300000D01*
X134836194Y-96104728D01*
X134834413Y-96098829D01*
X134834412Y-96098824D01*
X134781265Y-95922793D01*
X134779484Y-95916894D01*
X134687370Y-95743653D01*
X134563361Y-95591602D01*
X134412180Y-95466535D01*
X134239585Y-95373213D01*
X134145869Y-95344203D01*
X134058039Y-95317015D01*
X134058036Y-95317014D01*
X134052152Y-95315193D01*
X134046027Y-95314549D01*
X134046026Y-95314549D01*
X133863147Y-95295327D01*
X133863146Y-95295327D01*
X133857019Y-95294683D01*
X133734383Y-95305844D01*
X133667759Y-95311907D01*
X133667758Y-95311907D01*
X133661618Y-95312466D01*
X133655704Y-95314207D01*
X133655702Y-95314207D01*
X133526734Y-95352165D01*
X133473393Y-95367864D01*
X133467928Y-95370721D01*
X133304972Y-95455912D01*
X133304968Y-95455915D01*
X133299512Y-95458767D01*
X133294712Y-95462627D01*
X133294711Y-95462627D01*
X133260326Y-95490273D01*
X133146600Y-95581711D01*
X133020480Y-95732016D01*
X133017516Y-95737408D01*
X133017513Y-95737412D01*
X132957846Y-95845947D01*
X132925956Y-95903954D01*
X132924095Y-95909821D01*
X132924094Y-95909823D01*
X132878470Y-96053648D01*
X132838806Y-96112532D01*
X132773604Y-96140624D01*
X132703565Y-96129006D01*
X132650925Y-96081367D01*
X132636661Y-96048160D01*
X132585236Y-95856239D01*
X132581490Y-95845947D01*
X132489414Y-95648489D01*
X132483931Y-95638994D01*
X132447491Y-95586952D01*
X132437012Y-95578576D01*
X132423566Y-95585644D01*
X131722022Y-96287188D01*
X131714408Y-96301132D01*
X130984356Y-96301132D01*
X130985592Y-96298868D01*
X130985461Y-96297035D01*
X130981210Y-96290420D01*
X130275713Y-95584923D01*
X130263938Y-95578493D01*
X130251923Y-95587789D01*
X130216069Y-95638994D01*
X130210586Y-95648489D01*
X130118510Y-95845947D01*
X130114764Y-95856239D01*
X130058375Y-96066688D01*
X130056472Y-96077481D01*
X130037483Y-96294525D01*
X130037483Y-96305475D01*
X107545499Y-96305475D01*
X107545499Y-96175331D01*
X107545129Y-96168510D01*
X107539605Y-96117648D01*
X107535979Y-96102396D01*
X107490824Y-95981946D01*
X107482286Y-95966351D01*
X107405785Y-95864276D01*
X107393224Y-95851715D01*
X107291149Y-95775214D01*
X107275554Y-95766676D01*
X107155106Y-95721522D01*
X107139851Y-95717895D01*
X107088986Y-95712369D01*
X107082172Y-95712000D01*
X106009615Y-95712000D01*
X105994376Y-95716475D01*
X105993171Y-95717865D01*
X105991500Y-95725548D01*
X105991500Y-97247885D01*
X105483500Y-97247885D01*
X105483500Y-95730116D01*
X105479025Y-95714877D01*
X105477635Y-95713672D01*
X105469952Y-95712001D01*
X104392831Y-95712001D01*
X104386010Y-95712371D01*
X104335148Y-95717895D01*
X104319896Y-95721521D01*
X104199446Y-95766676D01*
X104183851Y-95775214D01*
X104081776Y-95851715D01*
X104069215Y-95864276D01*
X103992714Y-95966351D01*
X103984176Y-95981946D01*
X103939022Y-96102394D01*
X103935395Y-96117649D01*
X103929869Y-96168514D01*
X103929500Y-96175328D01*
X103929500Y-97247885D01*
X97700231Y-97247885D01*
X97686194Y-97104728D01*
X97684413Y-97098829D01*
X97684412Y-97098824D01*
X97631265Y-96922793D01*
X97629484Y-96916894D01*
X97537370Y-96743653D01*
X97413361Y-96591602D01*
X97262180Y-96466535D01*
X97089585Y-96373213D01*
X96955074Y-96331575D01*
X96908039Y-96317015D01*
X96908036Y-96317014D01*
X96902152Y-96315193D01*
X96896027Y-96314549D01*
X96896026Y-96314549D01*
X96713147Y-96295327D01*
X96713146Y-96295327D01*
X96707019Y-96294683D01*
X96588436Y-96305475D01*
X96517759Y-96311907D01*
X96517758Y-96311907D01*
X96511618Y-96312466D01*
X96505704Y-96314207D01*
X96505702Y-96314207D01*
X96376734Y-96352165D01*
X96323393Y-96367864D01*
X96317928Y-96370721D01*
X96154972Y-96455912D01*
X96154968Y-96455915D01*
X96149512Y-96458767D01*
X96144712Y-96462627D01*
X96144711Y-96462627D01*
X96121259Y-96481483D01*
X95996600Y-96581711D01*
X95870480Y-96732016D01*
X95867516Y-96737408D01*
X95867513Y-96737412D01*
X95858365Y-96754053D01*
X95775956Y-96903954D01*
X95774095Y-96909821D01*
X95774094Y-96909823D01*
X95728470Y-97053648D01*
X95688806Y-97112532D01*
X95623604Y-97140624D01*
X95553565Y-97129006D01*
X95500925Y-97081367D01*
X95486661Y-97048160D01*
X95435236Y-96856239D01*
X95431490Y-96845947D01*
X95339414Y-96648489D01*
X95333931Y-96638994D01*
X95297491Y-96586952D01*
X95287012Y-96578576D01*
X95273566Y-96585644D01*
X94572022Y-97287188D01*
X94564408Y-97301132D01*
X93834356Y-97301132D01*
X93835592Y-97298868D01*
X93835461Y-97297035D01*
X93831210Y-97290420D01*
X93125713Y-96584923D01*
X93113938Y-96578493D01*
X93101923Y-96587789D01*
X93066069Y-96638994D01*
X93060586Y-96648489D01*
X92968510Y-96845947D01*
X92964764Y-96856239D01*
X92908375Y-97066688D01*
X92906472Y-97077481D01*
X92887483Y-97294525D01*
X92887483Y-97305475D01*
X92000000Y-97305475D01*
X92000000Y-96212988D01*
X93478576Y-96212988D01*
X93485644Y-96226434D01*
X94187188Y-96927978D01*
X94201132Y-96935592D01*
X94202965Y-96935461D01*
X94209580Y-96931210D01*
X94915077Y-96225713D01*
X94921507Y-96213938D01*
X94912211Y-96201923D01*
X94861006Y-96166069D01*
X94851511Y-96160586D01*
X94654053Y-96068510D01*
X94643761Y-96064764D01*
X94433312Y-96008375D01*
X94422519Y-96006472D01*
X94205475Y-95987483D01*
X94194525Y-95987483D01*
X93977481Y-96006472D01*
X93966688Y-96008375D01*
X93756239Y-96064764D01*
X93745947Y-96068510D01*
X93548489Y-96160586D01*
X93538994Y-96166069D01*
X93486952Y-96202509D01*
X93478576Y-96212988D01*
X92000000Y-96212988D01*
X92000000Y-95212988D01*
X130628576Y-95212988D01*
X130635644Y-95226434D01*
X131337188Y-95927978D01*
X131351132Y-95935592D01*
X131352965Y-95935461D01*
X131359580Y-95931210D01*
X132065077Y-95225713D01*
X132071507Y-95213938D01*
X132062211Y-95201923D01*
X132011006Y-95166069D01*
X132001511Y-95160586D01*
X131804053Y-95068510D01*
X131793761Y-95064764D01*
X131583312Y-95008375D01*
X131572519Y-95006472D01*
X131355475Y-94987483D01*
X131344525Y-94987483D01*
X131127481Y-95006472D01*
X131116688Y-95008375D01*
X130906239Y-95064764D01*
X130895947Y-95068510D01*
X130698489Y-95160586D01*
X130688994Y-95166069D01*
X130636952Y-95202509D01*
X130628576Y-95212988D01*
X92000000Y-95212988D01*
X92000000Y-93158777D01*
X93765777Y-93158777D01*
X93775074Y-93170793D01*
X93818069Y-93200898D01*
X93827555Y-93206376D01*
X94018993Y-93295645D01*
X94029285Y-93299391D01*
X94233309Y-93354059D01*
X94244104Y-93355962D01*
X94454525Y-93374372D01*
X94465475Y-93374372D01*
X94675896Y-93355962D01*
X94686691Y-93354059D01*
X94890715Y-93299391D01*
X94901007Y-93295645D01*
X95092445Y-93206376D01*
X95101931Y-93200898D01*
X95145764Y-93170207D01*
X95154139Y-93159729D01*
X95147071Y-93146281D01*
X94472812Y-92472022D01*
X94458868Y-92464408D01*
X94457035Y-92464539D01*
X94450420Y-92468790D01*
X93772207Y-93147003D01*
X93765777Y-93158777D01*
X92000000Y-93158777D01*
X92000000Y-92105475D01*
X93185628Y-92105475D01*
X93204038Y-92315896D01*
X93205941Y-92326691D01*
X93260609Y-92530715D01*
X93264355Y-92541007D01*
X93353623Y-92732441D01*
X93359103Y-92741932D01*
X93389794Y-92785765D01*
X93400271Y-92794140D01*
X93413718Y-92787072D01*
X94087978Y-92112812D01*
X94094356Y-92101132D01*
X94824408Y-92101132D01*
X94824539Y-92102965D01*
X94828790Y-92109580D01*
X95507003Y-92787793D01*
X95518777Y-92794223D01*
X95530793Y-92784926D01*
X95560897Y-92741932D01*
X95566377Y-92732441D01*
X95655645Y-92541007D01*
X95659391Y-92530715D01*
X95714059Y-92326691D01*
X95715962Y-92315896D01*
X95734372Y-92105475D01*
X95734372Y-92094525D01*
X95733670Y-92086496D01*
X96032937Y-92086496D01*
X96035147Y-92112812D01*
X96042405Y-92199240D01*
X96048732Y-92274590D01*
X96050431Y-92280515D01*
X96087093Y-92408370D01*
X96100760Y-92456034D01*
X96187040Y-92623917D01*
X96190865Y-92628743D01*
X96190867Y-92628746D01*
X96300456Y-92767014D01*
X96300460Y-92767019D01*
X96304285Y-92771844D01*
X96448030Y-92894180D01*
X96453408Y-92897186D01*
X96453410Y-92897187D01*
X96530415Y-92940224D01*
X96612800Y-92986267D01*
X96792317Y-93044595D01*
X96979745Y-93066945D01*
X96985880Y-93066473D01*
X96985882Y-93066473D01*
X97161803Y-93052937D01*
X97161807Y-93052936D01*
X97167945Y-93052464D01*
X97173877Y-93050808D01*
X97173881Y-93050807D01*
X97343804Y-93003363D01*
X97343808Y-93003362D01*
X97349748Y-93001703D01*
X97429297Y-92961520D01*
X97512728Y-92919377D01*
X97512730Y-92919376D01*
X97518229Y-92916598D01*
X97666970Y-92800388D01*
X97670996Y-92795724D01*
X97670999Y-92795721D01*
X97786278Y-92662169D01*
X97786279Y-92662167D01*
X97790307Y-92657501D01*
X97883542Y-92493378D01*
X97913536Y-92403214D01*
X104232306Y-92403214D01*
X104232603Y-92408366D01*
X104232603Y-92408370D01*
X104237505Y-92493378D01*
X104246510Y-92649545D01*
X104247647Y-92654591D01*
X104247648Y-92654597D01*
X104279096Y-92794140D01*
X104300755Y-92890249D01*
X104393584Y-93118861D01*
X104396289Y-93123276D01*
X104396290Y-93123277D01*
X104418045Y-93158777D01*
X104522506Y-93329241D01*
X104684057Y-93515741D01*
X104873899Y-93673351D01*
X105086933Y-93797838D01*
X105091753Y-93799678D01*
X105091758Y-93799681D01*
X105206047Y-93843323D01*
X105317439Y-93885859D01*
X105322507Y-93886890D01*
X105322510Y-93886891D01*
X105442087Y-93911219D01*
X105559226Y-93935052D01*
X105564399Y-93935242D01*
X105564402Y-93935242D01*
X105800636Y-93943904D01*
X105800640Y-93943904D01*
X105805800Y-93944093D01*
X105810920Y-93943437D01*
X105810922Y-93943437D01*
X105887203Y-93933665D01*
X106050541Y-93912741D01*
X106055490Y-93911256D01*
X106055496Y-93911255D01*
X106281924Y-93843323D01*
X106281923Y-93843323D01*
X106286874Y-93841838D01*
X106390766Y-93790942D01*
X106503803Y-93735566D01*
X106503808Y-93735563D01*
X106508454Y-93733287D01*
X106512664Y-93730284D01*
X106512669Y-93730281D01*
X106705117Y-93593009D01*
X106705122Y-93593005D01*
X106709329Y-93590004D01*
X106884105Y-93415837D01*
X106927130Y-93355962D01*
X107025070Y-93219663D01*
X107028088Y-93215463D01*
X107035287Y-93200898D01*
X107109466Y-93050807D01*
X107137411Y-92994264D01*
X107153484Y-92941360D01*
X107207635Y-92763132D01*
X107207636Y-92763126D01*
X107209139Y-92758180D01*
X107227536Y-92618438D01*
X107240908Y-92516872D01*
X107240909Y-92516866D01*
X107241345Y-92513550D01*
X107243143Y-92440000D01*
X107229039Y-92268448D01*
X107223349Y-92199240D01*
X107223348Y-92199234D01*
X107222925Y-92194089D01*
X107162816Y-91954783D01*
X107121071Y-91858777D01*
X130615777Y-91858777D01*
X130625074Y-91870793D01*
X130668069Y-91900898D01*
X130677555Y-91906376D01*
X130868993Y-91995645D01*
X130879285Y-91999391D01*
X131083309Y-92054059D01*
X131094104Y-92055962D01*
X131304525Y-92074372D01*
X131315475Y-92074372D01*
X131525896Y-92055962D01*
X131536691Y-92054059D01*
X131740715Y-91999391D01*
X131751007Y-91995645D01*
X131942445Y-91906376D01*
X131951931Y-91900898D01*
X131995764Y-91870207D01*
X132004139Y-91859729D01*
X131997071Y-91846281D01*
X131322812Y-91172022D01*
X131308868Y-91164408D01*
X131307035Y-91164539D01*
X131300420Y-91168790D01*
X130622207Y-91847003D01*
X130615777Y-91858777D01*
X107121071Y-91858777D01*
X107064428Y-91728507D01*
X106930405Y-91521339D01*
X106914794Y-91504182D01*
X106836836Y-91418508D01*
X106764346Y-91338842D01*
X106760295Y-91335643D01*
X106760291Y-91335639D01*
X106574764Y-91189119D01*
X106574759Y-91189116D01*
X106570710Y-91185918D01*
X106566194Y-91183425D01*
X106566191Y-91183423D01*
X106359222Y-91069170D01*
X106359218Y-91069168D01*
X106354698Y-91066673D01*
X106349829Y-91064949D01*
X106349825Y-91064947D01*
X106126985Y-90986035D01*
X106126981Y-90986034D01*
X106122110Y-90984309D01*
X106117017Y-90983402D01*
X106117014Y-90983401D01*
X105884283Y-90941945D01*
X105884277Y-90941944D01*
X105879194Y-90941039D01*
X105799824Y-90940069D01*
X105637642Y-90938088D01*
X105637640Y-90938088D01*
X105632472Y-90938025D01*
X105388570Y-90975347D01*
X105154040Y-91052003D01*
X105149448Y-91054393D01*
X105149449Y-91054393D01*
X104943674Y-91161513D01*
X104935179Y-91165935D01*
X104931046Y-91169038D01*
X104931043Y-91169040D01*
X104759030Y-91298191D01*
X104737864Y-91314083D01*
X104723852Y-91328746D01*
X104571864Y-91487793D01*
X104567396Y-91492468D01*
X104564482Y-91496740D01*
X104564481Y-91496741D01*
X104544738Y-91525683D01*
X104428351Y-91696300D01*
X104409299Y-91737345D01*
X104334300Y-91898917D01*
X104324465Y-91920104D01*
X104258526Y-92157871D01*
X104232306Y-92403214D01*
X97913536Y-92403214D01*
X97943123Y-92314272D01*
X97966780Y-92127005D01*
X97967157Y-92100000D01*
X97948738Y-91912145D01*
X97894181Y-91731445D01*
X97805566Y-91564783D01*
X97686266Y-91418508D01*
X97679521Y-91412928D01*
X97545577Y-91302120D01*
X97545574Y-91302118D01*
X97540827Y-91298191D01*
X97374788Y-91208414D01*
X97194474Y-91152597D01*
X97188356Y-91151954D01*
X97188351Y-91151953D01*
X97012881Y-91133511D01*
X97012879Y-91133511D01*
X97006752Y-91132867D01*
X96891126Y-91143390D01*
X96824914Y-91149415D01*
X96824913Y-91149415D01*
X96818773Y-91149974D01*
X96637697Y-91203268D01*
X96632232Y-91206125D01*
X96585196Y-91230715D01*
X96470420Y-91290718D01*
X96323316Y-91408993D01*
X96201986Y-91553588D01*
X96111052Y-91718996D01*
X96053978Y-91898917D01*
X96053292Y-91905036D01*
X96053291Y-91905039D01*
X96036362Y-92055962D01*
X96032937Y-92086496D01*
X95733670Y-92086496D01*
X95715962Y-91884104D01*
X95714059Y-91873309D01*
X95659391Y-91669285D01*
X95655645Y-91658993D01*
X95566377Y-91467559D01*
X95560897Y-91458068D01*
X95530206Y-91414235D01*
X95519729Y-91405860D01*
X95506282Y-91412928D01*
X94832022Y-92087188D01*
X94824408Y-92101132D01*
X94094356Y-92101132D01*
X94095592Y-92098868D01*
X94095461Y-92097035D01*
X94091210Y-92090420D01*
X93412997Y-91412207D01*
X93401223Y-91405777D01*
X93389207Y-91415074D01*
X93359103Y-91458068D01*
X93353623Y-91467559D01*
X93264355Y-91658993D01*
X93260609Y-91669285D01*
X93205941Y-91873309D01*
X93204038Y-91884104D01*
X93185628Y-92094525D01*
X93185628Y-92105475D01*
X92000000Y-92105475D01*
X92000000Y-91040271D01*
X93765860Y-91040271D01*
X93772928Y-91053718D01*
X94447188Y-91727978D01*
X94461132Y-91735592D01*
X94462965Y-91735461D01*
X94469580Y-91731210D01*
X95147793Y-91052997D01*
X95154223Y-91041223D01*
X95144926Y-91029207D01*
X95101931Y-90999102D01*
X95092445Y-90993624D01*
X94901007Y-90904355D01*
X94890715Y-90900609D01*
X94686691Y-90845941D01*
X94675896Y-90844038D01*
X94465475Y-90825628D01*
X94454525Y-90825628D01*
X94244104Y-90844038D01*
X94233309Y-90845941D01*
X94029285Y-90900609D01*
X94018993Y-90904355D01*
X93827559Y-90993623D01*
X93818068Y-90999103D01*
X93774235Y-91029794D01*
X93765860Y-91040271D01*
X92000000Y-91040271D01*
X92000000Y-90805475D01*
X130035628Y-90805475D01*
X130054038Y-91015896D01*
X130055941Y-91026691D01*
X130110609Y-91230715D01*
X130114355Y-91241007D01*
X130203623Y-91432441D01*
X130209103Y-91441932D01*
X130239794Y-91485765D01*
X130250271Y-91494140D01*
X130263718Y-91487072D01*
X130937978Y-90812812D01*
X130944356Y-90801132D01*
X131674408Y-90801132D01*
X131674539Y-90802965D01*
X131678790Y-90809580D01*
X132357003Y-91487793D01*
X132368777Y-91494223D01*
X132380793Y-91484926D01*
X132410897Y-91441932D01*
X132416377Y-91432441D01*
X132505645Y-91241007D01*
X132509391Y-91230715D01*
X132564059Y-91026691D01*
X132565962Y-91015896D01*
X132584372Y-90805475D01*
X132584372Y-90794525D01*
X132583670Y-90786496D01*
X132882937Y-90786496D01*
X132885147Y-90812812D01*
X132895991Y-90941945D01*
X132898732Y-90974590D01*
X132900431Y-90980515D01*
X132944302Y-91133511D01*
X132950760Y-91156034D01*
X133037040Y-91323917D01*
X133040865Y-91328743D01*
X133040867Y-91328746D01*
X133150456Y-91467014D01*
X133150460Y-91467019D01*
X133154285Y-91471844D01*
X133298030Y-91594180D01*
X133303408Y-91597186D01*
X133303410Y-91597187D01*
X133380415Y-91640223D01*
X133462800Y-91686267D01*
X133642317Y-91744595D01*
X133829745Y-91766945D01*
X133835880Y-91766473D01*
X133835882Y-91766473D01*
X134011803Y-91752937D01*
X134011807Y-91752936D01*
X134017945Y-91752464D01*
X134023877Y-91750808D01*
X134023881Y-91750807D01*
X134193804Y-91703363D01*
X134193808Y-91703362D01*
X134199748Y-91701703D01*
X134284300Y-91658993D01*
X134362728Y-91619377D01*
X134362730Y-91619376D01*
X134368229Y-91616598D01*
X134516970Y-91500388D01*
X134520996Y-91495724D01*
X134520999Y-91495721D01*
X134636278Y-91362169D01*
X134636279Y-91362167D01*
X134640307Y-91357501D01*
X134733542Y-91193378D01*
X134793123Y-91014272D01*
X134816780Y-90827005D01*
X134817157Y-90800000D01*
X134798738Y-90612145D01*
X134744181Y-90431445D01*
X134655566Y-90264783D01*
X134536266Y-90118508D01*
X134529521Y-90112928D01*
X134395577Y-90002120D01*
X134395574Y-90002118D01*
X134390827Y-89998191D01*
X134224788Y-89908414D01*
X134044474Y-89852597D01*
X134038356Y-89851954D01*
X134038351Y-89851953D01*
X133862881Y-89833511D01*
X133862879Y-89833511D01*
X133856752Y-89832867D01*
X133741126Y-89843390D01*
X133674914Y-89849415D01*
X133674913Y-89849415D01*
X133668773Y-89849974D01*
X133487697Y-89903268D01*
X133320420Y-89990718D01*
X133173316Y-90108993D01*
X133051986Y-90253588D01*
X132961052Y-90418996D01*
X132903978Y-90598917D01*
X132882937Y-90786496D01*
X132583670Y-90786496D01*
X132565962Y-90584104D01*
X132564059Y-90573309D01*
X132509391Y-90369285D01*
X132505645Y-90358993D01*
X132416377Y-90167559D01*
X132410897Y-90158068D01*
X132380206Y-90114235D01*
X132369729Y-90105860D01*
X132356282Y-90112928D01*
X131682022Y-90787188D01*
X131674408Y-90801132D01*
X130944356Y-90801132D01*
X130945592Y-90798868D01*
X130945461Y-90797035D01*
X130941210Y-90790420D01*
X130262997Y-90112207D01*
X130251223Y-90105777D01*
X130239207Y-90115074D01*
X130209103Y-90158068D01*
X130203623Y-90167559D01*
X130114355Y-90358993D01*
X130110609Y-90369285D01*
X130055941Y-90573309D01*
X130054038Y-90584104D01*
X130035628Y-90794525D01*
X130035628Y-90805475D01*
X92000000Y-90805475D01*
X92000000Y-89740271D01*
X130615860Y-89740271D01*
X130622928Y-89753718D01*
X131297188Y-90427978D01*
X131311132Y-90435592D01*
X131312965Y-90435461D01*
X131319580Y-90431210D01*
X131997793Y-89752997D01*
X132004223Y-89741223D01*
X131994926Y-89729207D01*
X131951931Y-89699102D01*
X131942445Y-89693624D01*
X131751007Y-89604355D01*
X131740715Y-89600609D01*
X131536691Y-89545941D01*
X131525896Y-89544038D01*
X131315475Y-89525628D01*
X131304525Y-89525628D01*
X131094104Y-89544038D01*
X131083309Y-89545941D01*
X130879285Y-89600609D01*
X130868993Y-89604355D01*
X130677559Y-89693623D01*
X130668068Y-89699103D01*
X130624235Y-89729794D01*
X130615860Y-89740271D01*
X92000000Y-89740271D01*
X92000000Y-87264013D01*
X93985542Y-87264013D01*
X93994838Y-87276028D01*
X94051446Y-87315665D01*
X94060941Y-87321148D01*
X94262364Y-87415072D01*
X94272656Y-87418818D01*
X94487328Y-87476339D01*
X94498123Y-87478242D01*
X94719525Y-87497613D01*
X94730475Y-87497613D01*
X94951877Y-87478242D01*
X94962672Y-87476339D01*
X95177344Y-87418818D01*
X95187636Y-87415072D01*
X95389059Y-87321148D01*
X95398554Y-87315665D01*
X95456000Y-87275441D01*
X95464375Y-87264964D01*
X95463875Y-87264013D01*
X120385542Y-87264013D01*
X120394838Y-87276028D01*
X120451446Y-87315665D01*
X120460941Y-87321148D01*
X120662364Y-87415072D01*
X120672656Y-87418818D01*
X120887328Y-87476339D01*
X120898123Y-87478242D01*
X121119525Y-87497613D01*
X121130475Y-87497613D01*
X121351877Y-87478242D01*
X121362672Y-87476339D01*
X121577344Y-87418818D01*
X121587636Y-87415072D01*
X121789059Y-87321148D01*
X121798554Y-87315665D01*
X121856000Y-87275441D01*
X121864375Y-87264964D01*
X121857307Y-87251517D01*
X121137812Y-86532022D01*
X121123868Y-86524408D01*
X121122035Y-86524539D01*
X121115420Y-86528790D01*
X120391972Y-87252238D01*
X120385542Y-87264013D01*
X95463875Y-87264013D01*
X95457307Y-87251517D01*
X94737812Y-86532022D01*
X94723868Y-86524408D01*
X94722035Y-86524539D01*
X94715420Y-86528790D01*
X93991972Y-87252238D01*
X93985542Y-87264013D01*
X92000000Y-87264013D01*
X92000000Y-86165475D01*
X93387387Y-86165475D01*
X93406758Y-86386877D01*
X93408661Y-86397672D01*
X93466182Y-86612344D01*
X93469928Y-86622636D01*
X93563852Y-86824059D01*
X93569335Y-86833554D01*
X93609559Y-86891000D01*
X93620036Y-86899375D01*
X93633483Y-86892307D01*
X94352978Y-86172812D01*
X94359356Y-86161132D01*
X95089408Y-86161132D01*
X95089539Y-86162965D01*
X95093790Y-86169580D01*
X95817238Y-86893028D01*
X95829013Y-86899458D01*
X95841028Y-86890162D01*
X95880665Y-86833554D01*
X95886148Y-86824059D01*
X95980072Y-86622636D01*
X95983818Y-86612344D01*
X96041339Y-86397672D01*
X96043242Y-86386877D01*
X96062613Y-86165475D01*
X96062613Y-86154525D01*
X96061833Y-86145613D01*
X103854638Y-86145613D01*
X103871467Y-86346018D01*
X103926901Y-86539338D01*
X104018828Y-86718210D01*
X104022651Y-86723034D01*
X104022654Y-86723038D01*
X104050888Y-86758660D01*
X104143748Y-86875819D01*
X104148442Y-86879814D01*
X104171524Y-86899458D01*
X104296901Y-87006163D01*
X104302279Y-87009169D01*
X104302281Y-87009170D01*
X104384678Y-87055220D01*
X104472456Y-87104277D01*
X104663723Y-87166424D01*
X104863420Y-87190236D01*
X104869555Y-87189764D01*
X104869557Y-87189764D01*
X105057796Y-87175280D01*
X105057800Y-87175279D01*
X105063938Y-87174807D01*
X105100782Y-87164520D01*
X105251696Y-87122384D01*
X105251700Y-87122383D01*
X105257640Y-87120724D01*
X105263144Y-87117944D01*
X105263146Y-87117943D01*
X105431646Y-87032828D01*
X105431648Y-87032827D01*
X105437149Y-87030048D01*
X105595627Y-86906232D01*
X105727037Y-86753992D01*
X105747364Y-86718210D01*
X105823329Y-86584488D01*
X105823331Y-86584484D01*
X105826374Y-86579127D01*
X105858114Y-86483712D01*
X105887909Y-86394145D01*
X105887910Y-86394142D01*
X105889854Y-86388297D01*
X105915060Y-86188772D01*
X105915386Y-86165475D01*
X119787387Y-86165475D01*
X119806758Y-86386877D01*
X119808661Y-86397672D01*
X119866182Y-86612344D01*
X119869928Y-86622636D01*
X119963852Y-86824059D01*
X119969335Y-86833554D01*
X120009559Y-86891000D01*
X120020036Y-86899375D01*
X120033483Y-86892307D01*
X120752978Y-86172812D01*
X120759356Y-86161132D01*
X121489408Y-86161132D01*
X121489539Y-86162965D01*
X121493790Y-86169580D01*
X122217238Y-86893028D01*
X122229013Y-86899458D01*
X122241028Y-86890162D01*
X122280665Y-86833554D01*
X122286148Y-86824059D01*
X122380072Y-86622636D01*
X122383818Y-86612344D01*
X122441339Y-86397672D01*
X122443242Y-86386877D01*
X122462613Y-86165475D01*
X122462613Y-86154525D01*
X122461833Y-86145613D01*
X130254638Y-86145613D01*
X130271467Y-86346018D01*
X130326901Y-86539338D01*
X130418828Y-86718210D01*
X130422651Y-86723034D01*
X130422654Y-86723038D01*
X130450888Y-86758660D01*
X130543748Y-86875819D01*
X130548442Y-86879814D01*
X130571524Y-86899458D01*
X130696901Y-87006163D01*
X130702279Y-87009169D01*
X130702281Y-87009170D01*
X130784678Y-87055220D01*
X130872456Y-87104277D01*
X131063723Y-87166424D01*
X131263420Y-87190236D01*
X131269555Y-87189764D01*
X131269557Y-87189764D01*
X131457796Y-87175280D01*
X131457800Y-87175279D01*
X131463938Y-87174807D01*
X131500782Y-87164520D01*
X131651696Y-87122384D01*
X131651700Y-87122383D01*
X131657640Y-87120724D01*
X131663144Y-87117944D01*
X131663146Y-87117943D01*
X131831646Y-87032828D01*
X131831648Y-87032827D01*
X131837149Y-87030048D01*
X131995627Y-86906232D01*
X132127037Y-86753992D01*
X132147364Y-86718210D01*
X132223329Y-86584488D01*
X132223331Y-86584484D01*
X132226374Y-86579127D01*
X132258114Y-86483712D01*
X132287909Y-86394145D01*
X132287910Y-86394142D01*
X132289854Y-86388297D01*
X132315060Y-86188772D01*
X132315462Y-86160000D01*
X132295837Y-85959849D01*
X132237710Y-85767321D01*
X132227789Y-85748663D01*
X132146190Y-85595197D01*
X132146189Y-85595195D01*
X132143294Y-85589751D01*
X132059041Y-85486446D01*
X132020081Y-85438676D01*
X132020078Y-85438673D01*
X132016186Y-85433901D01*
X132008682Y-85427693D01*
X131865977Y-85309637D01*
X131865974Y-85309635D01*
X131861227Y-85305708D01*
X131684320Y-85210055D01*
X131588261Y-85180320D01*
X131498090Y-85152407D01*
X131498087Y-85152406D01*
X131492203Y-85150585D01*
X131486078Y-85149941D01*
X131486077Y-85149941D01*
X131298322Y-85130207D01*
X131298321Y-85130207D01*
X131292194Y-85129563D01*
X131208056Y-85137220D01*
X131098050Y-85147231D01*
X131098047Y-85147232D01*
X131091911Y-85147790D01*
X131086005Y-85149528D01*
X131086001Y-85149529D01*
X130943715Y-85191407D01*
X130898982Y-85204572D01*
X130720757Y-85297746D01*
X130564024Y-85423763D01*
X130434752Y-85577823D01*
X130431788Y-85583215D01*
X130431785Y-85583219D01*
X130369034Y-85697364D01*
X130337866Y-85754058D01*
X130336005Y-85759925D01*
X130336004Y-85759927D01*
X130284487Y-85922328D01*
X130277056Y-85945755D01*
X130254638Y-86145613D01*
X122461833Y-86145613D01*
X122443242Y-85933123D01*
X122441339Y-85922328D01*
X122383818Y-85707656D01*
X122380072Y-85697364D01*
X122286148Y-85495941D01*
X122280665Y-85486446D01*
X122240441Y-85429000D01*
X122229964Y-85420625D01*
X122216517Y-85427693D01*
X121497022Y-86147188D01*
X121489408Y-86161132D01*
X120759356Y-86161132D01*
X120760592Y-86158868D01*
X120760461Y-86157035D01*
X120756210Y-86150420D01*
X120032762Y-85426972D01*
X120020987Y-85420542D01*
X120008972Y-85429838D01*
X119969335Y-85486446D01*
X119963852Y-85495941D01*
X119869928Y-85697364D01*
X119866182Y-85707656D01*
X119808661Y-85922328D01*
X119806758Y-85933123D01*
X119787387Y-86154525D01*
X119787387Y-86165475D01*
X105915386Y-86165475D01*
X105915462Y-86160000D01*
X105895837Y-85959849D01*
X105837710Y-85767321D01*
X105827789Y-85748663D01*
X105746190Y-85595197D01*
X105746189Y-85595195D01*
X105743294Y-85589751D01*
X105659041Y-85486446D01*
X105620081Y-85438676D01*
X105620078Y-85438673D01*
X105616186Y-85433901D01*
X105608682Y-85427693D01*
X105465977Y-85309637D01*
X105465974Y-85309635D01*
X105461227Y-85305708D01*
X105284320Y-85210055D01*
X105188261Y-85180320D01*
X105098090Y-85152407D01*
X105098087Y-85152406D01*
X105092203Y-85150585D01*
X105086078Y-85149941D01*
X105086077Y-85149941D01*
X104898322Y-85130207D01*
X104898321Y-85130207D01*
X104892194Y-85129563D01*
X104808056Y-85137220D01*
X104698050Y-85147231D01*
X104698047Y-85147232D01*
X104691911Y-85147790D01*
X104686005Y-85149528D01*
X104686001Y-85149529D01*
X104543715Y-85191407D01*
X104498982Y-85204572D01*
X104320757Y-85297746D01*
X104164024Y-85423763D01*
X104034752Y-85577823D01*
X104031788Y-85583215D01*
X104031785Y-85583219D01*
X103969034Y-85697364D01*
X103937866Y-85754058D01*
X103936005Y-85759925D01*
X103936004Y-85759927D01*
X103884487Y-85922328D01*
X103877056Y-85945755D01*
X103854638Y-86145613D01*
X96061833Y-86145613D01*
X96043242Y-85933123D01*
X96041339Y-85922328D01*
X95983818Y-85707656D01*
X95980072Y-85697364D01*
X95886148Y-85495941D01*
X95880665Y-85486446D01*
X95840441Y-85429000D01*
X95829964Y-85420625D01*
X95816517Y-85427693D01*
X95097022Y-86147188D01*
X95089408Y-86161132D01*
X94359356Y-86161132D01*
X94360592Y-86158868D01*
X94360461Y-86157035D01*
X94356210Y-86150420D01*
X93632762Y-85426972D01*
X93620987Y-85420542D01*
X93608972Y-85429838D01*
X93569335Y-85486446D01*
X93563852Y-85495941D01*
X93469928Y-85697364D01*
X93466182Y-85707656D01*
X93408661Y-85922328D01*
X93406758Y-85933123D01*
X93387387Y-86154525D01*
X93387387Y-86165475D01*
X92000000Y-86165475D01*
X92000000Y-85055036D01*
X93985625Y-85055036D01*
X93992693Y-85068483D01*
X94712188Y-85787978D01*
X94726132Y-85795592D01*
X94727965Y-85795461D01*
X94734580Y-85791210D01*
X95458028Y-85067762D01*
X95464458Y-85055987D01*
X95463722Y-85055036D01*
X120385625Y-85055036D01*
X120392693Y-85068483D01*
X121112188Y-85787978D01*
X121126132Y-85795592D01*
X121127965Y-85795461D01*
X121134580Y-85791210D01*
X121858028Y-85067762D01*
X121864458Y-85055987D01*
X121855162Y-85043972D01*
X121798554Y-85004335D01*
X121789059Y-84998852D01*
X121587636Y-84904928D01*
X121577344Y-84901182D01*
X121362672Y-84843661D01*
X121351877Y-84841758D01*
X121130475Y-84822387D01*
X121119525Y-84822387D01*
X120898123Y-84841758D01*
X120887328Y-84843661D01*
X120672656Y-84901182D01*
X120662364Y-84904928D01*
X120460941Y-84998852D01*
X120451446Y-85004335D01*
X120394000Y-85044559D01*
X120385625Y-85055036D01*
X95463722Y-85055036D01*
X95455162Y-85043972D01*
X95398554Y-85004335D01*
X95389059Y-84998852D01*
X95187636Y-84904928D01*
X95177344Y-84901182D01*
X94962672Y-84843661D01*
X94951877Y-84841758D01*
X94730475Y-84822387D01*
X94719525Y-84822387D01*
X94498123Y-84841758D01*
X94487328Y-84843661D01*
X94272656Y-84901182D01*
X94262364Y-84904928D01*
X94060941Y-84998852D01*
X94051446Y-85004335D01*
X93994000Y-85044559D01*
X93985625Y-85055036D01*
X92000000Y-85055036D01*
X92000000Y-84700833D01*
X92002869Y-84674100D01*
X92052441Y-84445773D01*
X92057500Y-84428516D01*
X92150864Y-84177921D01*
X92158329Y-84161561D01*
X92286411Y-83926816D01*
X92296129Y-83911685D01*
X92456324Y-83697567D01*
X92468097Y-83683973D01*
X92657145Y-83494837D01*
X92670733Y-83483058D01*
X92884779Y-83322761D01*
X92899906Y-83313036D01*
X93134593Y-83184843D01*
X93150950Y-83177371D01*
X93401493Y-83083895D01*
X93418743Y-83078828D01*
X93680047Y-83021969D01*
X93697846Y-83019409D01*
X93964667Y-83000321D01*
X93973658Y-83000000D01*
X136400000Y-83000000D01*
X136400000Y-82999985D01*
X136400102Y-82999970D01*
X141204211Y-83000003D01*
G37*
%TD.AperFunction*%
%TA.AperFunction,Conductor*%
G36*
X120808188Y-101751078D02*
G01*
X120912963Y-101764872D01*
X120944735Y-101773385D01*
X121034674Y-101810639D01*
X121063160Y-101827086D01*
X121140393Y-101886349D01*
X121163651Y-101909607D01*
X121222914Y-101986840D01*
X121239361Y-102015326D01*
X121276615Y-102105265D01*
X121285128Y-102137037D01*
X121298922Y-102241812D01*
X121300000Y-102258258D01*
X121300000Y-103291742D01*
X121298922Y-103308188D01*
X121285128Y-103412963D01*
X121276615Y-103444735D01*
X121239361Y-103534674D01*
X121222914Y-103563160D01*
X121163651Y-103640393D01*
X121140393Y-103663651D01*
X121063160Y-103722914D01*
X121034674Y-103739361D01*
X120944735Y-103776615D01*
X120912963Y-103785128D01*
X120808188Y-103798922D01*
X120791742Y-103800000D01*
X119608258Y-103800000D01*
X119591812Y-103798922D01*
X119487037Y-103785128D01*
X119455265Y-103776615D01*
X119365326Y-103739361D01*
X119336840Y-103722914D01*
X119259607Y-103663651D01*
X119236349Y-103640393D01*
X119177086Y-103563160D01*
X119160639Y-103534674D01*
X119123385Y-103444735D01*
X119114872Y-103412963D01*
X119101078Y-103308188D01*
X119100000Y-103291742D01*
X119100000Y-102258258D01*
X119101078Y-102241812D01*
X119114872Y-102137037D01*
X119123385Y-102105265D01*
X119160639Y-102015326D01*
X119177086Y-101986840D01*
X119236349Y-101909607D01*
X119259607Y-101886349D01*
X119336840Y-101827086D01*
X119365326Y-101810639D01*
X119455265Y-101773385D01*
X119487037Y-101764872D01*
X119591812Y-101751078D01*
X119608258Y-101750000D01*
X120791742Y-101750000D01*
X120808188Y-101751078D01*
G37*
%TD.AperFunction*%
%TA.AperFunction,Conductor*%
G36*
X126308188Y-97551078D02*
G01*
X126412963Y-97564872D01*
X126444735Y-97573385D01*
X126534674Y-97610639D01*
X126563160Y-97627086D01*
X126640393Y-97686349D01*
X126663651Y-97709607D01*
X126722914Y-97786840D01*
X126739361Y-97815326D01*
X126776615Y-97905265D01*
X126785128Y-97937037D01*
X126798922Y-98041812D01*
X126800000Y-98058258D01*
X126800000Y-99091742D01*
X126798922Y-99108188D01*
X126785128Y-99212963D01*
X126776615Y-99244735D01*
X126739361Y-99334674D01*
X126722914Y-99363160D01*
X126663651Y-99440393D01*
X126640393Y-99463651D01*
X126563160Y-99522914D01*
X126534674Y-99539361D01*
X126444735Y-99576615D01*
X126412963Y-99585128D01*
X126308188Y-99598922D01*
X126291742Y-99600000D01*
X125108258Y-99600000D01*
X125091812Y-99598922D01*
X124987037Y-99585128D01*
X124955265Y-99576615D01*
X124865326Y-99539361D01*
X124836840Y-99522914D01*
X124759607Y-99463651D01*
X124736349Y-99440393D01*
X124677086Y-99363160D01*
X124660639Y-99334674D01*
X124623385Y-99244735D01*
X124614872Y-99212963D01*
X124601078Y-99108188D01*
X124600000Y-99091742D01*
X124600000Y-98058258D01*
X124601078Y-98041812D01*
X124614872Y-97937037D01*
X124623385Y-97905265D01*
X124660639Y-97815326D01*
X124677086Y-97786840D01*
X124736349Y-97709607D01*
X124759607Y-97686349D01*
X124836840Y-97627086D01*
X124865326Y-97610639D01*
X124955265Y-97573385D01*
X124987037Y-97564872D01*
X125091812Y-97551078D01*
X125108258Y-97550000D01*
X126291742Y-97550000D01*
X126308188Y-97551078D01*
G37*
%TD.AperFunction*%
M02*
