%FSLAX45Y45*%
G04 Gerber Fmt 4.5, Leading zero omitted, Abs format (unit mm)*
G04 Created by KiCad (PCBNEW (6.0.1)) date 2022-08-06 00:31:24*
%MOMM*%
%LPD*%
G01*
G04 APERTURE LIST*
%TA.AperFunction,Profile*%
%ADD10C,0.100000*%
%TD*%
%ADD11C,0.200000*%
G04 APERTURE END LIST*
D10*
X9100000Y-13500000D02*
G75*
G03*
X9000000Y-13500000I-50000J0D01*
G01*
X9000000Y-13900000D02*
X9000000Y-13500000D01*
X9100000Y-13900000D02*
X9100000Y-13500000D01*
X9230000Y-14320000D02*
X9100000Y-13900000D01*
X9130000Y-14320000D02*
X9000000Y-13900000D01*
X9130000Y-14800000D02*
G75*
G03*
X9230000Y-14800000I50000J0D01*
G01*
X9130000Y-14320000D02*
X9130000Y-14800000D01*
X9230000Y-14800000D02*
X9230000Y-14320000D01*
X9000000Y-8600000D02*
G75*
G03*
X8900000Y-8600000I-50000J0D01*
G01*
X8900000Y-10200000D02*
G75*
G03*
X9000000Y-10200000I50000J0D01*
G01*
X9000000Y-8600000D02*
X9000000Y-10200000D01*
X8900000Y-10200000D02*
X8900000Y-8600000D01*
X14500000Y-15450000D02*
X6000000Y-15450000D01*
X6000000Y-15450000D02*
X6000000Y-6000000D01*
X6000000Y-6000000D02*
X14500000Y-6000000D01*
X14500000Y-6000000D02*
X14500000Y-15450000D01*
D11*
X6252619Y-15765476D02*
X6252619Y-15565476D01*
X6300238Y-15565476D01*
X6328809Y-15575000D01*
X6347857Y-15594048D01*
X6357381Y-15613095D01*
X6366905Y-15651190D01*
X6366905Y-15679762D01*
X6357381Y-15717857D01*
X6347857Y-15736905D01*
X6328809Y-15755952D01*
X6300238Y-15765476D01*
X6252619Y-15765476D01*
X6452619Y-15765476D02*
X6452619Y-15632143D01*
X6452619Y-15670238D02*
X6462143Y-15651190D01*
X6471667Y-15641667D01*
X6490714Y-15632143D01*
X6509762Y-15632143D01*
X6576428Y-15765476D02*
X6576428Y-15632143D01*
X6576428Y-15565476D02*
X6566905Y-15575000D01*
X6576428Y-15584524D01*
X6585952Y-15575000D01*
X6576428Y-15565476D01*
X6576428Y-15584524D01*
X6700238Y-15765476D02*
X6681190Y-15755952D01*
X6671667Y-15736905D01*
X6671667Y-15565476D01*
X6805000Y-15765476D02*
X6785952Y-15755952D01*
X6776428Y-15736905D01*
X6776428Y-15565476D01*
X7033571Y-15765476D02*
X7033571Y-15565476D01*
X7100238Y-15708333D01*
X7166905Y-15565476D01*
X7166905Y-15765476D01*
X7347857Y-15765476D02*
X7347857Y-15660714D01*
X7338333Y-15641667D01*
X7319286Y-15632143D01*
X7281190Y-15632143D01*
X7262143Y-15641667D01*
X7347857Y-15755952D02*
X7328809Y-15765476D01*
X7281190Y-15765476D01*
X7262143Y-15755952D01*
X7252619Y-15736905D01*
X7252619Y-15717857D01*
X7262143Y-15698809D01*
X7281190Y-15689286D01*
X7328809Y-15689286D01*
X7347857Y-15679762D01*
X7443095Y-15632143D02*
X7443095Y-15832143D01*
X7443095Y-15641667D02*
X7462143Y-15632143D01*
X7500238Y-15632143D01*
X7519286Y-15641667D01*
X7528809Y-15651190D01*
X7538333Y-15670238D01*
X7538333Y-15727381D01*
X7528809Y-15746428D01*
X7519286Y-15755952D01*
X7500238Y-15765476D01*
X7462143Y-15765476D01*
X7443095Y-15755952D01*
X7624048Y-15746428D02*
X7633571Y-15755952D01*
X7624048Y-15765476D01*
X7614524Y-15755952D01*
X7624048Y-15746428D01*
X7624048Y-15765476D01*
X7624048Y-15641667D02*
X7633571Y-15651190D01*
X7624048Y-15660714D01*
X7614524Y-15651190D01*
X7624048Y-15641667D01*
X7624048Y-15660714D01*
M02*
