%TF.GenerationSoftware,KiCad,Pcbnew,(6.0.1)*%
%TF.CreationDate,2023-01-03T01:15:44-07:00*%
%TF.ProjectId,main_board,6d61696e-5f62-46f6-9172-642e6b696361,1.4*%
%TF.SameCoordinates,Original*%
%TF.FileFunction,Soldermask,Bot*%
%TF.FilePolarity,Negative*%
%FSLAX46Y46*%
G04 Gerber Fmt 4.6, Leading zero omitted, Abs format (unit mm)*
G04 Created by KiCad (PCBNEW (6.0.1)) date 2023-01-03 01:15:44*
%MOMM*%
%LPD*%
G01*
G04 APERTURE LIST*
%ADD10C,1.800000*%
%ADD11R,1.700000X1.700000*%
%ADD12O,1.700000X1.700000*%
%ADD13R,1.000000X1.000000*%
%ADD14O,1.000000X1.000000*%
%ADD15R,2.600000X2.600000*%
%ADD16C,2.600000*%
%ADD17R,2.000000X2.000000*%
%ADD18C,2.000000*%
%ADD19C,2.400000*%
%ADD20C,1.600000*%
%ADD21R,1.650000X1.650000*%
%ADD22C,1.650000*%
%ADD23C,1.524000*%
%ADD24O,1.600000X1.600000*%
%ADD25C,1.350000*%
G04 APERTURE END LIST*
D10*
X72255000Y-129150000D03*
X70955000Y-136650000D03*
D11*
X97910000Y-124760000D03*
D12*
X97910000Y-127300000D03*
D13*
X138800000Y-129400000D03*
D14*
X138800000Y-128130000D03*
X138800000Y-126860000D03*
D11*
X128200000Y-132125000D03*
D12*
X128200000Y-134665000D03*
X125660000Y-132125000D03*
X125660000Y-134665000D03*
X123120000Y-132125000D03*
X123120000Y-134665000D03*
D15*
X123800000Y-150100000D03*
D16*
X123800000Y-145020000D03*
D11*
X135330000Y-136935000D03*
D12*
X137870000Y-136935000D03*
X135330000Y-139475000D03*
X137870000Y-139475000D03*
X135330000Y-142015000D03*
X137870000Y-142015000D03*
X135330000Y-144555000D03*
X137870000Y-144555000D03*
X135330000Y-147095000D03*
X137870000Y-147095000D03*
D17*
X65892500Y-96357500D03*
D18*
X65892500Y-86357500D03*
X78392500Y-96357500D03*
X78392500Y-86357500D03*
D19*
X81600000Y-147900000D03*
X86600000Y-147900000D03*
D20*
X133850000Y-96300000D03*
X131350000Y-96300000D03*
D19*
X78100000Y-119600000D03*
X63100000Y-119600000D03*
X76300000Y-79200000D03*
X76300000Y-64200000D03*
D11*
X70750000Y-64225000D03*
D15*
X105737500Y-97520000D03*
D16*
X105737500Y-92440000D03*
D19*
X65200000Y-64200000D03*
X65200000Y-79200000D03*
D21*
X104885000Y-65840000D03*
D22*
X99805000Y-65840000D03*
X94725000Y-86160000D03*
X104885000Y-86160000D03*
D21*
X131285000Y-65840000D03*
D22*
X126205000Y-65840000D03*
X121125000Y-86160000D03*
X131285000Y-86160000D03*
D23*
X84100000Y-90100000D03*
X84100000Y-97600000D03*
D20*
X65720000Y-113300000D03*
D24*
X75880000Y-113300000D03*
D25*
X67400000Y-108500000D03*
X67400000Y-101000000D03*
D23*
X97000000Y-92100000D03*
X94460000Y-92100000D03*
X133850000Y-90800000D03*
X131310000Y-90800000D03*
D15*
X81405000Y-137985000D03*
D16*
X81405000Y-132905000D03*
X81405000Y-127825000D03*
D11*
X102725000Y-108700000D03*
D12*
X102725000Y-111240000D03*
X100185000Y-108700000D03*
X100185000Y-111240000D03*
X97645000Y-108700000D03*
X97645000Y-111240000D03*
D20*
X96700000Y-97300000D03*
X94200000Y-97300000D03*
M02*
