M48
; DRILL file {KiCad (6.0.1)} date Tue Jan  3 01:15:40 2023
; FORMAT={-:-/ absolute / metric / decimal}
; #@! TF.CreationDate,2023-01-03T01:15:40-07:00
; #@! TF.GenerationSoftware,Kicad,Pcbnew,(6.0.1)
; #@! TF.FileFunction,Plated,1,2,PTH
FMAT,2
METRIC
; #@! TA.AperFunction,Plated,PTH,ViaDrill
T1C0.400
; #@! TA.AperFunction,Plated,PTH,ComponentDrill
T2C0.650
; #@! TA.AperFunction,Plated,PTH,ComponentDrill
T3C0.762
; #@! TA.AperFunction,Plated,PTH,ComponentDrill
T4C0.800
; #@! TA.AperFunction,Plated,PTH,ComponentDrill
T5C0.900
; #@! TA.AperFunction,Plated,PTH,ComponentDrill
T6C1.000
; #@! TA.AperFunction,Plated,PTH,ComponentDrill
T7C1.100
; #@! TA.AperFunction,Plated,PTH,ComponentDrill
T8C1.200
; #@! TA.AperFunction,Plated,PTH,ComponentDrill
T9C1.300
%
G90
G05
T1
X95.8Y-134.2
X96.267Y-120.01
X97.867Y-121.21
X100.517Y-121.61
X102.218Y-118.01
X102.218Y-120.56
X102.6Y-128.1
X104.4Y-123.5
X106.542Y-108.51
X106.542Y-111.31
X106.768Y-123.7
X107.117Y-119.46
X108.917Y-115.51
X109.017Y-135.66
X111.917Y-135.66
X112.233Y-100.85
X112.517Y-110.81
X112.7Y-121.8
X112.8Y-123.4
X112.843Y-113.61
X113.017Y-133.31
X113.917Y-108.31
X114.017Y-116.31
X114.468Y-103.275
X114.667Y-131.76
X115.25Y-100.85
X115.317Y-117.61
X115.718Y-127.21
X115.718Y-128.81
X115.817Y-134.91
X115.817Y-137.61
X116.493Y-130.31
X117.25Y-99.2
X117.25Y-102.0
X117.567Y-103.275
X118.05Y-111.601
X118.167Y-127.21
X118.218Y-113.01
X118.218Y-114.21
X118.218Y-128.81
X118.218Y-130.31
X119.251Y-110.4
X120.067Y-113.01
X120.367Y-128.01
X120.367Y-130.01
X121.917Y-113.01
X121.917Y-114.21
X122.567Y-128.01
X122.567Y-130.01
X124.442Y-128.01
X124.442Y-130.01
X124.725Y-140.4
X124.817Y-110.06
X125.1Y-98.6
X126.3Y-98.6
X126.317Y-128.01
X126.317Y-130.01
X126.517Y-117.16
X126.8Y-101.5
X126.8Y-102.55
X127.567Y-115.9
X127.9Y-108.65
X127.9Y-109.7
X128.767Y-115.9
X129.042Y-129.06
X130.267Y-108.96
X130.767Y-128.059
X130.868Y-120.51
X130.868Y-123.66
X131.968Y-108.81
X132.175Y-129.111
X132.175Y-131.01
X132.817Y-112.41
X134.017Y-113.76
X134.718Y-101.16
X135.167Y-104.76
X135.167Y-107.06
X135.517Y-120.46
X137.517Y-101.16
T2
X138.8Y-126.86
X138.8Y-128.13
X138.8Y-129.4
T3
X94.46Y-92.1
X97.0Y-92.1
X131.31Y-90.8
X133.85Y-90.8
T4
X65.72Y-113.3
X75.88Y-113.3
X94.2Y-97.3
X96.7Y-97.3
X131.35Y-96.3
X133.85Y-96.3
T5
X65.892Y-86.358
X65.892Y-96.358
X67.4Y-101.0
X67.4Y-108.5
X70.955Y-136.65
X72.255Y-129.15
X78.392Y-86.358
X78.392Y-96.358
X84.1Y-90.1
X84.1Y-97.6
T6
X70.75Y-64.225
X97.645Y-108.7
X97.645Y-111.24
X97.91Y-124.76
X97.91Y-127.3
X100.185Y-108.7
X100.185Y-111.24
X102.725Y-108.7
X102.725Y-111.24
X123.12Y-132.125
X123.12Y-134.665
X125.66Y-132.125
X125.66Y-134.665
X128.2Y-132.125
X128.2Y-134.665
X135.33Y-136.935
X135.33Y-139.475
X135.33Y-142.015
X135.33Y-144.555
X135.33Y-147.095
X137.87Y-136.935
X137.87Y-139.475
X137.87Y-142.015
X137.87Y-144.555
X137.87Y-147.095
T7
X94.725Y-86.16
X99.805Y-65.84
X104.885Y-65.84
X104.885Y-86.16
X121.125Y-86.16
X126.205Y-65.84
X131.285Y-65.84
X131.285Y-86.16
T8
X63.1Y-119.6
X65.2Y-64.2
X65.2Y-79.2
X76.3Y-64.2
X76.3Y-79.2
X78.1Y-119.6
X81.6Y-147.9
X86.6Y-147.9
T9
X81.405Y-127.825
X81.405Y-132.905
X81.405Y-137.985
X105.737Y-92.44
X105.737Y-97.52
X123.8Y-145.02
X123.8Y-150.1
T0
M30
